<svg class="main-svg" xmlns="http://www.w3.org/2000/svg" xmlns:xlink="http://www.w3.org/1999/xlink" width="1280" height="600" style="" viewBox="0 0 1280 600"><rect x="0" y="0" width="1280" height="600" style="fill: rgb(255, 255, 255); fill-opacity: 1;"/><defs id="defs-bafbdb"><g class="clips"><clipPath id="clipbafbdbxyplot" class="plotclip"><rect width="1001" height="495"/></clipPath><clipPath class="axesclip" id="clipbafbdbx"><rect x="50" y="0" width="1001" height="600"/></clipPath><clipPath class="axesclip" id="clipbafbdby"><rect x="0" y="50" width="1280" height="495"/></clipPath><clipPath class="axesclip" id="clipbafbdbxy"><rect x="50" y="50" width="1001" height="495"/></clipPath></g><g class="gradients"/><g class="patterns"/></defs><g class="bglayer"/><g class="layer-below"><g class="imagelayer"/><g class="shapelayer"/></g><g class="cartesianlayer"><g class="subplot xy"><g class="layer-subplot"><g class="shapelayer"/><g class="imagelayer"/></g><g class="minor-gridlayer"><g class="x"/><g class="y"/></g><g class="gridlayer"><g class="x"/><g class="y"/></g><g class="zerolinelayer"/><path class="xlines-below"/><path class="ylines-below"/><g class="overlines-below"/><g class="xaxislayer-below"/><g class="yaxislayer-below"/><g class="overaxes-below"/><g class="plot" transform="translate(50,50)" clip-path="url(#clipbafbdbxyplot)"><g class="barlayer mlayer"><g class="trace bars" style="opacity: 0.6;"><g class="points"><g class="point"><path d="M4.55,495V495H40.95V495Z" style="vector-effect: none; opacity: 1; stroke-width: 0.5px; fill: rgb(46, 46, 46); fill-opacity: 1; stroke: rgb(229, 236, 246); stroke-opacity: 1;"/></g><g class="point"><path d="M50.05,495V495H86.45V495Z" style="vector-effect: none; opacity: 1; stroke-width: 0.5px; fill: rgb(46, 46, 46); fill-opacity: 1; stroke: rgb(229, 236, 246); stroke-opacity: 1;"/></g><g class="point"><path d="M95.55,495V495H131.95V495Z" style="vector-effect: none; opacity: 1; stroke-width: 0.5px; fill: rgb(46, 46, 46); fill-opacity: 1; stroke: rgb(229, 236, 246); stroke-opacity: 1;"/></g><g class="point"><path d="M141.05,495V495H177.45V495Z" style="vector-effect: none; opacity: 1; stroke-width: 0.5px; fill: rgb(46, 46, 46); fill-opacity: 1; stroke: rgb(229, 236, 246); stroke-opacity: 1;"/></g><g class="point"><path d="M186.55,495V259.29H222.95V495Z" style="vector-effect: none; opacity: 1; stroke-width: 0.5px; fill: rgb(46, 46, 46); fill-opacity: 1; stroke: rgb(229, 236, 246); stroke-opacity: 1;"/></g><g class="point"><path d="M232.05,495V495H268.45V495Z" style="vector-effect: none; opacity: 1; stroke-width: 0.5px; fill: rgb(46, 46, 46); fill-opacity: 1; stroke: rgb(229, 236, 246); stroke-opacity: 1;"/></g><g class="point"><path d="M277.55,495V495H313.95V495Z" style="vector-effect: none; opacity: 1; stroke-width: 0.5px; fill: rgb(46, 46, 46); fill-opacity: 1; stroke: rgb(229, 236, 246); stroke-opacity: 1;"/></g><g class="point"><path d="M323.05,495V259.29H359.45V495Z" style="vector-effect: none; opacity: 1; stroke-width: 0.5px; fill: rgb(46, 46, 46); fill-opacity: 1; stroke: rgb(229, 236, 246); stroke-opacity: 1;"/></g><g class="point"><path d="M368.55,495V23.57H404.95V495Z" style="vector-effect: none; opacity: 1; stroke-width: 0.5px; fill: rgb(46, 46, 46); fill-opacity: 1; stroke: rgb(229, 236, 246); stroke-opacity: 1;"/></g><g class="point"><path d="M414.05,495V259.29H450.45V495Z" style="vector-effect: none; opacity: 1; stroke-width: 0.5px; fill: rgb(46, 46, 46); fill-opacity: 1; stroke: rgb(229, 236, 246); stroke-opacity: 1;"/></g><g class="point"><path d="M459.55,495V259.29H495.95V495Z" style="vector-effect: none; opacity: 1; stroke-width: 0.5px; fill: rgb(46, 46, 46); fill-opacity: 1; stroke: rgb(229, 236, 246); stroke-opacity: 1;"/></g><g class="point"><path d="M505.05,495V259.29H541.45V495Z" style="vector-effect: none; opacity: 1; stroke-width: 0.5px; fill: rgb(46, 46, 46); fill-opacity: 1; stroke: rgb(229, 236, 246); stroke-opacity: 1;"/></g></g></g><g class="trace bars" style="opacity: 0.6;"><g class="points"><g class="point"><path d="M4.55,495V495H40.95V495Z" style="vector-effect: none; opacity: 1; stroke-width: 0.5px; fill: rgb(72, 202, 228); fill-opacity: 1; stroke: rgb(229, 236, 246); stroke-opacity: 1;"/></g><g class="point"><path d="M50.05,495V495H86.45V495Z" style="vector-effect: none; opacity: 1; stroke-width: 0.5px; fill: rgb(72, 202, 228); fill-opacity: 1; stroke: rgb(229, 236, 246); stroke-opacity: 1;"/></g><g class="point"><path d="M95.55,495V495H131.95V495Z" style="vector-effect: none; opacity: 1; stroke-width: 0.5px; fill: rgb(72, 202, 228); fill-opacity: 1; stroke: rgb(229, 236, 246); stroke-opacity: 1;"/></g><g class="point"><path d="M141.05,495V495H177.45V495Z" style="vector-effect: none; opacity: 1; stroke-width: 0.5px; fill: rgb(72, 202, 228); fill-opacity: 1; stroke: rgb(229, 236, 246); stroke-opacity: 1;"/></g><g class="point"><path d="M186.55,495V495H222.95V495Z" style="vector-effect: none; opacity: 1; stroke-width: 0.5px; fill: rgb(72, 202, 228); fill-opacity: 1; stroke: rgb(229, 236, 246); stroke-opacity: 1;"/></g><g class="point"><path d="M232.05,495V495H268.45V495Z" style="vector-effect: none; opacity: 1; stroke-width: 0.5px; fill: rgb(72, 202, 228); fill-opacity: 1; stroke: rgb(229, 236, 246); stroke-opacity: 1;"/></g><g class="point"><path d="M277.55,495V495H313.95V495Z" style="vector-effect: none; opacity: 1; stroke-width: 0.5px; fill: rgb(72, 202, 228); fill-opacity: 1; stroke: rgb(229, 236, 246); stroke-opacity: 1;"/></g><g class="point"><path d="M323.05,495V259.29H359.45V495Z" style="vector-effect: none; opacity: 1; stroke-width: 0.5px; fill: rgb(72, 202, 228); fill-opacity: 1; stroke: rgb(229, 236, 246); stroke-opacity: 1;"/></g><g class="point"><path d="M368.55,495V259.29H404.95V495Z" style="vector-effect: none; opacity: 1; stroke-width: 0.5px; fill: rgb(72, 202, 228); fill-opacity: 1; stroke: rgb(229, 236, 246); stroke-opacity: 1;"/></g><g class="point"><path d="M414.05,495V259.29H450.45V495Z" style="vector-effect: none; opacity: 1; stroke-width: 0.5px; fill: rgb(72, 202, 228); fill-opacity: 1; stroke: rgb(229, 236, 246); stroke-opacity: 1;"/></g><g class="point"><path d="M459.55,495V259.29H495.95V495Z" style="vector-effect: none; opacity: 1; stroke-width: 0.5px; fill: rgb(72, 202, 228); fill-opacity: 1; stroke: rgb(229, 236, 246); stroke-opacity: 1;"/></g><g class="point"><path d="M505.05,495V23.57H541.45V495Z" style="vector-effect: none; opacity: 1; stroke-width: 0.5px; fill: rgb(72, 202, 228); fill-opacity: 1; stroke: rgb(229, 236, 246); stroke-opacity: 1;"/></g><g class="point"><path d="M550.55,495V495H586.95V495Z" style="vector-effect: none; opacity: 1; stroke-width: 0.5px; fill: rgb(72, 202, 228); fill-opacity: 1; stroke: rgb(229, 236, 246); stroke-opacity: 1;"/></g><g class="point"><path d="M596.05,495V495H632.45V495Z" style="vector-effect: none; opacity: 1; stroke-width: 0.5px; fill: rgb(72, 202, 228); fill-opacity: 1; stroke: rgb(229, 236, 246); stroke-opacity: 1;"/></g><g class="point"><path d="M641.55,495V495H677.95V495Z" style="vector-effect: none; opacity: 1; stroke-width: 0.5px; fill: rgb(72, 202, 228); fill-opacity: 1; stroke: rgb(229, 236, 246); stroke-opacity: 1;"/></g><g class="point"><path d="M687.05,495V495H723.45V495Z" style="vector-effect: none; opacity: 1; stroke-width: 0.5px; fill: rgb(72, 202, 228); fill-opacity: 1; stroke: rgb(229, 236, 246); stroke-opacity: 1;"/></g><g class="point"><path d="M732.55,495V259.29H768.95V495Z" style="vector-effect: none; opacity: 1; stroke-width: 0.5px; fill: rgb(72, 202, 228); fill-opacity: 1; stroke: rgb(229, 236, 246); stroke-opacity: 1;"/></g></g></g><g class="trace bars" style="opacity: 0.6;"><g class="points"><g class="point"><path d="M4.55,495V495H40.95V495Z" style="vector-effect: none; opacity: 1; stroke-width: 0.5px; fill: rgb(250, 163, 7); fill-opacity: 1; stroke: rgb(229, 236, 246); stroke-opacity: 1;"/></g><g class="point"><path d="M50.05,495V495H86.45V495Z" style="vector-effect: none; opacity: 1; stroke-width: 0.5px; fill: rgb(250, 163, 7); fill-opacity: 1; stroke: rgb(229, 236, 246); stroke-opacity: 1;"/></g><g class="point"><path d="M95.55,495V495H131.95V495Z" style="vector-effect: none; opacity: 1; stroke-width: 0.5px; fill: rgb(250, 163, 7); fill-opacity: 1; stroke: rgb(229, 236, 246); stroke-opacity: 1;"/></g><g class="point"><path d="M141.05,495V495H177.45V495Z" style="vector-effect: none; opacity: 1; stroke-width: 0.5px; fill: rgb(250, 163, 7); fill-opacity: 1; stroke: rgb(229, 236, 246); stroke-opacity: 1;"/></g><g class="point"><path d="M186.55,495V495H222.95V495Z" style="vector-effect: none; opacity: 1; stroke-width: 0.5px; fill: rgb(250, 163, 7); fill-opacity: 1; stroke: rgb(229, 236, 246); stroke-opacity: 1;"/></g><g class="point"><path d="M232.05,495V495H268.45V495Z" style="vector-effect: none; opacity: 1; stroke-width: 0.5px; fill: rgb(250, 163, 7); fill-opacity: 1; stroke: rgb(229, 236, 246); stroke-opacity: 1;"/></g><g class="point"><path d="M277.55,495V495H313.95V495Z" style="vector-effect: none; opacity: 1; stroke-width: 0.5px; fill: rgb(250, 163, 7); fill-opacity: 1; stroke: rgb(229, 236, 246); stroke-opacity: 1;"/></g><g class="point"><path d="M323.05,495V495H359.45V495Z" style="vector-effect: none; opacity: 1; stroke-width: 0.5px; fill: rgb(250, 163, 7); fill-opacity: 1; stroke: rgb(229, 236, 246); stroke-opacity: 1;"/></g><g class="point"><path d="M368.55,495V495H404.95V495Z" style="vector-effect: none; opacity: 1; stroke-width: 0.5px; fill: rgb(250, 163, 7); fill-opacity: 1; stroke: rgb(229, 236, 246); stroke-opacity: 1;"/></g><g class="point"><path d="M414.05,495V259.29H450.45V495Z" style="vector-effect: none; opacity: 1; stroke-width: 0.5px; fill: rgb(250, 163, 7); fill-opacity: 1; stroke: rgb(229, 236, 246); stroke-opacity: 1;"/></g><g class="point"><path d="M459.55,495V23.57H495.95V495Z" style="vector-effect: none; opacity: 1; stroke-width: 0.5px; fill: rgb(250, 163, 7); fill-opacity: 1; stroke: rgb(229, 236, 246); stroke-opacity: 1;"/></g><g class="point"><path d="M505.05,495V259.29H541.45V495Z" style="vector-effect: none; opacity: 1; stroke-width: 0.5px; fill: rgb(250, 163, 7); fill-opacity: 1; stroke: rgb(229, 236, 246); stroke-opacity: 1;"/></g><g class="point"><path d="M550.55,495V495H586.95V495Z" style="vector-effect: none; opacity: 1; stroke-width: 0.5px; fill: rgb(250, 163, 7); fill-opacity: 1; stroke: rgb(229, 236, 246); stroke-opacity: 1;"/></g><g class="point"><path d="M596.05,495V495H632.45V495Z" style="vector-effect: none; opacity: 1; stroke-width: 0.5px; fill: rgb(250, 163, 7); fill-opacity: 1; stroke: rgb(229, 236, 246); stroke-opacity: 1;"/></g><g class="point"><path d="M641.55,495V259.29H677.95V495Z" style="vector-effect: none; opacity: 1; stroke-width: 0.5px; fill: rgb(250, 163, 7); fill-opacity: 1; stroke: rgb(229, 236, 246); stroke-opacity: 1;"/></g><g class="point"><path d="M687.05,495V495H723.45V495Z" style="vector-effect: none; opacity: 1; stroke-width: 0.5px; fill: rgb(250, 163, 7); fill-opacity: 1; stroke: rgb(229, 236, 246); stroke-opacity: 1;"/></g><g class="point"><path d="M732.55,495V259.29H768.95V495Z" style="vector-effect: none; opacity: 1; stroke-width: 0.5px; fill: rgb(250, 163, 7); fill-opacity: 1; stroke: rgb(229, 236, 246); stroke-opacity: 1;"/></g><g class="point"><path d="M778.05,495V495H814.45V495Z" style="vector-effect: none; opacity: 1; stroke-width: 0.5px; fill: rgb(250, 163, 7); fill-opacity: 1; stroke: rgb(229, 236, 246); stroke-opacity: 1;"/></g><g class="point"><path d="M823.55,495V495H859.95V495Z" style="vector-effect: none; opacity: 1; stroke-width: 0.5px; fill: rgb(250, 163, 7); fill-opacity: 1; stroke: rgb(229, 236, 246); stroke-opacity: 1;"/></g><g class="point"><path d="M869.05,495V495H905.45V495Z" style="vector-effect: none; opacity: 1; stroke-width: 0.5px; fill: rgb(250, 163, 7); fill-opacity: 1; stroke: rgb(229, 236, 246); stroke-opacity: 1;"/></g><g class="point"><path d="M914.55,495V495H950.95V495Z" style="vector-effect: none; opacity: 1; stroke-width: 0.5px; fill: rgb(250, 163, 7); fill-opacity: 1; stroke: rgb(229, 236, 246); stroke-opacity: 1;"/></g><g class="point"><path d="M960.05,495V259.29H996.45V495Z" style="vector-effect: none; opacity: 1; stroke-width: 0.5px; fill: rgb(250, 163, 7); fill-opacity: 1; stroke: rgb(229, 236, 246); stroke-opacity: 1;"/></g></g></g><g class="trace bars" style="opacity: 0.6;"><g class="points"><g class="point"><path d="M4.55,495V82.5H40.95V495Z" style="vector-effect: none; opacity: 1; stroke-width: 0.5px; fill: rgb(199, 125, 255); fill-opacity: 1; stroke: rgb(229, 236, 246); stroke-opacity: 1;"/></g><g class="point"><path d="M50.05,495V495H86.45V495Z" style="vector-effect: none; opacity: 1; stroke-width: 0.5px; fill: rgb(199, 125, 255); fill-opacity: 1; stroke: rgb(229, 236, 246); stroke-opacity: 1;"/></g><g class="point"><path d="M95.55,495V495H131.95V495Z" style="vector-effect: none; opacity: 1; stroke-width: 0.5px; fill: rgb(199, 125, 255); fill-opacity: 1; stroke: rgb(229, 236, 246); stroke-opacity: 1;"/></g><g class="point"><path d="M141.05,495V495H177.45V495Z" style="vector-effect: none; opacity: 1; stroke-width: 0.5px; fill: rgb(199, 125, 255); fill-opacity: 1; stroke: rgb(229, 236, 246); stroke-opacity: 1;"/></g><g class="point"><path d="M186.55,495V495H222.95V495Z" style="vector-effect: none; opacity: 1; stroke-width: 0.5px; fill: rgb(199, 125, 255); fill-opacity: 1; stroke: rgb(229, 236, 246); stroke-opacity: 1;"/></g><g class="point"><path d="M232.05,495V495H268.45V495Z" style="vector-effect: none; opacity: 1; stroke-width: 0.5px; fill: rgb(199, 125, 255); fill-opacity: 1; stroke: rgb(229, 236, 246); stroke-opacity: 1;"/></g><g class="point"><path d="M277.55,495V495H313.95V495Z" style="vector-effect: none; opacity: 1; stroke-width: 0.5px; fill: rgb(199, 125, 255); fill-opacity: 1; stroke: rgb(229, 236, 246); stroke-opacity: 1;"/></g><g class="point"><path d="M323.05,495V495H359.45V495Z" style="vector-effect: none; opacity: 1; stroke-width: 0.5px; fill: rgb(199, 125, 255); fill-opacity: 1; stroke: rgb(229, 236, 246); stroke-opacity: 1;"/></g><g class="point"><path d="M368.55,495V495H404.95V495Z" style="vector-effect: none; opacity: 1; stroke-width: 0.5px; fill: rgb(199, 125, 255); fill-opacity: 1; stroke: rgb(229, 236, 246); stroke-opacity: 1;"/></g><g class="point"><path d="M414.05,495V82.5H450.45V495Z" style="vector-effect: none; opacity: 1; stroke-width: 0.5px; fill: rgb(199, 125, 255); fill-opacity: 1; stroke: rgb(229, 236, 246); stroke-opacity: 1;"/></g><g class="point"><path d="M459.55,495V288.75H495.95V495Z" style="vector-effect: none; opacity: 1; stroke-width: 0.5px; fill: rgb(199, 125, 255); fill-opacity: 1; stroke: rgb(229, 236, 246); stroke-opacity: 1;"/></g><g class="point"><path d="M505.05,495V288.75H541.45V495Z" style="vector-effect: none; opacity: 1; stroke-width: 0.5px; fill: rgb(199, 125, 255); fill-opacity: 1; stroke: rgb(229, 236, 246); stroke-opacity: 1;"/></g><g class="point"><path d="M550.55,495V495H586.95V495Z" style="vector-effect: none; opacity: 1; stroke-width: 0.5px; fill: rgb(199, 125, 255); fill-opacity: 1; stroke: rgb(229, 236, 246); stroke-opacity: 1;"/></g><g class="point"><path d="M596.05,495V495H632.45V495Z" style="vector-effect: none; opacity: 1; stroke-width: 0.5px; fill: rgb(199, 125, 255); fill-opacity: 1; stroke: rgb(229, 236, 246); stroke-opacity: 1;"/></g><g class="point"><path d="M641.55,495V82.5H677.95V495Z" style="vector-effect: none; opacity: 1; stroke-width: 0.5px; fill: rgb(199, 125, 255); fill-opacity: 1; stroke: rgb(229, 236, 246); stroke-opacity: 1;"/></g></g></g></g><g class="scatterlayer mlayer"><g class="trace scatter trace1fbb8a" style="stroke-miterlimit: 2; opacity: 1;"><g class="fills"/><g class="errorbars"/><g class="lines"><path class="js-line" d="M204.75,340.13L208.07,341.24L209.72,342.62L213.04,346.95L214.7,349.85L219.67,361.14L221.33,365.64L229.61,391.71L231.27,397.31L244.53,440.08L246.19,444.71L252.82,460.9L254.48,464.33L261.11,475.6L262.77,477.84L269.4,484.76L271.06,486.03L276.03,488.93L277.69,489.62L284.32,491.2L285.98,491.32L292.61,490.75L294.26,490.34L300.89,487.45L302.55,486.38L307.53,482.18L309.18,480.42L314.16,473.86L315.81,471.22L320.79,461.82L322.44,458.17L329.07,441.02L330.73,436.12L339.02,408.54L340.68,402.56L360.57,331.78L362.23,326.71L370.52,304.02L372.17,299.91L387.09,262.23L388.75,257.29L395.38,234.72L397.04,228.35L405.33,192.87L406.98,185.31L418.59,134.98L420.25,128.95L425.22,113.96L426.88,110.15L430.19,104.53L431.85,102.76L435.17,101.34L436.82,101.68L440.14,104.39L441.8,106.71L445.11,113.07L446.77,117.03L451.74,131.37L453.4,136.78L471.63,197.48L473.29,201.7L478.26,211.78L479.92,214.21L483.24,217.57L484.9,218.49L488.21,218.87L489.87,218.35L493.18,216.03L494.84,214.3L499.81,207.37L501.47,204.67L511.42,188.93L513.08,187.03L516.39,184.43L518.05,183.86L521.36,184.41L523.02,185.61L526.34,190L527.99,193.23L531.31,201.75L532.97,207.04L534.63,212.97" style="vector-effect: none; fill: none; stroke: rgb(0, 0, 0); stroke-opacity: 1; stroke-width: 2px; opacity: 1;"/></g><g class="points"/><g class="text"/></g><g class="trace scatter trace197dcc" style="stroke-miterlimit: 2; opacity: 1;"><g class="fills"/><g class="errorbars"/><g class="lines"><path class="js-line" d="M359.31,331.12L369.25,314.84L371.24,311.91L387.15,288L389.14,284.62L399.08,265.86L401.06,261.82L416.97,230.48L418.96,227.2L424.92,218.98L426.91,216.86L430.89,213.62L432.88,212.51L436.85,211.31L438.84,211.19L442.82,211.83L444.81,212.54L450.77,215.89L452.76,217.3L470.65,230.13L472.64,231.08L478.61,232.91L480.59,233.17L486.56,232.86L488.55,232.43L496.5,229.26L498.49,228.19L520.36,215.55L522.35,214.92L528.31,214.29L530.3,214.6L534.28,216.12L536.26,217.38L540.24,221.01L542.23,223.42L548.19,233.12L550.18,237.21L556.15,252.01L558.13,257.75L566.09,284.32L568.08,291.72L581.99,348.15L583.98,356.39L595.91,403.02L597.9,410.03L605.85,435.1L607.84,440.56L615.79,459.1L617.78,462.92L623.75,472.58L625.73,475.23L631.7,481.71L633.69,483.42L639.65,487.43L641.64,488.44L649.59,491.12L651.58,491.51L659.53,492.06L661.52,491.97L669.47,490.64L671.46,490.05L679.42,486.43L681.4,485.17L687.37,480.35L689.36,478.37L695.32,471.18L697.31,468.34L703.27,458.47L705.26,454.73L713.22,437.74L715.2,433.07L737.07,381L739.06,377.23L745.03,368.1L747.02,365.9L750.99,362.9L752.98,362.14L754.97,361.89" style="vector-effect: none; fill: none; stroke: rgb(0, 106, 113); stroke-opacity: 1; stroke-width: 2px; opacity: 1;"/></g><g class="points"/><g class="text"/></g><g class="trace scatter trace7a8821" style="stroke-miterlimit: 2; opacity: 1;"><g class="fills"/><g class="errorbars"/><g class="lines"><path class="js-line" d="M447.42,280.21L458.09,254.6L460.76,248.98L468.77,234.43L471.43,230.43L476.77,223.78L479.44,221.18L484.78,217.43L487.45,216.3L492.78,215.54L495.45,215.91L500.79,218.1L503.46,219.9L508.79,224.86L511.46,227.98L519.47,239.69L522.14,244.29L530.14,259.87L532.81,265.56L546.16,296.41L548.82,302.85L567.5,346.75L570.17,352.51L580.85,373.26L583.52,377.77L591.52,389.45L594.19,392.69L602.2,400.38L604.86,402.28L610.2,405.11L612.87,406.06L618.21,407.13L620.88,407.27L628.88,406.43L631.55,405.8L642.23,402.24L644.89,401.21L660.91,395.66L663.57,394.99L674.25,393.38L676.92,393.24L687.59,393.63L690.26,393.9L719.62,397.04L722.28,397.07L738.3,396.08L740.96,395.81L756.98,394.88L759.64,395L767.65,396.15L770.32,396.84L778.32,399.97L780.99,401.37L789,406.68L791.67,408.8L802.34,418.74L805.01,421.52L839.7,458.97L842.37,461.35L853.05,469.33L855.71,470.9L863.72,474.51L866.39,475.33L874.39,476.59L877.06,476.61L885.07,475.47L887.74,474.7L895.74,471.22L898.41,469.7L906.42,464.09L909.09,461.91L919.76,451.9L922.43,449.15L951.78,418.63L954.45,416.38L962.46,410.78L965.13,409.35L973.13,406.55L975.8,406.15L978.47,406.01" style="vector-effect: none; fill: none; stroke: rgb(232, 93, 4); stroke-opacity: 1; stroke-width: 2px; opacity: 1;"/></g><g class="points"/><g class="text"/></g><g class="trace scatter trace8cdaa1" style="stroke-miterlimit: 2; opacity: 1;"><g class="fills"/><g class="errorbars"/><g class="lines"><path class="js-line" d="M22.75,381.86L29.58,382.46L33,383.21L39.83,385.56L43.24,387.16L53.49,393.43L56.9,395.97L67.15,404.66L70.57,407.85L91.06,428.58L94.47,432.11L114.96,452.14L118.38,455.17L132.04,466.06L135.46,468.46L149.12,476.72L152.53,478.45L166.2,484.18L169.61,485.34L183.27,488.99L186.69,489.69L203.76,492.18L207.18,492.51L227.67,493.6L231.09,493.66L254.99,493.15L258.41,492.94L275.49,491.24L278.9,490.74L295.98,487.25L299.39,486.31L313.06,481.58L316.47,480.13L330.13,473.07L333.55,470.97L347.21,461.16L350.62,458.34L364.29,445.63L367.7,442.11L381.36,426.8L384.78,422.7L408.69,392.26L412.1,387.81L436.01,358.08L439.42,354.21L453.09,340.19L456.5,337.11L466.75,329.04L470.16,326.76L480.41,321.21L483.82,319.81L494.07,316.92L497.48,316.4L507.73,316.06L511.15,316.35L521.39,318.28L524.81,319.25L538.47,324.43L541.88,325.99L562.38,336.5L565.79,338.31L586.28,348.36L589.7,349.81L603.36,354.68L606.78,355.67L620.44,358.7L623.85,359.27L668.25,365.73L671.67,366.65L681.91,370.2L685.33,371.68L695.58,377.04L698.99,379.14L702.41,381.41" style="vector-effect: none; fill: none; stroke: rgb(123, 44, 191); stroke-opacity: 1; stroke-width: 2px; opacity: 1;"/></g><g class="points"/><g class="text"/></g></g></g><g class="overplot"/><path class="xlines-above crisp" d="M49,545.5H1051" style="fill: none; stroke-width: 1px; stroke: rgb(0, 0, 0); stroke-opacity: 1;"/><path class="ylines-above crisp" d="M49.5,50V545" style="fill: none; stroke-width: 1px; stroke: rgb(0, 0, 0); stroke-opacity: 1;"/><g class="overlines-above"/><g class="xaxislayer-above"><g class="xtick"><text text-anchor="middle" x="0" y="560.4" transform="translate(72.75,0)" style="font-family: Helvetica; font-size: 12px; fill: rgb(51, 51, 51); fill-opacity: 1; white-space: pre; opacity: 1;">0</text></g><g class="xtick"><text text-anchor="middle" x="0" y="560.4" style="font-family: Helvetica; font-size: 12px; fill: rgb(51, 51, 51); fill-opacity: 1; white-space: pre; opacity: 1;" transform="translate(300.25,0)">5</text></g><g class="xtick"><text text-anchor="middle" x="0" y="560.4" style="font-family: Helvetica; font-size: 12px; fill: rgb(51, 51, 51); fill-opacity: 1; white-space: pre; opacity: 1;" transform="translate(527.75,0)">10</text></g><g class="xtick"><text text-anchor="middle" x="0" y="560.4" style="font-family: Helvetica; font-size: 12px; fill: rgb(51, 51, 51); fill-opacity: 1; white-space: pre; opacity: 1;" transform="translate(755.25,0)">15</text></g><g class="xtick"><text text-anchor="middle" x="0" y="560.4" style="font-family: Helvetica; font-size: 12px; fill: rgb(51, 51, 51); fill-opacity: 1; white-space: pre; opacity: 1;" transform="translate(982.75,0)">20</text></g></g><g class="yaxislayer-above"><g class="ytick"><text text-anchor="end" x="46.6" y="4.199999999999999" transform="translate(0,545)" style="font-family: Helvetica; font-size: 12px; fill: rgb(51, 51, 51); fill-opacity: 1; white-space: pre; opacity: 1;">0</text></g><g class="ytick"><text text-anchor="end" x="46.6" y="4.199999999999999" style="font-family: Helvetica; font-size: 12px; fill: rgb(51, 51, 51); fill-opacity: 1; white-space: pre; opacity: 1;" transform="translate(0,462.5)">0.05</text></g><g class="ytick"><text text-anchor="end" x="46.6" y="4.199999999999999" style="font-family: Helvetica; font-size: 12px; fill: rgb(51, 51, 51); fill-opacity: 1; white-space: pre; opacity: 1;" transform="translate(0,380)">0.1</text></g><g class="ytick"><text text-anchor="end" x="46.6" y="4.199999999999999" style="font-family: Helvetica; font-size: 12px; fill: rgb(51, 51, 51); fill-opacity: 1; white-space: pre; opacity: 1;" transform="translate(0,297.5)">0.15</text></g><g class="ytick"><text text-anchor="end" x="46.6" y="4.199999999999999" style="font-family: Helvetica; font-size: 12px; fill: rgb(51, 51, 51); fill-opacity: 1; white-space: pre; opacity: 1;" transform="translate(0,215)">0.2</text></g><g class="ytick"><text text-anchor="end" x="46.6" y="4.199999999999999" style="font-family: Helvetica; font-size: 12px; fill: rgb(51, 51, 51); fill-opacity: 1; white-space: pre; opacity: 1;" transform="translate(0,132.5)">0.25</text></g><g class="ytick"><text text-anchor="end" x="46.6" y="4.199999999999999" style="font-family: Helvetica; font-size: 12px; fill: rgb(51, 51, 51); fill-opacity: 1; white-space: pre; opacity: 1;" transform="translate(0,50)">0.3</text></g></g><g class="overaxes-above"/></g></g><g class="polarlayer"/><g class="smithlayer"/><g class="ternarylayer"/><g class="geolayer"/><g class="funnelarealayer"/><g class="pielayer"/><g class="iciclelayer"/><g class="treemaplayer"/><g class="sunburstlayer"/><g class="glimages"/><defs id="topdefs-bafbdb"><g class="clips"/><clipPath id="legendbafbdb"><rect width="197" height="162" x="0" y="0"/></clipPath></defs><g class="layer-above"><g class="imagelayer"/><g class="shapelayer"><g class="shape-group" data-index="0" clip-path="url(#clipbafbdbx)"><path data-index="0" fill-rule="evenodd" d="M573.25,545L573.25,50" style="opacity: 1; stroke: rgb(128, 128, 128); stroke-opacity: 1; fill: rgb(0, 0, 0); fill-opacity: 0; stroke-dasharray: 15px, 15px; stroke-width: 2px;"/></g></g></g><g class="infolayer"><g class="legend" pointer-events="all" transform="translate(1071.02,50)"><rect class="bg" shape-rendering="crispEdges" width="197" height="162" x="0" y="0" style="stroke: rgb(68, 68, 68); stroke-opacity: 1; fill: rgb(255, 255, 255); fill-opacity: 1; stroke-width: 0px;"/><g class="scrollbox" transform="" clip-path="url(#legendbafbdb)"><g class="groups"><g class="traces" transform="translate(0,14.5)" style="opacity: 1;"><text class="legendtext" text-anchor="start" x="40" y="4.680000000000001" style="font-family: Helvetica; font-size: 12px; fill: rgb(51, 51, 51); fill-opacity: 1; white-space: pre;">mix k10 baseline</text><g class="layers" style="opacity: 0.6;"><g class="legendfill"/><g class="legendlines"/><g class="legendsymbols"><g class="legendpoints"><path class="legendundefined" d="M6,6H-6V-6H6Z" transform="translate(20,0)" style="stroke-width: 0.5px; fill: rgb(46, 46, 46); fill-opacity: 1; stroke: rgb(229, 236, 246); stroke-opacity: 1;"/></g></g></g><rect class="legendtoggle" x="0" y="-9.5" width="191.40625" height="19" style="fill: rgb(0, 0, 0); fill-opacity: 0;"/></g><g class="traces" transform="translate(0,33.5)" style="opacity: 1;"><text class="legendtext" text-anchor="start" x="40" y="4.680000000000001" style="font-family: Helvetica; font-size: 12px; fill: rgb(51, 51, 51); fill-opacity: 1; white-space: pre;">mix k10 baseline Density</text><g class="layers" style="opacity: 1;"><g class="legendfill"/><g class="legendlines"><path class="js-line" d="M5,0h30" style="fill: none; stroke: rgb(0, 0, 0); stroke-opacity: 1; stroke-width: 2px;"/></g><g class="legendsymbols"><g class="legendpoints"/></g></g><rect class="legendtoggle" x="0" y="-9.5" width="191.40625" height="19" style="fill: rgb(0, 0, 0); fill-opacity: 0;"/></g><g class="traces" transform="translate(0,52.5)" style="opacity: 1;"><text class="legendtext" text-anchor="start" x="40" y="4.680000000000001" style="font-family: Helvetica; font-size: 12px; fill: rgb(51, 51, 51); fill-opacity: 1; white-space: pre;">mix k10 softsub AL1</text><g class="layers" style="opacity: 0.6;"><g class="legendfill"/><g class="legendlines"/><g class="legendsymbols"><g class="legendpoints"><path class="legendundefined" d="M6,6H-6V-6H6Z" transform="translate(20,0)" style="stroke-width: 0.5px; fill: rgb(72, 202, 228); fill-opacity: 1; stroke: rgb(229, 236, 246); stroke-opacity: 1;"/></g></g></g><rect class="legendtoggle" x="0" y="-9.5" width="191.40625" height="19" style="fill: rgb(0, 0, 0); fill-opacity: 0;"/></g><g class="traces" transform="translate(0,71.5)" style="opacity: 1;"><text class="legendtext" text-anchor="start" x="40" y="4.680000000000001" style="font-family: Helvetica; font-size: 12px; fill: rgb(51, 51, 51); fill-opacity: 1; white-space: pre;">mix k10 softsub AL1 Density</text><g class="layers" style="opacity: 1;"><g class="legendfill"/><g class="legendlines"><path class="js-line" d="M5,0h30" style="fill: none; stroke: rgb(0, 106, 113); stroke-opacity: 1; stroke-width: 2px;"/></g><g class="legendsymbols"><g class="legendpoints"/></g></g><rect class="legendtoggle" x="0" y="-9.5" width="191.40625" height="19" style="fill: rgb(0, 0, 0); fill-opacity: 0;"/></g><g class="traces" transform="translate(0,90.5)" style="opacity: 1;"><text class="legendtext" text-anchor="start" x="40" y="4.680000000000001" style="font-family: Helvetica; font-size: 12px; fill: rgb(51, 51, 51); fill-opacity: 1; white-space: pre;">mix k10 softsub AL2</text><g class="layers" style="opacity: 0.6;"><g class="legendfill"/><g class="legendlines"/><g class="legendsymbols"><g class="legendpoints"><path class="legendundefined" d="M6,6H-6V-6H6Z" transform="translate(20,0)" style="stroke-width: 0.5px; fill: rgb(250, 163, 7); fill-opacity: 1; stroke: rgb(229, 236, 246); stroke-opacity: 1;"/></g></g></g><rect class="legendtoggle" x="0" y="-9.5" width="191.40625" height="19" style="fill: rgb(0, 0, 0); fill-opacity: 0;"/></g><g class="traces" transform="translate(0,109.5)" style="opacity: 1;"><text class="legendtext" text-anchor="start" x="40" y="4.680000000000001" style="font-family: Helvetica; font-size: 12px; fill: rgb(51, 51, 51); fill-opacity: 1; white-space: pre;">mix k10 softsub AL2 Density</text><g class="layers" style="opacity: 1;"><g class="legendfill"/><g class="legendlines"><path class="js-line" d="M5,0h30" style="fill: none; stroke: rgb(232, 93, 4); stroke-opacity: 1; stroke-width: 2px;"/></g><g class="legendsymbols"><g class="legendpoints"/></g></g><rect class="legendtoggle" x="0" y="-9.5" width="191.40625" height="19" style="fill: rgb(0, 0, 0); fill-opacity: 0;"/></g><g class="traces" transform="translate(0,128.5)" style="opacity: 1;"><text class="legendtext" text-anchor="start" x="40" y="4.680000000000001" style="font-family: Helvetica; font-size: 12px; fill: rgb(51, 51, 51); fill-opacity: 1; white-space: pre;">mix k10 softsub AL3</text><g class="layers" style="opacity: 0.6;"><g class="legendfill"/><g class="legendlines"/><g class="legendsymbols"><g class="legendpoints"><path class="legendundefined" d="M6,6H-6V-6H6Z" transform="translate(20,0)" style="stroke-width: 0.5px; fill: rgb(199, 125, 255); fill-opacity: 1; stroke: rgb(229, 236, 246); stroke-opacity: 1;"/></g></g></g><rect class="legendtoggle" x="0" y="-9.5" width="191.40625" height="19" style="fill: rgb(0, 0, 0); fill-opacity: 0;"/></g><g class="traces" transform="translate(0,147.5)" style="opacity: 1;"><text class="legendtext" text-anchor="start" x="40" y="4.680000000000001" style="font-family: Helvetica; font-size: 12px; fill: rgb(51, 51, 51); fill-opacity: 1; white-space: pre;">mix k10 softsub AL3 Density</text><g class="layers" style="opacity: 1;"><g class="legendfill"/><g class="legendlines"><path class="js-line" d="M5,0h30" style="fill: none; stroke: rgb(123, 44, 191); stroke-opacity: 1; stroke-width: 2px;"/></g><g class="legendsymbols"><g class="legendpoints"/></g></g><rect class="legendtoggle" x="0" y="-9.5" width="191.40625" height="19" style="fill: rgb(0, 0, 0); fill-opacity: 0;"/></g></g></g><rect class="scrollbar" rx="20" ry="3" width="0" height="0" x="0" y="0" style="fill: rgb(128, 139, 164); fill-opacity: 1;"/></g><g class="g-gtitle"><text class="gtitle" x="640" y="30" text-anchor="middle" dy="0.7em" style="font-family: Helvetica; font-size: 20px; fill: rgb(51, 51, 51); opacity: 1; font-weight: normal; white-space: pre;">Distribution of cluster scores based on DiffDock Poses</text></g><g class="g-xtitle"><text class="xtitle" x="550.5" y="587.70625" text-anchor="middle" style="font-family: Helvetica; font-size: 14px; fill: rgb(51, 51, 51); opacity: 1; font-weight: normal; white-space: pre;">Prolif Score</text></g><g class="g-ytitle"><text class="ytitle" transform="rotate(-90,13.934375000000003,297.5)" x="13.934375000000003" y="297.5" text-anchor="middle" style="font-family: Helvetica; font-size: 14px; fill: rgb(51, 51, 51); opacity: 1; font-weight: normal; white-space: pre;">Rel. Frequency</text></g><g class="annotation" data-index="0" style="opacity: 1;"><g class="annotation-text-g" transform="rotate(0,680.9499999999999,60.00000000000002)"><g class="cursor-pointer" transform="translate(361,50)"><rect class="bg" x="0.5" y="0.5" width="639" height="19" style="stroke-width: 1px; stroke: rgb(0, 0, 0); stroke-opacity: 0; fill: rgb(0, 0, 0); fill-opacity: 0;"/><text class="annotation-text" text-anchor="middle" x="320" y="15" style="font-family: Helvetica; font-size: 14px; fill: rgb(51, 51, 51); fill-opacity: 1; white-space: pre;">mix k10 baseline: % > threshold = 14.3, Q25 = 08.3, Q50 = 08.9, Mean = 08.7, Q75 = 10.3, max = 11.2</text></g></g></g><g class="annotation" data-index="1" style="opacity: 1;"><g class="annotation-text-g" transform="rotate(0,669.9499999999999,79.80000000000003)"><g class="cursor-pointer" transform="translate(339,70)"><rect class="bg" x="0.5" y="0.5" width="661" height="19" style="stroke-width: 1px; stroke: rgb(0, 0, 0); stroke-opacity: 0; fill: rgb(0, 0, 0); fill-opacity: 0;"/><text class="annotation-text" text-anchor="middle" x="330.890625" y="15" style="font-family: Helvetica; font-size: 14px; fill: rgb(51, 51, 51); fill-opacity: 1; white-space: pre;">mix k10 softsub AL1: % > threshold = 42.9, Q25 = 09.0, Q50 = 10.3, Mean = 10.7, Q75 = 11.5, max = 16.1</text></g></g></g><g class="annotation" data-index="2" style="opacity: 1;"><g class="annotation-text-g" transform="rotate(0,669.9499999999999,99.6)"><g class="cursor-pointer" transform="translate(339,90)"><rect class="bg" x="0.5" y="0.5" width="661" height="19" style="stroke-width: 1px; stroke: rgb(0, 0, 0); stroke-opacity: 0; fill: rgb(0, 0, 0); fill-opacity: 0;"/><text class="annotation-text" text-anchor="middle" x="330.890625" y="15" style="font-family: Helvetica; font-size: 14px; fill: rgb(51, 51, 51); fill-opacity: 1; white-space: pre;">mix k10 softsub AL2: % > threshold = 57.1, Q25 = 10.3, Q50 = 11.5, Mean = 13.3, Q75 = 15.3, max = 21.0</text></g></g></g><g class="annotation" data-index="3" style="opacity: 1;"><g class="annotation-text-g" transform="rotate(0,669.4499999999999,119.40000000000002)"><g class="cursor-pointer" transform="translate(338,109)"><rect class="bg" x="0.5" y="0.5" width="662" height="19" style="stroke-width: 1px; stroke: rgb(0, 0, 0); stroke-opacity: 0; fill: rgb(0, 0, 0); fill-opacity: 0;"/><text class="annotation-text" text-anchor="middle" x="331.40625" y="15" style="font-family: Helvetica; font-size: 14px; fill: rgb(51, 51, 51); fill-opacity: 1; white-space: pre;">mix k10 softsub AL3: % > threshold = 37.5, Q25 = 06.8, Q50 = 10.4, Mean = 08.9, Q75 = 12.5, max = 14.9</text></g></g></g></g></svg>