<svg class="main-svg" xmlns="http://www.w3.org/2000/svg" xmlns:xlink="http://www.w3.org/1999/xlink" width="1280" height="600" style="" viewBox="0 0 1280 600"><rect x="0" y="0" width="1280" height="600" style="fill: rgb(255, 255, 255); fill-opacity: 1;"/><defs id="defs-1fdd54"><g class="clips"><clipPath id="clip1fdd54xyplot" class="plotclip"><rect width="1126" height="448"/></clipPath><clipPath class="axesclip" id="clip1fdd54x"><rect x="104" y="0" width="1126" height="600"/></clipPath><clipPath class="axesclip" id="clip1fdd54y"><rect x="0" y="60" width="1280" height="448"/></clipPath><clipPath class="axesclip" id="clip1fdd54xy"><rect x="104" y="60" width="1126" height="448"/></clipPath></g><g class="gradients"/><g class="patterns"/></defs><g class="bglayer"/><g class="layer-below"><g class="imagelayer"/><g class="shapelayer"/></g><g class="cartesianlayer"><g class="subplot xy"><g class="layer-subplot"><g class="shapelayer"/><g class="imagelayer"/></g><g class="minor-gridlayer"><g class="x"/><g class="y"/></g><g class="gridlayer"><g class="x"/><g class="y"/></g><g class="zerolinelayer"/><path class="xlines-below"/><path class="ylines-below"/><g class="overlines-below"/><g class="xaxislayer-below"/><g class="yaxislayer-below"/><g class="overaxes-below"/><g class="plot" transform="translate(104,60)" clip-path="url(#clip1fdd54xyplot)"><g class="scatterlayer mlayer"><g class="trace scatter trace640c80" style="stroke-miterlimit: 2;"><g class="fills"><g><path class="js-fill" d="M473.16,448L89.84,448L89.84,430.74L97.55,425.73L99.47,424.08L105.25,417.55L107.18,414.74L112.96,404.21L114.88,400.03L126.44,370.74L128.36,365.72L139.92,339.03L141.85,335.23L155.33,307.87L157.26,303.12L166.89,274.91L168.82,268.7L178.45,240.08L180.37,235.57L186.15,225.9L188.08,224.05L191.93,222.31L193.86,222.31L199.64,224.75L201.56,226.01L209.27,230.19L211.19,230.46L215.05,229.45L216.97,228.05L220.82,223.21L222.75,219.74L228.53,205.2L230.45,199.09L238.16,169.91L240.09,161.84L251.64,115.27L253.57,108.91L259.35,94.48L261.27,91.51L265.13,88.69L267.05,88.91L270.91,92.62L272.83,96.06L276.68,105.84L278.61,112.04L286.32,143.23L288.24,152.04L301.73,211.57L303.65,218.53L309.43,235.75L311.36,240.27L317.14,250.66L319.06,253.32L332.55,270.46L334.47,273.84L340.25,286.9L342.18,292.34L349.88,319.38L351.81,327.25L371.07,406.27L373,412.23L378.77,426.57L380.7,430.17L386.48,437.7L388.41,439.23L392.26,441.03L394.18,441.35L399.96,440.43L401.89,439.59L409.59,434.32L411.52,432.71L423.08,424.03L425,423.16L430.78,422.11L432.71,422.29L438.49,424.17L440.41,425.11L453.9,431.64L455.82,432.19L465.45,433.44L467.38,433.56L473.16,434.16" style="fill: rgb(0, 0, 0); fill-opacity: 0.2; stroke-width: 0;"/></g></g><g class="errorbars"/><g class="lines"><path class="js-line" d="M89.84,430.74L97.55,425.73L99.47,424.08L105.25,417.55L107.18,414.74L112.96,404.21L114.88,400.03L126.44,370.74L128.36,365.72L139.92,339.03L141.85,335.23L155.33,307.87L157.26,303.12L166.89,274.91L168.82,268.7L178.45,240.08L180.37,235.57L186.15,225.9L188.08,224.05L191.93,222.31L193.86,222.31L199.64,224.75L201.56,226.01L209.27,230.19L211.19,230.46L215.05,229.45L216.97,228.05L220.82,223.21L222.75,219.74L228.53,205.2L230.45,199.09L238.16,169.91L240.09,161.84L251.64,115.27L253.57,108.91L259.35,94.48L261.27,91.51L265.13,88.69L267.05,88.91L270.91,92.62L272.83,96.06L276.68,105.84L278.61,112.04L286.32,143.23L288.24,152.04L301.73,211.57L303.65,218.53L309.43,235.75L311.36,240.27L317.14,250.66L319.06,253.32L332.55,270.46L334.47,273.84L340.25,286.9L342.18,292.34L349.88,319.38L351.81,327.25L371.07,406.27L373,412.23L378.77,426.57L380.7,430.17L386.48,437.7L388.41,439.23L392.26,441.03L394.18,441.35L399.96,440.43L401.89,439.59L409.59,434.32L411.52,432.71L423.08,424.03L425,423.16L430.78,422.11L432.71,422.29L438.49,424.17L440.41,425.11L453.9,431.64L455.82,432.19L465.45,433.44L467.38,433.56L473.16,434.16" style="vector-effect: none; fill: none; stroke: rgb(0, 0, 0); stroke-opacity: 0.8; stroke-width: 4px; opacity: 1;"/></g><g class="points"/><g class="text"/></g><g class="trace scatter trace6cc5fb" style="stroke-miterlimit: 2;"><g class="fills"><g><path class="js-fill" d="M657.33,448L0,448L0,438.25L9.91,439.13L13.21,439.76L46.24,446.77L49.55,447.09L69.37,447.84L72.67,447.83L89.19,447L92.49,446.55L102.4,443.98L105.7,442.57L112.31,438.63L115.61,436.03L125.52,425.52L128.82,421.18L142.04,401.15L145.34,395.85L175.07,347.3L178.37,340.77L188.28,317.94L191.58,309.19L204.8,269.22L208.1,258.25L231.22,180.94L234.53,171.91L241.13,157.77L244.44,153.13L247.74,150.3L251.04,149.34L254.34,150.19L257.65,152.72L264.25,161.78L267.56,167.67L287.38,204.07L290.68,209L330.32,263.77L333.62,267.02L340.23,271.86L343.53,273.55L363.35,281.96L366.65,284.75L373.26,292.88L376.56,298.3L383.17,311.65L386.47,319.32L406.29,365.86L409.59,371.65L416.2,380.32L419.5,383.21L426.11,386.56L429.41,387.35L445.93,390.44L449.23,392.01L455.84,396.59L459.14,399.52L482.26,421.71L485.57,424.04L495.48,429.18L498.78,430.4L538.42,442.16L541.72,443.12L558.24,446.5L561.54,446.88L581.36,447.84L584.66,447.86L607.78,447.09L611.09,446.77L627.6,443.85L630.91,443.04L650.73,438.65L654.03,438.35L657.33,438.25" style="fill: rgb(0, 106, 113); fill-opacity: 0.2; stroke-width: 0;"/></g></g><g class="errorbars"/><g class="lines"><path class="js-line" d="M0,438.25L9.91,439.13L13.21,439.76L46.24,446.77L49.55,447.09L69.37,447.84L72.67,447.83L89.19,447L92.49,446.55L102.4,443.98L105.7,442.57L112.31,438.63L115.61,436.03L125.52,425.52L128.82,421.18L142.04,401.15L145.34,395.85L175.07,347.3L178.37,340.77L188.28,317.94L191.58,309.19L204.8,269.22L208.1,258.25L231.22,180.94L234.53,171.91L241.13,157.77L244.44,153.13L247.74,150.3L251.04,149.34L254.34,150.19L257.65,152.72L264.25,161.78L267.56,167.67L287.38,204.07L290.68,209L330.32,263.77L333.62,267.02L340.23,271.86L343.53,273.55L363.35,281.96L366.65,284.75L373.26,292.88L376.56,298.3L383.17,311.65L386.47,319.32L406.29,365.86L409.59,371.65L416.2,380.32L419.5,383.21L426.11,386.56L429.41,387.35L445.93,390.44L449.23,392.01L455.84,396.59L459.14,399.52L482.26,421.71L485.57,424.04L495.48,429.18L498.78,430.4L538.42,442.16L541.72,443.12L558.24,446.5L561.54,446.88L581.36,447.84L584.66,447.86L607.78,447.09L611.09,446.77L627.6,443.85L630.91,443.04L650.73,438.65L654.03,438.35L657.33,438.25" style="vector-effect: none; fill: none; stroke: rgb(0, 106, 113); stroke-opacity: 0.8; stroke-width: 4px; opacity: 1;"/></g><g class="points"/><g class="text"/></g><g class="trace scatter trace83dce1" style="stroke-miterlimit: 2;"><g class="fills"><g><path class="js-fill" d="M874.45,448L59.89,448L59.89,441.26L104.92,441.06L109.01,440.43L121.29,437.03L125.39,435.32L137.67,428.29L141.76,425.31L154.04,414.62L158.13,410.57L186.78,379.63L190.88,375.26L219.53,344.36L223.62,339.34L235.9,322.42L240,316.11L256.37,288.32L260.46,281.05L276.83,253.5L280.93,247.49L289.11,237.2L293.21,233.06L301.39,227.1L305.49,225.35L313.67,224.34L317.77,225.08L325.95,228.87L330.05,231.86L338.23,239.74L342.33,244.52L354.61,261.43L358.7,267.68L387.35,311.56L391.45,316.92L403.73,330.5L407.82,334.2L420.1,343.2L424.19,345.69L448.75,358.65L452.84,360.73L477.4,372.22L481.5,373.8L497.87,378.98L501.96,380.03L563.36,394.86L567.45,396.29L583.83,403.18L587.92,405.19L628.85,425.91L632.95,427.49L649.32,432.24L653.41,433.07L673.88,435.72L677.97,436.03L723,438.06L727.09,438.19L776.21,440.72L780.3,441.14L817.14,444.25L821.23,444.29L841.7,443.34L845.79,443L874.45,441.41" style="fill: rgb(232, 93, 4); fill-opacity: 0.2; stroke-width: 0;"/></g></g><g class="errorbars"/><g class="lines"><path class="js-line" d="M59.89,441.26L104.92,441.06L109.01,440.43L121.29,437.03L125.39,435.32L137.67,428.29L141.76,425.31L154.04,414.62L158.13,410.57L186.78,379.63L190.88,375.26L219.53,344.36L223.62,339.34L235.9,322.42L240,316.11L256.37,288.32L260.46,281.05L276.83,253.5L280.93,247.49L289.11,237.2L293.21,233.06L301.39,227.1L305.49,225.35L313.67,224.34L317.77,225.08L325.95,228.87L330.05,231.86L338.23,239.74L342.33,244.52L354.61,261.43L358.7,267.68L387.35,311.56L391.45,316.92L403.73,330.5L407.82,334.2L420.1,343.2L424.19,345.69L448.75,358.65L452.84,360.73L477.4,372.22L481.5,373.8L497.87,378.98L501.96,380.03L563.36,394.86L567.45,396.29L583.83,403.18L587.92,405.19L628.85,425.91L632.95,427.49L649.32,432.24L653.41,433.07L673.88,435.72L677.97,436.03L723,438.06L727.09,438.19L776.21,440.72L780.3,441.14L817.14,444.25L821.23,444.29L841.7,443.34L845.79,443L874.45,441.41" style="vector-effect: none; fill: none; stroke: rgb(232, 93, 4); stroke-opacity: 0.8; stroke-width: 4px; opacity: 1;"/></g><g class="points"/><g class="text"/></g><g class="trace scatter tracec492a5" style="stroke-miterlimit: 2;"><g class="fills"><g><path class="js-fill" d="M1054.94,448L0,448L0,441.13L37.11,440.04L42.41,440.06L100.72,439.63L106.02,439.19L127.23,436.07L132.53,434.92L153.74,428.7L159.04,426.69L174.94,419.33L180.24,416.37L196.15,405.68L201.45,401.46L217.35,386.84L222.65,381.36L249.16,351.54L254.46,345.56L270.36,329L275.66,324.19L286.27,315.97L291.57,312.63L302.17,307.63L307.47,305.95L318.07,304.2L323.37,304.07L333.98,305.15L339.28,306.28L355.18,311.68L360.48,314.03L381.69,325.35L386.99,328.46L413.5,343.37L418.8,345.86L434.7,351.61L440,352.89L455.91,354.85L461.21,354.97L487.71,353.65L493.01,353.37L514.22,353.61L519.52,354.14L535.42,357.01L540.73,358.38L561.93,365.68L567.23,367.87L625.54,393.01L630.85,394.59L646.75,397.99L652.05,398.67L673.26,399.74L678.56,399.77L710.36,400.64L715.67,401.13L736.87,404.39L742.17,405.51L763.38,411.02L768.68,412.64L800.49,423.81L805.79,425.8L837.59,436.8L842.9,438.29L864.1,442.86L869.4,443.63L890.61,445.39L895.91,445.53L922.41,444.99L927.71,444.72L996.63,441.63L1001.93,441.57L1049.64,442.03L1054.94,442.22" style="fill: rgb(123, 44, 191); fill-opacity: 0.2; stroke-width: 0;"/></g></g><g class="errorbars"/><g class="lines"><path class="js-line" d="M0,441.13L37.11,440.04L42.41,440.06L100.72,439.63L106.02,439.19L127.23,436.07L132.53,434.92L153.74,428.7L159.04,426.69L174.94,419.33L180.24,416.37L196.15,405.68L201.45,401.46L217.35,386.84L222.65,381.36L249.16,351.54L254.46,345.56L270.36,329L275.66,324.19L286.27,315.97L291.57,312.63L302.17,307.63L307.47,305.95L318.07,304.2L323.37,304.07L333.98,305.15L339.28,306.28L355.18,311.68L360.48,314.03L381.69,325.35L386.99,328.46L413.5,343.37L418.8,345.86L434.7,351.61L440,352.89L455.91,354.85L461.21,354.97L487.71,353.65L493.01,353.37L514.22,353.61L519.52,354.14L535.42,357.01L540.73,358.38L561.93,365.68L567.23,367.87L625.54,393.01L630.85,394.59L646.75,397.99L652.05,398.67L673.26,399.74L678.56,399.77L710.36,400.64L715.67,401.13L736.87,404.39L742.17,405.51L763.38,411.02L768.68,412.64L800.49,423.81L805.79,425.8L837.59,436.8L842.9,438.29L864.1,442.86L869.4,443.63L890.61,445.39L895.91,445.53L922.41,444.99L927.71,444.72L996.63,441.63L1001.93,441.57L1049.64,442.03L1054.94,442.22" style="vector-effect: none; fill: none; stroke: rgb(123, 44, 191); stroke-opacity: 0.8; stroke-width: 4px; opacity: 1;"/></g><g class="points"/><g class="text"/></g><g class="trace scatter trace14e63b" style="stroke-miterlimit: 2;"><g class="fills"><g><path class="js-fill" d="M977.76,448L0,448L0,443.43L34.39,444.42L39.31,444.68L88.44,446.54L93.35,446.53L122.83,445.3L127.75,444.87L157.23,440.97L162.14,440.1L191.62,433.7L196.54,432.4L221.1,424.46L226.02,422.5L245.67,413.07L250.58,410.3L270.24,397.72L275.15,394.29L314.46,367.33L319.37,364.53L334.11,357.53L339.02,355.7L353.76,351.69L358.68,350.8L378.33,348.76L383.24,348.46L417.64,345.67L422.55,345.02L471.68,338.67L476.6,338.45L496.25,338.64L501.17,338.91L540.47,342.59L545.39,343.13L584.69,348.4L589.61,349.31L614.17,355.23L619.09,356.7L643.65,365.35L648.57,367.29L702.61,388.38L707.53,389.87L727.18,394.37L732.09,395.1L751.75,396.59L756.66,396.65L810.71,396.13L815.62,396.57L835.28,399.92L840.19,401.16L864.76,409.04L869.67,410.77L899.15,420.04L904.06,421.22L923.72,424.74L928.63,425.37L977.76,430.69" style="fill: rgb(0, 128, 0); fill-opacity: 0.2; stroke-width: 0;"/></g></g><g class="errorbars"/><g class="lines"><path class="js-line" d="M0,443.43L34.39,444.42L39.31,444.68L88.44,446.54L93.35,446.53L122.83,445.3L127.75,444.87L157.23,440.97L162.14,440.1L191.62,433.7L196.54,432.4L221.1,424.46L226.02,422.5L245.67,413.07L250.58,410.3L270.24,397.72L275.15,394.29L314.46,367.33L319.37,364.53L334.11,357.53L339.02,355.7L353.76,351.69L358.68,350.8L378.33,348.76L383.24,348.46L417.64,345.67L422.55,345.02L471.68,338.67L476.6,338.45L496.25,338.64L501.17,338.91L540.47,342.59L545.39,343.13L584.69,348.4L589.61,349.31L614.17,355.23L619.09,356.7L643.65,365.35L648.57,367.29L702.61,388.38L707.53,389.87L727.18,394.37L732.09,395.1L751.75,396.59L756.66,396.65L810.71,396.13L815.62,396.57L835.28,399.92L840.19,401.16L864.76,409.04L869.67,410.77L899.15,420.04L904.06,421.22L923.72,424.74L928.63,425.37L977.76,430.69" style="vector-effect: none; fill: none; stroke: rgb(0, 128, 0); stroke-opacity: 0.8; stroke-width: 4px; opacity: 1;"/></g><g class="points"/><g class="text"/></g><g class="trace scatter tracee306db" style="stroke-miterlimit: 2;"><g class="fills"><g><path class="js-fill" d="M1126,448L0,448L0,443.59L101.85,442.65L107.51,442.35L175.41,437.79L181.07,437.31L215.02,433.4L220.67,432.45L243.31,427.29L248.96,425.61L271.6,417.3L277.26,414.89L333.84,390.69L339.5,388.76L367.79,380.46L373.45,378.94L424.37,364.35L430.03,362.69L458.32,355.68L463.98,354.66L486.61,352.16L492.27,351.89L520.56,351.91L526.22,352.07L594.12,353.13L599.78,353.02L678.99,350.82L684.65,351.23L701.63,353.46L707.29,354.53L729.92,360.29L735.58,362.01L786.5,379.06L792.16,381.03L843.09,400.01L848.74,402.14L877.04,411.68L882.69,413.26L905.33,418.28L910.98,419.23L944.93,423.5L950.59,424.14L1041.13,434.66L1046.78,434.89L1126,437.57" style="fill: rgb(164, 19, 60); fill-opacity: 0.2; stroke-width: 0;"/></g></g><g class="errorbars"/><g class="lines"><path class="js-line" d="M0,443.59L101.85,442.65L107.51,442.35L175.41,437.79L181.07,437.31L215.02,433.4L220.67,432.45L243.31,427.29L248.96,425.61L271.6,417.3L277.26,414.89L333.84,390.69L339.5,388.76L367.79,380.46L373.45,378.94L424.37,364.35L430.03,362.69L458.32,355.68L463.98,354.66L486.61,352.16L492.27,351.89L520.56,351.91L526.22,352.07L594.12,353.13L599.78,353.02L678.99,350.82L684.65,351.23L701.63,353.46L707.29,354.53L729.92,360.29L735.58,362.01L786.5,379.06L792.16,381.03L843.09,400.01L848.74,402.14L877.04,411.68L882.69,413.26L905.33,418.28L910.98,419.23L944.93,423.5L950.59,424.14L1041.13,434.66L1046.78,434.89L1126,437.57" style="vector-effect: none; fill: none; stroke: rgb(164, 19, 60); stroke-opacity: 0.8; stroke-width: 4px; opacity: 1;"/></g><g class="points"/><g class="text"/></g></g></g><g class="overplot"/><path class="xlines-above crisp" d="M103,508.5H1230" style="fill: none; stroke-width: 1px; stroke: rgb(0, 0, 0); stroke-opacity: 1;"/><path class="ylines-above crisp" d="M103.5,60V508" style="fill: none; stroke-width: 1px; stroke: rgb(0, 0, 0); stroke-opacity: 1;"/><g class="overlines-above"/><g class="xaxislayer-above"><path class="xtick ticks crisp" d="M0,509v10" transform="translate(104,0)" style="stroke: rgb(68, 68, 68); stroke-opacity: 1; stroke-width: 2px;"/><path class="xtick ticks crisp" d="M0,509v10" transform="translate(253.73,0)" style="stroke: rgb(68, 68, 68); stroke-opacity: 1; stroke-width: 2px;"/><path class="xtick ticks crisp" d="M0,509v10" transform="translate(403.47,0)" style="stroke: rgb(68, 68, 68); stroke-opacity: 1; stroke-width: 2px;"/><path class="xtick ticks crisp" d="M0,509v10" transform="translate(553.2,0)" style="stroke: rgb(68, 68, 68); stroke-opacity: 1; stroke-width: 2px;"/><path class="xtick ticks crisp" d="M0,509v10" transform="translate(702.94,0)" style="stroke: rgb(68, 68, 68); stroke-opacity: 1; stroke-width: 2px;"/><path class="xtick ticks crisp" d="M0,509v10" transform="translate(852.67,0)" style="stroke: rgb(68, 68, 68); stroke-opacity: 1; stroke-width: 2px;"/><path class="xtick ticks crisp" d="M0,509v10" transform="translate(1002.4,0)" style="stroke: rgb(68, 68, 68); stroke-opacity: 1; stroke-width: 2px;"/><path class="xtick ticks crisp" d="M0,509v10" transform="translate(1152.14,0)" style="stroke: rgb(68, 68, 68); stroke-opacity: 1; stroke-width: 2px;"/><g class="xtick"><text text-anchor="middle" x="0" y="547.8" transform="translate(104,0)" style="font-family: Helvetica; font-size: 24px; fill: rgb(51, 51, 51); fill-opacity: 1; white-space: pre; opacity: 1;">0</text></g><g class="xtick"><text text-anchor="middle" x="0" y="547.8" style="font-family: Helvetica; font-size: 24px; fill: rgb(51, 51, 51); fill-opacity: 1; white-space: pre; opacity: 1;" transform="translate(253.73,0)">5</text></g><g class="xtick"><text text-anchor="middle" x="0" y="547.8" style="font-family: Helvetica; font-size: 24px; fill: rgb(51, 51, 51); fill-opacity: 1; white-space: pre; opacity: 1;" transform="translate(403.47,0)">10</text></g><g class="xtick"><text text-anchor="middle" x="0" y="547.8" style="font-family: Helvetica; font-size: 24px; fill: rgb(51, 51, 51); fill-opacity: 1; white-space: pre; opacity: 1;" transform="translate(553.2,0)">15</text></g><g class="xtick"><text text-anchor="middle" x="0" y="547.8" style="font-family: Helvetica; font-size: 24px; fill: rgb(51, 51, 51); fill-opacity: 1; white-space: pre; opacity: 1;" transform="translate(702.94,0)">20</text></g><g class="xtick"><text text-anchor="middle" x="0" y="547.8" style="font-family: Helvetica; font-size: 24px; fill: rgb(51, 51, 51); fill-opacity: 1; white-space: pre; opacity: 1;" transform="translate(852.67,0)">25</text></g><g class="xtick"><text text-anchor="middle" x="0" y="547.8" style="font-family: Helvetica; font-size: 24px; fill: rgb(51, 51, 51); fill-opacity: 1; white-space: pre; opacity: 1;" transform="translate(1002.4,0)">30</text></g><g class="xtick"><text text-anchor="middle" x="0" y="547.8" style="font-family: Helvetica; font-size: 24px; fill: rgb(51, 51, 51); fill-opacity: 1; white-space: pre; opacity: 1;" transform="translate(1152.14,0)">35</text></g></g><g class="yaxislayer-above"><path class="ytick ticks crisp" d="M103,0h-10" transform="translate(0,508)" style="stroke: rgb(68, 68, 68); stroke-opacity: 1; stroke-width: 2px;"/><path class="ytick ticks crisp" d="M103,0h-10" transform="translate(0,415.25)" style="stroke: rgb(68, 68, 68); stroke-opacity: 1; stroke-width: 2px;"/><path class="ytick ticks crisp" d="M103,0h-10" transform="translate(0,322.49)" style="stroke: rgb(68, 68, 68); stroke-opacity: 1; stroke-width: 2px;"/><path class="ytick ticks crisp" d="M103,0h-10" transform="translate(0,229.74)" style="stroke: rgb(68, 68, 68); stroke-opacity: 1; stroke-width: 2px;"/><path class="ytick ticks crisp" d="M103,0h-10" transform="translate(0,136.99)" style="stroke: rgb(68, 68, 68); stroke-opacity: 1; stroke-width: 2px;"/><g class="ytick"><text text-anchor="end" x="88.2" y="8.399999999999999" transform="translate(0,508)" style="font-family: Helvetica; font-size: 24px; fill: rgb(51, 51, 51); fill-opacity: 1; white-space: pre; opacity: 1;">0</text></g><g class="ytick"><text text-anchor="end" x="88.2" y="8.399999999999999" style="font-family: Helvetica; font-size: 24px; fill: rgb(51, 51, 51); fill-opacity: 1; white-space: pre; opacity: 1;" transform="translate(0,415.25)">0.05</text></g><g class="ytick"><text text-anchor="end" x="88.2" y="8.399999999999999" style="font-family: Helvetica; font-size: 24px; fill: rgb(51, 51, 51); fill-opacity: 1; white-space: pre; opacity: 1;" transform="translate(0,322.49)">0.1</text></g><g class="ytick"><text text-anchor="end" x="88.2" y="8.399999999999999" style="font-family: Helvetica; font-size: 24px; fill: rgb(51, 51, 51); fill-opacity: 1; white-space: pre; opacity: 1;" transform="translate(0,229.74)">0.15</text></g><g class="ytick"><text text-anchor="end" x="88.2" y="8.399999999999999" style="font-family: Helvetica; font-size: 24px; fill: rgb(51, 51, 51); fill-opacity: 1; white-space: pre; opacity: 1;" transform="translate(0,136.99)">0.2</text></g></g><g class="overaxes-above"/></g></g><g class="polarlayer"/><g class="smithlayer"/><g class="ternarylayer"/><g class="geolayer"/><g class="funnelarealayer"/><g class="pielayer"/><g class="iciclelayer"/><g class="treemaplayer"/><g class="sunburstlayer"/><g class="glimages"/><defs id="topdefs-1fdd54"><g class="clips"/><clipPath id="legend1fdd54"><rect width="129" height="278" x="0" y="0"/></clipPath></defs><g class="layer-above"><g class="imagelayer"/><g class="shapelayer"><g class="shape-group" data-index="0" clip-path="url(#clip1fdd54x)"><path data-index="0" fill-rule="evenodd" d="M433.41,508L433.41,60" style="opacity: 1; stroke: rgb(0, 0, 0); stroke-opacity: 0.6; fill: rgb(0, 0, 0); fill-opacity: 0; stroke-dasharray: 12px, 12px; stroke-width: 4px;"/></g></g></g><g class="infolayer"><g class="legend" pointer-events="all" transform="translate(1117.4,122.59999999999997)"><rect class="bg" shape-rendering="crispEdges" width="129" height="278" x="0" y="0" style="stroke: rgb(68, 68, 68); stroke-opacity: 1; fill: rgb(255, 255, 255); fill-opacity: 1; stroke-width: 0px;"/><g class="scrollbox" transform="" clip-path="url(#legend1fdd54)"><g class="groups"><g class="traces" transform="translate(0,27.3)" style="opacity: 1;"><text class="legendtext" text-anchor="start" x="40" y="12.48" style="font-family: Helvetica; font-size: 32px; fill: rgb(51, 51, 51); fill-opacity: 1; white-space: pre;">PT</text><g class="layers"><g class="legendfill"><path class="js-fill" d="M5,-2h30v6h-30z" style="stroke-width: 0; fill: rgb(0, 0, 0); fill-opacity: 0.2;"/></g><g class="legendlines"><path class="js-line" d="M5,-2h30" style="fill: none; stroke: rgb(0, 0, 0); stroke-opacity: 0.8; stroke-width: 4px;"/></g><g class="legendsymbols"><g class="legendpoints"/></g></g><rect class="legendtoggle" x="0" y="-22.3" width="123.625" height="44.6" style="fill: rgb(0, 0, 0); fill-opacity: 0;"/></g><g class="traces" transform="translate(0,71.9)" style="opacity: 1;"><text class="legendtext" text-anchor="start" x="40" y="12.48" style="font-family: Helvetica; font-size: 32px; fill: rgb(51, 51, 51); fill-opacity: 1; white-space: pre;">AL #1</text><g class="layers"><g class="legendfill"><path class="js-fill" d="M5,-2h30v6h-30z" style="stroke-width: 0; fill: rgb(0, 106, 113); fill-opacity: 0.2;"/></g><g class="legendlines"><path class="js-line" d="M5,-2h30" style="fill: none; stroke: rgb(0, 106, 113); stroke-opacity: 0.8; stroke-width: 4px;"/></g><g class="legendsymbols"><g class="legendpoints"/></g></g><rect class="legendtoggle" x="0" y="-22.3" width="123.625" height="44.6" style="fill: rgb(0, 0, 0); fill-opacity: 0;"/></g><g class="traces" transform="translate(0,116.5)" style="opacity: 1;"><text class="legendtext" text-anchor="start" x="40" y="12.48" style="font-family: Helvetica; font-size: 32px; fill: rgb(51, 51, 51); fill-opacity: 1; white-space: pre;">AL #2</text><g class="layers"><g class="legendfill"><path class="js-fill" d="M5,-2h30v6h-30z" style="stroke-width: 0; fill: rgb(232, 93, 4); fill-opacity: 0.2;"/></g><g class="legendlines"><path class="js-line" d="M5,-2h30" style="fill: none; stroke: rgb(232, 93, 4); stroke-opacity: 0.8; stroke-width: 4px;"/></g><g class="legendsymbols"><g class="legendpoints"/></g></g><rect class="legendtoggle" x="0" y="-22.3" width="123.625" height="44.6" style="fill: rgb(0, 0, 0); fill-opacity: 0;"/></g><g class="traces" transform="translate(0,161.10000000000002)" style="opacity: 1;"><text class="legendtext" text-anchor="start" x="40" y="12.48" style="font-family: Helvetica; font-size: 32px; fill: rgb(51, 51, 51); fill-opacity: 1; white-space: pre;">AL #3</text><g class="layers"><g class="legendfill"><path class="js-fill" d="M5,-2h30v6h-30z" style="stroke-width: 0; fill: rgb(123, 44, 191); fill-opacity: 0.2;"/></g><g class="legendlines"><path class="js-line" d="M5,-2h30" style="fill: none; stroke: rgb(123, 44, 191); stroke-opacity: 0.8; stroke-width: 4px;"/></g><g class="legendsymbols"><g class="legendpoints"/></g></g><rect class="legendtoggle" x="0" y="-22.3" width="123.625" height="44.6" style="fill: rgb(0, 0, 0); fill-opacity: 0;"/></g><g class="traces" transform="translate(0,205.70000000000002)" style="opacity: 1;"><text class="legendtext" text-anchor="start" x="40" y="12.48" style="font-family: Helvetica; font-size: 32px; fill: rgb(51, 51, 51); fill-opacity: 1; white-space: pre;">AL #4</text><g class="layers"><g class="legendfill"><path class="js-fill" d="M5,-2h30v6h-30z" style="stroke-width: 0; fill: rgb(0, 128, 0); fill-opacity: 0.2;"/></g><g class="legendlines"><path class="js-line" d="M5,-2h30" style="fill: none; stroke: rgb(0, 128, 0); stroke-opacity: 0.8; stroke-width: 4px;"/></g><g class="legendsymbols"><g class="legendpoints"/></g></g><rect class="legendtoggle" x="0" y="-22.3" width="123.625" height="44.6" style="fill: rgb(0, 0, 0); fill-opacity: 0;"/></g><g class="traces" transform="translate(0,250.3)" style="opacity: 1;"><text class="legendtext" text-anchor="start" x="40" y="12.48" style="font-family: Helvetica; font-size: 32px; fill: rgb(51, 51, 51); fill-opacity: 1; white-space: pre;">AL #5</text><g class="layers"><g class="legendfill"><path class="js-fill" d="M5,-2h30v6h-30z" style="stroke-width: 0; fill: rgb(164, 19, 60); fill-opacity: 0.2;"/></g><g class="legendlines"><path class="js-line" d="M5,-2h30" style="fill: none; stroke: rgb(164, 19, 60); stroke-opacity: 0.8; stroke-width: 4px;"/></g><g class="legendsymbols"><g class="legendpoints"/></g></g><rect class="legendtoggle" x="0" y="-22.3" width="123.625" height="44.6" style="fill: rgb(0, 0, 0); fill-opacity: 0;"/></g></g></g><rect class="scrollbar" rx="20" ry="3" width="0" height="0" x="0" y="0" style="fill: rgb(128, 139, 164); fill-opacity: 1;"/></g><g class="g-gtitle"><text class="gtitle" x="640" y="18" text-anchor="middle" dy="0.7em" style="font-family: Helvetica; font-size: 36px; fill: rgb(51, 51, 51); opacity: 1; font-weight: normal; white-space: pre;"><tspan style="font-weight:bold">196 descriptor-based space, 100 clusters, softsub selection</tspan></text></g><g class="g-xtitle"><text class="xtitle" x="667" y="587.9125" text-anchor="middle" style="font-family: Helvetica; font-size: 28px; fill: rgb(51, 51, 51); opacity: 1; font-weight: normal; white-space: pre;">Attractive Interaction Score</text></g><g class="g-ytitle" transform="translate(13.615234375,0)"><text class="ytitle" transform="rotate(-90,12.384375000000006,284)" x="12.384375000000006" y="284" text-anchor="middle" style="font-family: Helvetica; font-size: 28px; fill: rgb(51, 51, 51); opacity: 1; font-weight: normal; white-space: pre;">Relative Frequency</text></g><g class="annotation" data-index="0" style="opacity: 1;"><g class="annotation-text-g" transform="rotate(0,583.15,133.59999999999997)"><g class="cursor-pointer" transform="translate(503,118)"><rect class="bg" x="0.5" y="0.5" width="159" height="31" style="stroke-width: 1px; stroke: rgb(0, 0, 0); stroke-opacity: 0; fill: rgb(0, 0, 0); fill-opacity: 0;"/><text class="annotation-text" text-anchor="middle" x="80.03125" y="24" style="font-family: Helvetica; font-size: 24px; fill: rgb(0, 0, 0); fill-opacity: 0.6; white-space: pre;"><tspan style="font-weight:bold">Threshold: 11</tspan></text></g></g></g></g></svg>