<svg class="main-svg" xmlns="http://www.w3.org/2000/svg" xmlns:xlink="http://www.w3.org/1999/xlink" width="1280" height="600" style="" viewBox="0 0 1280 600"><rect x="0" y="0" width="1280" height="600" style="fill: rgb(255, 255, 255); fill-opacity: 1;"/><defs id="defs-15fd2a"><g class="clips"><clipPath id="clip15fd2axyplot" class="plotclip"><rect width="1126" height="448"/></clipPath><clipPath class="axesclip" id="clip15fd2ax"><rect x="104" y="0" width="1126" height="600"/></clipPath><clipPath class="axesclip" id="clip15fd2ay"><rect x="0" y="60" width="1280" height="448"/></clipPath><clipPath class="axesclip" id="clip15fd2axy"><rect x="104" y="60" width="1126" height="448"/></clipPath></g><g class="gradients"/><g class="patterns"/></defs><g class="bglayer"/><g class="layer-below"><g class="imagelayer"/><g class="shapelayer"/></g><g class="cartesianlayer"><g class="subplot xy"><g class="layer-subplot"><g class="shapelayer"/><g class="imagelayer"/></g><g class="minor-gridlayer"><g class="x"/><g class="y"/></g><g class="gridlayer"><g class="x"/><g class="y"/></g><g class="zerolinelayer"/><path class="xlines-below"/><path class="ylines-below"/><g class="overlines-below"/><g class="xaxislayer-below"/><g class="yaxislayer-below"/><g class="overaxes-below"/><g class="plot" transform="translate(104,60)" clip-path="url(#clip15fd2axyplot)"><g class="scatterlayer mlayer"><g class="trace scatter tracea4db00" style="stroke-miterlimit: 2;"><g class="fills"><g><path class="js-fill" d="M603.07,448L214.43,448L214.43,307.84L218.33,308.84L220.29,310.09L224.19,314L226.14,316.63L232,326.85L233.96,330.92L243.72,354.51L245.67,359.59L261.3,398.3L263.25,402.49L273.02,420.24L274.97,423.12L282.78,432.47L284.73,434.3L292.55,439.88L294.5,440.89L302.31,443.65L304.26,444.05L314.03,444.6L315.98,444.43L323.79,442.71L325.75,442L333.56,437.83L335.51,436.4L343.33,428.86L345.28,426.47L353.09,414.67L355.04,411.13L362.86,394.71L364.81,390.06L376.53,358.84L378.48,353.28L398.01,300.28L399.96,295.69L411.68,271.44L413.63,267.79L429.26,237.33L431.21,232.86L440.98,206.66L442.93,200.65L456.6,153.99L458.55,147.22L468.32,116.71L470.27,111.69L476.13,99.69L478.08,96.84L481.99,93L483.94,92.04L487.85,92.03L489.8,92.96L493.71,96.58L495.66,99.21L501.52,109.9L503.47,114.24L513.24,139.44L515.19,144.78L526.91,174.58L528.86,178.73L534.72,189.04L536.67,191.67L542.53,196.91L544.48,197.75L548.39,198.09L550.34,197.62L556.2,193.95L558.16,192.09L567.92,180.16L569.87,177.65L577.69,169.27L579.64,167.89L583.54,166.4L585.5,166.38L589.4,167.99L591.36,169.67L595.26,174.88L597.22,178.43L603.07,192.75" style="fill: rgb(0, 0, 0); fill-opacity: 0.2; stroke-width: 0;"/></g></g><g class="errorbars"/><g class="lines"><path class="js-line" d="M214.43,307.84L218.33,308.84L220.29,310.09L224.19,314L226.14,316.63L232,326.85L233.96,330.92L243.72,354.51L245.67,359.59L261.3,398.3L263.25,402.49L273.02,420.24L274.97,423.12L282.78,432.47L284.73,434.3L292.55,439.88L294.5,440.89L302.31,443.65L304.26,444.05L314.03,444.6L315.98,444.43L323.79,442.71L325.75,442L333.56,437.83L335.51,436.4L343.33,428.86L345.28,426.47L353.09,414.67L355.04,411.13L362.86,394.71L364.81,390.06L376.53,358.84L378.48,353.28L398.01,300.28L399.96,295.69L411.68,271.44L413.63,267.79L429.26,237.33L431.21,232.86L440.98,206.66L442.93,200.65L456.6,153.99L458.55,147.22L468.32,116.71L470.27,111.69L476.13,99.69L478.08,96.84L481.99,93L483.94,92.04L487.85,92.03L489.8,92.96L493.71,96.58L495.66,99.21L501.52,109.9L503.47,114.24L513.24,139.44L515.19,144.78L526.91,174.58L528.86,178.73L534.72,189.04L536.67,191.67L542.53,196.91L544.48,197.75L548.39,198.09L550.34,197.62L556.2,193.95L558.16,192.09L567.92,180.16L569.87,177.65L577.69,169.27L579.64,167.89L583.54,166.4L585.5,166.38L589.4,167.99L591.36,169.67L595.26,174.88L597.22,178.43L603.07,192.75" style="vector-effect: none; fill: none; stroke: rgb(0, 0, 0); stroke-opacity: 0.8; stroke-width: 4px; opacity: 1;"/></g><g class="points"/><g class="text"/></g><g class="trace scatter tracee7bb66" style="stroke-miterlimit: 2;"><g class="fills"><g><path class="js-fill" d="M862.68,448L396.53,448L396.53,299.68L408.24,284.94L410.58,282.3L431.66,257.59L434.01,254.41L448.06,233.26L450.4,229.55L464.46,208.6L466.8,205.63L473.83,198.19L476.17,196.27L483.2,192.33L485.54,191.64L492.57,191.3L494.91,191.72L501.94,194.23L504.28,195.39L530.05,209.14L532.39,209.85L541.76,211.09L544.1,211L553.47,209.16L555.81,208.38L569.87,202.07L572.21,200.91L586.27,195.08L588.61,194.51L595.64,193.95L597.98,194.22L605.01,196.74L607.35,198.21L614.38,204.75L616.72,207.68L623.75,218.77L626.09,223.24L635.46,244.69L637.8,250.87L649.51,285.3L651.86,292.67L675.28,364.75L677.62,371.1L686.99,393.79L689.33,398.73L698.7,415.51L701.05,418.97L710.42,430.11L712.76,432.28L722.13,438.89L724.47,440.1L733.84,443.5L736.18,444.05L747.9,445.34L750.24,445.34L761.95,444.06L764.29,443.52L773.66,440.25L776.01,439.1L785.38,432.95L787.72,430.98L797.09,421.1L799.43,418.12L808.8,404.21L811.14,400.27L827.54,369.66L829.88,365.2L841.59,344.82L843.94,341.41L850.96,333.15L853.31,331.16L857.99,328.45L860.33,327.76L862.68,327.53" style="fill: rgb(0, 106, 113); fill-opacity: 0.2; stroke-width: 0;"/></g></g><g class="errorbars"/><g class="lines"><path class="js-line" d="M396.53,299.68L408.24,284.94L410.58,282.3L431.66,257.59L434.01,254.41L448.06,233.26L450.4,229.55L464.46,208.6L466.8,205.63L473.83,198.19L476.17,196.27L483.2,192.33L485.54,191.64L492.57,191.3L494.91,191.72L501.94,194.23L504.28,195.39L530.05,209.14L532.39,209.85L541.76,211.09L544.1,211L553.47,209.16L555.81,208.38L569.87,202.07L572.21,200.91L586.27,195.08L588.61,194.51L595.64,193.95L597.98,194.22L605.01,196.74L607.35,198.21L614.38,204.75L616.72,207.68L623.75,218.77L626.09,223.24L635.46,244.69L637.8,250.87L649.51,285.3L651.86,292.67L675.28,364.75L677.62,371.1L686.99,393.79L689.33,398.73L698.7,415.51L701.05,418.97L710.42,430.11L712.76,432.28L722.13,438.89L724.47,440.1L733.84,443.5L736.18,444.05L747.9,445.34L750.24,445.34L761.95,444.06L764.29,443.52L773.66,440.25L776.01,439.1L785.38,432.95L787.72,430.98L797.09,421.1L799.43,418.12L808.8,404.21L811.14,400.27L827.54,369.66L829.88,365.2L841.59,344.82L843.94,341.41L850.96,333.15L853.31,331.16L857.99,328.45L860.33,327.76L862.68,327.53" style="vector-effect: none; fill: none; stroke: rgb(0, 106, 113); stroke-opacity: 0.8; stroke-width: 4px; opacity: 1;"/></g><g class="points"/><g class="text"/></g><g class="trace scatter trace956f34" style="stroke-miterlimit: 2;"><g class="fills"><g><path class="js-fill" d="M1126,448L500.33,448L500.33,253.61L512.91,230.42L516.05,225.34L525.48,212.17L528.63,208.55L538.06,200.17L541.2,198.25L547.49,195.76L550.63,195.19L556.92,195.41L560.07,196.18L566.35,199.02L569.5,201.07L578.93,209.53L582.07,213.07L591.51,225.55L594.65,230.26L610.37,256.77L613.52,262.48L644.96,319.04L648.1,324.06L660.68,341.9L663.82,345.71L673.25,355.4L676.4,358.03L685.83,364.08L688.97,365.51L698.41,368.11L701.55,368.47L710.98,368.26L714.13,367.84L729.85,364.04L732.99,363.12L755,357.49L758.14,356.98L773.86,355.87L777.01,355.93L799.02,357.79L802.16,358.12L824.17,359.36L827.31,359.33L871.33,357.71L874.47,358.06L887.05,360.88L890.19,361.99L902.77,368.07L905.91,369.98L918.49,378.98L921.64,381.5L965.65,417.54L968.8,419.56L981.37,426.19L984.52,427.45L997.09,430.76L1000.24,431.14L1009.67,431.2L1012.81,430.85L1022.25,428.75L1025.39,427.7L1037.97,421.86L1041.11,420.03L1056.83,408.99L1059.97,406.5L1094.56,378.88L1097.7,376.85L1110.28,370.48L1113.42,369.41L1122.86,367.58L1126,367.46" style="fill: rgb(232, 93, 4); fill-opacity: 0.2; stroke-width: 0;"/></g></g><g class="errorbars"/><g class="lines"><path class="js-line" d="M500.33,253.61L512.91,230.42L516.05,225.34L525.48,212.17L528.63,208.55L538.06,200.17L541.2,198.25L547.49,195.76L550.63,195.19L556.92,195.41L560.07,196.18L566.35,199.02L569.5,201.07L578.93,209.53L582.07,213.07L591.51,225.55L594.65,230.26L610.37,256.77L613.52,262.48L644.96,319.04L648.1,324.06L660.68,341.9L663.82,345.71L673.25,355.4L676.4,358.03L685.83,364.08L688.97,365.51L698.41,368.11L701.55,368.47L710.98,368.26L714.13,367.84L729.85,364.04L732.99,363.12L755,357.49L758.14,356.98L773.86,355.87L777.01,355.93L799.02,357.79L802.16,358.12L824.17,359.36L827.31,359.33L871.33,357.71L874.47,358.06L887.05,360.88L890.19,361.99L902.77,368.07L905.91,369.98L918.49,378.98L921.64,381.5L965.65,417.54L968.8,419.56L981.37,426.19L984.52,427.45L997.09,430.76L1000.24,431.14L1009.67,431.2L1012.81,430.85L1022.25,428.75L1025.39,427.7L1037.97,421.86L1041.11,420.03L1056.83,408.99L1059.97,406.5L1094.56,378.88L1097.7,376.85L1110.28,370.48L1113.42,369.41L1122.86,367.58L1126,367.46" style="vector-effect: none; fill: none; stroke: rgb(232, 93, 4); stroke-opacity: 0.8; stroke-width: 4px; opacity: 1;"/></g><g class="points"/><g class="text"/></g><g class="trace scatter trace8038fe" style="stroke-miterlimit: 2;"><g class="fills"><g><path class="js-fill" d="M800.75,448L0,448L0,345.6L12.07,346.82L16.1,347.76L28.17,352.07L32.19,353.97L48.29,363.47L52.31,366.24L76.45,384.68L80.48,387.89L108.64,409.21L112.67,411.95L132.79,423.98L136.81,426.03L152.91,433.02L156.93,434.48L177.05,440.2L181.07,441.07L201.19,444.26L205.22,444.71L233.38,446.54L237.41,446.65L269.6,446.49L273.62,446.33L301.79,444.15L305.81,443.64L325.93,440.14L329.96,439.2L350.08,433.12L354.1,431.58L370.2,424.23L374.22,422.07L390.32,412.14L394.34,409.33L414.46,393.41L418.48,389.89L442.63,367.05L446.65,363.06L486.89,324.08L490.91,320.58L507.01,307.89L511.03,305.1L527.13,295.73L531.15,293.86L543.22,289.44L547.25,288.37L559.32,286.35L563.34,286.07L575.41,286.31L579.44,286.74L595.53,289.94L599.56,291.06L619.68,298.06L623.7,299.65L667.96,316.59L671.99,317.82L692.11,322.7L696.13,323.42L720.27,326.4L724.3,326.75L756.49,330.28L760.51,331.01L776.61,335.05L780.63,336.39L796.73,343.14L800.75,345.19" style="fill: rgb(123, 44, 191); fill-opacity: 0.2; stroke-width: 0;"/></g></g><g class="errorbars"/><g class="lines"><path class="js-line" d="M0,345.6L12.07,346.82L16.1,347.76L28.17,352.07L32.19,353.97L48.29,363.47L52.31,366.24L76.45,384.68L80.48,387.89L108.64,409.21L112.67,411.95L132.79,423.98L136.81,426.03L152.91,433.02L156.93,434.48L177.05,440.2L181.07,441.07L201.19,444.26L205.22,444.71L233.38,446.54L237.41,446.65L269.6,446.49L273.62,446.33L301.79,444.15L305.81,443.64L325.93,440.14L329.96,439.2L350.08,433.12L354.1,431.58L370.2,424.23L374.22,422.07L390.32,412.14L394.34,409.33L414.46,393.41L418.48,389.89L442.63,367.05L446.65,363.06L486.89,324.08L490.91,320.58L507.01,307.89L511.03,305.1L527.13,295.73L531.15,293.86L543.22,289.44L547.25,288.37L559.32,286.35L563.34,286.07L575.41,286.31L579.44,286.74L595.53,289.94L599.56,291.06L619.68,298.06L623.7,299.65L667.96,316.59L671.99,317.82L692.11,322.7L696.13,323.42L720.27,326.4L724.3,326.75L756.49,330.28L760.51,331.01L776.61,335.05L780.63,336.39L796.73,343.14L800.75,345.19" style="vector-effect: none; fill: none; stroke: rgb(123, 44, 191); stroke-opacity: 0.8; stroke-width: 4px; opacity: 1;"/></g><g class="points"/><g class="text"/></g></g></g><g class="overplot"/><path class="xlines-above crisp" d="M103,508.5H1230" style="fill: none; stroke-width: 1px; stroke: rgb(0, 0, 0); stroke-opacity: 1;"/><path class="ylines-above crisp" d="M103.5,60V508" style="fill: none; stroke-width: 1px; stroke: rgb(0, 0, 0); stroke-opacity: 1;"/><g class="overlines-above"/><g class="xaxislayer-above"><path class="xtick ticks crisp" d="M0,509v10" transform="translate(104,0)" style="stroke: rgb(68, 68, 68); stroke-opacity: 1; stroke-width: 2px;"/><path class="xtick ticks crisp" d="M0,509v10" transform="translate(372.03,0)" style="stroke: rgb(68, 68, 68); stroke-opacity: 1; stroke-width: 2px;"/><path class="xtick ticks crisp" d="M0,509v10" transform="translate(640.07,0)" style="stroke: rgb(68, 68, 68); stroke-opacity: 1; stroke-width: 2px;"/><path class="xtick ticks crisp" d="M0,509v10" transform="translate(908.1,0)" style="stroke: rgb(68, 68, 68); stroke-opacity: 1; stroke-width: 2px;"/><path class="xtick ticks crisp" d="M0,509v10" transform="translate(1176.13,0)" style="stroke: rgb(68, 68, 68); stroke-opacity: 1; stroke-width: 2px;"/><g class="xtick"><text text-anchor="middle" x="0" y="547.8" transform="translate(104,0)" style="font-family: Helvetica; font-size: 24px; fill: rgb(51, 51, 51); fill-opacity: 1; white-space: pre; opacity: 1;">0</text></g><g class="xtick"><text text-anchor="middle" x="0" y="547.8" style="font-family: Helvetica; font-size: 24px; fill: rgb(51, 51, 51); fill-opacity: 1; white-space: pre; opacity: 1;" transform="translate(372.03,0)">5</text></g><g class="xtick"><text text-anchor="middle" x="0" y="547.8" style="font-family: Helvetica; font-size: 24px; fill: rgb(51, 51, 51); fill-opacity: 1; white-space: pre; opacity: 1;" transform="translate(640.07,0)">10</text></g><g class="xtick"><text text-anchor="middle" x="0" y="547.8" style="font-family: Helvetica; font-size: 24px; fill: rgb(51, 51, 51); fill-opacity: 1; white-space: pre; opacity: 1;" transform="translate(908.1,0)">15</text></g><g class="xtick"><text text-anchor="middle" x="0" y="547.8" style="font-family: Helvetica; font-size: 24px; fill: rgb(51, 51, 51); fill-opacity: 1; white-space: pre; opacity: 1;" transform="translate(1176.13,0)">20</text></g></g><g class="yaxislayer-above"><path class="ytick ticks crisp" d="M103,0h-10" transform="translate(0,508)" style="stroke: rgb(68, 68, 68); stroke-opacity: 1; stroke-width: 2px;"/><path class="ytick ticks crisp" d="M103,0h-10" transform="translate(0,433.33)" style="stroke: rgb(68, 68, 68); stroke-opacity: 1; stroke-width: 2px;"/><path class="ytick ticks crisp" d="M103,0h-10" transform="translate(0,358.67)" style="stroke: rgb(68, 68, 68); stroke-opacity: 1; stroke-width: 2px;"/><path class="ytick ticks crisp" d="M103,0h-10" transform="translate(0,284)" style="stroke: rgb(68, 68, 68); stroke-opacity: 1; stroke-width: 2px;"/><path class="ytick ticks crisp" d="M103,0h-10" transform="translate(0,209.33)" style="stroke: rgb(68, 68, 68); stroke-opacity: 1; stroke-width: 2px;"/><path class="ytick ticks crisp" d="M103,0h-10" transform="translate(0,134.67000000000002)" style="stroke: rgb(68, 68, 68); stroke-opacity: 1; stroke-width: 2px;"/><path class="ytick ticks crisp" d="M103,0h-10" transform="translate(0,60)" style="stroke: rgb(68, 68, 68); stroke-opacity: 1; stroke-width: 2px;"/><g class="ytick"><text text-anchor="end" x="88.2" y="8.399999999999999" transform="translate(0,508)" style="font-family: Helvetica; font-size: 24px; fill: rgb(51, 51, 51); fill-opacity: 1; white-space: pre; opacity: 1;">0</text></g><g class="ytick"><text text-anchor="end" x="88.2" y="8.399999999999999" style="font-family: Helvetica; font-size: 24px; fill: rgb(51, 51, 51); fill-opacity: 1; white-space: pre; opacity: 1;" transform="translate(0,433.33)">0.05</text></g><g class="ytick"><text text-anchor="end" x="88.2" y="8.399999999999999" style="font-family: Helvetica; font-size: 24px; fill: rgb(51, 51, 51); fill-opacity: 1; white-space: pre; opacity: 1;" transform="translate(0,358.67)">0.1</text></g><g class="ytick"><text text-anchor="end" x="88.2" y="8.399999999999999" style="font-family: Helvetica; font-size: 24px; fill: rgb(51, 51, 51); fill-opacity: 1; white-space: pre; opacity: 1;" transform="translate(0,284)">0.15</text></g><g class="ytick"><text text-anchor="end" x="88.2" y="8.399999999999999" style="font-family: Helvetica; font-size: 24px; fill: rgb(51, 51, 51); fill-opacity: 1; white-space: pre; opacity: 1;" transform="translate(0,209.33)">0.2</text></g><g class="ytick"><text text-anchor="end" x="88.2" y="8.399999999999999" style="font-family: Helvetica; font-size: 24px; fill: rgb(51, 51, 51); fill-opacity: 1; white-space: pre; opacity: 1;" transform="translate(0,134.67000000000002)">0.25</text></g><g class="ytick"><text text-anchor="end" x="88.2" y="8.399999999999999" style="font-family: Helvetica; font-size: 24px; fill: rgb(51, 51, 51); fill-opacity: 1; white-space: pre; opacity: 1;" transform="translate(0,60)">0.3</text></g></g><g class="overaxes-above"/></g></g><g class="polarlayer"/><g class="smithlayer"/><g class="ternarylayer"/><g class="geolayer"/><g class="funnelarealayer"/><g class="pielayer"/><g class="iciclelayer"/><g class="treemaplayer"/><g class="sunburstlayer"/><g class="glimages"/><defs id="topdefs-15fd2a"><g class="clips"/><clipPath id="legend15fd2a"><rect width="129" height="189" x="0" y="0"/></clipPath></defs><g class="layer-above"><g class="imagelayer"/><g class="shapelayer"><g class="shape-group" data-index="0" clip-path="url(#clip15fd2ax)"><path data-index="0" fill-rule="evenodd" d="M693.67,508L693.67,60" style="opacity: 1; stroke: rgb(0, 0, 0); stroke-opacity: 0.6; fill: rgb(0, 0, 0); fill-opacity: 0; stroke-dasharray: 12px, 12px; stroke-width: 4px;"/></g></g></g><g class="infolayer"><g class="legend" pointer-events="all" transform="translate(1117.4,167.09999999999997)"><rect class="bg" shape-rendering="crispEdges" width="129" height="189" x="0" y="0" style="stroke: rgb(68, 68, 68); stroke-opacity: 1; fill: rgb(255, 255, 255); fill-opacity: 1; stroke-width: 0px;"/><g class="scrollbox" transform="" clip-path="url(#legend15fd2a)"><g class="groups"><g class="traces" transform="translate(0,27.3)" style="opacity: 1;"><text class="legendtext" text-anchor="start" x="40" y="12.48" style="font-family: Helvetica; font-size: 32px; fill: rgb(51, 51, 51); fill-opacity: 1; white-space: pre;">PT</text><g class="layers"><g class="legendfill"><path class="js-fill" d="M5,-2h30v6h-30z" style="stroke-width: 0; fill: rgb(0, 0, 0); fill-opacity: 0.2;"/></g><g class="legendlines"><path class="js-line" d="M5,-2h30" style="fill: none; stroke: rgb(0, 0, 0); stroke-opacity: 0.8; stroke-width: 4px;"/></g><g class="legendsymbols"><g class="legendpoints"/></g></g><rect class="legendtoggle" x="0" y="-22.3" width="123.625" height="44.6" style="fill: rgb(0, 0, 0); fill-opacity: 0;"/></g><g class="traces" transform="translate(0,71.9)" style="opacity: 1;"><text class="legendtext" text-anchor="start" x="40" y="12.48" style="font-family: Helvetica; font-size: 32px; fill: rgb(51, 51, 51); fill-opacity: 1; white-space: pre;">AL #1</text><g class="layers"><g class="legendfill"><path class="js-fill" d="M5,-2h30v6h-30z" style="stroke-width: 0; fill: rgb(0, 106, 113); fill-opacity: 0.2;"/></g><g class="legendlines"><path class="js-line" d="M5,-2h30" style="fill: none; stroke: rgb(0, 106, 113); stroke-opacity: 0.8; stroke-width: 4px;"/></g><g class="legendsymbols"><g class="legendpoints"/></g></g><rect class="legendtoggle" x="0" y="-22.3" width="123.625" height="44.6" style="fill: rgb(0, 0, 0); fill-opacity: 0;"/></g><g class="traces" transform="translate(0,116.5)" style="opacity: 1;"><text class="legendtext" text-anchor="start" x="40" y="12.48" style="font-family: Helvetica; font-size: 32px; fill: rgb(51, 51, 51); fill-opacity: 1; white-space: pre;">AL #2</text><g class="layers"><g class="legendfill"><path class="js-fill" d="M5,-2h30v6h-30z" style="stroke-width: 0; fill: rgb(232, 93, 4); fill-opacity: 0.2;"/></g><g class="legendlines"><path class="js-line" d="M5,-2h30" style="fill: none; stroke: rgb(232, 93, 4); stroke-opacity: 0.8; stroke-width: 4px;"/></g><g class="legendsymbols"><g class="legendpoints"/></g></g><rect class="legendtoggle" x="0" y="-22.3" width="123.625" height="44.6" style="fill: rgb(0, 0, 0); fill-opacity: 0;"/></g><g class="traces" transform="translate(0,161.10000000000002)" style="opacity: 1;"><text class="legendtext" text-anchor="start" x="40" y="12.48" style="font-family: Helvetica; font-size: 32px; fill: rgb(51, 51, 51); fill-opacity: 1; white-space: pre;">AL #3</text><g class="layers"><g class="legendfill"><path class="js-fill" d="M5,-2h30v6h-30z" style="stroke-width: 0; fill: rgb(123, 44, 191); fill-opacity: 0.2;"/></g><g class="legendlines"><path class="js-line" d="M5,-2h30" style="fill: none; stroke: rgb(123, 44, 191); stroke-opacity: 0.8; stroke-width: 4px;"/></g><g class="legendsymbols"><g class="legendpoints"/></g></g><rect class="legendtoggle" x="0" y="-22.3" width="123.625" height="44.6" style="fill: rgb(0, 0, 0); fill-opacity: 0;"/></g></g></g><rect class="scrollbar" rx="20" ry="3" width="0" height="0" x="0" y="0" style="fill: rgb(128, 139, 164); fill-opacity: 1;"/></g><g class="g-gtitle"><text class="gtitle" x="640" y="18" text-anchor="middle" dy="0.7em" style="font-family: Helvetica; font-size: 36px; fill: rgb(51, 51, 51); opacity: 1; font-weight: normal; white-space: pre;"><tspan style="font-weight:bold">196 descriptor-based space, 10 clusters, softsub selection</tspan></text></g><g class="g-xtitle"><text class="xtitle" x="667" y="587.9125" text-anchor="middle" style="font-family: Helvetica; font-size: 28px; fill: rgb(51, 51, 51); opacity: 1; font-weight: normal; white-space: pre;">Attractive Interaction Score</text></g><g class="g-ytitle" transform="translate(13.615234375,0)"><text class="ytitle" transform="rotate(-90,12.384375000000006,284)" x="12.384375000000006" y="284" text-anchor="middle" style="font-family: Helvetica; font-size: 28px; fill: rgb(51, 51, 51); opacity: 1; font-weight: normal; white-space: pre;">Relative Frequency</text></g><g class="annotation" data-index="0" style="opacity: 1;"><g class="annotation-text-g" transform="rotate(0,1068.92,133.59999999999997)"><g class="cursor-pointer" transform="translate(989,118)"><rect class="bg" x="0.5" y="0.5" width="159" height="31" style="stroke-width: 1px; stroke: rgb(0, 0, 0); stroke-opacity: 0; fill: rgb(0, 0, 0); fill-opacity: 0;"/><text class="annotation-text" text-anchor="middle" x="80.03125" y="24" style="font-family: Helvetica; font-size: 24px; fill: rgb(0, 0, 0); fill-opacity: 0.6; white-space: pre;"><tspan style="font-weight:bold">Threshold: 11</tspan></text></g></g></g></g></svg>