<svg class="main-svg" xmlns="http://www.w3.org/2000/svg" xmlns:xlink="http://www.w3.org/1999/xlink" width="1280" height="600" style="" viewBox="0 0 1280 600"><rect x="0" y="0" width="1280" height="600" style="fill: rgb(255, 255, 255); fill-opacity: 1;"/><defs id="defs-aaf89b"><g class="clips"><clipPath id="clipaaf89bxyplot" class="plotclip"><rect width="1126" height="448"/></clipPath><clipPath class="axesclip" id="clipaaf89bx"><rect x="104" y="0" width="1126" height="600"/></clipPath><clipPath class="axesclip" id="clipaaf89by"><rect x="0" y="60" width="1280" height="448"/></clipPath><clipPath class="axesclip" id="clipaaf89bxy"><rect x="104" y="60" width="1126" height="448"/></clipPath></g><g class="gradients"/><g class="patterns"/></defs><g class="bglayer"/><g class="layer-below"><g class="imagelayer"/><g class="shapelayer"/></g><g class="cartesianlayer"><g class="subplot xy"><g class="layer-subplot"><g class="shapelayer"/><g class="imagelayer"/></g><g class="minor-gridlayer"><g class="x"/><g class="y"/></g><g class="gridlayer"><g class="x"/><g class="y"/></g><g class="zerolinelayer"/><path class="xlines-below"/><path class="ylines-below"/><g class="overlines-below"/><g class="xaxislayer-below"/><g class="yaxislayer-below"/><g class="overaxes-below"/><g class="plot" transform="translate(104,60)" clip-path="url(#clipaaf89bxyplot)"><g class="scatterlayer mlayer"><g class="trace scatter trace2ed33d" style="stroke-miterlimit: 2;"><g class="fills"><g><path class="js-fill" d="M846.15,448L26.34,448L26.34,434.94L63.42,432.15L67.54,431.39L79.89,427.87L84.01,426.2L96.37,419.56L100.49,416.79L112.85,406.88L116.97,403.09L133.45,386.04L137.57,381.43L195.24,316.26L199.36,312.07L248.8,262.07L252.92,257.19L269.4,235.66L273.52,229.87L298.23,196.1L302.35,191.45L310.59,183.85L314.71,181.08L322.95,177.88L327.07,177.54L335.31,179.34L339.43,181.43L347.67,187.63L351.79,191.57L368.27,210.02L372.39,214.68L384.75,226.77L388.87,229.85L397.11,234.13L401.23,235.24L409.47,235.34L413.58,234.34L421.82,230.45L425.94,227.69L438.3,217.22L442.42,213.38L454.78,202.52L458.9,199.52L467.14,195.11L471.26,193.85L479.5,193.46L483.62,194.35L491.86,198.14L495.98,200.9L508.34,211.45L512.46,215.3L524.81,226.08L528.93,229.06L537.17,233.63L541.29,235.16L549.53,236.73L553.65,236.84L566.01,235.41L570.13,234.66L582.49,232.95L586.61,232.85L594.85,233.78L598.97,234.89L607.21,238.47L611.33,240.95L623.69,250.85L627.81,254.87L644.28,273.51L648.4,278.65L673.12,311.56L677.24,317.27L718.44,373.47L722.56,378.54L739.04,396.64L743.16,400.53L755.51,410.6L759.63,413.41L771.99,420.33L776.11,422.16L788.47,426.44L792.59,427.51L809.07,430.43L813.19,430.9L846.15,433.83" style="fill: rgb(0, 0, 0); fill-opacity: 0.2; stroke-width: 0;"/></g></g><g class="errorbars"/><g class="lines"><path class="js-line" d="M26.34,434.94L63.42,432.15L67.54,431.39L79.89,427.87L84.01,426.2L96.37,419.56L100.49,416.79L112.85,406.88L116.97,403.09L133.45,386.04L137.57,381.43L195.24,316.26L199.36,312.07L248.8,262.07L252.92,257.19L269.4,235.66L273.52,229.87L298.23,196.1L302.35,191.45L310.59,183.85L314.71,181.08L322.95,177.88L327.07,177.54L335.31,179.34L339.43,181.43L347.67,187.63L351.79,191.57L368.27,210.02L372.39,214.68L384.75,226.77L388.87,229.85L397.11,234.13L401.23,235.24L409.47,235.34L413.58,234.34L421.82,230.45L425.94,227.69L438.3,217.22L442.42,213.38L454.78,202.52L458.9,199.52L467.14,195.11L471.26,193.85L479.5,193.46L483.62,194.35L491.86,198.14L495.98,200.9L508.34,211.45L512.46,215.3L524.81,226.08L528.93,229.06L537.17,233.63L541.29,235.16L549.53,236.73L553.65,236.84L566.01,235.41L570.13,234.66L582.49,232.95L586.61,232.85L594.85,233.78L598.97,234.89L607.21,238.47L611.33,240.95L623.69,250.85L627.81,254.87L644.28,273.51L648.4,278.65L673.12,311.56L677.24,317.27L718.44,373.47L722.56,378.54L739.04,396.64L743.16,400.53L755.51,410.6L759.63,413.41L771.99,420.33L776.11,422.16L788.47,426.44L792.59,427.51L809.07,430.43L813.19,430.9L846.15,433.83" style="vector-effect: none; fill: none; stroke: rgb(0, 0, 0); stroke-opacity: 0.8; stroke-width: 4px; opacity: 1;"/></g><g class="points"/><g class="text"/></g><g class="trace scatter tracee42e86" style="stroke-miterlimit: 2;"><g class="fills"><g><path class="js-fill" d="M944.92,448L46.09,448L46.09,434.86L59.64,435.7L64.16,436.32L113.84,444.81L118.36,445.07L136.43,444.58L140.94,444.04L154.49,441.4L159.01,440.17L177.08,433.5L181.59,431.41L199.66,421.41L204.18,418.49L222.25,405.12L226.76,401.38L280.96,354.98L285.48,351.64L308.06,334.1L312.58,329.93L321.61,320.32L326.13,314.72L335.16,301.58L339.68,293.91L348.71,276.14L353.23,265.98L366.78,230.57L371.3,217.35L402.91,122.83L407.43,111.91L416.46,94.26L420.98,87.8L425.5,83L430.01,79.85L434.53,78.29L439.05,78.22L443.56,79.48L448.08,81.87L457.11,89.19L461.63,93.66L484.21,116.04L488.73,119.54L497.76,125.15L502.28,127.35L533.9,141.16L538.41,144.17L551.96,155.71L556.48,160.25L601.65,207.19L606.17,211.48L637.78,242.74L642.3,247.43L682.95,290.91L687.47,296.39L701.02,314.61L705.53,321.28L741.67,376.21L746.18,381.87L755.22,391.63L759.73,395.72L773.28,405.3L777.8,407.78L795.87,415.68L800.38,417.32L818.45,422.4L822.97,423.16L836.52,423.86L841.03,423.58L859.1,420.78L863.62,419.95L881.68,417.91L886.2,417.89L899.75,419.08L904.27,419.82L931.37,425.94L935.88,427.07L944.92,429.38" style="fill: rgb(0, 106, 113); fill-opacity: 0.2; stroke-width: 0;"/></g></g><g class="errorbars"/><g class="lines"><path class="js-line" d="M46.09,434.86L59.64,435.7L64.16,436.32L113.84,444.81L118.36,445.07L136.43,444.58L140.94,444.04L154.49,441.4L159.01,440.17L177.08,433.5L181.59,431.41L199.66,421.41L204.18,418.49L222.25,405.12L226.76,401.38L280.96,354.98L285.48,351.64L308.06,334.1L312.58,329.93L321.61,320.32L326.13,314.72L335.16,301.58L339.68,293.91L348.71,276.14L353.23,265.98L366.78,230.57L371.3,217.35L402.91,122.83L407.43,111.91L416.46,94.26L420.98,87.8L425.5,83L430.01,79.85L434.53,78.29L439.05,78.22L443.56,79.48L448.08,81.87L457.11,89.19L461.63,93.66L484.21,116.04L488.73,119.54L497.76,125.15L502.28,127.35L533.9,141.16L538.41,144.17L551.96,155.71L556.48,160.25L601.65,207.19L606.17,211.48L637.78,242.74L642.3,247.43L682.95,290.91L687.47,296.39L701.02,314.61L705.53,321.28L741.67,376.21L746.18,381.87L755.22,391.63L759.73,395.72L773.28,405.3L777.8,407.78L795.87,415.68L800.38,417.32L818.45,422.4L822.97,423.16L836.52,423.86L841.03,423.58L859.1,420.78L863.62,419.95L881.68,417.91L886.2,417.89L899.75,419.08L904.27,419.82L931.37,425.94L935.88,427.07L944.92,429.38" style="vector-effect: none; fill: none; stroke: rgb(0, 106, 113); stroke-opacity: 0.8; stroke-width: 4px; opacity: 1;"/></g><g class="points"/><g class="text"/></g><g class="trace scatter trace877376" style="stroke-miterlimit: 2;"><g class="fills"><g><path class="js-fill" d="M964.67,448L0,448L0,432.93L63.02,422.66L67.87,422.12L92.1,420.71L96.95,420.71L126.04,422.18L130.89,422.54L155.12,423.51L159.97,423.37L174.51,421.79L179.36,420.8L193.9,416.14L198.75,413.97L213.29,405.33L218.14,401.73L232.68,388.7L237.53,383.64L252.08,366.57L256.92,360.36L300.55,302.63L305.4,297.23L315.09,287.84L319.94,283.94L329.64,277.94L334.48,275.86L344.18,273.53L349.03,273.24L358.72,274.17L363.57,275.27L378.11,280.18L382.96,282.06L402.35,288.44L407.2,289.37L416.89,290.02L421.74,289.67L431.44,287.52L436.28,285.73L445.98,280.84L450.83,277.8L465.37,266.99L470.22,263.03L494.46,243.63L499.3,240.27L513.85,232.08L518.69,230.06L533.24,226.12L538.08,225.46L552.63,224.97L557.47,225.17L610.8,229.52L615.65,230.02L635.04,233.32L639.88,234.57L654.43,239.52L659.27,241.56L678.66,251.09L683.51,253.69L761.07,296.09L765.92,299.2L790.16,316.4L795.01,320.1L833.79,349.27L838.63,352.49L853.18,361.05L858.03,363.48L872.57,369.47L877.42,371.05L896.81,375.78L901.65,376.71L930.74,383.2L935.59,384.74L950.13,390.58L954.98,392.93L964.67,398.18" style="fill: rgb(232, 93, 4); fill-opacity: 0.2; stroke-width: 0;"/></g></g><g class="errorbars"/><g class="lines"><path class="js-line" d="M0,432.93L63.02,422.66L67.87,422.12L92.1,420.71L96.95,420.71L126.04,422.18L130.89,422.54L155.12,423.51L159.97,423.37L174.51,421.79L179.36,420.8L193.9,416.14L198.75,413.97L213.29,405.33L218.14,401.73L232.68,388.7L237.53,383.64L252.08,366.57L256.92,360.36L300.55,302.63L305.4,297.23L315.09,287.84L319.94,283.94L329.64,277.94L334.48,275.86L344.18,273.53L349.03,273.24L358.72,274.17L363.57,275.27L378.11,280.18L382.96,282.06L402.35,288.44L407.2,289.37L416.89,290.02L421.74,289.67L431.44,287.52L436.28,285.73L445.98,280.84L450.83,277.8L465.37,266.99L470.22,263.03L494.46,243.63L499.3,240.27L513.85,232.08L518.69,230.06L533.24,226.12L538.08,225.46L552.63,224.97L557.47,225.17L610.8,229.52L615.65,230.02L635.04,233.32L639.88,234.57L654.43,239.52L659.27,241.56L678.66,251.09L683.51,253.69L761.07,296.09L765.92,299.2L790.16,316.4L795.01,320.1L833.79,349.27L838.63,352.49L853.18,361.05L858.03,363.48L872.57,369.47L877.42,371.05L896.81,375.78L901.65,376.71L930.74,383.2L935.59,384.74L950.13,390.58L954.98,392.93L964.67,398.18" style="vector-effect: none; fill: none; stroke: rgb(232, 93, 4); stroke-opacity: 0.8; stroke-width: 4px; opacity: 1;"/></g><g class="points"/><g class="text"/></g><g class="trace scatter trace042be0" style="stroke-miterlimit: 2;"><g class="fills"><g><path class="js-fill" d="M1000.89,448L95.48,448L95.48,433.61L127.33,427.66L131.88,426.58L159.18,418.81L163.73,417.4L191.03,409.98L195.58,409.08L213.77,406.65L218.32,406.29L254.72,402.89L259.27,401.97L272.92,398.09L277.47,396.42L295.67,388.2L300.22,385.84L327.52,370.26L332.07,367.41L350.27,354.63L354.82,350.97L368.47,338.61L373.02,334.01L391.22,313.81L395.77,308.49L418.52,282.77L423.06,278.13L436.71,265.83L441.26,262.29L454.91,253.14L459.46,250.48L495.86,229.61L500.41,226.42L518.61,211.68L523.16,207.58L555.01,179.01L559.56,175.57L573.21,167.11L577.76,165L586.86,161.97L591.41,161.05L600.51,160.43L605.06,160.72L614.16,162.5L618.71,163.99L627.81,168.12L632.36,170.75L646,180.78L650.55,184.77L664.2,198.36L668.75,203.33L700.6,240.66L705.15,245.96L727.9,270.64L732.45,275.09L750.65,290.83L755.2,294.22L768.85,303.02L773.4,305.51L791.6,313.55L796.15,315.17L837.1,329.69L841.65,331.93L855.3,339.99L859.85,343.11L882.59,360.88L887.14,364.58L905.34,378.42L909.89,381.44L923.54,389.15L928.09,391.25L941.74,396.3L946.29,397.66L991.79,410.34L996.34,412.04L1000.89,413.85" style="fill: rgb(123, 44, 191); fill-opacity: 0.2; stroke-width: 0;"/></g></g><g class="errorbars"/><g class="lines"><path class="js-line" d="M95.48,433.61L127.33,427.66L131.88,426.58L159.18,418.81L163.73,417.4L191.03,409.98L195.58,409.08L213.77,406.65L218.32,406.29L254.72,402.89L259.27,401.97L272.92,398.09L277.47,396.42L295.67,388.2L300.22,385.84L327.52,370.26L332.07,367.41L350.27,354.63L354.82,350.97L368.47,338.61L373.02,334.01L391.22,313.81L395.77,308.49L418.52,282.77L423.06,278.13L436.71,265.83L441.26,262.29L454.91,253.14L459.46,250.48L495.86,229.61L500.41,226.42L518.61,211.68L523.16,207.58L555.01,179.01L559.56,175.57L573.21,167.11L577.76,165L586.86,161.97L591.41,161.05L600.51,160.43L605.06,160.72L614.16,162.5L618.71,163.99L627.81,168.12L632.36,170.75L646,180.78L650.55,184.77L664.2,198.36L668.75,203.33L700.6,240.66L705.15,245.96L727.9,270.64L732.45,275.09L750.65,290.83L755.2,294.22L768.85,303.02L773.4,305.51L791.6,313.55L796.15,315.17L837.1,329.69L841.65,331.93L855.3,339.99L859.85,343.11L882.59,360.88L887.14,364.58L905.34,378.42L909.89,381.44L923.54,389.15L928.09,391.25L941.74,396.3L946.29,397.66L991.79,410.34L996.34,412.04L1000.89,413.85" style="vector-effect: none; fill: none; stroke: rgb(123, 44, 191); stroke-opacity: 0.8; stroke-width: 4px; opacity: 1;"/></g><g class="points"/><g class="text"/></g><g class="trace scatter tracecc153c" style="stroke-miterlimit: 2;"><g class="fills"><g><path class="js-fill" d="M987.72,448L210.71,448L210.71,414.51L234.14,404.98L238.05,403.56L288.8,384.76L292.71,383.15L374.7,349.21L378.61,347.23L409.85,329.77L413.75,327.46L456.7,303.03L460.6,301.21L476.22,295.34L480.13,294.27L495.75,291.43L499.65,290.98L523.08,287.74L526.98,286.69L538.7,281.82L542.6,279.53L554.31,270.43L558.22,266.66L569.93,253.32L573.84,248.28L589.45,226L593.36,220.06L632.41,160.55L636.31,155.35L648.02,141.88L651.93,138.29L659.74,132.81L663.64,131.01L671.45,129.49L675.36,129.82L683.16,132.68L687.07,135.18L694.88,142.17L698.78,146.56L710.5,162.49L714.4,168.47L749.54,223.14L753.45,228.37L769.06,246.8L772.97,250.84L792.49,268.87L796.4,272.2L831.54,300.69L835.44,303.66L854.96,317.22L858.87,319.64L878.39,330.16L882.3,332.01L929.15,354.22L933.06,356.48L952.58,369.32L956.48,372.19L979.91,390.85L983.81,394.11L987.72,397.37" style="fill: rgb(0, 128, 0); fill-opacity: 0.2; stroke-width: 0;"/></g></g><g class="errorbars"/><g class="lines"><path class="js-line" d="M210.71,414.51L234.14,404.98L238.05,403.56L288.8,384.76L292.71,383.15L374.7,349.21L378.61,347.23L409.85,329.77L413.75,327.46L456.7,303.03L460.6,301.21L476.22,295.34L480.13,294.27L495.75,291.43L499.65,290.98L523.08,287.74L526.98,286.69L538.7,281.82L542.6,279.53L554.31,270.43L558.22,266.66L569.93,253.32L573.84,248.28L589.45,226L593.36,220.06L632.41,160.55L636.31,155.35L648.02,141.88L651.93,138.29L659.74,132.81L663.64,131.01L671.45,129.49L675.36,129.82L683.16,132.68L687.07,135.18L694.88,142.17L698.78,146.56L710.5,162.49L714.4,168.47L749.54,223.14L753.45,228.37L769.06,246.8L772.97,250.84L792.49,268.87L796.4,272.2L831.54,300.69L835.44,303.66L854.96,317.22L858.87,319.64L878.39,330.16L882.3,332.01L929.15,354.22L933.06,356.48L952.58,369.32L956.48,372.19L979.91,390.85L983.81,394.11L987.72,397.37" style="vector-effect: none; fill: none; stroke: rgb(0, 128, 0); stroke-opacity: 0.8; stroke-width: 4px; opacity: 1;"/></g><g class="points"/><g class="text"/></g><g class="trace scatter tracee7b520" style="stroke-miterlimit: 2;"><g class="fills"><g><path class="js-fill" d="M1126,448L148.16,448L148.16,427.62L182.55,418.19L187.47,417.16L202.21,415.01L207.12,414.66L221.86,414.9L226.78,415.4L246.43,419.04L251.35,420.19L275.92,425.04L280.83,425.47L290.66,425.43L295.57,424.89L305.4,422.61L310.31,420.84L320.14,415.96L325.05,412.85L334.88,405.26L339.8,400.8L354.54,384.9L359.45,378.83L379.11,351.72L384.02,344.53L408.59,310.11L413.5,304.18L423.33,293.95L428.24,289.77L438.07,283.47L442.98,281.38L452.81,279.21L457.73,279.05L467.55,280.27L472.47,281.49L492.12,288.62L497.04,290.58L516.69,297.19L521.61,298.29L531.43,299.51L536.35,299.56L546.17,298.39L551.09,297.13L560.92,293.16L565.83,290.45L575.66,283.65L580.57,279.6L595.31,265.35L600.23,260.06L654.28,200.47L659.19,195.84L673.93,183.45L678.85,179.92L688.67,173.96L693.59,171.61L703.41,168.37L708.33,167.55L718.16,167.66L723.07,168.62L732.9,172.32L737.81,175L752.55,185.71L757.47,189.89L786.95,215.06L791.86,218.59L806.6,227.71L811.52,230.4L831.17,241.59L836.09,244.98L845.91,253.05L850.83,257.85L860.66,269.03L865.57,275.39L880.31,296.89L885.22,304.59L914.71,349.74L919.62,356.3L934.36,373.22L939.28,377.89L949.1,385.8L954.02,389.08L968.76,396.67L973.67,398.59L993.33,404.54L998.24,405.81L1032.64,415.39L1037.55,416.94L1071.95,427.08L1076.86,428.23L1101.43,432.44L1106.34,433.05L1126,435.22" style="fill: rgb(164, 19, 60); fill-opacity: 0.2; stroke-width: 0;"/></g></g><g class="errorbars"/><g class="lines"><path class="js-line" d="M148.16,427.62L182.55,418.19L187.47,417.16L202.21,415.01L207.12,414.66L221.86,414.9L226.78,415.4L246.43,419.04L251.35,420.19L275.92,425.04L280.83,425.47L290.66,425.43L295.57,424.89L305.4,422.61L310.31,420.84L320.14,415.96L325.05,412.85L334.88,405.26L339.8,400.8L354.54,384.9L359.45,378.83L379.11,351.72L384.02,344.53L408.59,310.11L413.5,304.18L423.33,293.95L428.24,289.77L438.07,283.47L442.98,281.38L452.81,279.21L457.73,279.05L467.55,280.27L472.47,281.49L492.12,288.62L497.04,290.58L516.69,297.19L521.61,298.29L531.43,299.51L536.35,299.56L546.17,298.39L551.09,297.13L560.92,293.16L565.83,290.45L575.66,283.65L580.57,279.6L595.31,265.35L600.23,260.06L654.28,200.47L659.19,195.84L673.93,183.45L678.85,179.92L688.67,173.96L693.59,171.61L703.41,168.37L708.33,167.55L718.16,167.66L723.07,168.62L732.9,172.32L737.81,175L752.55,185.71L757.47,189.89L786.95,215.06L791.86,218.59L806.6,227.71L811.52,230.4L831.17,241.59L836.09,244.98L845.91,253.05L850.83,257.85L860.66,269.03L865.57,275.39L880.31,296.89L885.22,304.59L914.71,349.74L919.62,356.3L934.36,373.22L939.28,377.89L949.1,385.8L954.02,389.08L968.76,396.67L973.67,398.59L993.33,404.54L998.24,405.81L1032.64,415.39L1037.55,416.94L1071.95,427.08L1076.86,428.23L1101.43,432.44L1106.34,433.05L1126,435.22" style="vector-effect: none; fill: none; stroke: rgb(164, 19, 60); stroke-opacity: 0.8; stroke-width: 4px; opacity: 1;"/></g><g class="points"/><g class="text"/></g></g></g><g class="overplot"/><path class="xlines-above crisp" d="M103,508.5H1230" style="fill: none; stroke-width: 1px; stroke: rgb(0, 0, 0); stroke-opacity: 1;"/><path class="ylines-above crisp" d="M103.5,60V508" style="fill: none; stroke-width: 1px; stroke: rgb(0, 0, 0); stroke-opacity: 1;"/><g class="overlines-above"/><g class="xaxislayer-above"><path class="xtick ticks crisp" d="M0,509v10" transform="translate(232.4,0)" style="stroke: rgb(68, 68, 68); stroke-opacity: 1; stroke-width: 2px;"/><path class="xtick ticks crisp" d="M0,509v10" transform="translate(364.1,0)" style="stroke: rgb(68, 68, 68); stroke-opacity: 1; stroke-width: 2px;"/><path class="xtick ticks crisp" d="M0,509v10" transform="translate(495.8,0)" style="stroke: rgb(68, 68, 68); stroke-opacity: 1; stroke-width: 2px;"/><path class="xtick ticks crisp" d="M0,509v10" transform="translate(627.49,0)" style="stroke: rgb(68, 68, 68); stroke-opacity: 1; stroke-width: 2px;"/><path class="xtick ticks crisp" d="M0,509v10" transform="translate(759.19,0)" style="stroke: rgb(68, 68, 68); stroke-opacity: 1; stroke-width: 2px;"/><path class="xtick ticks crisp" d="M0,509v10" transform="translate(890.88,0)" style="stroke: rgb(68, 68, 68); stroke-opacity: 1; stroke-width: 2px;"/><path class="xtick ticks crisp" d="M0,509v10" transform="translate(1022.58,0)" style="stroke: rgb(68, 68, 68); stroke-opacity: 1; stroke-width: 2px;"/><path class="xtick ticks crisp" d="M0,509v10" transform="translate(1154.27,0)" style="stroke: rgb(68, 68, 68); stroke-opacity: 1; stroke-width: 2px;"/><g class="xtick"><text text-anchor="middle" x="0" y="547.8" transform="translate(232.4,0)" style="font-family: Helvetica; font-size: 24px; fill: rgb(51, 51, 51); fill-opacity: 1; white-space: pre; opacity: 1;">4</text></g><g class="xtick"><text text-anchor="middle" x="0" y="547.8" style="font-family: Helvetica; font-size: 24px; fill: rgb(51, 51, 51); fill-opacity: 1; white-space: pre; opacity: 1;" transform="translate(364.1,0)">6</text></g><g class="xtick"><text text-anchor="middle" x="0" y="547.8" style="font-family: Helvetica; font-size: 24px; fill: rgb(51, 51, 51); fill-opacity: 1; white-space: pre; opacity: 1;" transform="translate(495.8,0)">8</text></g><g class="xtick"><text text-anchor="middle" x="0" y="547.8" style="font-family: Helvetica; font-size: 24px; fill: rgb(51, 51, 51); fill-opacity: 1; white-space: pre; opacity: 1;" transform="translate(627.49,0)">10</text></g><g class="xtick"><text text-anchor="middle" x="0" y="547.8" style="font-family: Helvetica; font-size: 24px; fill: rgb(51, 51, 51); fill-opacity: 1; white-space: pre; opacity: 1;" transform="translate(759.19,0)">12</text></g><g class="xtick"><text text-anchor="middle" x="0" y="547.8" style="font-family: Helvetica; font-size: 24px; fill: rgb(51, 51, 51); fill-opacity: 1; white-space: pre; opacity: 1;" transform="translate(890.88,0)">14</text></g><g class="xtick"><text text-anchor="middle" x="0" y="547.8" style="font-family: Helvetica; font-size: 24px; fill: rgb(51, 51, 51); fill-opacity: 1; white-space: pre; opacity: 1;" transform="translate(1022.58,0)">16</text></g><g class="xtick"><text text-anchor="middle" x="0" y="547.8" style="font-family: Helvetica; font-size: 24px; fill: rgb(51, 51, 51); fill-opacity: 1; white-space: pre; opacity: 1;" transform="translate(1154.27,0)">18</text></g></g><g class="yaxislayer-above"><path class="ytick ticks crisp" d="M103,0h-10" transform="translate(0,508)" style="stroke: rgb(68, 68, 68); stroke-opacity: 1; stroke-width: 2px;"/><path class="ytick ticks crisp" d="M103,0h-10" transform="translate(0,415.25)" style="stroke: rgb(68, 68, 68); stroke-opacity: 1; stroke-width: 2px;"/><path class="ytick ticks crisp" d="M103,0h-10" transform="translate(0,322.49)" style="stroke: rgb(68, 68, 68); stroke-opacity: 1; stroke-width: 2px;"/><path class="ytick ticks crisp" d="M103,0h-10" transform="translate(0,229.74)" style="stroke: rgb(68, 68, 68); stroke-opacity: 1; stroke-width: 2px;"/><path class="ytick ticks crisp" d="M103,0h-10" transform="translate(0,136.99)" style="stroke: rgb(68, 68, 68); stroke-opacity: 1; stroke-width: 2px;"/><g class="ytick"><text text-anchor="end" x="88.2" y="8.399999999999999" transform="translate(0,508)" style="font-family: Helvetica; font-size: 24px; fill: rgb(51, 51, 51); fill-opacity: 1; white-space: pre; opacity: 1;">0</text></g><g class="ytick"><text text-anchor="end" x="88.2" y="8.399999999999999" style="font-family: Helvetica; font-size: 24px; fill: rgb(51, 51, 51); fill-opacity: 1; white-space: pre; opacity: 1;" transform="translate(0,415.25)">0.05</text></g><g class="ytick"><text text-anchor="end" x="88.2" y="8.399999999999999" style="font-family: Helvetica; font-size: 24px; fill: rgb(51, 51, 51); fill-opacity: 1; white-space: pre; opacity: 1;" transform="translate(0,322.49)">0.1</text></g><g class="ytick"><text text-anchor="end" x="88.2" y="8.399999999999999" style="font-family: Helvetica; font-size: 24px; fill: rgb(51, 51, 51); fill-opacity: 1; white-space: pre; opacity: 1;" transform="translate(0,229.74)">0.15</text></g><g class="ytick"><text text-anchor="end" x="88.2" y="8.399999999999999" style="font-family: Helvetica; font-size: 24px; fill: rgb(51, 51, 51); fill-opacity: 1; white-space: pre; opacity: 1;" transform="translate(0,136.99)">0.2</text></g></g><g class="overaxes-above"/></g></g><g class="polarlayer"/><g class="smithlayer"/><g class="ternarylayer"/><g class="geolayer"/><g class="funnelarealayer"/><g class="pielayer"/><g class="iciclelayer"/><g class="treemaplayer"/><g class="sunburstlayer"/><g class="glimages"/><defs id="topdefs-aaf89b"><g class="clips"/><clipPath id="legendaaf89b"><rect width="129" height="278" x="0" y="0"/></clipPath></defs><g class="layer-above"><g class="imagelayer"/><g class="shapelayer"><g class="shape-group" data-index="0" clip-path="url(#clipaaf89bx)"><path data-index="0" fill-rule="evenodd" d="M693.34,508L693.34,60" style="opacity: 1; stroke: rgb(0, 0, 0); stroke-opacity: 0.6; fill: rgb(0, 0, 0); fill-opacity: 0; stroke-dasharray: 12px, 12px; stroke-width: 4px;"/></g></g></g><g class="infolayer"><g class="legend" pointer-events="all" transform="translate(1117.4,122.59999999999997)"><rect class="bg" shape-rendering="crispEdges" width="129" height="278" x="0" y="0" style="stroke: rgb(68, 68, 68); stroke-opacity: 1; fill: rgb(255, 255, 255); fill-opacity: 1; stroke-width: 0px;"/><g class="scrollbox" transform="" clip-path="url(#legendaaf89b)"><g class="groups"><g class="traces" transform="translate(0,27.3)" style="opacity: 1;"><text class="legendtext" text-anchor="start" x="40" y="12.48" style="font-family: Helvetica; font-size: 32px; fill: rgb(51, 51, 51); fill-opacity: 1; white-space: pre;">PT</text><g class="layers"><g class="legendfill"><path class="js-fill" d="M5,-2h30v6h-30z" style="stroke-width: 0; fill: rgb(0, 0, 0); fill-opacity: 0.2;"/></g><g class="legendlines"><path class="js-line" d="M5,-2h30" style="fill: none; stroke: rgb(0, 0, 0); stroke-opacity: 0.8; stroke-width: 4px;"/></g><g class="legendsymbols"><g class="legendpoints"/></g></g><rect class="legendtoggle" x="0" y="-22.3" width="123.625" height="44.6" style="fill: rgb(0, 0, 0); fill-opacity: 0;"/></g><g class="traces" transform="translate(0,71.9)" style="opacity: 1;"><text class="legendtext" text-anchor="start" x="40" y="12.48" style="font-family: Helvetica; font-size: 32px; fill: rgb(51, 51, 51); fill-opacity: 1; white-space: pre;">AL #1</text><g class="layers"><g class="legendfill"><path class="js-fill" d="M5,-2h30v6h-30z" style="stroke-width: 0; fill: rgb(0, 106, 113); fill-opacity: 0.2;"/></g><g class="legendlines"><path class="js-line" d="M5,-2h30" style="fill: none; stroke: rgb(0, 106, 113); stroke-opacity: 0.8; stroke-width: 4px;"/></g><g class="legendsymbols"><g class="legendpoints"/></g></g><rect class="legendtoggle" x="0" y="-22.3" width="123.625" height="44.6" style="fill: rgb(0, 0, 0); fill-opacity: 0;"/></g><g class="traces" transform="translate(0,116.5)" style="opacity: 1;"><text class="legendtext" text-anchor="start" x="40" y="12.48" style="font-family: Helvetica; font-size: 32px; fill: rgb(51, 51, 51); fill-opacity: 1; white-space: pre;">AL #2</text><g class="layers"><g class="legendfill"><path class="js-fill" d="M5,-2h30v6h-30z" style="stroke-width: 0; fill: rgb(232, 93, 4); fill-opacity: 0.2;"/></g><g class="legendlines"><path class="js-line" d="M5,-2h30" style="fill: none; stroke: rgb(232, 93, 4); stroke-opacity: 0.8; stroke-width: 4px;"/></g><g class="legendsymbols"><g class="legendpoints"/></g></g><rect class="legendtoggle" x="0" y="-22.3" width="123.625" height="44.6" style="fill: rgb(0, 0, 0); fill-opacity: 0;"/></g><g class="traces" transform="translate(0,161.10000000000002)" style="opacity: 1;"><text class="legendtext" text-anchor="start" x="40" y="12.48" style="font-family: Helvetica; font-size: 32px; fill: rgb(51, 51, 51); fill-opacity: 1; white-space: pre;">AL #3</text><g class="layers"><g class="legendfill"><path class="js-fill" d="M5,-2h30v6h-30z" style="stroke-width: 0; fill: rgb(123, 44, 191); fill-opacity: 0.2;"/></g><g class="legendlines"><path class="js-line" d="M5,-2h30" style="fill: none; stroke: rgb(123, 44, 191); stroke-opacity: 0.8; stroke-width: 4px;"/></g><g class="legendsymbols"><g class="legendpoints"/></g></g><rect class="legendtoggle" x="0" y="-22.3" width="123.625" height="44.6" style="fill: rgb(0, 0, 0); fill-opacity: 0;"/></g><g class="traces" transform="translate(0,205.70000000000002)" style="opacity: 1;"><text class="legendtext" text-anchor="start" x="40" y="12.48" style="font-family: Helvetica; font-size: 32px; fill: rgb(51, 51, 51); fill-opacity: 1; white-space: pre;">AL #4</text><g class="layers"><g class="legendfill"><path class="js-fill" d="M5,-2h30v6h-30z" style="stroke-width: 0; fill: rgb(0, 128, 0); fill-opacity: 0.2;"/></g><g class="legendlines"><path class="js-line" d="M5,-2h30" style="fill: none; stroke: rgb(0, 128, 0); stroke-opacity: 0.8; stroke-width: 4px;"/></g><g class="legendsymbols"><g class="legendpoints"/></g></g><rect class="legendtoggle" x="0" y="-22.3" width="123.625" height="44.6" style="fill: rgb(0, 0, 0); fill-opacity: 0;"/></g><g class="traces" transform="translate(0,250.3)" style="opacity: 1;"><text class="legendtext" text-anchor="start" x="40" y="12.48" style="font-family: Helvetica; font-size: 32px; fill: rgb(51, 51, 51); fill-opacity: 1; white-space: pre;">AL #5</text><g class="layers"><g class="legendfill"><path class="js-fill" d="M5,-2h30v6h-30z" style="stroke-width: 0; fill: rgb(164, 19, 60); fill-opacity: 0.2;"/></g><g class="legendlines"><path class="js-line" d="M5,-2h30" style="fill: none; stroke: rgb(164, 19, 60); stroke-opacity: 0.8; stroke-width: 4px;"/></g><g class="legendsymbols"><g class="legendpoints"/></g></g><rect class="legendtoggle" x="0" y="-22.3" width="123.625" height="44.6" style="fill: rgb(0, 0, 0); fill-opacity: 0;"/></g></g></g><rect class="scrollbar" rx="20" ry="3" width="0" height="0" x="0" y="0" style="fill: rgb(128, 139, 164); fill-opacity: 1;"/></g><g class="g-gtitle"><text class="gtitle" x="640" y="18" text-anchor="middle" dy="0.7em" style="font-family: Helvetica; font-size: 36px; fill: rgb(51, 51, 51); opacity: 1; font-weight: normal; white-space: pre;"><tspan style="font-weight:bold">42 MQ-based space, 100 clusters, softsub selection</tspan></text></g><g class="g-xtitle"><text class="xtitle" x="667" y="587.9125" text-anchor="middle" style="font-family: Helvetica; font-size: 28px; fill: rgb(51, 51, 51); opacity: 1; font-weight: normal; white-space: pre;">Attractive Interaction Score</text></g><g class="g-ytitle" transform="translate(13.615234375,0)"><text class="ytitle" transform="rotate(-90,12.384375000000006,284)" x="12.384375000000006" y="284" text-anchor="middle" style="font-family: Helvetica; font-size: 28px; fill: rgb(51, 51, 51); opacity: 1; font-weight: normal; white-space: pre;">Relative Frequency</text></g><g class="annotation" data-index="0" style="opacity: 1;"><g class="annotation-text-g" transform="rotate(0,956.73,133.59999999999997)"><g class="cursor-pointer" transform="translate(877,118)"><rect class="bg" x="0.5" y="0.5" width="159" height="31" style="stroke-width: 1px; stroke: rgb(0, 0, 0); stroke-opacity: 0; fill: rgb(0, 0, 0); fill-opacity: 0;"/><text class="annotation-text" text-anchor="middle" x="80.03125" y="24" style="font-family: Helvetica; font-size: 24px; fill: rgb(0, 0, 0); fill-opacity: 0.6; white-space: pre;"><tspan style="font-weight:bold">Threshold: 11</tspan></text></g></g></g></g></svg>