<svg class="main-svg" xmlns="http://www.w3.org/2000/svg" xmlns:xlink="http://www.w3.org/1999/xlink" width="1280" height="600" style="" viewBox="0 0 1280 600"><rect x="0" y="0" width="1280" height="600" style="fill: rgb(255, 255, 255); fill-opacity: 1;"/><defs id="defs-acb695"><g class="clips"><clipPath id="clipacb695xyplot" class="plotclip"><rect width="996" height="495"/></clipPath><clipPath class="axesclip" id="clipacb695x"><rect x="50" y="0" width="996" height="600"/></clipPath><clipPath class="axesclip" id="clipacb695y"><rect x="0" y="50" width="1280" height="495"/></clipPath><clipPath class="axesclip" id="clipacb695xy"><rect x="50" y="50" width="996" height="495"/></clipPath></g><g class="gradients"/><g class="patterns"/></defs><g class="bglayer"/><g class="layer-below"><g class="imagelayer"/><g class="shapelayer"/></g><g class="cartesianlayer"><g class="subplot xy"><g class="layer-subplot"><g class="shapelayer"/><g class="imagelayer"/></g><g class="minor-gridlayer"><g class="x"/><g class="y"/></g><g class="gridlayer"><g class="x"/><g class="y"/></g><g class="zerolinelayer"/><path class="xlines-below"/><path class="ylines-below"/><g class="overlines-below"/><g class="xaxislayer-below"/><g class="yaxislayer-below"/><g class="overaxes-below"/><g class="plot" transform="translate(50,50)" clip-path="url(#clipacb695xyplot)"><g class="barlayer mlayer"><g class="trace bars" style="opacity: 0.6;"><g class="points"><g class="point"><path d="M7.66,495V495H68.95V495Z" style="vector-effect: none; opacity: 1; stroke-width: 0.5px; fill: rgb(46, 46, 46); fill-opacity: 1; stroke: rgb(229, 236, 246); stroke-opacity: 1;"/></g><g class="point"><path d="M84.28,495V495H145.57V495Z" style="vector-effect: none; opacity: 1; stroke-width: 0.5px; fill: rgb(46, 46, 46); fill-opacity: 1; stroke: rgb(229, 236, 246); stroke-opacity: 1;"/></g><g class="point"><path d="M160.89,495V495H222.18V495Z" style="vector-effect: none; opacity: 1; stroke-width: 0.5px; fill: rgb(46, 46, 46); fill-opacity: 1; stroke: rgb(229, 236, 246); stroke-opacity: 1;"/></g><g class="point"><path d="M237.51,495V495H298.8V495Z" style="vector-effect: none; opacity: 1; stroke-width: 0.5px; fill: rgb(46, 46, 46); fill-opacity: 1; stroke: rgb(229, 236, 246); stroke-opacity: 1;"/></g><g class="point"><path d="M314.12,495V495H375.42V495Z" style="vector-effect: none; opacity: 1; stroke-width: 0.5px; fill: rgb(46, 46, 46); fill-opacity: 1; stroke: rgb(229, 236, 246); stroke-opacity: 1;"/></g><g class="point"><path d="M390.74,495V495H452.03V495Z" style="vector-effect: none; opacity: 1; stroke-width: 0.5px; fill: rgb(46, 46, 46); fill-opacity: 1; stroke: rgb(229, 236, 246); stroke-opacity: 1;"/></g><g class="point"><path d="M467.35,495V377.14H528.65V495Z" style="vector-effect: none; opacity: 1; stroke-width: 0.5px; fill: rgb(46, 46, 46); fill-opacity: 1; stroke: rgb(229, 236, 246); stroke-opacity: 1;"/></g><g class="point"><path d="M543.97,495V495H605.26V495Z" style="vector-effect: none; opacity: 1; stroke-width: 0.5px; fill: rgb(46, 46, 46); fill-opacity: 1; stroke: rgb(229, 236, 246); stroke-opacity: 1;"/></g><g class="point"><path d="M620.58,495V495H681.88V495Z" style="vector-effect: none; opacity: 1; stroke-width: 0.5px; fill: rgb(46, 46, 46); fill-opacity: 1; stroke: rgb(229, 236, 246); stroke-opacity: 1;"/></g><g class="point"><path d="M697.2,495V141.43H758.49V495Z" style="vector-effect: none; opacity: 1; stroke-width: 0.5px; fill: rgb(46, 46, 46); fill-opacity: 1; stroke: rgb(229, 236, 246); stroke-opacity: 1;"/></g><g class="point"><path d="M773.82,495V377.14H835.11V495Z" style="vector-effect: none; opacity: 1; stroke-width: 0.5px; fill: rgb(46, 46, 46); fill-opacity: 1; stroke: rgb(229, 236, 246); stroke-opacity: 1;"/></g><g class="point"><path d="M850.43,495V377.14H911.72V495Z" style="vector-effect: none; opacity: 1; stroke-width: 0.5px; fill: rgb(46, 46, 46); fill-opacity: 1; stroke: rgb(229, 236, 246); stroke-opacity: 1;"/></g></g></g><g class="trace bars" style="opacity: 0.6;"><g class="points"><g class="point"><path d="M7.66,495V495H68.95V495Z" style="vector-effect: none; opacity: 1; stroke-width: 0.5px; fill: rgb(72, 202, 228); fill-opacity: 1; stroke: rgb(229, 236, 246); stroke-opacity: 1;"/></g><g class="point"><path d="M84.28,495V495H145.57V495Z" style="vector-effect: none; opacity: 1; stroke-width: 0.5px; fill: rgb(72, 202, 228); fill-opacity: 1; stroke: rgb(229, 236, 246); stroke-opacity: 1;"/></g><g class="point"><path d="M160.89,495V495H222.18V495Z" style="vector-effect: none; opacity: 1; stroke-width: 0.5px; fill: rgb(72, 202, 228); fill-opacity: 1; stroke: rgb(229, 236, 246); stroke-opacity: 1;"/></g><g class="point"><path d="M237.51,495V495H298.8V495Z" style="vector-effect: none; opacity: 1; stroke-width: 0.5px; fill: rgb(72, 202, 228); fill-opacity: 1; stroke: rgb(229, 236, 246); stroke-opacity: 1;"/></g><g class="point"><path d="M314.12,495V495H375.42V495Z" style="vector-effect: none; opacity: 1; stroke-width: 0.5px; fill: rgb(72, 202, 228); fill-opacity: 1; stroke: rgb(229, 236, 246); stroke-opacity: 1;"/></g><g class="point"><path d="M390.74,495V495H452.03V495Z" style="vector-effect: none; opacity: 1; stroke-width: 0.5px; fill: rgb(72, 202, 228); fill-opacity: 1; stroke: rgb(229, 236, 246); stroke-opacity: 1;"/></g><g class="point"><path d="M467.35,495V495H528.65V495Z" style="vector-effect: none; opacity: 1; stroke-width: 0.5px; fill: rgb(72, 202, 228); fill-opacity: 1; stroke: rgb(229, 236, 246); stroke-opacity: 1;"/></g><g class="point"><path d="M543.97,495V393.98H605.26V495Z" style="vector-effect: none; opacity: 1; stroke-width: 0.5px; fill: rgb(72, 202, 228); fill-opacity: 1; stroke: rgb(229, 236, 246); stroke-opacity: 1;"/></g><g class="point"><path d="M620.58,495V495H681.88V495Z" style="vector-effect: none; opacity: 1; stroke-width: 0.5px; fill: rgb(72, 202, 228); fill-opacity: 1; stroke: rgb(229, 236, 246); stroke-opacity: 1;"/></g><g class="point"><path d="M697.2,495V292.96H758.49V495Z" style="vector-effect: none; opacity: 1; stroke-width: 0.5px; fill: rgb(72, 202, 228); fill-opacity: 1; stroke: rgb(229, 236, 246); stroke-opacity: 1;"/></g><g class="point"><path d="M773.82,495V191.94H835.11V495Z" style="vector-effect: none; opacity: 1; stroke-width: 0.5px; fill: rgb(72, 202, 228); fill-opacity: 1; stroke: rgb(229, 236, 246); stroke-opacity: 1;"/></g><g class="point"><path d="M850.43,495V393.98H911.72V495Z" style="vector-effect: none; opacity: 1; stroke-width: 0.5px; fill: rgb(72, 202, 228); fill-opacity: 1; stroke: rgb(229, 236, 246); stroke-opacity: 1;"/></g></g></g><g class="trace bars" style="opacity: 0.6;"><g class="points"><g class="point"><path d="M7.66,495V495H68.95V495Z" style="vector-effect: none; opacity: 1; stroke-width: 0.5px; fill: rgb(250, 163, 7); fill-opacity: 1; stroke: rgb(229, 236, 246); stroke-opacity: 1;"/></g><g class="point"><path d="M84.28,495V495H145.57V495Z" style="vector-effect: none; opacity: 1; stroke-width: 0.5px; fill: rgb(250, 163, 7); fill-opacity: 1; stroke: rgb(229, 236, 246); stroke-opacity: 1;"/></g><g class="point"><path d="M160.89,495V495H222.18V495Z" style="vector-effect: none; opacity: 1; stroke-width: 0.5px; fill: rgb(250, 163, 7); fill-opacity: 1; stroke: rgb(229, 236, 246); stroke-opacity: 1;"/></g><g class="point"><path d="M237.51,495V495H298.8V495Z" style="vector-effect: none; opacity: 1; stroke-width: 0.5px; fill: rgb(250, 163, 7); fill-opacity: 1; stroke: rgb(229, 236, 246); stroke-opacity: 1;"/></g><g class="point"><path d="M314.12,495V495H375.42V495Z" style="vector-effect: none; opacity: 1; stroke-width: 0.5px; fill: rgb(250, 163, 7); fill-opacity: 1; stroke: rgb(229, 236, 246); stroke-opacity: 1;"/></g><g class="point"><path d="M390.74,495V377.14H452.03V495Z" style="vector-effect: none; opacity: 1; stroke-width: 0.5px; fill: rgb(250, 163, 7); fill-opacity: 1; stroke: rgb(229, 236, 246); stroke-opacity: 1;"/></g><g class="point"><path d="M467.35,495V495H528.65V495Z" style="vector-effect: none; opacity: 1; stroke-width: 0.5px; fill: rgb(250, 163, 7); fill-opacity: 1; stroke: rgb(229, 236, 246); stroke-opacity: 1;"/></g><g class="point"><path d="M543.97,495V377.14H605.26V495Z" style="vector-effect: none; opacity: 1; stroke-width: 0.5px; fill: rgb(250, 163, 7); fill-opacity: 1; stroke: rgb(229, 236, 246); stroke-opacity: 1;"/></g><g class="point"><path d="M620.58,495V377.14H681.88V495Z" style="vector-effect: none; opacity: 1; stroke-width: 0.5px; fill: rgb(250, 163, 7); fill-opacity: 1; stroke: rgb(229, 236, 246); stroke-opacity: 1;"/></g><g class="point"><path d="M697.2,495V259.29H758.49V495Z" style="vector-effect: none; opacity: 1; stroke-width: 0.5px; fill: rgb(250, 163, 7); fill-opacity: 1; stroke: rgb(229, 236, 246); stroke-opacity: 1;"/></g><g class="point"><path d="M773.82,495V495H835.11V495Z" style="vector-effect: none; opacity: 1; stroke-width: 0.5px; fill: rgb(250, 163, 7); fill-opacity: 1; stroke: rgb(229, 236, 246); stroke-opacity: 1;"/></g><g class="point"><path d="M850.43,495V377.14H911.72V495Z" style="vector-effect: none; opacity: 1; stroke-width: 0.5px; fill: rgb(250, 163, 7); fill-opacity: 1; stroke: rgb(229, 236, 246); stroke-opacity: 1;"/></g></g></g><g class="trace bars" style="opacity: 0.6;"><g class="points"><g class="point"><path d="M7.66,495V495H68.95V495Z" style="vector-effect: none; opacity: 1; stroke-width: 0.5px; fill: rgb(199, 125, 255); fill-opacity: 1; stroke: rgb(229, 236, 246); stroke-opacity: 1;"/></g><g class="point"><path d="M84.28,495V495H145.57V495Z" style="vector-effect: none; opacity: 1; stroke-width: 0.5px; fill: rgb(199, 125, 255); fill-opacity: 1; stroke: rgb(229, 236, 246); stroke-opacity: 1;"/></g><g class="point"><path d="M160.89,495V495H222.18V495Z" style="vector-effect: none; opacity: 1; stroke-width: 0.5px; fill: rgb(199, 125, 255); fill-opacity: 1; stroke: rgb(229, 236, 246); stroke-opacity: 1;"/></g><g class="point"><path d="M237.51,495V495H298.8V495Z" style="vector-effect: none; opacity: 1; stroke-width: 0.5px; fill: rgb(199, 125, 255); fill-opacity: 1; stroke: rgb(229, 236, 246); stroke-opacity: 1;"/></g><g class="point"><path d="M314.12,495V495H375.42V495Z" style="vector-effect: none; opacity: 1; stroke-width: 0.5px; fill: rgb(199, 125, 255); fill-opacity: 1; stroke: rgb(229, 236, 246); stroke-opacity: 1;"/></g><g class="point"><path d="M390.74,495V495H452.03V495Z" style="vector-effect: none; opacity: 1; stroke-width: 0.5px; fill: rgb(199, 125, 255); fill-opacity: 1; stroke: rgb(229, 236, 246); stroke-opacity: 1;"/></g><g class="point"><path d="M467.35,495V495H528.65V495Z" style="vector-effect: none; opacity: 1; stroke-width: 0.5px; fill: rgb(199, 125, 255); fill-opacity: 1; stroke: rgb(229, 236, 246); stroke-opacity: 1;"/></g><g class="point"><path d="M543.97,495V377.14H605.26V495Z" style="vector-effect: none; opacity: 1; stroke-width: 0.5px; fill: rgb(199, 125, 255); fill-opacity: 1; stroke: rgb(229, 236, 246); stroke-opacity: 1;"/></g><g class="point"><path d="M620.58,495V259.29H681.88V495Z" style="vector-effect: none; opacity: 1; stroke-width: 0.5px; fill: rgb(199, 125, 255); fill-opacity: 1; stroke: rgb(229, 236, 246); stroke-opacity: 1;"/></g><g class="point"><path d="M697.2,495V377.14H758.49V495Z" style="vector-effect: none; opacity: 1; stroke-width: 0.5px; fill: rgb(199, 125, 255); fill-opacity: 1; stroke: rgb(229, 236, 246); stroke-opacity: 1;"/></g><g class="point"><path d="M773.82,495V377.14H835.11V495Z" style="vector-effect: none; opacity: 1; stroke-width: 0.5px; fill: rgb(199, 125, 255); fill-opacity: 1; stroke: rgb(229, 236, 246); stroke-opacity: 1;"/></g><g class="point"><path d="M850.43,495V495H911.72V495Z" style="vector-effect: none; opacity: 1; stroke-width: 0.5px; fill: rgb(199, 125, 255); fill-opacity: 1; stroke: rgb(229, 236, 246); stroke-opacity: 1;"/></g><g class="point"><path d="M927.05,495V377.14H988.34V495Z" style="vector-effect: none; opacity: 1; stroke-width: 0.5px; fill: rgb(199, 125, 255); fill-opacity: 1; stroke: rgb(229, 236, 246); stroke-opacity: 1;"/></g></g></g><g class="trace bars" style="opacity: 0.6;"><g class="points"><g class="point"><path d="M7.66,495V495H68.95V495Z" style="vector-effect: none; opacity: 1; stroke-width: 0.5px; fill: rgb(112, 224, 0); fill-opacity: 1; stroke: rgb(229, 236, 246); stroke-opacity: 1;"/></g><g class="point"><path d="M84.28,495V495H145.57V495Z" style="vector-effect: none; opacity: 1; stroke-width: 0.5px; fill: rgb(112, 224, 0); fill-opacity: 1; stroke: rgb(229, 236, 246); stroke-opacity: 1;"/></g><g class="point"><path d="M160.89,495V495H222.18V495Z" style="vector-effect: none; opacity: 1; stroke-width: 0.5px; fill: rgb(112, 224, 0); fill-opacity: 1; stroke: rgb(229, 236, 246); stroke-opacity: 1;"/></g><g class="point"><path d="M237.51,495V495H298.8V495Z" style="vector-effect: none; opacity: 1; stroke-width: 0.5px; fill: rgb(112, 224, 0); fill-opacity: 1; stroke: rgb(229, 236, 246); stroke-opacity: 1;"/></g><g class="point"><path d="M314.12,495V495H375.42V495Z" style="vector-effect: none; opacity: 1; stroke-width: 0.5px; fill: rgb(112, 224, 0); fill-opacity: 1; stroke: rgb(229, 236, 246); stroke-opacity: 1;"/></g><g class="point"><path d="M390.74,495V495H452.03V495Z" style="vector-effect: none; opacity: 1; stroke-width: 0.5px; fill: rgb(112, 224, 0); fill-opacity: 1; stroke: rgb(229, 236, 246); stroke-opacity: 1;"/></g><g class="point"><path d="M467.35,495V495H528.65V495Z" style="vector-effect: none; opacity: 1; stroke-width: 0.5px; fill: rgb(112, 224, 0); fill-opacity: 1; stroke: rgb(229, 236, 246); stroke-opacity: 1;"/></g><g class="point"><path d="M543.97,495V495H605.26V495Z" style="vector-effect: none; opacity: 1; stroke-width: 0.5px; fill: rgb(112, 224, 0); fill-opacity: 1; stroke: rgb(229, 236, 246); stroke-opacity: 1;"/></g><g class="point"><path d="M620.58,495V377.14H681.88V495Z" style="vector-effect: none; opacity: 1; stroke-width: 0.5px; fill: rgb(112, 224, 0); fill-opacity: 1; stroke: rgb(229, 236, 246); stroke-opacity: 1;"/></g><g class="point"><path d="M697.2,495V23.57H758.49V495Z" style="vector-effect: none; opacity: 1; stroke-width: 0.5px; fill: rgb(112, 224, 0); fill-opacity: 1; stroke: rgb(229, 236, 246); stroke-opacity: 1;"/></g><g class="point"><path d="M773.82,495V495H835.11V495Z" style="vector-effect: none; opacity: 1; stroke-width: 0.5px; fill: rgb(112, 224, 0); fill-opacity: 1; stroke: rgb(229, 236, 246); stroke-opacity: 1;"/></g><g class="point"><path d="M850.43,495V495H911.72V495Z" style="vector-effect: none; opacity: 1; stroke-width: 0.5px; fill: rgb(112, 224, 0); fill-opacity: 1; stroke: rgb(229, 236, 246); stroke-opacity: 1;"/></g><g class="point"><path d="M927.05,495V377.14H988.34V495Z" style="vector-effect: none; opacity: 1; stroke-width: 0.5px; fill: rgb(112, 224, 0); fill-opacity: 1; stroke: rgb(229, 236, 246); stroke-opacity: 1;"/></g></g></g></g><g class="scatterlayer mlayer"><g class="trace scatter tracefd1f49" style="stroke-miterlimit: 2; opacity: 1;"><g class="fills"/><g class="errorbars"/><g class="lines"><path class="js-line" d="M543.13,380.77L546.66,381.48L548.42,382.36L551.95,385.15L553.71,387.02L559.01,394.36L560.77,397.31L569.59,414.66L571.35,418.47L588.99,455.33L590.76,458.49L597.81,469.6L599.58,471.99L606.63,479.96L608.4,481.59L615.45,486.77L617.22,487.77L624.27,490.83L626.04,491.39L634.86,493.33L636.62,493.58L650.73,494.59L652.5,494.63L670.14,494.23L671.9,494.09L682.49,492.42L684.25,491.96L691.31,489.25L693.07,488.31L698.36,484.64L700.13,483.09L705.42,477.2L707.18,474.78L712.48,465.86L714.24,462.28L719.53,449.5L721.3,444.51L728.35,420.7L730.12,413.76L737.17,382.22L738.94,373.47L749.52,315.79L751.28,305.69L763.63,238.14L765.4,229.64L772.45,200.83L774.22,195.17L777.74,185.99L779.51,182.52L783.04,177.93L784.8,176.83L786.56,176.52L788.33,177L791.86,180.26L793.62,182.99L797.15,190.45L798.91,195.1L804.2,212.09L805.97,218.56L827.14,299.32L828.9,304.37L834.19,316.37L835.96,319.24L839.48,323.19L841.25,324.26L844.78,324.67L846.54,324.03L850.07,321.22L851.83,319.12L857.13,310.6L858.89,307.2L874.77,276.01L876.53,273.59L880.06,270.02L881.82,268.95L885.35,268.38L887.11,268.91L890.64,271.7L892.41,273.95L894.17,276.77" style="vector-effect: none; fill: none; stroke: rgb(0, 0, 0); stroke-opacity: 1; stroke-width: 2px; opacity: 1;"/></g><g class="points"/><g class="text"/></g><g class="trace scatter trace22b688" style="stroke-miterlimit: 2; opacity: 1;"><g class="fills"/><g class="errorbars"/><g class="lines"><path class="js-line" d="M636.47,362.9L639.46,363.98L640.96,365.31L643.95,369.49L645.44,372.28L649.93,383.07L651.42,387.34L660.39,416.75L661.89,421.86L670.86,450.22L672.35,454.32L678.33,468.38L679.83,471.28L685.81,480.58L687.3,482.35L693.28,487.54L694.78,488.41L699.26,490.12L700.76,490.41L705.25,490.47L706.74,490.23L711.23,488.63L712.72,487.78L717.21,484.16L718.7,482.54L723.19,476.27L724.68,473.64L729.17,463.94L730.66,460.06L736.64,440.92L738.14,435.22L744.12,408.76L745.61,401.29L754.58,351.07L756.08,342.1L771.03,255.5L772.52,247.99L780,215.65L781.5,210.28L787.48,192.48L788.97,188.89L794.95,177.56L796.45,175.41L800.93,170.41L802.43,169.2L806.91,166.87L808.41,166.54L812.89,166.97L814.39,167.61L818.87,171.2L820.37,172.98L824.85,180.1L826.35,183.07L832.33,197.7L833.82,201.96L842.8,230.5L844.29,235.46L856.25,272.3L857.75,276.34L866.72,298.22L868.21,301.62L893.63,358.8L895.12,361.37L899.61,367.43L901.1,368.83L904.09,370.63L905.59,371.02L908.58,370.83L910.08,370.3L914.56,367.25L916.06,365.89L925.03,357.61L926.52,356.69L929.51,355.7L931.01,355.7L934,356.83" style="vector-effect: none; fill: none; stroke: rgb(0, 106, 113); stroke-opacity: 1; stroke-width: 2px; opacity: 1;"/></g><g class="points"/><g class="text"/></g><g class="trace scatter trace5c6854" style="stroke-miterlimit: 2; opacity: 1;"><g class="fills"/><g class="errorbars"/><g class="lines"><path class="js-line" d="M491.2,396.23L495.56,396.91L497.75,397.77L502.12,400.48L504.3,402.29L510.86,409.35L513.04,412.15L523.96,428.19L526.15,431.59L539.26,450.71L541.44,453.44L547.99,460.41L550.18,462.27L556.73,466.28L558.92,467.07L563.29,467.78L565.47,467.7L569.84,466.66L572.02,465.72L578.58,461.2L580.76,459.17L587.32,451.64L589.5,448.71L598.24,435.36L600.42,431.72L624.45,392.18L626.64,389.18L635.38,378.79L637.56,376.6L646.3,369.22L648.48,367.65L670.33,352.15L672.51,350.21L681.25,341.2L683.44,338.64L696.54,321.55L698.73,318.57L711.83,301.91L714.02,299.54L720.57,293.45L722.76,291.82L729.31,288.23L731.5,287.49L738.05,286.71L740.23,286.92L746.79,288.96L748.97,290.11L755.53,294.88L757.71,296.9L764.26,304.26L766.45,307.13L775.19,320.62L777.37,324.47L786.11,341.62L788.29,346.3L801.4,376.62L803.59,381.89L821.06,422.38L823.25,426.9L831.98,442.85L834.17,446.22L840.72,454.63L842.91,456.83L849.46,461.52L851.65,462.43L856.01,463.27L858.2,463.2L862.57,462.12L864.75,461.12L871.31,456.4L873.49,454.31L880.05,446.7L882.23,443.8L895.34,424.44L897.52,421.17L906.26,409.19L908.44,406.62L915,400.41L917.18,398.91L921.55,396.87L923.74,396.36L925.92,396.2" style="vector-effect: none; fill: none; stroke: rgb(232, 93, 4); stroke-opacity: 1; stroke-width: 2px; opacity: 1;"/></g><g class="points"/><g class="text"/></g><g class="trace scatter tracef13b0a" style="stroke-miterlimit: 2; opacity: 1;"><g class="fills"/><g class="errorbars"/><g class="lines"><path class="js-line" d="M611.51,360.55L620.28,350.51L622.03,348.71L632.55,337.21L634.31,334.94L641.32,324.19L643.07,321.04L650.09,306.72L651.84,302.8L667.62,268.37L669.37,265.44L674.63,258.87L676.39,257.54L679.89,256.33L681.65,256.48L685.15,258.36L686.91,260.08L690.41,265.02L692.17,268.19L697.43,280.18L699.18,284.86L709.7,316.56L711.45,321.94L720.22,346.12L721.97,350.11L727.23,359.83L728.99,362.25L732.49,365.81L734.25,366.96L737.75,368.02L739.51,367.96L743.01,366.77L744.77,365.69L750.03,360.87L751.78,358.85L762.3,344.59L764.05,342.15L772.82,331.15L774.57,329.32L781.59,323.65L783.34,322.68L788.6,320.98L790.35,320.81L795.61,321.6L797.37,322.29L802.63,325.72L804.38,327.31L809.64,333.48L811.39,335.99L818.41,348.24L820.16,351.83L828.93,372.37L830.68,376.9L855.23,441.31L856.98,445.2L863.99,458.91L865.75,461.83L872.76,471.32L874.51,473.14L879.77,477.27L881.53,478.2L886.79,479.66L888.54,479.71L893.8,478.54L895.55,477.72L900.81,473.95L902.57,472.27L907.83,465.96L909.58,463.45L916.59,451.58L918.35,448.2L928.87,425.64L930.62,421.7L942.9,396.08L944.65,393.04L949.91,385.48L951.66,383.54L955.17,380.67L956.92,379.75L960.43,379.02" style="vector-effect: none; fill: none; stroke: rgb(123, 44, 191); stroke-opacity: 1; stroke-width: 2px; opacity: 1;"/></g><g class="points"/><g class="text"/></g><g class="trace scatter trace525512" style="stroke-miterlimit: 2; opacity: 1;"><g class="fills"/><g class="errorbars"/><g class="lines"><path class="js-line" d="M715,187.27L719.93,160.71L721.16,155.3L726.09,138.53L727.32,135.49L731.02,128.73L732.25,127.14L735.95,123.82L737.18,123.05L745.81,117.86L747.04,116.7L750.73,111.99L751.97,109.98L756.9,99.69L758.13,96.64L771.68,62.43L772.91,60.57L775.38,58.24L776.61,57.87L779.08,58.95L780.31,60.49L782.77,65.7L784,69.42L787.7,85.15L788.93,91.92L793.86,126.09L795.09,136.25L801.26,194.26L802.49,206.88L817.27,355.6L818.51,366.15L824.67,411.78L825.9,419.41L830.83,445.05L832.06,450.3L836.99,467.18L838.22,470.47L843.15,480.62L844.38,482.51L849.31,488.11L850.54,489.11L855.47,491.94L856.7,492.42L864.1,494.13L865.33,494.27L876.42,494.77L877.65,494.77L889.97,493.97L891.21,493.77L898.6,491.7L899.83,491.15L904.76,488.08L905.99,487.05L910.92,481.56L912.15,479.8L917.08,470.87L918.32,468.12L923.24,454.92L924.48,451.05L930.64,428.53L931.87,423.47L949.12,351.05L950.35,347.18L954.05,337.9L955.28,335.68L957.75,332.67L958.98,331.91L960.21,331.65" style="vector-effect: none; fill: none; stroke: rgb(0, 128, 0); stroke-opacity: 1; stroke-width: 2px; opacity: 1;"/></g><g class="points"/><g class="text"/></g></g></g><g class="overplot"/><path class="xlines-above crisp" d="M49,545.5H1046" style="fill: none; stroke-width: 1px; stroke: rgb(0, 0, 0); stroke-opacity: 1;"/><path class="ylines-above crisp" d="M49.5,50V545" style="fill: none; stroke-width: 1px; stroke: rgb(0, 0, 0); stroke-opacity: 1;"/><g class="overlines-above"/><g class="xaxislayer-above"><g class="xtick"><text text-anchor="middle" x="0" y="560.4" transform="translate(88.31,0)" style="font-family: Helvetica; font-size: 12px; fill: rgb(51, 51, 51); fill-opacity: 1; white-space: pre; opacity: 1;">0</text></g><g class="xtick"><text text-anchor="middle" x="0" y="560.4" style="font-family: Helvetica; font-size: 12px; fill: rgb(51, 51, 51); fill-opacity: 1; white-space: pre; opacity: 1;" transform="translate(241.54,0)">2</text></g><g class="xtick"><text text-anchor="middle" x="0" y="560.4" style="font-family: Helvetica; font-size: 12px; fill: rgb(51, 51, 51); fill-opacity: 1; white-space: pre; opacity: 1;" transform="translate(394.77,0)">4</text></g><g class="xtick"><text text-anchor="middle" x="0" y="560.4" style="font-family: Helvetica; font-size: 12px; fill: rgb(51, 51, 51); fill-opacity: 1; white-space: pre; opacity: 1;" transform="translate(548,0)">6</text></g><g class="xtick"><text text-anchor="middle" x="0" y="560.4" style="font-family: Helvetica; font-size: 12px; fill: rgb(51, 51, 51); fill-opacity: 1; white-space: pre; opacity: 1;" transform="translate(701.23,0)">8</text></g><g class="xtick"><text text-anchor="middle" x="0" y="560.4" style="font-family: Helvetica; font-size: 12px; fill: rgb(51, 51, 51); fill-opacity: 1; white-space: pre; opacity: 1;" transform="translate(854.46,0)">10</text></g><g class="xtick"><text text-anchor="middle" x="0" y="560.4" style="font-family: Helvetica; font-size: 12px; fill: rgb(51, 51, 51); fill-opacity: 1; white-space: pre; opacity: 1;" transform="translate(1007.69,0)">12</text></g></g><g class="yaxislayer-above"><g class="ytick"><text text-anchor="end" x="46.6" y="4.199999999999999" transform="translate(0,545)" style="font-family: Helvetica; font-size: 12px; fill: rgb(51, 51, 51); fill-opacity: 1; white-space: pre; opacity: 1;">0</text></g><g class="ytick"><text text-anchor="end" x="46.6" y="4.199999999999999" style="font-family: Helvetica; font-size: 12px; fill: rgb(51, 51, 51); fill-opacity: 1; white-space: pre; opacity: 1;" transform="translate(0,474.29)">0.1</text></g><g class="ytick"><text text-anchor="end" x="46.6" y="4.199999999999999" style="font-family: Helvetica; font-size: 12px; fill: rgb(51, 51, 51); fill-opacity: 1; white-space: pre; opacity: 1;" transform="translate(0,403.57)">0.2</text></g><g class="ytick"><text text-anchor="end" x="46.6" y="4.199999999999999" style="font-family: Helvetica; font-size: 12px; fill: rgb(51, 51, 51); fill-opacity: 1; white-space: pre; opacity: 1;" transform="translate(0,332.86)">0.3</text></g><g class="ytick"><text text-anchor="end" x="46.6" y="4.199999999999999" style="font-family: Helvetica; font-size: 12px; fill: rgb(51, 51, 51); fill-opacity: 1; white-space: pre; opacity: 1;" transform="translate(0,262.14)">0.4</text></g><g class="ytick"><text text-anchor="end" x="46.6" y="4.199999999999999" style="font-family: Helvetica; font-size: 12px; fill: rgb(51, 51, 51); fill-opacity: 1; white-space: pre; opacity: 1;" transform="translate(0,191.43)">0.5</text></g><g class="ytick"><text text-anchor="end" x="46.6" y="4.199999999999999" style="font-family: Helvetica; font-size: 12px; fill: rgb(51, 51, 51); fill-opacity: 1; white-space: pre; opacity: 1;" transform="translate(0,120.71)">0.6</text></g><g class="ytick"><text text-anchor="end" x="46.6" y="4.199999999999999" style="font-family: Helvetica; font-size: 12px; fill: rgb(51, 51, 51); fill-opacity: 1; white-space: pre; opacity: 1;" transform="translate(0,50)">0.7</text></g></g><g class="overaxes-above"/></g></g><g class="polarlayer"/><g class="smithlayer"/><g class="ternarylayer"/><g class="geolayer"/><g class="funnelarealayer"/><g class="pielayer"/><g class="iciclelayer"/><g class="treemaplayer"/><g class="sunburstlayer"/><g class="glimages"/><defs id="topdefs-acb695"><g class="clips"/><clipPath id="legendacb695"><rect width="202" height="200" x="0" y="0"/></clipPath></defs><g class="layer-above"><g class="imagelayer"/><g class="shapelayer"><g class="shape-group" data-index="0" clip-path="url(#clipacb695x)"><path data-index="0" fill-rule="evenodd" d="M931.08,545L931.08,50" style="opacity: 1; stroke: rgb(128, 128, 128); stroke-opacity: 1; fill: rgb(0, 0, 0); fill-opacity: 0; stroke-dasharray: 15px, 15px; stroke-width: 2px;"/></g></g></g><g class="infolayer"><g class="legend" pointer-events="all" transform="translate(1065.92,50)"><rect class="bg" shape-rendering="crispEdges" width="202" height="200" x="0" y="0" style="stroke: rgb(68, 68, 68); stroke-opacity: 1; fill: rgb(255, 255, 255); fill-opacity: 1; stroke-width: 0px;"/><g class="scrollbox" transform="" clip-path="url(#legendacb695)"><g class="groups"><g class="traces" transform="translate(0,14.5)" style="opacity: 1;"><text class="legendtext" text-anchor="start" x="40" y="4.680000000000001" style="font-family: Helvetica; font-size: 12px; fill: rgb(51, 51, 51); fill-opacity: 1; white-space: pre;">mqn k10 baseline</text><g class="layers" style="opacity: 0.6;"><g class="legendfill"/><g class="legendlines"/><g class="legendsymbols"><g class="legendpoints"><path class="legendundefined" d="M6,6H-6V-6H6Z" transform="translate(20,0)" style="stroke-width: 0.5px; fill: rgb(46, 46, 46); fill-opacity: 1; stroke: rgb(229, 236, 246); stroke-opacity: 1;"/></g></g></g><rect class="legendtoggle" x="0" y="-9.5" width="196.09375" height="19" style="fill: rgb(0, 0, 0); fill-opacity: 0;"/></g><g class="traces" transform="translate(0,33.5)" style="opacity: 1;"><text class="legendtext" text-anchor="start" x="40" y="4.680000000000001" style="font-family: Helvetica; font-size: 12px; fill: rgb(51, 51, 51); fill-opacity: 1; white-space: pre;">mqn k10 baseline Density</text><g class="layers" style="opacity: 1;"><g class="legendfill"/><g class="legendlines"><path class="js-line" d="M5,0h30" style="fill: none; stroke: rgb(0, 0, 0); stroke-opacity: 1; stroke-width: 2px;"/></g><g class="legendsymbols"><g class="legendpoints"/></g></g><rect class="legendtoggle" x="0" y="-9.5" width="196.09375" height="19" style="fill: rgb(0, 0, 0); fill-opacity: 0;"/></g><g class="traces" transform="translate(0,52.5)" style="opacity: 1;"><text class="legendtext" text-anchor="start" x="40" y="4.680000000000001" style="font-family: Helvetica; font-size: 12px; fill: rgb(51, 51, 51); fill-opacity: 1; white-space: pre;">mqn k10 softsub AL1</text><g class="layers" style="opacity: 0.6;"><g class="legendfill"/><g class="legendlines"/><g class="legendsymbols"><g class="legendpoints"><path class="legendundefined" d="M6,6H-6V-6H6Z" transform="translate(20,0)" style="stroke-width: 0.5px; fill: rgb(72, 202, 228); fill-opacity: 1; stroke: rgb(229, 236, 246); stroke-opacity: 1;"/></g></g></g><rect class="legendtoggle" x="0" y="-9.5" width="196.09375" height="19" style="fill: rgb(0, 0, 0); fill-opacity: 0;"/></g><g class="traces" transform="translate(0,71.5)" style="opacity: 1;"><text class="legendtext" text-anchor="start" x="40" y="4.680000000000001" style="font-family: Helvetica; font-size: 12px; fill: rgb(51, 51, 51); fill-opacity: 1; white-space: pre;">mqn k10 softsub AL1 Density</text><g class="layers" style="opacity: 1;"><g class="legendfill"/><g class="legendlines"><path class="js-line" d="M5,0h30" style="fill: none; stroke: rgb(0, 106, 113); stroke-opacity: 1; stroke-width: 2px;"/></g><g class="legendsymbols"><g class="legendpoints"/></g></g><rect class="legendtoggle" x="0" y="-9.5" width="196.09375" height="19" style="fill: rgb(0, 0, 0); fill-opacity: 0;"/></g><g class="traces" transform="translate(0,90.5)" style="opacity: 1;"><text class="legendtext" text-anchor="start" x="40" y="4.680000000000001" style="font-family: Helvetica; font-size: 12px; fill: rgb(51, 51, 51); fill-opacity: 1; white-space: pre;">mqn k10 softsub AL2</text><g class="layers" style="opacity: 0.6;"><g class="legendfill"/><g class="legendlines"/><g class="legendsymbols"><g class="legendpoints"><path class="legendundefined" d="M6,6H-6V-6H6Z" transform="translate(20,0)" style="stroke-width: 0.5px; fill: rgb(250, 163, 7); fill-opacity: 1; stroke: rgb(229, 236, 246); stroke-opacity: 1;"/></g></g></g><rect class="legendtoggle" x="0" y="-9.5" width="196.09375" height="19" style="fill: rgb(0, 0, 0); fill-opacity: 0;"/></g><g class="traces" transform="translate(0,109.5)" style="opacity: 1;"><text class="legendtext" text-anchor="start" x="40" y="4.680000000000001" style="font-family: Helvetica; font-size: 12px; fill: rgb(51, 51, 51); fill-opacity: 1; white-space: pre;">mqn k10 softsub AL2 Density</text><g class="layers" style="opacity: 1;"><g class="legendfill"/><g class="legendlines"><path class="js-line" d="M5,0h30" style="fill: none; stroke: rgb(232, 93, 4); stroke-opacity: 1; stroke-width: 2px;"/></g><g class="legendsymbols"><g class="legendpoints"/></g></g><rect class="legendtoggle" x="0" y="-9.5" width="196.09375" height="19" style="fill: rgb(0, 0, 0); fill-opacity: 0;"/></g><g class="traces" transform="translate(0,128.5)" style="opacity: 1;"><text class="legendtext" text-anchor="start" x="40" y="4.680000000000001" style="font-family: Helvetica; font-size: 12px; fill: rgb(51, 51, 51); fill-opacity: 1; white-space: pre;">mqn k10 softsub AL3</text><g class="layers" style="opacity: 0.6;"><g class="legendfill"/><g class="legendlines"/><g class="legendsymbols"><g class="legendpoints"><path class="legendundefined" d="M6,6H-6V-6H6Z" transform="translate(20,0)" style="stroke-width: 0.5px; fill: rgb(199, 125, 255); fill-opacity: 1; stroke: rgb(229, 236, 246); stroke-opacity: 1;"/></g></g></g><rect class="legendtoggle" x="0" y="-9.5" width="196.09375" height="19" style="fill: rgb(0, 0, 0); fill-opacity: 0;"/></g><g class="traces" transform="translate(0,147.5)" style="opacity: 1;"><text class="legendtext" text-anchor="start" x="40" y="4.680000000000001" style="font-family: Helvetica; font-size: 12px; fill: rgb(51, 51, 51); fill-opacity: 1; white-space: pre;">mqn k10 softsub AL3 Density</text><g class="layers" style="opacity: 1;"><g class="legendfill"/><g class="legendlines"><path class="js-line" d="M5,0h30" style="fill: none; stroke: rgb(123, 44, 191); stroke-opacity: 1; stroke-width: 2px;"/></g><g class="legendsymbols"><g class="legendpoints"/></g></g><rect class="legendtoggle" x="0" y="-9.5" width="196.09375" height="19" style="fill: rgb(0, 0, 0); fill-opacity: 0;"/></g><g class="traces" transform="translate(0,166.5)" style="opacity: 1;"><text class="legendtext" text-anchor="start" x="40" y="4.680000000000001" style="font-family: Helvetica; font-size: 12px; fill: rgb(51, 51, 51); fill-opacity: 1; white-space: pre;">mqn k10 softsub AL4</text><g class="layers" style="opacity: 0.6;"><g class="legendfill"/><g class="legendlines"/><g class="legendsymbols"><g class="legendpoints"><path class="legendundefined" d="M6,6H-6V-6H6Z" transform="translate(20,0)" style="stroke-width: 0.5px; fill: rgb(112, 224, 0); fill-opacity: 1; stroke: rgb(229, 236, 246); stroke-opacity: 1;"/></g></g></g><rect class="legendtoggle" x="0" y="-9.5" width="196.09375" height="19" style="fill: rgb(0, 0, 0); fill-opacity: 0;"/></g><g class="traces" transform="translate(0,185.5)" style="opacity: 1;"><text class="legendtext" text-anchor="start" x="40" y="4.680000000000001" style="font-family: Helvetica; font-size: 12px; fill: rgb(51, 51, 51); fill-opacity: 1; white-space: pre;">mqn k10 softsub AL4 Density</text><g class="layers" style="opacity: 1;"><g class="legendfill"/><g class="legendlines"><path class="js-line" d="M5,0h30" style="fill: none; stroke: rgb(0, 128, 0); stroke-opacity: 1; stroke-width: 2px;"/></g><g class="legendsymbols"><g class="legendpoints"/></g></g><rect class="legendtoggle" x="0" y="-9.5" width="196.09375" height="19" style="fill: rgb(0, 0, 0); fill-opacity: 0;"/></g></g></g><rect class="scrollbar" rx="20" ry="3" width="0" height="0" x="0" y="0" style="fill: rgb(128, 139, 164); fill-opacity: 1;"/></g><g class="g-gtitle"><text class="gtitle" x="640" y="30" text-anchor="middle" dy="0.7em" style="font-family: Helvetica; font-size: 20px; fill: rgb(51, 51, 51); opacity: 1; font-weight: normal; white-space: pre;">Distribution of cluster scores based on DiffDock Poses</text></g><g class="g-xtitle"><text class="xtitle" x="548" y="587.70625" text-anchor="middle" style="font-family: Helvetica; font-size: 14px; fill: rgb(51, 51, 51); opacity: 1; font-weight: normal; white-space: pre;">Prolif Score</text></g><g class="g-ytitle"><text class="ytitle" transform="rotate(-90,20.606250000000003,297.5)" x="20.606250000000003" y="297.5" text-anchor="middle" style="font-family: Helvetica; font-size: 14px; fill: rgb(51, 51, 51); opacity: 1; font-weight: normal; white-space: pre;">Rel. Frequency</text></g><g class="annotation" data-index="0" style="opacity: 1;"><g class="annotation-text-g" transform="rotate(0,673.6999999999999,60.00000000000002)"><g class="cursor-pointer" transform="translate(351,50)"><rect class="bg" x="0.5" y="0.5" width="644" height="19" style="stroke-width: 1px; stroke: rgb(0, 0, 0); stroke-opacity: 0; fill: rgb(0, 0, 0); fill-opacity: 0;"/><text class="annotation-text" text-anchor="middle" x="322.734375" y="15" style="font-family: Helvetica; font-size: 14px; fill: rgb(51, 51, 51); fill-opacity: 1; white-space: pre;">mqn k10 baseline: % > threshold = 16.7, Q25 = 09.6, Q50 = 09.8, Mean = 09.7, Q75 = 10.7, max = 11.2</text></g></g></g><g class="annotation" data-index="1" style="opacity: 1;"><g class="annotation-text-g" transform="rotate(0,662.6999999999999,79.80000000000003)"><g class="cursor-pointer" transform="translate(329,70)"><rect class="bg" x="0.5" y="0.5" width="666" height="19" style="stroke-width: 1px; stroke: rgb(0, 0, 0); stroke-opacity: 0; fill: rgb(0, 0, 0); fill-opacity: 0;"/><text class="annotation-text" text-anchor="middle" x="333.625" y="15" style="font-family: Helvetica; font-size: 14px; fill: rgb(51, 51, 51); fill-opacity: 1; white-space: pre;">mqn k10 softsub AL1: % > threshold = 14.3, Q25 = 09.7, Q50 = 10.2, Mean = 10.1, Q75 = 10.7, max = 11.7</text></g></g></g><g class="annotation" data-index="2" style="opacity: 1;"><g class="annotation-text-g" transform="rotate(0,662.6999999999999,99.6)"><g class="cursor-pointer" transform="translate(329,90)"><rect class="bg" x="0.5" y="0.5" width="666" height="19" style="stroke-width: 1px; stroke: rgb(0, 0, 0); stroke-opacity: 0; fill: rgb(0, 0, 0); fill-opacity: 0;"/><text class="annotation-text" text-anchor="middle" x="333.625" y="15" style="font-family: Helvetica; font-size: 14px; fill: rgb(51, 51, 51); fill-opacity: 1; white-space: pre;">mqn k10 softsub AL2: % > threshold = 16.7, Q25 = 08.0, Q50 = 08.9, Mean = 08.8, Q75 = 09.6, max = 11.6</text></g></g></g><g class="annotation" data-index="3" style="opacity: 1;"><g class="annotation-text-g" transform="rotate(0,662.1999999999999,119.40000000000003)"><g class="cursor-pointer" transform="translate(328,109)"><rect class="bg" x="0.5" y="0.5" width="667" height="19" style="stroke-width: 1px; stroke: rgb(0, 0, 0); stroke-opacity: 0; fill: rgb(0, 0, 0); fill-opacity: 0;"/><text class="annotation-text" text-anchor="middle" x="334.140625" y="15" style="font-family: Helvetica; font-size: 14px; fill: rgb(51, 51, 51); fill-opacity: 1; white-space: pre;">mqn k10 softsub AL3: % > threshold = 16.7, Q25 = 08.4, Q50 = 09.0, Mean = 09.3, Q75 = 10.0, max = 12.0</text></g></g></g><g class="annotation" data-index="4" style="opacity: 1;"><g class="annotation-text-g" transform="rotate(0,662.1999999999999,139.20000000000005)"><g class="cursor-pointer" transform="translate(328,129)"><rect class="bg" x="0.5" y="0.5" width="667" height="19" style="stroke-width: 1px; stroke: rgb(0, 0, 0); stroke-opacity: 0; fill: rgb(0, 0, 0); fill-opacity: 0;"/><text class="annotation-text" text-anchor="middle" x="334.140625" y="15" style="font-family: Helvetica; font-size: 14px; fill: rgb(51, 51, 51); fill-opacity: 1; white-space: pre;">mqn k10 softsub AL4: % > threshold = 16.7, Q25 = 09.1, Q50 = 09.6, Mean = 09.8, Q75 = 09.8, max = 12.0</text></g></g></g></g></svg>