<svg class="main-svg" xmlns="http://www.w3.org/2000/svg" xmlns:xlink="http://www.w3.org/1999/xlink" width="1280" height="600" style="" viewBox="0 0 1280 600"><rect x="0" y="0" width="1280" height="600" style="fill: rgb(255, 255, 255); fill-opacity: 1;"/><defs id="defs-049385"><g class="clips"><clipPath id="clip049385xyplot" class="plotclip"><rect width="990" height="495"/></clipPath><clipPath class="axesclip" id="clip049385x"><rect x="50" y="0" width="990" height="600"/></clipPath><clipPath class="axesclip" id="clip049385y"><rect x="0" y="50" width="1280" height="495"/></clipPath><clipPath class="axesclip" id="clip049385xy"><rect x="50" y="50" width="990" height="495"/></clipPath></g><g class="gradients"/><g class="patterns"/></defs><g class="bglayer"/><g class="layer-below"><g class="imagelayer"/><g class="shapelayer"/></g><g class="cartesianlayer"><g class="subplot xy"><g class="layer-subplot"><g class="shapelayer"/><g class="imagelayer"/></g><g class="minor-gridlayer"><g class="x"/><g class="y"/></g><g class="gridlayer"><g class="x"/><g class="y"/></g><g class="zerolinelayer"/><path class="xlines-below"/><path class="ylines-below"/><g class="overlines-below"/><g class="xaxislayer-below"/><g class="yaxislayer-below"/><g class="overaxes-below"/><g class="plot" transform="translate(50,50)" clip-path="url(#clip049385xyplot)"><g class="barlayer mlayer"><g class="trace bars" style="opacity: 0.6;"><g class="points"><g class="point"><path d="M4.95,495V495H44.55V495Z" style="vector-effect: none; opacity: 1; stroke-width: 0.5px; fill: rgb(46, 46, 46); fill-opacity: 1; stroke: rgb(229, 236, 246); stroke-opacity: 1;"/></g><g class="point"><path d="M54.45,495V495H94.05V495Z" style="vector-effect: none; opacity: 1; stroke-width: 0.5px; fill: rgb(46, 46, 46); fill-opacity: 1; stroke: rgb(229, 236, 246); stroke-opacity: 1;"/></g><g class="point"><path d="M103.95,495V474.5H143.55V495Z" style="vector-effect: none; opacity: 1; stroke-width: 0.5px; fill: rgb(46, 46, 46); fill-opacity: 1; stroke: rgb(229, 236, 246); stroke-opacity: 1;"/></g><g class="point"><path d="M153.45,495V474.5H193.05V495Z" style="vector-effect: none; opacity: 1; stroke-width: 0.5px; fill: rgb(46, 46, 46); fill-opacity: 1; stroke: rgb(229, 236, 246); stroke-opacity: 1;"/></g><g class="point"><path d="M202.95,495V413.01H242.55V495Z" style="vector-effect: none; opacity: 1; stroke-width: 0.5px; fill: rgb(46, 46, 46); fill-opacity: 1; stroke: rgb(229, 236, 246); stroke-opacity: 1;"/></g><g class="point"><path d="M252.45,495V290.03H292.05V495Z" style="vector-effect: none; opacity: 1; stroke-width: 0.5px; fill: rgb(46, 46, 46); fill-opacity: 1; stroke: rgb(229, 236, 246); stroke-opacity: 1;"/></g><g class="point"><path d="M301.95,495V228.54H341.55V495Z" style="vector-effect: none; opacity: 1; stroke-width: 0.5px; fill: rgb(46, 46, 46); fill-opacity: 1; stroke: rgb(229, 236, 246); stroke-opacity: 1;"/></g><g class="point"><path d="M351.45,495V187.55H391.05V495Z" style="vector-effect: none; opacity: 1; stroke-width: 0.5px; fill: rgb(46, 46, 46); fill-opacity: 1; stroke: rgb(229, 236, 246); stroke-opacity: 1;"/></g><g class="point"><path d="M400.95,495V310.53H440.55V495Z" style="vector-effect: none; opacity: 1; stroke-width: 0.5px; fill: rgb(46, 46, 46); fill-opacity: 1; stroke: rgb(229, 236, 246); stroke-opacity: 1;"/></g><g class="point"><path d="M450.45,495V167.05H490.05V495Z" style="vector-effect: none; opacity: 1; stroke-width: 0.5px; fill: rgb(46, 46, 46); fill-opacity: 1; stroke: rgb(229, 236, 246); stroke-opacity: 1;"/></g><g class="point"><path d="M499.95,495V290.03H539.55V495Z" style="vector-effect: none; opacity: 1; stroke-width: 0.5px; fill: rgb(46, 46, 46); fill-opacity: 1; stroke: rgb(229, 236, 246); stroke-opacity: 1;"/></g><g class="point"><path d="M549.45,495V269.53H589.05V495Z" style="vector-effect: none; opacity: 1; stroke-width: 0.5px; fill: rgb(46, 46, 46); fill-opacity: 1; stroke: rgb(229, 236, 246); stroke-opacity: 1;"/></g><g class="point"><path d="M598.95,495V331.02H638.55V495Z" style="vector-effect: none; opacity: 1; stroke-width: 0.5px; fill: rgb(46, 46, 46); fill-opacity: 1; stroke: rgb(229, 236, 246); stroke-opacity: 1;"/></g><g class="point"><path d="M648.45,495V474.5H688.05V495Z" style="vector-effect: none; opacity: 1; stroke-width: 0.5px; fill: rgb(46, 46, 46); fill-opacity: 1; stroke: rgb(229, 236, 246); stroke-opacity: 1;"/></g><g class="point"><path d="M697.95,495V474.5H737.55V495Z" style="vector-effect: none; opacity: 1; stroke-width: 0.5px; fill: rgb(46, 46, 46); fill-opacity: 1; stroke: rgb(229, 236, 246); stroke-opacity: 1;"/></g></g></g><g class="trace bars" style="opacity: 0.6;"><g class="points"><g class="point"><path d="M4.95,495V495H44.55V495Z" style="vector-effect: none; opacity: 1; stroke-width: 0.5px; fill: rgb(72, 202, 228); fill-opacity: 1; stroke: rgb(229, 236, 246); stroke-opacity: 1;"/></g><g class="point"><path d="M54.45,495V495H94.05V495Z" style="vector-effect: none; opacity: 1; stroke-width: 0.5px; fill: rgb(72, 202, 228); fill-opacity: 1; stroke: rgb(229, 236, 246); stroke-opacity: 1;"/></g><g class="point"><path d="M103.95,495V474.5H143.55V495Z" style="vector-effect: none; opacity: 1; stroke-width: 0.5px; fill: rgb(72, 202, 228); fill-opacity: 1; stroke: rgb(229, 236, 246); stroke-opacity: 1;"/></g><g class="point"><path d="M153.45,495V495H193.05V495Z" style="vector-effect: none; opacity: 1; stroke-width: 0.5px; fill: rgb(72, 202, 228); fill-opacity: 1; stroke: rgb(229, 236, 246); stroke-opacity: 1;"/></g><g class="point"><path d="M202.95,495V495H242.55V495Z" style="vector-effect: none; opacity: 1; stroke-width: 0.5px; fill: rgb(72, 202, 228); fill-opacity: 1; stroke: rgb(229, 236, 246); stroke-opacity: 1;"/></g><g class="point"><path d="M252.45,495V454.01H292.05V495Z" style="vector-effect: none; opacity: 1; stroke-width: 0.5px; fill: rgb(72, 202, 228); fill-opacity: 1; stroke: rgb(229, 236, 246); stroke-opacity: 1;"/></g><g class="point"><path d="M301.95,495V392.52H341.55V495Z" style="vector-effect: none; opacity: 1; stroke-width: 0.5px; fill: rgb(72, 202, 228); fill-opacity: 1; stroke: rgb(229, 236, 246); stroke-opacity: 1;"/></g><g class="point"><path d="M351.45,495V310.53H391.05V495Z" style="vector-effect: none; opacity: 1; stroke-width: 0.5px; fill: rgb(72, 202, 228); fill-opacity: 1; stroke: rgb(229, 236, 246); stroke-opacity: 1;"/></g><g class="point"><path d="M400.95,495V23.57H440.55V495Z" style="vector-effect: none; opacity: 1; stroke-width: 0.5px; fill: rgb(72, 202, 228); fill-opacity: 1; stroke: rgb(229, 236, 246); stroke-opacity: 1;"/></g><g class="point"><path d="M450.45,495V167.05H490.05V495Z" style="vector-effect: none; opacity: 1; stroke-width: 0.5px; fill: rgb(72, 202, 228); fill-opacity: 1; stroke: rgb(229, 236, 246); stroke-opacity: 1;"/></g><g class="point"><path d="M499.95,495V146.55H539.55V495Z" style="vector-effect: none; opacity: 1; stroke-width: 0.5px; fill: rgb(72, 202, 228); fill-opacity: 1; stroke: rgb(229, 236, 246); stroke-opacity: 1;"/></g><g class="point"><path d="M549.45,495V249.04H589.05V495Z" style="vector-effect: none; opacity: 1; stroke-width: 0.5px; fill: rgb(72, 202, 228); fill-opacity: 1; stroke: rgb(229, 236, 246); stroke-opacity: 1;"/></g><g class="point"><path d="M598.95,495V290.03H638.55V495Z" style="vector-effect: none; opacity: 1; stroke-width: 0.5px; fill: rgb(72, 202, 228); fill-opacity: 1; stroke: rgb(229, 236, 246); stroke-opacity: 1;"/></g><g class="point"><path d="M648.45,495V474.5H688.05V495Z" style="vector-effect: none; opacity: 1; stroke-width: 0.5px; fill: rgb(72, 202, 228); fill-opacity: 1; stroke: rgb(229, 236, 246); stroke-opacity: 1;"/></g><g class="point"><path d="M697.95,495V474.5H737.55V495Z" style="vector-effect: none; opacity: 1; stroke-width: 0.5px; fill: rgb(72, 202, 228); fill-opacity: 1; stroke: rgb(229, 236, 246); stroke-opacity: 1;"/></g><g class="point"><path d="M747.45,495V454.01H787.05V495Z" style="vector-effect: none; opacity: 1; stroke-width: 0.5px; fill: rgb(72, 202, 228); fill-opacity: 1; stroke: rgb(229, 236, 246); stroke-opacity: 1;"/></g><g class="point"><path d="M796.95,495V474.5H836.55V495Z" style="vector-effect: none; opacity: 1; stroke-width: 0.5px; fill: rgb(72, 202, 228); fill-opacity: 1; stroke: rgb(229, 236, 246); stroke-opacity: 1;"/></g></g></g><g class="trace bars" style="opacity: 0.6;"><g class="points"><g class="point"><path d="M4.95,495V495H44.55V495Z" style="vector-effect: none; opacity: 1; stroke-width: 0.5px; fill: rgb(250, 163, 7); fill-opacity: 1; stroke: rgb(229, 236, 246); stroke-opacity: 1;"/></g><g class="point"><path d="M54.45,495V495H94.05V495Z" style="vector-effect: none; opacity: 1; stroke-width: 0.5px; fill: rgb(250, 163, 7); fill-opacity: 1; stroke: rgb(229, 236, 246); stroke-opacity: 1;"/></g><g class="point"><path d="M103.95,495V474.5H143.55V495Z" style="vector-effect: none; opacity: 1; stroke-width: 0.5px; fill: rgb(250, 163, 7); fill-opacity: 1; stroke: rgb(229, 236, 246); stroke-opacity: 1;"/></g><g class="point"><path d="M153.45,495V454.01H193.05V495Z" style="vector-effect: none; opacity: 1; stroke-width: 0.5px; fill: rgb(250, 163, 7); fill-opacity: 1; stroke: rgb(229, 236, 246); stroke-opacity: 1;"/></g><g class="point"><path d="M202.95,495V474.5H242.55V495Z" style="vector-effect: none; opacity: 1; stroke-width: 0.5px; fill: rgb(250, 163, 7); fill-opacity: 1; stroke: rgb(229, 236, 246); stroke-opacity: 1;"/></g><g class="point"><path d="M252.45,495V474.5H292.05V495Z" style="vector-effect: none; opacity: 1; stroke-width: 0.5px; fill: rgb(250, 163, 7); fill-opacity: 1; stroke: rgb(229, 236, 246); stroke-opacity: 1;"/></g><g class="point"><path d="M301.95,495V351.52H341.55V495Z" style="vector-effect: none; opacity: 1; stroke-width: 0.5px; fill: rgb(250, 163, 7); fill-opacity: 1; stroke: rgb(229, 236, 246); stroke-opacity: 1;"/></g><g class="point"><path d="M351.45,495V228.54H391.05V495Z" style="vector-effect: none; opacity: 1; stroke-width: 0.5px; fill: rgb(250, 163, 7); fill-opacity: 1; stroke: rgb(229, 236, 246); stroke-opacity: 1;"/></g><g class="point"><path d="M400.95,495V351.52H440.55V495Z" style="vector-effect: none; opacity: 1; stroke-width: 0.5px; fill: rgb(250, 163, 7); fill-opacity: 1; stroke: rgb(229, 236, 246); stroke-opacity: 1;"/></g><g class="point"><path d="M450.45,495V249.04H490.05V495Z" style="vector-effect: none; opacity: 1; stroke-width: 0.5px; fill: rgb(250, 163, 7); fill-opacity: 1; stroke: rgb(229, 236, 246); stroke-opacity: 1;"/></g><g class="point"><path d="M499.95,495V269.53H539.55V495Z" style="vector-effect: none; opacity: 1; stroke-width: 0.5px; fill: rgb(250, 163, 7); fill-opacity: 1; stroke: rgb(229, 236, 246); stroke-opacity: 1;"/></g><g class="point"><path d="M549.45,495V228.54H589.05V495Z" style="vector-effect: none; opacity: 1; stroke-width: 0.5px; fill: rgb(250, 163, 7); fill-opacity: 1; stroke: rgb(229, 236, 246); stroke-opacity: 1;"/></g><g class="point"><path d="M598.95,495V310.53H638.55V495Z" style="vector-effect: none; opacity: 1; stroke-width: 0.5px; fill: rgb(250, 163, 7); fill-opacity: 1; stroke: rgb(229, 236, 246); stroke-opacity: 1;"/></g><g class="point"><path d="M648.45,495V290.03H688.05V495Z" style="vector-effect: none; opacity: 1; stroke-width: 0.5px; fill: rgb(250, 163, 7); fill-opacity: 1; stroke: rgb(229, 236, 246); stroke-opacity: 1;"/></g><g class="point"><path d="M697.95,495V372.02H737.55V495Z" style="vector-effect: none; opacity: 1; stroke-width: 0.5px; fill: rgb(250, 163, 7); fill-opacity: 1; stroke: rgb(229, 236, 246); stroke-opacity: 1;"/></g><g class="point"><path d="M747.45,495V433.51H787.05V495Z" style="vector-effect: none; opacity: 1; stroke-width: 0.5px; fill: rgb(250, 163, 7); fill-opacity: 1; stroke: rgb(229, 236, 246); stroke-opacity: 1;"/></g><g class="point"><path d="M796.95,495V413.01H836.55V495Z" style="vector-effect: none; opacity: 1; stroke-width: 0.5px; fill: rgb(250, 163, 7); fill-opacity: 1; stroke: rgb(229, 236, 246); stroke-opacity: 1;"/></g></g></g><g class="trace bars" style="opacity: 0.6;"><g class="points"><g class="point"><path d="M4.95,495V495H44.55V495Z" style="vector-effect: none; opacity: 1; stroke-width: 0.5px; fill: rgb(199, 125, 255); fill-opacity: 1; stroke: rgb(229, 236, 246); stroke-opacity: 1;"/></g><g class="point"><path d="M54.45,495V495H94.05V495Z" style="vector-effect: none; opacity: 1; stroke-width: 0.5px; fill: rgb(199, 125, 255); fill-opacity: 1; stroke: rgb(229, 236, 246); stroke-opacity: 1;"/></g><g class="point"><path d="M103.95,495V495H143.55V495Z" style="vector-effect: none; opacity: 1; stroke-width: 0.5px; fill: rgb(199, 125, 255); fill-opacity: 1; stroke: rgb(229, 236, 246); stroke-opacity: 1;"/></g><g class="point"><path d="M153.45,495V474.5H193.05V495Z" style="vector-effect: none; opacity: 1; stroke-width: 0.5px; fill: rgb(199, 125, 255); fill-opacity: 1; stroke: rgb(229, 236, 246); stroke-opacity: 1;"/></g><g class="point"><path d="M202.95,495V454.01H242.55V495Z" style="vector-effect: none; opacity: 1; stroke-width: 0.5px; fill: rgb(199, 125, 255); fill-opacity: 1; stroke: rgb(229, 236, 246); stroke-opacity: 1;"/></g><g class="point"><path d="M252.45,495V454.01H292.05V495Z" style="vector-effect: none; opacity: 1; stroke-width: 0.5px; fill: rgb(199, 125, 255); fill-opacity: 1; stroke: rgb(229, 236, 246); stroke-opacity: 1;"/></g><g class="point"><path d="M301.95,495V433.51H341.55V495Z" style="vector-effect: none; opacity: 1; stroke-width: 0.5px; fill: rgb(199, 125, 255); fill-opacity: 1; stroke: rgb(229, 236, 246); stroke-opacity: 1;"/></g><g class="point"><path d="M351.45,495V413.01H391.05V495Z" style="vector-effect: none; opacity: 1; stroke-width: 0.5px; fill: rgb(199, 125, 255); fill-opacity: 1; stroke: rgb(229, 236, 246); stroke-opacity: 1;"/></g><g class="point"><path d="M400.95,495V290.03H440.55V495Z" style="vector-effect: none; opacity: 1; stroke-width: 0.5px; fill: rgb(199, 125, 255); fill-opacity: 1; stroke: rgb(229, 236, 246); stroke-opacity: 1;"/></g><g class="point"><path d="M450.45,495V249.04H490.05V495Z" style="vector-effect: none; opacity: 1; stroke-width: 0.5px; fill: rgb(199, 125, 255); fill-opacity: 1; stroke: rgb(229, 236, 246); stroke-opacity: 1;"/></g><g class="point"><path d="M499.95,495V187.55H539.55V495Z" style="vector-effect: none; opacity: 1; stroke-width: 0.5px; fill: rgb(199, 125, 255); fill-opacity: 1; stroke: rgb(229, 236, 246); stroke-opacity: 1;"/></g><g class="point"><path d="M549.45,495V187.55H589.05V495Z" style="vector-effect: none; opacity: 1; stroke-width: 0.5px; fill: rgb(199, 125, 255); fill-opacity: 1; stroke: rgb(229, 236, 246); stroke-opacity: 1;"/></g><g class="point"><path d="M598.95,495V249.04H638.55V495Z" style="vector-effect: none; opacity: 1; stroke-width: 0.5px; fill: rgb(199, 125, 255); fill-opacity: 1; stroke: rgb(229, 236, 246); stroke-opacity: 1;"/></g><g class="point"><path d="M648.45,495V331.02H688.05V495Z" style="vector-effect: none; opacity: 1; stroke-width: 0.5px; fill: rgb(199, 125, 255); fill-opacity: 1; stroke: rgb(229, 236, 246); stroke-opacity: 1;"/></g><g class="point"><path d="M697.95,495V372.02H737.55V495Z" style="vector-effect: none; opacity: 1; stroke-width: 0.5px; fill: rgb(199, 125, 255); fill-opacity: 1; stroke: rgb(229, 236, 246); stroke-opacity: 1;"/></g><g class="point"><path d="M747.45,495V372.02H787.05V495Z" style="vector-effect: none; opacity: 1; stroke-width: 0.5px; fill: rgb(199, 125, 255); fill-opacity: 1; stroke: rgb(229, 236, 246); stroke-opacity: 1;"/></g><g class="point"><path d="M796.95,495V454.01H836.55V495Z" style="vector-effect: none; opacity: 1; stroke-width: 0.5px; fill: rgb(199, 125, 255); fill-opacity: 1; stroke: rgb(229, 236, 246); stroke-opacity: 1;"/></g><g class="point"><path d="M846.45,495V454.01H886.05V495Z" style="vector-effect: none; opacity: 1; stroke-width: 0.5px; fill: rgb(199, 125, 255); fill-opacity: 1; stroke: rgb(229, 236, 246); stroke-opacity: 1;"/></g></g></g><g class="trace bars" style="opacity: 0.6;"><g class="points"><g class="point"><path d="M4.95,495V495H44.55V495Z" style="vector-effect: none; opacity: 1; stroke-width: 0.5px; fill: rgb(112, 224, 0); fill-opacity: 1; stroke: rgb(229, 236, 246); stroke-opacity: 1;"/></g><g class="point"><path d="M54.45,495V495H94.05V495Z" style="vector-effect: none; opacity: 1; stroke-width: 0.5px; fill: rgb(112, 224, 0); fill-opacity: 1; stroke: rgb(229, 236, 246); stroke-opacity: 1;"/></g><g class="point"><path d="M103.95,495V495H143.55V495Z" style="vector-effect: none; opacity: 1; stroke-width: 0.5px; fill: rgb(112, 224, 0); fill-opacity: 1; stroke: rgb(229, 236, 246); stroke-opacity: 1;"/></g><g class="point"><path d="M153.45,495V495H193.05V495Z" style="vector-effect: none; opacity: 1; stroke-width: 0.5px; fill: rgb(112, 224, 0); fill-opacity: 1; stroke: rgb(229, 236, 246); stroke-opacity: 1;"/></g><g class="point"><path d="M202.95,495V495H242.55V495Z" style="vector-effect: none; opacity: 1; stroke-width: 0.5px; fill: rgb(112, 224, 0); fill-opacity: 1; stroke: rgb(229, 236, 246); stroke-opacity: 1;"/></g><g class="point"><path d="M252.45,495V433.51H292.05V495Z" style="vector-effect: none; opacity: 1; stroke-width: 0.5px; fill: rgb(112, 224, 0); fill-opacity: 1; stroke: rgb(229, 236, 246); stroke-opacity: 1;"/></g><g class="point"><path d="M301.95,495V433.51H341.55V495Z" style="vector-effect: none; opacity: 1; stroke-width: 0.5px; fill: rgb(112, 224, 0); fill-opacity: 1; stroke: rgb(229, 236, 246); stroke-opacity: 1;"/></g><g class="point"><path d="M351.45,495V392.52H391.05V495Z" style="vector-effect: none; opacity: 1; stroke-width: 0.5px; fill: rgb(112, 224, 0); fill-opacity: 1; stroke: rgb(229, 236, 246); stroke-opacity: 1;"/></g><g class="point"><path d="M400.95,495V372.02H440.55V495Z" style="vector-effect: none; opacity: 1; stroke-width: 0.5px; fill: rgb(112, 224, 0); fill-opacity: 1; stroke: rgb(229, 236, 246); stroke-opacity: 1;"/></g><g class="point"><path d="M450.45,495V269.53H490.05V495Z" style="vector-effect: none; opacity: 1; stroke-width: 0.5px; fill: rgb(112, 224, 0); fill-opacity: 1; stroke: rgb(229, 236, 246); stroke-opacity: 1;"/></g><g class="point"><path d="M499.95,495V351.52H539.55V495Z" style="vector-effect: none; opacity: 1; stroke-width: 0.5px; fill: rgb(112, 224, 0); fill-opacity: 1; stroke: rgb(229, 236, 246); stroke-opacity: 1;"/></g><g class="point"><path d="M549.45,495V228.54H589.05V495Z" style="vector-effect: none; opacity: 1; stroke-width: 0.5px; fill: rgb(112, 224, 0); fill-opacity: 1; stroke: rgb(229, 236, 246); stroke-opacity: 1;"/></g><g class="point"><path d="M598.95,495V85.06H638.55V495Z" style="vector-effect: none; opacity: 1; stroke-width: 0.5px; fill: rgb(112, 224, 0); fill-opacity: 1; stroke: rgb(229, 236, 246); stroke-opacity: 1;"/></g><g class="point"><path d="M648.45,495V269.53H688.05V495Z" style="vector-effect: none; opacity: 1; stroke-width: 0.5px; fill: rgb(112, 224, 0); fill-opacity: 1; stroke: rgb(229, 236, 246); stroke-opacity: 1;"/></g><g class="point"><path d="M697.95,495V310.53H737.55V495Z" style="vector-effect: none; opacity: 1; stroke-width: 0.5px; fill: rgb(112, 224, 0); fill-opacity: 1; stroke: rgb(229, 236, 246); stroke-opacity: 1;"/></g><g class="point"><path d="M747.45,495V372.02H787.05V495Z" style="vector-effect: none; opacity: 1; stroke-width: 0.5px; fill: rgb(112, 224, 0); fill-opacity: 1; stroke: rgb(229, 236, 246); stroke-opacity: 1;"/></g><g class="point"><path d="M796.95,495V392.52H836.55V495Z" style="vector-effect: none; opacity: 1; stroke-width: 0.5px; fill: rgb(112, 224, 0); fill-opacity: 1; stroke: rgb(229, 236, 246); stroke-opacity: 1;"/></g><g class="point"><path d="M846.45,495V474.5H886.05V495Z" style="vector-effect: none; opacity: 1; stroke-width: 0.5px; fill: rgb(112, 224, 0); fill-opacity: 1; stroke: rgb(229, 236, 246); stroke-opacity: 1;"/></g></g></g><g class="trace bars" style="opacity: 0.6;"><g class="points"><g class="point"><path d="M4.95,495V495H44.55V495Z" style="vector-effect: none; opacity: 1; stroke-width: 0.5px; fill: rgb(255, 77, 109); fill-opacity: 1; stroke: rgb(229, 236, 246); stroke-opacity: 1;"/></g><g class="point"><path d="M54.45,495V495H94.05V495Z" style="vector-effect: none; opacity: 1; stroke-width: 0.5px; fill: rgb(255, 77, 109); fill-opacity: 1; stroke: rgb(229, 236, 246); stroke-opacity: 1;"/></g><g class="point"><path d="M103.95,495V495H143.55V495Z" style="vector-effect: none; opacity: 1; stroke-width: 0.5px; fill: rgb(255, 77, 109); fill-opacity: 1; stroke: rgb(229, 236, 246); stroke-opacity: 1;"/></g><g class="point"><path d="M153.45,495V495H193.05V495Z" style="vector-effect: none; opacity: 1; stroke-width: 0.5px; fill: rgb(255, 77, 109); fill-opacity: 1; stroke: rgb(229, 236, 246); stroke-opacity: 1;"/></g><g class="point"><path d="M202.95,495V474.5H242.55V495Z" style="vector-effect: none; opacity: 1; stroke-width: 0.5px; fill: rgb(255, 77, 109); fill-opacity: 1; stroke: rgb(229, 236, 246); stroke-opacity: 1;"/></g><g class="point"><path d="M252.45,495V433.51H292.05V495Z" style="vector-effect: none; opacity: 1; stroke-width: 0.5px; fill: rgb(255, 77, 109); fill-opacity: 1; stroke: rgb(229, 236, 246); stroke-opacity: 1;"/></g><g class="point"><path d="M301.95,495V495H341.55V495Z" style="vector-effect: none; opacity: 1; stroke-width: 0.5px; fill: rgb(255, 77, 109); fill-opacity: 1; stroke: rgb(229, 236, 246); stroke-opacity: 1;"/></g><g class="point"><path d="M351.45,495V454.01H391.05V495Z" style="vector-effect: none; opacity: 1; stroke-width: 0.5px; fill: rgb(255, 77, 109); fill-opacity: 1; stroke: rgb(229, 236, 246); stroke-opacity: 1;"/></g><g class="point"><path d="M400.95,495V228.54H440.55V495Z" style="vector-effect: none; opacity: 1; stroke-width: 0.5px; fill: rgb(255, 77, 109); fill-opacity: 1; stroke: rgb(229, 236, 246); stroke-opacity: 1;"/></g><g class="point"><path d="M450.45,495V331.02H490.05V495Z" style="vector-effect: none; opacity: 1; stroke-width: 0.5px; fill: rgb(255, 77, 109); fill-opacity: 1; stroke: rgb(229, 236, 246); stroke-opacity: 1;"/></g><g class="point"><path d="M499.95,495V392.52H539.55V495Z" style="vector-effect: none; opacity: 1; stroke-width: 0.5px; fill: rgb(255, 77, 109); fill-opacity: 1; stroke: rgb(229, 236, 246); stroke-opacity: 1;"/></g><g class="point"><path d="M549.45,495V269.53H589.05V495Z" style="vector-effect: none; opacity: 1; stroke-width: 0.5px; fill: rgb(255, 77, 109); fill-opacity: 1; stroke: rgb(229, 236, 246); stroke-opacity: 1;"/></g><g class="point"><path d="M598.95,495V167.05H638.55V495Z" style="vector-effect: none; opacity: 1; stroke-width: 0.5px; fill: rgb(255, 77, 109); fill-opacity: 1; stroke: rgb(229, 236, 246); stroke-opacity: 1;"/></g><g class="point"><path d="M648.45,495V167.05H688.05V495Z" style="vector-effect: none; opacity: 1; stroke-width: 0.5px; fill: rgb(255, 77, 109); fill-opacity: 1; stroke: rgb(229, 236, 246); stroke-opacity: 1;"/></g><g class="point"><path d="M697.95,495V269.53H737.55V495Z" style="vector-effect: none; opacity: 1; stroke-width: 0.5px; fill: rgb(255, 77, 109); fill-opacity: 1; stroke: rgb(229, 236, 246); stroke-opacity: 1;"/></g><g class="point"><path d="M747.45,495V351.52H787.05V495Z" style="vector-effect: none; opacity: 1; stroke-width: 0.5px; fill: rgb(255, 77, 109); fill-opacity: 1; stroke: rgb(229, 236, 246); stroke-opacity: 1;"/></g><g class="point"><path d="M796.95,495V433.51H836.55V495Z" style="vector-effect: none; opacity: 1; stroke-width: 0.5px; fill: rgb(255, 77, 109); fill-opacity: 1; stroke: rgb(229, 236, 246); stroke-opacity: 1;"/></g><g class="point"><path d="M846.45,495V433.51H886.05V495Z" style="vector-effect: none; opacity: 1; stroke-width: 0.5px; fill: rgb(255, 77, 109); fill-opacity: 1; stroke: rgb(229, 236, 246); stroke-opacity: 1;"/></g><g class="point"><path d="M895.95,495V495H935.55V495Z" style="vector-effect: none; opacity: 1; stroke-width: 0.5px; fill: rgb(255, 77, 109); fill-opacity: 1; stroke: rgb(229, 236, 246); stroke-opacity: 1;"/></g><g class="point"><path d="M945.45,495V474.5H985.05V495Z" style="vector-effect: none; opacity: 1; stroke-width: 0.5px; fill: rgb(255, 77, 109); fill-opacity: 1; stroke: rgb(229, 236, 246); stroke-opacity: 1;"/></g></g></g></g><g class="scatterlayer mlayer"><g class="trace scatter tracef2e206" style="stroke-miterlimit: 2; opacity: 1;"><g class="fills"/><g class="errorbars"/><g class="lines"><path class="js-line" d="M146.03,480.57L173.9,477.49L176.99,476.65L186.28,472.75L189.38,470.91L195.57,466.33L198.67,463.58L207.96,453.5L211.06,449.57L220.35,436.33L223.45,431.51L242.03,400.29L245.12,394.95L266.8,358.96L269.9,354.15L288.48,326.97L291.58,322.58L307.06,299.72L310.16,294.74L322.55,272.7L325.64,266.63L350.42,216.67L353.51,211.54L359.71,203.14L362.81,200.08L369,196.55L372.1,196.16L375.19,196.71L378.29,198.16L384.48,203.55L387.58,207.32L396.87,221.54L399.97,226.79L412.35,246.57L415.45,250.56L421.65,256.69L424.74,258.69L430.94,260.37L434.03,260.03L440.23,257.1L443.32,254.63L449.52,248.04L452.61,244.15L468.1,223.76L471.2,220.45L477.39,215.58L480.49,214.19L483.58,213.58L486.68,213.76L492.87,216.48L495.97,218.92L502.16,225.53L505.26,229.46L520.74,249.8L523.84,253.09L530.04,258.15L533.13,259.83L539.33,261.56L542.42,261.69L548.62,260.86L551.71,260.11L564.1,257.39L567.2,257.28L573.39,258.31L576.49,259.53L582.68,263.49L585.78,266.22L591.97,273.1L595.07,277.17L604.36,291.42L607.46,296.71L622.94,325.67L626.04,331.8L669.39,418.25L672.49,423.63L681.78,438.25L684.88,442.55L694.17,453.67L697.27,456.78L706.56,464.42L709.65,466.45L718.94,471.18L722.04,472.36L731.33,474.96L734.43,475.58L753.01,478.06L756.11,478.45L762.3,479.35" style="vector-effect: none; fill: none; stroke: rgb(0, 0, 0); stroke-opacity: 1; stroke-width: 2px; opacity: 1;"/></g><g class="points"/><g class="text"/></g><g class="trace scatter tracebadd15" style="stroke-miterlimit: 2; opacity: 1;"><g class="fills"/><g class="errorbars"/><g class="lines"><path class="js-line" d="M160.88,480.48L171.06,481.41L174.46,482.09L191.43,486.94L194.83,487.94L208.41,491.03L211.81,491.48L221.99,491.85L225.39,491.62L235.57,489.85L238.97,488.88L249.15,484.79L252.55,483.05L262.74,476.67L266.13,474.18L276.32,465.62L279.71,462.39L289.9,451.59L293.29,447.62L306.88,430.33L310.27,425.8L330.64,399.88L334.04,395.99L357.81,369.15L361.2,364.55L367.99,353.92L371.39,347.74L378.18,333.22L381.57,324.75L388.36,305.11L391.76,293.88L401.94,254.76L405.34,240.16L429.11,135.71L432.5,123.65L439.29,104.15L442.69,97.01L446.08,91.7L449.48,88.23L452.88,86.51L456.27,86.43L459.67,87.82L463.06,90.46L469.85,98.55L473.25,103.49L486.83,123.85L490.22,128.21L497.01,135.43L500.41,138.28L510.6,144.73L513.99,146.57L524.18,153.09L527.57,155.96L534.36,163.11L537.76,167.37L547.95,182.31L551.34,187.72L571.71,219.3L575.11,224.15L605.67,268.21L609.06,273.38L639.62,321.42L643.01,327.48L653.2,347.61L656.6,354.98L683.76,415.68L687.15,421.93L693.95,432.71L697.34,437.24L704.13,444.73L707.53,447.82L717.71,455.27L721.11,457.35L734.69,464.29L738.08,465.62L744.88,467.56L748.27,468.11L755.06,468.33L758.46,468.02L768.64,465.84L772.04,464.92L785.62,462.02L789.02,461.76L799.2,462.4L802.6,463.04L816.18,467L819.57,468.18L836.55,474.42" style="vector-effect: none; fill: none; stroke: rgb(0, 106, 113); stroke-opacity: 1; stroke-width: 2px; opacity: 1;"/></g><g class="points"/><g class="text"/></g><g class="trace scatter trace8d44e4" style="stroke-miterlimit: 2; opacity: 1;"><g class="fills"/><g class="errorbars"/><g class="lines"><path class="js-line" d="M126.23,478.35L169.95,467.67L173.6,467L188.17,465.17L191.82,464.96L206.4,465.12L210.04,465.38L242.84,467.94L246.48,467.78L257.41,466.04L261.06,464.95L268.34,461.85L271.99,459.8L279.28,454.61L282.92,451.43L290.21,443.88L293.85,439.48L304.79,423.89L308.43,417.93L319.36,398.16L323.01,391.07L352.16,334.38L355.8,328.42L363.09,318.04L366.74,313.73L374.02,307.09L377.67,304.8L384.96,302.23L388.6,301.91L395.89,302.94L399.53,304.15L410.46,309.57L414.11,311.65L425.04,317.3L428.68,318.7L435.97,320.33L439.62,320.45L446.91,319.14L450.55,317.68L457.84,313.24L461.48,310.3L468.77,303.24L472.41,299.23L501.57,265.48L505.21,262.1L512.5,256.43L516.14,254.19L523.43,250.91L527.08,249.84L534.36,248.68L538.01,248.52L548.94,249.13L552.58,249.56L596.31,255.64L599.96,256.62L610.89,260.78L614.53,262.61L625.47,269.32L629.11,271.91L650.97,289.06L654.62,291.96L694.7,323.84L698.35,327.15L712.92,341.66L716.57,345.58L756.65,389.47L760.3,392.84L771.23,401.62L774.87,404.06L785.81,409.98L789.45,411.52L804.03,416.24L807.67,417.25L822.25,421.9L825.89,423.4L836.82,429.18L840.47,431.56L851.4,439.95" style="vector-effect: none; fill: none; stroke: rgb(232, 93, 4); stroke-opacity: 1; stroke-width: 2px; opacity: 1;"/></g><g class="points"/><g class="text"/></g><g class="trace scatter traced30d0b" style="stroke-miterlimit: 2; opacity: 1;"><g class="fills"/><g class="errorbars"/><g class="lines"><path class="js-line" d="M198,479.1L221.94,472.52L225.36,471.34L242.46,464.3L245.88,462.75L266.4,454.11L269.82,452.99L280.09,450.41L283.51,449.81L300.61,447.95L304.03,447.61L314.29,445.99L317.71,445.16L327.97,441.5L331.39,439.86L341.65,433.77L345.07,431.41L358.75,420.86L362.17,418.02L379.27,402.68L382.69,399.25L392.95,387.79L396.37,383.5L406.63,369.06L410.05,363.75L427.16,334.96L430.58,329.11L444.26,307.31L447.68,302.48L457.94,289.81L461.36,286.18L471.62,276.76L475.04,273.96L495.56,257L498.98,253.7L509.24,242.45L512.66,238.26L529.76,215.34L533.18,210.72L543.44,197.8L546.86,193.98L553.7,187.37L557.12,184.64L563.96,180.42L567.38,178.96L574.22,177.38L577.65,177.26L584.49,178.35L587.91,179.55L594.75,183.27L598.17,185.76L605.01,191.98L608.43,195.67L618.69,208.88L622.11,213.9L635.79,236.13L639.21,242.04L666.57,288.61L669.99,293.92L683.67,313.11L687.09,317.35L697.35,328.58L700.77,331.82L711.03,340.08L714.45,342.39L724.71,348.24L728.14,349.93L748.66,359.98L752.08,362.02L762.34,369.47L765.76,372.44L776.02,382.76L779.44,386.6L806.8,418.12L810.22,421.46L820.48,429.98L823.9,432.29L834.16,437.88L837.58,439.38L868.36,451.64L871.78,453.39L878.63,457.26" style="vector-effect: none; fill: none; stroke: rgb(123, 44, 191); stroke-opacity: 1; stroke-width: 2px; opacity: 1;"/></g><g class="points"/><g class="text"/></g><g class="trace scatter trace131ba6" style="stroke-miterlimit: 2; opacity: 1;"><g class="fills"/><g class="errorbars"/><g class="lines"><path class="js-line" d="M284.63,458L299.3,449.07L302.24,447.46L343.33,425.13L346.26,423.35L381.49,402.84L384.42,401.15L402.03,390.04L404.97,387.98L422.58,374.33L425.51,371.89L469.54,334.82L472.48,332.81L481.28,327.69L484.22,326.33L493.02,323.28L495.96,322.58L519.44,317.93L522.37,316.77L528.24,313.53L531.18,311.39L537.05,305.92L539.99,302.56L548.79,290.07L551.73,285.15L560.53,268.5L563.47,262.42L581.08,222.97L584.01,216.19L601.62,177.39L604.56,171.65L613.36,156.77L616.3,152.8L622.17,146.74L625.11,144.75L630.98,143.07L633.91,143.44L636.85,144.61L639.78,146.59L645.65,152.87L648.59,157.08L654.46,167.34L657.39,173.24L669.13,199.94L672.07,206.96L686.74,240.49L689.68,246.55L698.48,263.04L701.42,267.99L713.16,285.53L716.1,289.49L733.71,311.53L736.64,315.06L757.19,338.72L760.12,341.82L771.86,353.17L774.8,355.71L786.54,364.8L789.48,366.84L821.76,388.99L824.7,391.38L836.44,402.06L839.37,405.01L854.05,421.26L856.98,424.75L868.73,439.06" style="vector-effect: none; fill: none; stroke: rgb(0, 128, 0); stroke-opacity: 1; stroke-width: 2px; opacity: 1;"/></g><g class="points"/><g class="text"/></g><g class="trace scatter trace77aa6a" style="stroke-miterlimit: 2; opacity: 1;"><g class="fills"/><g class="errorbars"/><g class="lines"><path class="js-line" d="M237.6,472.48L259.76,463.33L263.46,462.06L274.54,459.14L278.23,458.54L289.31,458.1L293.01,458.43L304.09,460.69L307.78,461.79L333.64,469.63L337.33,470.11L344.72,470.06L348.42,469.46L355.8,466.94L359.5,464.99L366.88,459.6L370.58,456.16L377.97,447.78L381.66,442.85L389.05,431.58L392.74,425.28L403.82,404.11L407.52,396.46L433.37,342.65L437.07,336.09L444.46,324.78L448.15,320.17L455.54,313.21L459.23,310.9L466.62,308.5L470.31,308.33L477.7,309.67L481.39,311.02L492.48,316.73L496.17,318.9L510.94,326.86L514.64,328.37L522.03,330.45L525.72,330.93L533.11,330.59L536.8,329.7L544.19,326.38L547.88,323.92L555.27,317.41L558.96,313.4L566.35,304.03L570.05,298.77L584.82,275.14L588.52,268.89L610.68,232.44L614.37,226.87L625.45,211.52L629.15,206.95L640.23,195.29L643.92,192.22L651.31,187.54L655,186.04L662.39,184.86L666.09,185.25L673.47,188.04L677.17,190.4L684.56,196.87L688.25,200.84L699.33,214.61L703.02,219.46L717.8,237.62L721.49,241.53L732.58,251.6L736.27,254.57L751.04,266.93L754.74,270.68L762.13,279.6L765.82,284.9L773.21,297.25L776.9,304.28L787.98,328.03L791.68,336.55L810.15,378.76L813.84,386.44L824.92,406.67L828.62,412.38L836,422.16L839.7,426.27L847.08,433.08L850.78,435.86L861.86,442.29L865.55,443.98L913.57,464.12L917.27,465.81L932.04,471.89L935.74,473.15L950.51,477.07L954.21,477.81L972.68,480.88" style="vector-effect: none; fill: none; stroke: rgb(164, 19, 60); stroke-opacity: 1; stroke-width: 2px; opacity: 1;"/></g><g class="points"/><g class="text"/></g></g></g><g class="overplot"/><path class="xlines-above crisp" d="M49,545.5H1040" style="fill: none; stroke-width: 1px; stroke: rgb(0, 0, 0); stroke-opacity: 1;"/><path class="ylines-above crisp" d="M49.5,50V545" style="fill: none; stroke-width: 1px; stroke: rgb(0, 0, 0); stroke-opacity: 1;"/><g class="overlines-above"/><g class="xaxislayer-above"><g class="xtick"><text text-anchor="middle" x="0" y="560.4" transform="translate(74.75,0)" style="font-family: Helvetica; font-size: 12px; fill: rgb(51, 51, 51); fill-opacity: 1; white-space: pre; opacity: 1;">0</text></g><g class="xtick"><text text-anchor="middle" x="0" y="560.4" style="font-family: Helvetica; font-size: 12px; fill: rgb(51, 51, 51); fill-opacity: 1; white-space: pre; opacity: 1;" transform="translate(322.25,0)">5</text></g><g class="xtick"><text text-anchor="middle" x="0" y="560.4" style="font-family: Helvetica; font-size: 12px; fill: rgb(51, 51, 51); fill-opacity: 1; white-space: pre; opacity: 1;" transform="translate(569.75,0)">10</text></g><g class="xtick"><text text-anchor="middle" x="0" y="560.4" style="font-family: Helvetica; font-size: 12px; fill: rgb(51, 51, 51); fill-opacity: 1; white-space: pre; opacity: 1;" transform="translate(817.25,0)">15</text></g></g><g class="yaxislayer-above"><g class="ytick"><text text-anchor="end" x="46.6" y="4.199999999999999" transform="translate(0,545)" style="font-family: Helvetica; font-size: 12px; fill: rgb(51, 51, 51); fill-opacity: 1; white-space: pre; opacity: 1;">0</text></g><g class="ytick"><text text-anchor="end" x="46.6" y="4.199999999999999" style="font-family: Helvetica; font-size: 12px; fill: rgb(51, 51, 51); fill-opacity: 1; white-space: pre; opacity: 1;" transform="translate(0,442.52)">0.05</text></g><g class="ytick"><text text-anchor="end" x="46.6" y="4.199999999999999" style="font-family: Helvetica; font-size: 12px; fill: rgb(51, 51, 51); fill-opacity: 1; white-space: pre; opacity: 1;" transform="translate(0,340.03)">0.1</text></g><g class="ytick"><text text-anchor="end" x="46.6" y="4.199999999999999" style="font-family: Helvetica; font-size: 12px; fill: rgb(51, 51, 51); fill-opacity: 1; white-space: pre; opacity: 1;" transform="translate(0,237.55)">0.15</text></g><g class="ytick"><text text-anchor="end" x="46.6" y="4.199999999999999" style="font-family: Helvetica; font-size: 12px; fill: rgb(51, 51, 51); fill-opacity: 1; white-space: pre; opacity: 1;" transform="translate(0,135.06)">0.2</text></g></g><g class="overaxes-above"/></g></g><g class="polarlayer"/><g class="smithlayer"/><g class="ternarylayer"/><g class="geolayer"/><g class="funnelarealayer"/><g class="pielayer"/><g class="iciclelayer"/><g class="treemaplayer"/><g class="sunburstlayer"/><g class="glimages"/><defs id="topdefs-049385"><g class="clips"/><clipPath id="legend049385"><rect width="208" height="238" x="0" y="0"/></clipPath></defs><g class="layer-above"><g class="imagelayer"/><g class="shapelayer"><g class="shape-group" data-index="0" clip-path="url(#clip049385x)"><path data-index="0" fill-rule="evenodd" d="M619.25,545L619.25,50" style="opacity: 1; stroke: rgb(128, 128, 128); stroke-opacity: 1; fill: rgb(0, 0, 0); fill-opacity: 0; stroke-dasharray: 15px, 15px; stroke-width: 2px;"/></g></g></g><g class="infolayer"><g class="legend" pointer-events="all" transform="translate(1059.8000000000002,50)"><rect class="bg" shape-rendering="crispEdges" width="208" height="238" x="0" y="0" style="stroke: rgb(68, 68, 68); stroke-opacity: 1; fill: rgb(255, 255, 255); fill-opacity: 1; stroke-width: 0px;"/><g class="scrollbox" transform="" clip-path="url(#legend049385)"><g class="groups"><g class="traces" transform="translate(0,14.5)" style="opacity: 1;"><text class="legendtext" text-anchor="start" x="40" y="4.680000000000001" style="font-family: Helvetica; font-size: 12px; fill: rgb(51, 51, 51); fill-opacity: 1; white-space: pre;">mqn k100 baseline</text><g class="layers" style="opacity: 0.6;"><g class="legendfill"/><g class="legendlines"/><g class="legendsymbols"><g class="legendpoints"><path class="legendundefined" d="M6,6H-6V-6H6Z" transform="translate(20,0)" style="stroke-width: 0.5px; fill: rgb(46, 46, 46); fill-opacity: 1; stroke: rgb(229, 236, 246); stroke-opacity: 1;"/></g></g></g><rect class="legendtoggle" x="0" y="-9.5" width="202.765625" height="19" style="fill: rgb(0, 0, 0); fill-opacity: 0;"/></g><g class="traces" transform="translate(0,33.5)" style="opacity: 1;"><text class="legendtext" text-anchor="start" x="40" y="4.680000000000001" style="font-family: Helvetica; font-size: 12px; fill: rgb(51, 51, 51); fill-opacity: 1; white-space: pre;">mqn k100 baseline Density</text><g class="layers" style="opacity: 1;"><g class="legendfill"/><g class="legendlines"><path class="js-line" d="M5,0h30" style="fill: none; stroke: rgb(0, 0, 0); stroke-opacity: 1; stroke-width: 2px;"/></g><g class="legendsymbols"><g class="legendpoints"/></g></g><rect class="legendtoggle" x="0" y="-9.5" width="202.765625" height="19" style="fill: rgb(0, 0, 0); fill-opacity: 0;"/></g><g class="traces" transform="translate(0,52.5)" style="opacity: 1;"><text class="legendtext" text-anchor="start" x="40" y="4.680000000000001" style="font-family: Helvetica; font-size: 12px; fill: rgb(51, 51, 51); fill-opacity: 1; white-space: pre;">mqn k100 softsub AL1</text><g class="layers" style="opacity: 0.6;"><g class="legendfill"/><g class="legendlines"/><g class="legendsymbols"><g class="legendpoints"><path class="legendundefined" d="M6,6H-6V-6H6Z" transform="translate(20,0)" style="stroke-width: 0.5px; fill: rgb(72, 202, 228); fill-opacity: 1; stroke: rgb(229, 236, 246); stroke-opacity: 1;"/></g></g></g><rect class="legendtoggle" x="0" y="-9.5" width="202.765625" height="19" style="fill: rgb(0, 0, 0); fill-opacity: 0;"/></g><g class="traces" transform="translate(0,71.5)" style="opacity: 1;"><text class="legendtext" text-anchor="start" x="40" y="4.680000000000001" style="font-family: Helvetica; font-size: 12px; fill: rgb(51, 51, 51); fill-opacity: 1; white-space: pre;">mqn k100 softsub AL1 Density</text><g class="layers" style="opacity: 1;"><g class="legendfill"/><g class="legendlines"><path class="js-line" d="M5,0h30" style="fill: none; stroke: rgb(0, 106, 113); stroke-opacity: 1; stroke-width: 2px;"/></g><g class="legendsymbols"><g class="legendpoints"/></g></g><rect class="legendtoggle" x="0" y="-9.5" width="202.765625" height="19" style="fill: rgb(0, 0, 0); fill-opacity: 0;"/></g><g class="traces" transform="translate(0,90.5)" style="opacity: 1;"><text class="legendtext" text-anchor="start" x="40" y="4.680000000000001" style="font-family: Helvetica; font-size: 12px; fill: rgb(51, 51, 51); fill-opacity: 1; white-space: pre;">mqn k100 softsub AL2</text><g class="layers" style="opacity: 0.6;"><g class="legendfill"/><g class="legendlines"/><g class="legendsymbols"><g class="legendpoints"><path class="legendundefined" d="M6,6H-6V-6H6Z" transform="translate(20,0)" style="stroke-width: 0.5px; fill: rgb(250, 163, 7); fill-opacity: 1; stroke: rgb(229, 236, 246); stroke-opacity: 1;"/></g></g></g><rect class="legendtoggle" x="0" y="-9.5" width="202.765625" height="19" style="fill: rgb(0, 0, 0); fill-opacity: 0;"/></g><g class="traces" transform="translate(0,109.5)" style="opacity: 1;"><text class="legendtext" text-anchor="start" x="40" y="4.680000000000001" style="font-family: Helvetica; font-size: 12px; fill: rgb(51, 51, 51); fill-opacity: 1; white-space: pre;">mqn k100 softsub AL2 Density</text><g class="layers" style="opacity: 1;"><g class="legendfill"/><g class="legendlines"><path class="js-line" d="M5,0h30" style="fill: none; stroke: rgb(232, 93, 4); stroke-opacity: 1; stroke-width: 2px;"/></g><g class="legendsymbols"><g class="legendpoints"/></g></g><rect class="legendtoggle" x="0" y="-9.5" width="202.765625" height="19" style="fill: rgb(0, 0, 0); fill-opacity: 0;"/></g><g class="traces" transform="translate(0,128.5)" style="opacity: 1;"><text class="legendtext" text-anchor="start" x="40" y="4.680000000000001" style="font-family: Helvetica; font-size: 12px; fill: rgb(51, 51, 51); fill-opacity: 1; white-space: pre;">mqn k100 softsub AL3</text><g class="layers" style="opacity: 0.6;"><g class="legendfill"/><g class="legendlines"/><g class="legendsymbols"><g class="legendpoints"><path class="legendundefined" d="M6,6H-6V-6H6Z" transform="translate(20,0)" style="stroke-width: 0.5px; fill: rgb(199, 125, 255); fill-opacity: 1; stroke: rgb(229, 236, 246); stroke-opacity: 1;"/></g></g></g><rect class="legendtoggle" x="0" y="-9.5" width="202.765625" height="19" style="fill: rgb(0, 0, 0); fill-opacity: 0;"/></g><g class="traces" transform="translate(0,147.5)" style="opacity: 1;"><text class="legendtext" text-anchor="start" x="40" y="4.680000000000001" style="font-family: Helvetica; font-size: 12px; fill: rgb(51, 51, 51); fill-opacity: 1; white-space: pre;">mqn k100 softsub AL3 Density</text><g class="layers" style="opacity: 1;"><g class="legendfill"/><g class="legendlines"><path class="js-line" d="M5,0h30" style="fill: none; stroke: rgb(123, 44, 191); stroke-opacity: 1; stroke-width: 2px;"/></g><g class="legendsymbols"><g class="legendpoints"/></g></g><rect class="legendtoggle" x="0" y="-9.5" width="202.765625" height="19" style="fill: rgb(0, 0, 0); fill-opacity: 0;"/></g><g class="traces" transform="translate(0,166.5)" style="opacity: 1;"><text class="legendtext" text-anchor="start" x="40" y="4.680000000000001" style="font-family: Helvetica; font-size: 12px; fill: rgb(51, 51, 51); fill-opacity: 1; white-space: pre;">mqn k100 softsub AL4</text><g class="layers" style="opacity: 0.6;"><g class="legendfill"/><g class="legendlines"/><g class="legendsymbols"><g class="legendpoints"><path class="legendundefined" d="M6,6H-6V-6H6Z" transform="translate(20,0)" style="stroke-width: 0.5px; fill: rgb(112, 224, 0); fill-opacity: 1; stroke: rgb(229, 236, 246); stroke-opacity: 1;"/></g></g></g><rect class="legendtoggle" x="0" y="-9.5" width="202.765625" height="19" style="fill: rgb(0, 0, 0); fill-opacity: 0;"/></g><g class="traces" transform="translate(0,185.5)" style="opacity: 1;"><text class="legendtext" text-anchor="start" x="40" y="4.680000000000001" style="font-family: Helvetica; font-size: 12px; fill: rgb(51, 51, 51); fill-opacity: 1; white-space: pre;">mqn k100 softsub AL4 Density</text><g class="layers" style="opacity: 1;"><g class="legendfill"/><g class="legendlines"><path class="js-line" d="M5,0h30" style="fill: none; stroke: rgb(0, 128, 0); stroke-opacity: 1; stroke-width: 2px;"/></g><g class="legendsymbols"><g class="legendpoints"/></g></g><rect class="legendtoggle" x="0" y="-9.5" width="202.765625" height="19" style="fill: rgb(0, 0, 0); fill-opacity: 0;"/></g><g class="traces" transform="translate(0,204.5)" style="opacity: 1;"><text class="legendtext" text-anchor="start" x="40" y="4.680000000000001" style="font-family: Helvetica; font-size: 12px; fill: rgb(51, 51, 51); fill-opacity: 1; white-space: pre;">mqn k100 softsub AL5</text><g class="layers" style="opacity: 0.6;"><g class="legendfill"/><g class="legendlines"/><g class="legendsymbols"><g class="legendpoints"><path class="legendundefined" d="M6,6H-6V-6H6Z" transform="translate(20,0)" style="stroke-width: 0.5px; fill: rgb(255, 77, 109); fill-opacity: 1; stroke: rgb(229, 236, 246); stroke-opacity: 1;"/></g></g></g><rect class="legendtoggle" x="0" y="-9.5" width="202.765625" height="19" style="fill: rgb(0, 0, 0); fill-opacity: 0;"/></g><g class="traces" transform="translate(0,223.5)" style="opacity: 1;"><text class="legendtext" text-anchor="start" x="40" y="4.680000000000001" style="font-family: Helvetica; font-size: 12px; fill: rgb(51, 51, 51); fill-opacity: 1; white-space: pre;">mqn k100 softsub AL5 Density</text><g class="layers" style="opacity: 1;"><g class="legendfill"/><g class="legendlines"><path class="js-line" d="M5,0h30" style="fill: none; stroke: rgb(164, 19, 60); stroke-opacity: 1; stroke-width: 2px;"/></g><g class="legendsymbols"><g class="legendpoints"/></g></g><rect class="legendtoggle" x="0" y="-9.5" width="202.765625" height="19" style="fill: rgb(0, 0, 0); fill-opacity: 0;"/></g></g></g><rect class="scrollbar" rx="20" ry="3" width="0" height="0" x="0" y="0" style="fill: rgb(128, 139, 164); fill-opacity: 1;"/></g><g class="g-gtitle"><text class="gtitle" x="640" y="30" text-anchor="middle" dy="0.7em" style="font-family: Helvetica; font-size: 20px; fill: rgb(51, 51, 51); opacity: 1; font-weight: normal; white-space: pre;">Distribution of cluster scores based on DiffDock Poses</text></g><g class="g-xtitle"><text class="xtitle" x="545" y="587.70625" text-anchor="middle" style="font-family: Helvetica; font-size: 14px; fill: rgb(51, 51, 51); opacity: 1; font-weight: normal; white-space: pre;">Prolif Score</text></g><g class="g-ytitle"><text class="ytitle" transform="rotate(-90,13.934375000000003,297.5)" x="13.934375000000003" y="297.5" text-anchor="middle" style="font-family: Helvetica; font-size: 14px; fill: rgb(51, 51, 51); opacity: 1; font-weight: normal; white-space: pre;">Rel. Frequency</text></g><g class="annotation" data-index="0" style="opacity: 1;"><g class="annotation-text-g" transform="rotate(0,663.5,60.00000000000002)"><g class="cursor-pointer" transform="translate(337,50)"><rect class="bg" x="0.5" y="0.5" width="653" height="19" style="stroke-width: 1px; stroke: rgb(0, 0, 0); stroke-opacity: 0; fill: rgb(0, 0, 0); fill-opacity: 0;"/><text class="annotation-text" text-anchor="middle" x="327.140625" y="15" style="font-family: Helvetica; font-size: 14px; fill: rgb(51, 51, 51); fill-opacity: 1; white-space: pre;">mqn k100 baseline: % > threshold = 21.0, Q25 = 06.9, Q50 = 08.8, Mean = 08.6, Q75 = 10.7, max = 14.9</text></g></g></g><g class="annotation" data-index="1" style="opacity: 1;"><g class="annotation-text-g" transform="rotate(0,653,79.80000000000004)"><g class="cursor-pointer" transform="translate(316,70)"><rect class="bg" x="0.5" y="0.5" width="674" height="19" style="stroke-width: 1px; stroke: rgb(0, 0, 0); stroke-opacity: 0; fill: rgb(0, 0, 0); fill-opacity: 0;"/><text class="annotation-text" text-anchor="middle" x="337.515625" y="15" style="font-family: Helvetica; font-size: 14px; fill: rgb(51, 51, 51); fill-opacity: 1; white-space: pre;">mqn k100 softsub AL1: % > threshold = 27.0, Q25 = 08.3, Q50 = 09.6, Mean = 09.7, Q75 = 11.2, max = 16.4</text></g></g></g><g class="annotation" data-index="2" style="opacity: 1;"><g class="annotation-text-g" transform="rotate(0,652.5,99.6)"><g class="cursor-pointer" transform="translate(315,90)"><rect class="bg" x="0.5" y="0.5" width="675" height="19" style="stroke-width: 1px; stroke: rgb(0, 0, 0); stroke-opacity: 0; fill: rgb(0, 0, 0); fill-opacity: 0;"/><text class="annotation-text" text-anchor="middle" x="338.03125" y="15" style="font-family: Helvetica; font-size: 14px; fill: rgb(51, 51, 51); fill-opacity: 1; white-space: pre;">mqn k100 softsub AL2: % > threshold = 45.0, Q25 = 08.0, Q50 = 10.6, Mean = 10.5, Q75 = 12.7, max = 16.7</text></g></g></g><g class="annotation" data-index="3" style="opacity: 1;"><g class="annotation-text-g" transform="rotate(0,653.5,119.40000000000003)"><g class="cursor-pointer" transform="translate(317,109)"><rect class="bg" x="0.5" y="0.5" width="673" height="19" style="stroke-width: 1px; stroke: rgb(0, 0, 0); stroke-opacity: 0; fill: rgb(0, 0, 0); fill-opacity: 0;"/><text class="annotation-text" text-anchor="middle" x="337" y="15" style="font-family: Helvetica; font-size: 14px; fill: rgb(51, 51, 51); fill-opacity: 1; white-space: pre;">mqn k100 softsub AL3: % > threshold = 51.0, Q25 = 09.2, Q50 = 11.1, Mean = 11.0, Q75 = 12.8, max = 17.2</text></g></g></g><g class="annotation" data-index="4" style="opacity: 1;"><g class="annotation-text-g" transform="rotate(0,653,139.20000000000005)"><g class="cursor-pointer" transform="translate(316,129)"><rect class="bg" x="0.5" y="0.5" width="674" height="19" style="stroke-width: 1px; stroke: rgb(0, 0, 0); stroke-opacity: 0; fill: rgb(0, 0, 0); fill-opacity: 0;"/><text class="annotation-text" text-anchor="middle" x="337.515625" y="15" style="font-family: Helvetica; font-size: 14px; fill: rgb(51, 51, 51); fill-opacity: 1; white-space: pre;">mqn k100 softsub AL4: % > threshold = 65.0, Q25 = 09.8, Q50 = 12.1, Mean = 11.7, Q75 = 13.6, max = 17.1</text></g></g></g><g class="annotation" data-index="5" style="opacity: 1;"><g class="annotation-text-g" transform="rotate(0,652.5,159)"><g class="cursor-pointer" transform="translate(315,149)"><rect class="bg" x="0.5" y="0.5" width="675" height="19" style="stroke-width: 1px; stroke: rgb(0, 0, 0); stroke-opacity: 0; fill: rgb(0, 0, 0); fill-opacity: 0;"/><text class="annotation-text" text-anchor="middle" x="338.03125" y="15" style="font-family: Helvetica; font-size: 14px; fill: rgb(51, 51, 51); fill-opacity: 1; white-space: pre;">mqn k100 softsub AL5: % > threshold = 68.0, Q25 = 09.9, Q50 = 12.3, Mean = 12.0, Q75 = 13.9, max = 19.1</text></g></g></g></g></svg>