<svg class="main-svg" xmlns="http://www.w3.org/2000/svg" xmlns:xlink="http://www.w3.org/1999/xlink" width="1280" height="600" style="" viewBox="0 0 1280 600"><rect x="0" y="0" width="1280" height="600" style="fill: rgb(255, 255, 255); fill-opacity: 1;"/><defs id="defs-a784ca"><g class="clips"><clipPath id="clipa784caxyplot" class="plotclip"><rect width="1139" height="448"/></clipPath><clipPath class="axesclip" id="clipa784cax"><rect x="91" y="0" width="1139" height="600"/></clipPath><clipPath class="axesclip" id="clipa784cay"><rect x="0" y="60" width="1280" height="448"/></clipPath><clipPath class="axesclip" id="clipa784caxy"><rect x="91" y="60" width="1139" height="448"/></clipPath></g><g class="gradients"/><g class="patterns"/></defs><g class="bglayer"/><g class="layer-below"><g class="imagelayer"/><g class="shapelayer"/></g><g class="cartesianlayer"><g class="subplot xy"><g class="layer-subplot"><g class="shapelayer"/><g class="imagelayer"/></g><g class="minor-gridlayer"><g class="x"/><g class="y"/></g><g class="gridlayer"><g class="x"/><g class="y"/></g><g class="zerolinelayer"/><path class="xlines-below"/><path class="ylines-below"/><g class="overlines-below"/><g class="xaxislayer-below"/><g class="yaxislayer-below"/><g class="overaxes-below"/><g class="plot" transform="translate(91,60)" clip-path="url(#clipa784caxyplot)"><g class="scatterlayer mlayer"><g class="trace scatter trace65f16a" style="stroke-miterlimit: 2;"><g class="fills"><g><path class="js-fill" d="M612.84,448L78.98,448L78.98,344.61L87.03,346.06L89.71,347.17L97.76,352.24L100.44,354.46L111.17,365.47L113.86,368.63L151.42,414.95L154.1,417.68L164.83,427.17L167.51,429.19L178.24,435.86L180.93,437.2L194.34,442.27L197.02,443L213.12,445.93L215.8,446.23L239.95,447.58L242.63,447.63L274.82,447.17L277.5,447.02L296.28,444.76L298.97,444.19L309.7,440.97L312.38,439.87L323.11,433.87L325.79,431.89L333.84,424.58L336.52,421.62L344.57,411L347.25,406.82L355.3,392.24L357.99,386.68L368.72,360.86L371.4,353.55L384.81,312.7L387.49,303.86L417,207.84L419.69,200.57L427.74,181.76L430.42,176.64L435.78,168.33L438.47,165.19L443.83,161.03L446.51,160.04L451.88,160.19L454.56,161.33L459.93,165.61L462.61,168.7L470.66,181.28L473.34,186.42L484.07,210.25L486.76,216.71L505.53,260.56L508.22,265.92L516.27,279.58L518.95,283.21L524.31,288.92L527,290.98L532.36,293.48L535.04,293.92L540.41,293.26L543.09,292.21L548.46,288.82L551.14,286.55L559.19,278.03L561.87,274.79L580.65,252.31L583.33,249.8L591.38,244.39L594.06,243.41L599.43,242.89L602.11,243.38L607.48,245.9L610.16,247.94L612.84,250.49" style="fill: rgb(0, 0, 0); fill-opacity: 0.2; stroke-width: 0;"/></g></g><g class="errorbars"/><g class="lines"><path class="js-line" d="M78.98,344.61L87.03,346.06L89.71,347.17L97.76,352.24L100.44,354.46L111.17,365.47L113.86,368.63L151.42,414.95L154.1,417.68L164.83,427.17L167.51,429.19L178.24,435.86L180.93,437.2L194.34,442.27L197.02,443L213.12,445.93L215.8,446.23L239.95,447.58L242.63,447.63L274.82,447.17L277.5,447.02L296.28,444.76L298.97,444.19L309.7,440.97L312.38,439.87L323.11,433.87L325.79,431.89L333.84,424.58L336.52,421.62L344.57,411L347.25,406.82L355.3,392.24L357.99,386.68L368.72,360.86L371.4,353.55L384.81,312.7L387.49,303.86L417,207.84L419.69,200.57L427.74,181.76L430.42,176.64L435.78,168.33L438.47,165.19L443.83,161.03L446.51,160.04L451.88,160.19L454.56,161.33L459.93,165.61L462.61,168.7L470.66,181.28L473.34,186.42L484.07,210.25L486.76,216.71L505.53,260.56L508.22,265.92L516.27,279.58L518.95,283.21L524.31,288.92L527,290.98L532.36,293.48L535.04,293.92L540.41,293.26L543.09,292.21L548.46,288.82L551.14,286.55L559.19,278.03L561.87,274.79L580.65,252.31L583.33,249.8L591.38,244.39L594.06,243.41L599.43,242.89L602.11,243.38L607.48,245.9L610.16,247.94L612.84,250.49" style="vector-effect: none; fill: none; stroke: rgb(0, 0, 0); stroke-opacity: 0.8; stroke-width: 4px; opacity: 1;"/></g><g class="points"/><g class="text"/></g><g class="trace scatter tracec79015" style="stroke-miterlimit: 2;"><g class="fills"><g><path class="js-fill" d="M673.41,448L220.93,448L220.93,328.44L225.48,329.42L227.76,330.63L232.3,334.41L234.58,336.93L241.4,346.7L243.67,350.56L255.04,372.55L257.31,377.18L273.23,407.47L275.5,411.18L284.6,423.9L286.87,426.54L295.97,434.95L298.24,436.55L307.34,441.25L309.61,442.03L318.71,443.84L320.98,443.98L330.07,443.33L332.35,442.85L341.44,439.46L343.72,438.19L350.54,433.17L352.81,431.05L359.63,423.11L361.91,419.89L368.73,408.38L371,403.89L380.1,382.56L382.37,376.41L393.74,341.35L396.01,333.64L427.85,224.44L430.12,217.94L439.22,195.17L441.49,190.32L450.58,174.2L452.86,170.96L461.95,160.7L464.23,158.76L471.05,154.23L473.32,153.13L480.14,151.03L482.42,150.73L489.24,151.11L491.51,151.7L498.33,154.95L500.61,156.55L507.43,163L509.7,165.69L518.8,178.93L521.07,182.78L534.71,208.61L536.99,213.1L552.9,242.67L555.18,246.45L568.82,266.79L571.09,269.91L612.02,324.73L614.3,327.06L621.12,332.54L623.39,333.81L630.21,335.79L632.49,335.85L639.31,334.41L641.58,333.48L664.32,322.24L666.59,321.93L671.14,322.26L673.41,322.95" style="fill: rgb(0, 106, 113); fill-opacity: 0.2; stroke-width: 0;"/></g></g><g class="errorbars"/><g class="lines"><path class="js-line" d="M220.93,328.44L225.48,329.42L227.76,330.63L232.3,334.41L234.58,336.93L241.4,346.7L243.67,350.56L255.04,372.55L257.31,377.18L273.23,407.47L275.5,411.18L284.6,423.9L286.87,426.54L295.97,434.95L298.24,436.55L307.34,441.25L309.61,442.03L318.71,443.84L320.98,443.98L330.07,443.33L332.35,442.85L341.44,439.46L343.72,438.19L350.54,433.17L352.81,431.05L359.63,423.11L361.91,419.89L368.73,408.38L371,403.89L380.1,382.56L382.37,376.41L393.74,341.35L396.01,333.64L427.85,224.44L430.12,217.94L439.22,195.17L441.49,190.32L450.58,174.2L452.86,170.96L461.95,160.7L464.23,158.76L471.05,154.23L473.32,153.13L480.14,151.03L482.42,150.73L489.24,151.11L491.51,151.7L498.33,154.95L500.61,156.55L507.43,163L509.7,165.69L518.8,178.93L521.07,182.78L534.71,208.61L536.99,213.1L552.9,242.67L555.18,246.45L568.82,266.79L571.09,269.91L612.02,324.73L614.3,327.06L621.12,332.54L623.39,333.81L630.21,335.79L632.49,335.85L639.31,334.41L641.58,333.48L664.32,322.24L666.59,321.93L671.14,322.26L673.41,322.95" style="vector-effect: none; fill: none; stroke: rgb(0, 106, 113); stroke-opacity: 0.8; stroke-width: 4px; opacity: 1;"/></g><g class="points"/><g class="text"/></g><g class="trace scatter trace08ba56" style="stroke-miterlimit: 2;"><g class="fills"><g><path class="js-fill" d="M661.13,448L0,448L0,358.61L9.97,360L13.29,361.08L23.26,366L26.58,368.13L39.87,378.54L43.19,381.47L73.09,407.92L76.41,410.39L86.38,416.69L89.7,418.38L99.67,422.01L102.99,422.72L112.96,423.29L116.28,422.96L126.25,420.38L129.57,419.02L139.54,413.51L142.86,411.23L156.15,400.32L159.47,397.23L205.98,352.23L209.3,349.65L222.59,340.84L225.91,339L242.53,331.37L245.85,330.05L272.43,318.71L275.75,316.95L289.04,308.8L292.36,306.49L315.62,288.32L318.94,285.65L335.55,273.25L338.87,271.1L352.16,264.11L355.48,262.82L365.45,260.2L368.77,259.74L378.74,259.68L382.06,260.08L392.03,262.56L395.35,263.8L405.32,268.71L408.64,270.74L421.93,280.75L425.25,283.72L438.54,297.32L441.86,301.13L458.47,322.24L461.79,326.79L504.98,386.37L508.31,390.28L521.6,403.85L524.92,406.65L534.88,413.45L538.21,415.16L548.17,418.52L551.5,419.05L561.46,418.88L564.79,418.24L574.75,414.74L578.07,413.07L588.04,406.76L591.36,404.29L607.97,390.13L611.3,387.13L631.23,370.34L634.55,368.01L644.52,362.39L647.84,361.03L657.81,358.73L661.13,358.58" style="fill: rgb(232, 93, 4); fill-opacity: 0.2; stroke-width: 0;"/></g></g><g class="errorbars"/><g class="lines"><path class="js-line" d="M0,358.61L9.97,360L13.29,361.08L23.26,366L26.58,368.13L39.87,378.54L43.19,381.47L73.09,407.92L76.41,410.39L86.38,416.69L89.7,418.38L99.67,422.01L102.99,422.72L112.96,423.29L116.28,422.96L126.25,420.38L129.57,419.02L139.54,413.51L142.86,411.23L156.15,400.32L159.47,397.23L205.98,352.23L209.3,349.65L222.59,340.84L225.91,339L242.53,331.37L245.85,330.05L272.43,318.71L275.75,316.95L289.04,308.8L292.36,306.49L315.62,288.32L318.94,285.65L335.55,273.25L338.87,271.1L352.16,264.11L355.48,262.82L365.45,260.2L368.77,259.74L378.74,259.68L382.06,260.08L392.03,262.56L395.35,263.8L405.32,268.71L408.64,270.74L421.93,280.75L425.25,283.72L438.54,297.32L441.86,301.13L458.47,322.24L461.79,326.79L504.98,386.37L508.31,390.28L521.6,403.85L524.92,406.65L534.88,413.45L538.21,415.16L548.17,418.52L551.5,419.05L561.46,418.88L564.79,418.24L574.75,414.74L578.07,413.07L588.04,406.76L591.36,404.29L607.97,390.13L611.3,387.13L631.23,370.34L634.55,368.01L644.52,362.39L647.84,361.03L657.81,358.73L661.13,358.58" style="vector-effect: none; fill: none; stroke: rgb(232, 93, 4); stroke-opacity: 0.8; stroke-width: 4px; opacity: 1;"/></g><g class="points"/><g class="text"/></g><g class="trace scatter tracef8e2b9" style="stroke-miterlimit: 2;"><g class="fills"><g><path class="js-fill" d="M713.61,448L182.98,448L182.98,326.32L196.31,317.23L198.98,315.6L217.64,303.14L220.31,300.95L230.98,290.56L233.64,287.54L246.98,270.42L249.64,266.75L265.64,245.81L268.31,242.89L276.31,235.9L278.97,234.29L284.31,232.31L286.97,231.99L292.31,232.74L294.97,233.83L300.3,237.4L302.97,239.85L310.97,249.63L313.64,253.58L326.97,276.64L329.64,281.58L345.64,309.35L348.3,313.26L356.3,323.09L358.97,325.66L366.97,331.08L369.63,332.12L374.97,333.07L377.63,333.02L385.63,330.97L388.3,329.73L398.96,322.8L401.63,320.72L428.3,299.71L430.96,298.05L441.63,292.92L444.3,292.05L452.29,290.5L454.96,290.35L462.96,291.06L465.63,291.69L473.63,294.79L476.29,296.24L484.29,301.81L486.96,304.08L497.63,315.18L500.29,318.42L513.62,337.02L516.29,341.12L553.62,399.41L556.29,402.93L566.95,415.34L569.62,417.98L580.29,426.57L582.95,428.22L590.95,431.95L593.62,432.79L601.62,434.11L604.28,434.16L612.28,433.1L614.95,432.36L622.95,428.95L625.62,427.43L636.28,419.45L638.95,417.01L649.62,405.64L652.28,402.45L673.61,374.59L676.28,371.13L689.61,355.72L692.28,353.19L700.28,347.12L702.94,345.67L710.94,343.2L713.61,343.03" style="fill: rgb(123, 44, 191); fill-opacity: 0.2; stroke-width: 0;"/></g></g><g class="errorbars"/><g class="lines"><path class="js-line" d="M182.98,326.32L196.31,317.23L198.98,315.6L217.64,303.14L220.31,300.95L230.98,290.56L233.64,287.54L246.98,270.42L249.64,266.75L265.64,245.81L268.31,242.89L276.31,235.9L278.97,234.29L284.31,232.31L286.97,231.99L292.31,232.74L294.97,233.83L300.3,237.4L302.97,239.85L310.97,249.63L313.64,253.58L326.97,276.64L329.64,281.58L345.64,309.35L348.3,313.26L356.3,323.09L358.97,325.66L366.97,331.08L369.63,332.12L374.97,333.07L377.63,333.02L385.63,330.97L388.3,329.73L398.96,322.8L401.63,320.72L428.3,299.71L430.96,298.05L441.63,292.92L444.3,292.05L452.29,290.5L454.96,290.35L462.96,291.06L465.63,291.69L473.63,294.79L476.29,296.24L484.29,301.81L486.96,304.08L497.63,315.18L500.29,318.42L513.62,337.02L516.29,341.12L553.62,399.41L556.29,402.93L566.95,415.34L569.62,417.98L580.29,426.57L582.95,428.22L590.95,431.95L593.62,432.79L601.62,434.11L604.28,434.16L612.28,433.1L614.95,432.36L622.95,428.95L625.62,427.43L636.28,419.45L638.95,417.01L649.62,405.64L652.28,402.45L673.61,374.59L676.28,371.13L689.61,355.72L692.28,353.19L700.28,347.12L702.94,345.67L710.94,343.2L713.61,343.03" style="vector-effect: none; fill: none; stroke: rgb(123, 44, 191); stroke-opacity: 0.8; stroke-width: 4px; opacity: 1;"/></g><g class="points"/><g class="text"/></g><g class="trace scatter trace42edf7" style="stroke-miterlimit: 2;"><g class="fills"><g><path class="js-fill" d="M713.28,448L340.36,448L340.36,169.49L347.86,145.45L349.73,140.56L355.35,128.53L357.23,125.38L362.85,118.22L364.72,116.5L370.35,112.89L372.22,112.07L389.09,105.62L390.96,104.39L398.46,97.5L400.33,95.27L409.7,81.55L411.57,78.48L424.69,58.54L426.56,56.5L432.19,52.71L434.06,52.37L437.81,53.36L439.68,54.75L443.43,59.46L445.3,62.83L450.93,77.07L452.8,83.19L460.3,114.12L462.17,123.31L471.54,175.81L473.41,187.24L495.9,321.83L497.77,331.38L507.14,372.68L509.02,379.59L516.51,402.8L518.39,407.55L525.88,422.82L527.76,425.8L535.25,434.99L537.13,436.7L544.62,441.77L546.5,442.67L555.87,445.67L557.74,446.04L570.86,447.45L572.73,447.54L597.09,447.61L598.97,447.54L615.83,445.83L617.71,445.45L627.08,442.56L628.95,441.73L636.45,437.28L638.32,435.84L645.82,428.45L647.69,426.16L655.19,415.02L657.06,411.72L666.43,392.27L668.3,387.84L683.3,348.86L685.17,343.95L696.41,317.72L698.29,314.22L703.91,305.82L705.78,303.81L709.53,301.08L711.4,300.39L713.28,300.16" style="fill: rgb(0, 128, 0); fill-opacity: 0.2; stroke-width: 0;"/></g></g><g class="errorbars"/><g class="lines"><path class="js-line" d="M340.36,169.49L347.86,145.45L349.73,140.56L355.35,128.53L357.23,125.38L362.85,118.22L364.72,116.5L370.35,112.89L372.22,112.07L389.09,105.62L390.96,104.39L398.46,97.5L400.33,95.27L409.7,81.55L411.57,78.48L424.69,58.54L426.56,56.5L432.19,52.71L434.06,52.37L437.81,53.36L439.68,54.75L443.43,59.46L445.3,62.83L450.93,77.07L452.8,83.19L460.3,114.12L462.17,123.31L471.54,175.81L473.41,187.24L495.9,321.83L497.77,331.38L507.14,372.68L509.02,379.59L516.51,402.8L518.39,407.55L525.88,422.82L527.76,425.8L535.25,434.99L537.13,436.7L544.62,441.77L546.5,442.67L555.87,445.67L557.74,446.04L570.86,447.45L572.73,447.54L597.09,447.61L598.97,447.54L615.83,445.83L617.71,445.45L627.08,442.56L628.95,441.73L636.45,437.28L638.32,435.84L645.82,428.45L647.69,426.16L655.19,415.02L657.06,411.72L666.43,392.27L668.3,387.84L683.3,348.86L685.17,343.95L696.41,317.72L698.29,314.22L703.91,305.82L705.78,303.81L709.53,301.08L711.4,300.39L713.28,300.16" style="vector-effect: none; fill: none; stroke: rgb(0, 128, 0); stroke-opacity: 0.8; stroke-width: 4px; opacity: 1;"/></g><g class="points"/><g class="text"/></g></g></g><g class="overplot"/><path class="xlines-above crisp" d="M90,508.5H1230" style="fill: none; stroke-width: 1px; stroke: rgb(0, 0, 0); stroke-opacity: 1;"/><path class="ylines-above crisp" d="M90.5,60V508" style="fill: none; stroke-width: 1px; stroke: rgb(0, 0, 0); stroke-opacity: 1;"/><g class="overlines-above"/><g class="xaxislayer-above"><path class="xtick ticks crisp" d="M0,509v10" transform="translate(101.35,0)" style="stroke: rgb(68, 68, 68); stroke-opacity: 1; stroke-width: 2px;"/><path class="xtick ticks crisp" d="M0,509v10" transform="translate(217.87,0)" style="stroke: rgb(68, 68, 68); stroke-opacity: 1; stroke-width: 2px;"/><path class="xtick ticks crisp" d="M0,509v10" transform="translate(334.38,0)" style="stroke: rgb(68, 68, 68); stroke-opacity: 1; stroke-width: 2px;"/><path class="xtick ticks crisp" d="M0,509v10" transform="translate(450.9,0)" style="stroke: rgb(68, 68, 68); stroke-opacity: 1; stroke-width: 2px;"/><path class="xtick ticks crisp" d="M0,509v10" transform="translate(567.4200000000001,0)" style="stroke: rgb(68, 68, 68); stroke-opacity: 1; stroke-width: 2px;"/><path class="xtick ticks crisp" d="M0,509v10" transform="translate(683.93,0)" style="stroke: rgb(68, 68, 68); stroke-opacity: 1; stroke-width: 2px;"/><path class="xtick ticks crisp" d="M0,509v10" transform="translate(800.45,0)" style="stroke: rgb(68, 68, 68); stroke-opacity: 1; stroke-width: 2px;"/><path class="xtick ticks crisp" d="M0,509v10" transform="translate(916.97,0)" style="stroke: rgb(68, 68, 68); stroke-opacity: 1; stroke-width: 2px;"/><path class="xtick ticks crisp" d="M0,509v10" transform="translate(1033.48,0)" style="stroke: rgb(68, 68, 68); stroke-opacity: 1; stroke-width: 2px;"/><path class="xtick ticks crisp" d="M0,509v10" transform="translate(1150,0)" style="stroke: rgb(68, 68, 68); stroke-opacity: 1; stroke-width: 2px;"/><g class="xtick"><text text-anchor="middle" x="0" y="547.8" transform="translate(101.35,0)" style="font-family: Helvetica; font-size: 24px; fill: rgb(51, 51, 51); fill-opacity: 1; white-space: pre; opacity: 1;">6</text></g><g class="xtick"><text text-anchor="middle" x="0" y="547.8" style="font-family: Helvetica; font-size: 24px; fill: rgb(51, 51, 51); fill-opacity: 1; white-space: pre; opacity: 1;" transform="translate(217.87,0)">7</text></g><g class="xtick"><text text-anchor="middle" x="0" y="547.8" style="font-family: Helvetica; font-size: 24px; fill: rgb(51, 51, 51); fill-opacity: 1; white-space: pre; opacity: 1;" transform="translate(334.38,0)">8</text></g><g class="xtick"><text text-anchor="middle" x="0" y="547.8" style="font-family: Helvetica; font-size: 24px; fill: rgb(51, 51, 51); fill-opacity: 1; white-space: pre; opacity: 1;" transform="translate(450.9,0)">9</text></g><g class="xtick"><text text-anchor="middle" x="0" y="547.8" style="font-family: Helvetica; font-size: 24px; fill: rgb(51, 51, 51); fill-opacity: 1; white-space: pre; opacity: 1;" transform="translate(567.4200000000001,0)">10</text></g><g class="xtick"><text text-anchor="middle" x="0" y="547.8" style="font-family: Helvetica; font-size: 24px; fill: rgb(51, 51, 51); fill-opacity: 1; white-space: pre; opacity: 1;" transform="translate(683.93,0)">11</text></g><g class="xtick"><text text-anchor="middle" x="0" y="547.8" style="font-family: Helvetica; font-size: 24px; fill: rgb(51, 51, 51); fill-opacity: 1; white-space: pre; opacity: 1;" transform="translate(800.45,0)">12</text></g><g class="xtick"><text text-anchor="middle" x="0" y="547.8" style="font-family: Helvetica; font-size: 24px; fill: rgb(51, 51, 51); fill-opacity: 1; white-space: pre; opacity: 1;" transform="translate(916.97,0)">13</text></g><g class="xtick"><text text-anchor="middle" x="0" y="547.8" style="font-family: Helvetica; font-size: 24px; fill: rgb(51, 51, 51); fill-opacity: 1; white-space: pre; opacity: 1;" transform="translate(1033.48,0)">14</text></g><g class="xtick"><text text-anchor="middle" x="0" y="547.8" style="font-family: Helvetica; font-size: 24px; fill: rgb(51, 51, 51); fill-opacity: 1; white-space: pre; opacity: 1;" transform="translate(1150,0)">15</text></g></g><g class="yaxislayer-above"><path class="ytick ticks crisp" d="M90,0h-10" transform="translate(0,508)" style="stroke: rgb(68, 68, 68); stroke-opacity: 1; stroke-width: 2px;"/><path class="ytick ticks crisp" d="M90,0h-10" transform="translate(0,444)" style="stroke: rgb(68, 68, 68); stroke-opacity: 1; stroke-width: 2px;"/><path class="ytick ticks crisp" d="M90,0h-10" transform="translate(0,380)" style="stroke: rgb(68, 68, 68); stroke-opacity: 1; stroke-width: 2px;"/><path class="ytick ticks crisp" d="M90,0h-10" transform="translate(0,316)" style="stroke: rgb(68, 68, 68); stroke-opacity: 1; stroke-width: 2px;"/><path class="ytick ticks crisp" d="M90,0h-10" transform="translate(0,252)" style="stroke: rgb(68, 68, 68); stroke-opacity: 1; stroke-width: 2px;"/><path class="ytick ticks crisp" d="M90,0h-10" transform="translate(0,188)" style="stroke: rgb(68, 68, 68); stroke-opacity: 1; stroke-width: 2px;"/><path class="ytick ticks crisp" d="M90,0h-10" transform="translate(0,124)" style="stroke: rgb(68, 68, 68); stroke-opacity: 1; stroke-width: 2px;"/><path class="ytick ticks crisp" d="M90,0h-10" transform="translate(0,60)" style="stroke: rgb(68, 68, 68); stroke-opacity: 1; stroke-width: 2px;"/><g class="ytick"><text text-anchor="end" x="75.2" y="8.399999999999999" transform="translate(0,508)" style="font-family: Helvetica; font-size: 24px; fill: rgb(51, 51, 51); fill-opacity: 1; white-space: pre; opacity: 1;">0</text></g><g class="ytick"><text text-anchor="end" x="75.2" y="8.399999999999999" style="font-family: Helvetica; font-size: 24px; fill: rgb(51, 51, 51); fill-opacity: 1; white-space: pre; opacity: 1;" transform="translate(0,444)">0.1</text></g><g class="ytick"><text text-anchor="end" x="75.2" y="8.399999999999999" style="font-family: Helvetica; font-size: 24px; fill: rgb(51, 51, 51); fill-opacity: 1; white-space: pre; opacity: 1;" transform="translate(0,380)">0.2</text></g><g class="ytick"><text text-anchor="end" x="75.2" y="8.399999999999999" style="font-family: Helvetica; font-size: 24px; fill: rgb(51, 51, 51); fill-opacity: 1; white-space: pre; opacity: 1;" transform="translate(0,316)">0.3</text></g><g class="ytick"><text text-anchor="end" x="75.2" y="8.399999999999999" style="font-family: Helvetica; font-size: 24px; fill: rgb(51, 51, 51); fill-opacity: 1; white-space: pre; opacity: 1;" transform="translate(0,252)">0.4</text></g><g class="ytick"><text text-anchor="end" x="75.2" y="8.399999999999999" style="font-family: Helvetica; font-size: 24px; fill: rgb(51, 51, 51); fill-opacity: 1; white-space: pre; opacity: 1;" transform="translate(0,188)">0.5</text></g><g class="ytick"><text text-anchor="end" x="75.2" y="8.399999999999999" style="font-family: Helvetica; font-size: 24px; fill: rgb(51, 51, 51); fill-opacity: 1; white-space: pre; opacity: 1;" transform="translate(0,124)">0.6</text></g><g class="ytick"><text text-anchor="end" x="75.2" y="8.399999999999999" style="font-family: Helvetica; font-size: 24px; fill: rgb(51, 51, 51); fill-opacity: 1; white-space: pre; opacity: 1;" transform="translate(0,60)">0.7</text></g></g><g class="overaxes-above"/></g></g><g class="polarlayer"/><g class="smithlayer"/><g class="ternarylayer"/><g class="geolayer"/><g class="funnelarealayer"/><g class="pielayer"/><g class="iciclelayer"/><g class="treemaplayer"/><g class="sunburstlayer"/><g class="glimages"/><defs id="topdefs-a784ca"><g class="clips"/><clipPath id="legenda784ca"><rect width="129" height="233" x="0" y="0"/></clipPath></defs><g class="layer-above"><g class="imagelayer"/><g class="shapelayer"><g class="shape-group" data-index="0" clip-path="url(#clipa784cax)"><path data-index="0" fill-rule="evenodd" d="M683.93,508L683.93,60" style="opacity: 1; stroke: rgb(0, 0, 0); stroke-opacity: 0.6; fill: rgb(0, 0, 0); fill-opacity: 0; stroke-dasharray: 12px, 12px; stroke-width: 4px;"/></g></g></g><g class="infolayer"><g class="legend" pointer-events="all" transform="translate(1116.1000000000001,145.09999999999997)"><rect class="bg" shape-rendering="crispEdges" width="129" height="233" x="0" y="0" style="stroke: rgb(68, 68, 68); stroke-opacity: 1; fill: rgb(255, 255, 255); fill-opacity: 1; stroke-width: 0px;"/><g class="scrollbox" transform="" clip-path="url(#legenda784ca)"><g class="groups"><g class="traces" transform="translate(0,27.3)" style="opacity: 1;"><text class="legendtext" text-anchor="start" x="40" y="12.48" style="font-family: Helvetica; font-size: 32px; fill: rgb(51, 51, 51); fill-opacity: 1; white-space: pre;">PT</text><g class="layers"><g class="legendfill"><path class="js-fill" d="M5,-2h30v6h-30z" style="stroke-width: 0; fill: rgb(0, 0, 0); fill-opacity: 0.2;"/></g><g class="legendlines"><path class="js-line" d="M5,-2h30" style="fill: none; stroke: rgb(0, 0, 0); stroke-opacity: 0.8; stroke-width: 4px;"/></g><g class="legendsymbols"><g class="legendpoints"/></g></g><rect class="legendtoggle" x="0" y="-22.3" width="123.625" height="44.6" style="fill: rgb(0, 0, 0); fill-opacity: 0;"/></g><g class="traces" transform="translate(0,71.9)" style="opacity: 1;"><text class="legendtext" text-anchor="start" x="40" y="12.48" style="font-family: Helvetica; font-size: 32px; fill: rgb(51, 51, 51); fill-opacity: 1; white-space: pre;">AL #1</text><g class="layers"><g class="legendfill"><path class="js-fill" d="M5,-2h30v6h-30z" style="stroke-width: 0; fill: rgb(0, 106, 113); fill-opacity: 0.2;"/></g><g class="legendlines"><path class="js-line" d="M5,-2h30" style="fill: none; stroke: rgb(0, 106, 113); stroke-opacity: 0.8; stroke-width: 4px;"/></g><g class="legendsymbols"><g class="legendpoints"/></g></g><rect class="legendtoggle" x="0" y="-22.3" width="123.625" height="44.6" style="fill: rgb(0, 0, 0); fill-opacity: 0;"/></g><g class="traces" transform="translate(0,116.5)" style="opacity: 1;"><text class="legendtext" text-anchor="start" x="40" y="12.48" style="font-family: Helvetica; font-size: 32px; fill: rgb(51, 51, 51); fill-opacity: 1; white-space: pre;">AL #2</text><g class="layers"><g class="legendfill"><path class="js-fill" d="M5,-2h30v6h-30z" style="stroke-width: 0; fill: rgb(232, 93, 4); fill-opacity: 0.2;"/></g><g class="legendlines"><path class="js-line" d="M5,-2h30" style="fill: none; stroke: rgb(232, 93, 4); stroke-opacity: 0.8; stroke-width: 4px;"/></g><g class="legendsymbols"><g class="legendpoints"/></g></g><rect class="legendtoggle" x="0" y="-22.3" width="123.625" height="44.6" style="fill: rgb(0, 0, 0); fill-opacity: 0;"/></g><g class="traces" transform="translate(0,161.10000000000002)" style="opacity: 1;"><text class="legendtext" text-anchor="start" x="40" y="12.48" style="font-family: Helvetica; font-size: 32px; fill: rgb(51, 51, 51); fill-opacity: 1; white-space: pre;">AL #3</text><g class="layers"><g class="legendfill"><path class="js-fill" d="M5,-2h30v6h-30z" style="stroke-width: 0; fill: rgb(123, 44, 191); fill-opacity: 0.2;"/></g><g class="legendlines"><path class="js-line" d="M5,-2h30" style="fill: none; stroke: rgb(123, 44, 191); stroke-opacity: 0.8; stroke-width: 4px;"/></g><g class="legendsymbols"><g class="legendpoints"/></g></g><rect class="legendtoggle" x="0" y="-22.3" width="123.625" height="44.6" style="fill: rgb(0, 0, 0); fill-opacity: 0;"/></g><g class="traces" transform="translate(0,205.70000000000002)" style="opacity: 1;"><text class="legendtext" text-anchor="start" x="40" y="12.48" style="font-family: Helvetica; font-size: 32px; fill: rgb(51, 51, 51); fill-opacity: 1; white-space: pre;">AL #4</text><g class="layers"><g class="legendfill"><path class="js-fill" d="M5,-2h30v6h-30z" style="stroke-width: 0; fill: rgb(0, 128, 0); fill-opacity: 0.2;"/></g><g class="legendlines"><path class="js-line" d="M5,-2h30" style="fill: none; stroke: rgb(0, 128, 0); stroke-opacity: 0.8; stroke-width: 4px;"/></g><g class="legendsymbols"><g class="legendpoints"/></g></g><rect class="legendtoggle" x="0" y="-22.3" width="123.625" height="44.6" style="fill: rgb(0, 0, 0); fill-opacity: 0;"/></g></g></g><rect class="scrollbar" rx="20" ry="3" width="0" height="0" x="0" y="0" style="fill: rgb(128, 139, 164); fill-opacity: 1;"/></g><g class="g-gtitle"><text class="gtitle" x="640" y="18" text-anchor="middle" dy="0.7em" style="font-family: Helvetica; font-size: 36px; fill: rgb(51, 51, 51); opacity: 1; font-weight: normal; white-space: pre;"><tspan style="font-weight:bold">42 MQ-based space, 10 clusters, softsub selection</tspan></text></g><g class="g-xtitle"><text class="xtitle" x="660.5" y="587.9125" text-anchor="middle" style="font-family: Helvetica; font-size: 28px; fill: rgb(51, 51, 51); opacity: 1; font-weight: normal; white-space: pre;">Attractive Interaction Score</text></g><g class="g-ytitle" transform="translate(13.271484375,0)"><text class="ytitle" transform="rotate(-90,12.728125000000006,284)" x="12.728125000000006" y="284" text-anchor="middle" style="font-family: Helvetica; font-size: 28px; fill: rgb(51, 51, 51); opacity: 1; font-weight: normal; white-space: pre;">Relative Frequency</text></g><g class="annotation" data-index="0" style="opacity: 1;"><g class="annotation-text-g" transform="rotate(0,1150,133.59999999999997)"><g class="cursor-pointer" transform="translate(1070,118)"><rect class="bg" x="0.5" y="0.5" width="159" height="31" style="stroke-width: 1px; stroke: rgb(0, 0, 0); stroke-opacity: 0; fill: rgb(0, 0, 0); fill-opacity: 0;"/><text class="annotation-text" text-anchor="middle" x="80.03125" y="24" style="font-family: Helvetica; font-size: 24px; fill: rgb(0, 0, 0); fill-opacity: 0.6; white-space: pre;"><tspan style="font-weight:bold">Threshold: 11</tspan></text></g></g></g></g></svg>