<svg class="main-svg" xmlns="http://www.w3.org/2000/svg" xmlns:xlink="http://www.w3.org/1999/xlink" width="1280" height="720" style="" viewBox="0 0 1280 720"><rect x="0" y="0" width="1280" height="720" style="fill: rgb(255, 255, 255); fill-opacity: 1;"/><defs id="defs-cdda9e"><g class="clips"><clipPath id="clipcdda9exyplot" class="plotclip"><rect width="1174" height="614"/></clipPath><clipPath class="axesclip" id="clipcdda9ex"><rect x="56" y="0" width="1174" height="720"/></clipPath><clipPath class="axesclip" id="clipcdda9ey"><rect x="0" y="50" width="1280" height="614"/></clipPath><clipPath class="axesclip" id="clipcdda9exy"><rect x="56" y="50" width="1174" height="614"/></clipPath></g><g class="gradients"/><g class="patterns"/></defs><g class="bglayer"/><g class="layer-below"><g class="imagelayer"/><g class="shapelayer"/></g><g class="cartesianlayer"><g class="subplot xy"><g class="layer-subplot"><g class="shapelayer"/><g class="imagelayer"/></g><g class="minor-gridlayer"><g class="x"/><g class="y"/></g><g class="gridlayer"><g class="x"><path class="xgrid crisp" transform="translate(223.7,0)" d="M0,50v614" style="stroke: rgb(226, 226, 226); stroke-opacity: 1; stroke-width: 1px;"/><path class="xgrid crisp" transform="translate(395.7,0)" d="M0,50v614" style="stroke: rgb(226, 226, 226); stroke-opacity: 1; stroke-width: 1px;"/><path class="xgrid crisp" transform="translate(567.7,0)" d="M0,50v614" style="stroke: rgb(226, 226, 226); stroke-opacity: 1; stroke-width: 1px;"/><path class="xgrid crisp" transform="translate(739.7,0)" d="M0,50v614" style="stroke: rgb(226, 226, 226); stroke-opacity: 1; stroke-width: 1px;"/><path class="xgrid crisp" transform="translate(911.7,0)" d="M0,50v614" style="stroke: rgb(226, 226, 226); stroke-opacity: 1; stroke-width: 1px;"/><path class="xgrid crisp" transform="translate(1083.7,0)" d="M0,50v614" style="stroke: rgb(226, 226, 226); stroke-opacity: 1; stroke-width: 1px;"/></g><g class="y"/></g><g class="zerolinelayer"><path class="yzl zl crisp" transform="translate(0,661)" d="M56,0h1174" style="stroke: rgb(255, 255, 255); stroke-opacity: 1; stroke-width: 2px;"/></g><path class="xlines-below"/><path class="ylines-below"/><g class="overlines-below"/><g class="xaxislayer-below"/><g class="yaxislayer-below"/><g class="overaxes-below"/><g class="plot" transform="translate(56,50)" clip-path="url(#clipcdda9exyplot)"><g class="barlayer mlayer"><g class="trace bars" shape-rendering="crispEdges" style="opacity: 0.75;"><g class="points"><g class="point"><path d="M0,611V610.97H8.6V611Z" style="vector-effect: none; opacity: 1; stroke-width: 0px; fill: rgb(99, 110, 250); fill-opacity: 1;"/></g><g class="point"><path d="M8.6,611V610.97H17.2V611Z" style="vector-effect: none; opacity: 1; stroke-width: 0px; fill: rgb(99, 110, 250); fill-opacity: 1;"/></g><g class="point"><path d="M17.2,611V610.92H25.8V611Z" style="vector-effect: none; opacity: 1; stroke-width: 0px; fill: rgb(99, 110, 250); fill-opacity: 1;"/></g><g class="point"><path d="M25.8,611V610.85H34.4V611Z" style="vector-effect: none; opacity: 1; stroke-width: 0px; fill: rgb(99, 110, 250); fill-opacity: 1;"/></g><g class="point"><path d="M34.4,611V610.81H43V611Z" style="vector-effect: none; opacity: 1; stroke-width: 0px; fill: rgb(99, 110, 250); fill-opacity: 1;"/></g><g class="point"><path d="M43,611V610.76H51.6V611Z" style="vector-effect: none; opacity: 1; stroke-width: 0px; fill: rgb(99, 110, 250); fill-opacity: 1;"/></g><g class="point"><path d="M51.6,611V610.54H60.2V611Z" style="vector-effect: none; opacity: 1; stroke-width: 0px; fill: rgb(99, 110, 250); fill-opacity: 1;"/></g><g class="point"><path d="M60.2,611V610.29H68.8V611Z" style="vector-effect: none; opacity: 1; stroke-width: 0px; fill: rgb(99, 110, 250); fill-opacity: 1;"/></g><g class="point"><path d="M68.8,611V610.03H77.4V611Z" style="vector-effect: none; opacity: 1; stroke-width: 0px; fill: rgb(99, 110, 250); fill-opacity: 1;"/></g><g class="point"><path d="M77.4,611V609.48H86V611Z" style="vector-effect: none; opacity: 1; stroke-width: 0px; fill: rgb(99, 110, 250); fill-opacity: 1;"/></g><g class="point"><path d="M86,611V609.19H94.6V611Z" style="vector-effect: none; opacity: 1; stroke-width: 0px; fill: rgb(99, 110, 250); fill-opacity: 1;"/></g><g class="point"><path d="M94.6,611V608.48H103.2V611Z" style="vector-effect: none; opacity: 1; stroke-width: 0px; fill: rgb(99, 110, 250); fill-opacity: 1;"/></g><g class="point"><path d="M103.2,611V607.18H111.8V611Z" style="vector-effect: none; opacity: 1; stroke-width: 0px; fill: rgb(99, 110, 250); fill-opacity: 1;"/></g><g class="point"><path d="M111.8,611V605.74H120.4V611Z" style="vector-effect: none; opacity: 1; stroke-width: 0px; fill: rgb(99, 110, 250); fill-opacity: 1;"/></g><g class="point"><path d="M120.4,611V604.26H129V611Z" style="vector-effect: none; opacity: 1; stroke-width: 0px; fill: rgb(99, 110, 250); fill-opacity: 1;"/></g><g class="point"><path d="M129,611V602.84H137.6V611Z" style="vector-effect: none; opacity: 1; stroke-width: 0px; fill: rgb(99, 110, 250); fill-opacity: 1;"/></g><g class="point"><path d="M137.6,611V600.32H146.2V611Z" style="vector-effect: none; opacity: 1; stroke-width: 0px; fill: rgb(99, 110, 250); fill-opacity: 1;"/></g><g class="point"><path d="M146.2,611V596.3H154.8V611Z" style="vector-effect: none; opacity: 1; stroke-width: 0px; fill: rgb(99, 110, 250); fill-opacity: 1;"/></g><g class="point"><path d="M154.8,611V591.97H163.4V611Z" style="vector-effect: none; opacity: 1; stroke-width: 0px; fill: rgb(99, 110, 250); fill-opacity: 1;"/></g><g class="point"><path d="M163.4,611V586.97H172V611Z" style="vector-effect: none; opacity: 1; stroke-width: 0px; fill: rgb(99, 110, 250); fill-opacity: 1;"/></g><g class="point"><path d="M172,611V580.15H180.6V611Z" style="vector-effect: none; opacity: 1; stroke-width: 0px; fill: rgb(99, 110, 250); fill-opacity: 1;"/></g><g class="point"><path d="M180.6,611V572.17H189.2V611Z" style="vector-effect: none; opacity: 1; stroke-width: 0px; fill: rgb(99, 110, 250); fill-opacity: 1;"/></g><g class="point"><path d="M189.2,611V561.18H197.8V611Z" style="vector-effect: none; opacity: 1; stroke-width: 0px; fill: rgb(99, 110, 250); fill-opacity: 1;"/></g><g class="point"><path d="M197.8,611V545.48H206.4V611Z" style="vector-effect: none; opacity: 1; stroke-width: 0px; fill: rgb(99, 110, 250); fill-opacity: 1;"/></g><g class="point"><path d="M206.4,611V522.96H215V611Z" style="vector-effect: none; opacity: 1; stroke-width: 0px; fill: rgb(99, 110, 250); fill-opacity: 1;"/></g><g class="point"><path d="M215,611V496.31H223.6V611Z" style="vector-effect: none; opacity: 1; stroke-width: 0px; fill: rgb(99, 110, 250); fill-opacity: 1;"/></g><g class="point"><path d="M223.6,611V455.23H232.2V611Z" style="vector-effect: none; opacity: 1; stroke-width: 0px; fill: rgb(99, 110, 250); fill-opacity: 1;"/></g><g class="point"><path d="M232.2,611V402.76H240.8V611Z" style="vector-effect: none; opacity: 1; stroke-width: 0px; fill: rgb(99, 110, 250); fill-opacity: 1;"/></g><g class="point"><path d="M240.8,611V346.5H249.4V611Z" style="vector-effect: none; opacity: 1; stroke-width: 0px; fill: rgb(99, 110, 250); fill-opacity: 1;"/></g><g class="point"><path d="M249.4,611V277.21H258V611Z" style="vector-effect: none; opacity: 1; stroke-width: 0px; fill: rgb(99, 110, 250); fill-opacity: 1;"/></g><g class="point"><path d="M258,611V227H266.6V611Z" style="vector-effect: none; opacity: 1; stroke-width: 0px; fill: rgb(99, 110, 250); fill-opacity: 1;"/></g><g class="point"><path d="M266.6,611V182.96H275.2V611Z" style="vector-effect: none; opacity: 1; stroke-width: 0px; fill: rgb(99, 110, 250); fill-opacity: 1;"/></g><g class="point"><path d="M275.2,611V142.64H283.8V611Z" style="vector-effect: none; opacity: 1; stroke-width: 0px; fill: rgb(99, 110, 250); fill-opacity: 1;"/></g><g class="point"><path d="M283.8,611V108.11H292.4V611Z" style="vector-effect: none; opacity: 1; stroke-width: 0px; fill: rgb(99, 110, 250); fill-opacity: 1;"/></g><g class="point"><path d="M292.4,611V75.34H301V611Z" style="vector-effect: none; opacity: 1; stroke-width: 0px; fill: rgb(99, 110, 250); fill-opacity: 1;"/></g><g class="point"><path d="M301,611V49.86H309.6V611Z" style="vector-effect: none; opacity: 1; stroke-width: 0px; fill: rgb(99, 110, 250); fill-opacity: 1;"/></g><g class="point"><path d="M309.6,611V37.59H318.2V611Z" style="vector-effect: none; opacity: 1; stroke-width: 0px; fill: rgb(99, 110, 250); fill-opacity: 1;"/></g><g class="point"><path d="M318.2,611V30.7H326.8V611Z" style="vector-effect: none; opacity: 1; stroke-width: 0px; fill: rgb(99, 110, 250); fill-opacity: 1;"/></g><g class="point"><path d="M326.8,611V56.11H335.4V611Z" style="vector-effect: none; opacity: 1; stroke-width: 0px; fill: rgb(99, 110, 250); fill-opacity: 1;"/></g><g class="point"><path d="M335.4,611V82.6H344V611Z" style="vector-effect: none; opacity: 1; stroke-width: 0px; fill: rgb(99, 110, 250); fill-opacity: 1;"/></g><g class="point"><path d="M344,611V135.42H352.6V611Z" style="vector-effect: none; opacity: 1; stroke-width: 0px; fill: rgb(99, 110, 250); fill-opacity: 1;"/></g><g class="point"><path d="M352.6,611V195.42H361.2V611Z" style="vector-effect: none; opacity: 1; stroke-width: 0px; fill: rgb(99, 110, 250); fill-opacity: 1;"/></g><g class="point"><path d="M361.2,611V242.55H369.8V611Z" style="vector-effect: none; opacity: 1; stroke-width: 0px; fill: rgb(99, 110, 250); fill-opacity: 1;"/></g><g class="point"><path d="M369.8,611V290.3H378.4V611Z" style="vector-effect: none; opacity: 1; stroke-width: 0px; fill: rgb(99, 110, 250); fill-opacity: 1;"/></g><g class="point"><path d="M378.4,611V314.12H387V611Z" style="vector-effect: none; opacity: 1; stroke-width: 0px; fill: rgb(99, 110, 250); fill-opacity: 1;"/></g><g class="point"><path d="M387,611V327.07H395.6V611Z" style="vector-effect: none; opacity: 1; stroke-width: 0px; fill: rgb(99, 110, 250); fill-opacity: 1;"/></g><g class="point"><path d="M395.6,611V337.38H404.2V611Z" style="vector-effect: none; opacity: 1; stroke-width: 0px; fill: rgb(99, 110, 250); fill-opacity: 1;"/></g><g class="point"><path d="M404.2,611V341.22H412.8V611Z" style="vector-effect: none; opacity: 1; stroke-width: 0px; fill: rgb(99, 110, 250); fill-opacity: 1;"/></g><g class="point"><path d="M412.8,611V342.44H421.4V611Z" style="vector-effect: none; opacity: 1; stroke-width: 0px; fill: rgb(99, 110, 250); fill-opacity: 1;"/></g><g class="point"><path d="M421.4,611V347.29H430V611Z" style="vector-effect: none; opacity: 1; stroke-width: 0px; fill: rgb(99, 110, 250); fill-opacity: 1;"/></g><g class="point"><path d="M430,611V354.78H438.6V611Z" style="vector-effect: none; opacity: 1; stroke-width: 0px; fill: rgb(99, 110, 250); fill-opacity: 1;"/></g><g class="point"><path d="M438.6,611V357.75H447.2V611Z" style="vector-effect: none; opacity: 1; stroke-width: 0px; fill: rgb(99, 110, 250); fill-opacity: 1;"/></g><g class="point"><path d="M447.2,611V365.85H455.8V611Z" style="vector-effect: none; opacity: 1; stroke-width: 0px; fill: rgb(99, 110, 250); fill-opacity: 1;"/></g><g class="point"><path d="M455.8,611V373.82H464.4V611Z" style="vector-effect: none; opacity: 1; stroke-width: 0px; fill: rgb(99, 110, 250); fill-opacity: 1;"/></g><g class="point"><path d="M464.4,611V383.97H473V611Z" style="vector-effect: none; opacity: 1; stroke-width: 0px; fill: rgb(99, 110, 250); fill-opacity: 1;"/></g><g class="point"><path d="M473,611V394.56H481.6V611Z" style="vector-effect: none; opacity: 1; stroke-width: 0px; fill: rgb(99, 110, 250); fill-opacity: 1;"/></g><g class="point"><path d="M481.6,611V403.44H490.2V611Z" style="vector-effect: none; opacity: 1; stroke-width: 0px; fill: rgb(99, 110, 250); fill-opacity: 1;"/></g><g class="point"><path d="M490.2,611V412.26H498.8V611Z" style="vector-effect: none; opacity: 1; stroke-width: 0px; fill: rgb(99, 110, 250); fill-opacity: 1;"/></g><g class="point"><path d="M498.8,611V428.95H507.4V611Z" style="vector-effect: none; opacity: 1; stroke-width: 0px; fill: rgb(99, 110, 250); fill-opacity: 1;"/></g><g class="point"><path d="M507.4,611V437.86H516V611Z" style="vector-effect: none; opacity: 1; stroke-width: 0px; fill: rgb(99, 110, 250); fill-opacity: 1;"/></g><g class="point"><path d="M516,611V446.72H524.6V611Z" style="vector-effect: none; opacity: 1; stroke-width: 0px; fill: rgb(99, 110, 250); fill-opacity: 1;"/></g><g class="point"><path d="M524.6,611V458H533.2V611Z" style="vector-effect: none; opacity: 1; stroke-width: 0px; fill: rgb(99, 110, 250); fill-opacity: 1;"/></g><g class="point"><path d="M533.2,611V471.92H541.8V611Z" style="vector-effect: none; opacity: 1; stroke-width: 0px; fill: rgb(99, 110, 250); fill-opacity: 1;"/></g><g class="point"><path d="M541.8,611V476.26H550.4V611Z" style="vector-effect: none; opacity: 1; stroke-width: 0px; fill: rgb(99, 110, 250); fill-opacity: 1;"/></g><g class="point"><path d="M550.4,611V486.86H559V611Z" style="vector-effect: none; opacity: 1; stroke-width: 0px; fill: rgb(99, 110, 250); fill-opacity: 1;"/></g><g class="point"><path d="M559,611V497.77H567.6V611Z" style="vector-effect: none; opacity: 1; stroke-width: 0px; fill: rgb(99, 110, 250); fill-opacity: 1;"/></g><g class="point"><path d="M567.6,611V505.94H576.2V611Z" style="vector-effect: none; opacity: 1; stroke-width: 0px; fill: rgb(99, 110, 250); fill-opacity: 1;"/></g><g class="point"><path d="M576.2,611V512.35H584.8V611Z" style="vector-effect: none; opacity: 1; stroke-width: 0px; fill: rgb(99, 110, 250); fill-opacity: 1;"/></g><g class="point"><path d="M584.8,611V524.04H593.4V611Z" style="vector-effect: none; opacity: 1; stroke-width: 0px; fill: rgb(99, 110, 250); fill-opacity: 1;"/></g><g class="point"><path d="M593.4,611V529.42H602V611Z" style="vector-effect: none; opacity: 1; stroke-width: 0px; fill: rgb(99, 110, 250); fill-opacity: 1;"/></g><g class="point"><path d="M602,611V536.15H610.6V611Z" style="vector-effect: none; opacity: 1; stroke-width: 0px; fill: rgb(99, 110, 250); fill-opacity: 1;"/></g><g class="point"><path d="M610.6,611V542.66H619.2V611Z" style="vector-effect: none; opacity: 1; stroke-width: 0px; fill: rgb(99, 110, 250); fill-opacity: 1;"/></g><g class="point"><path d="M619.2,611V550.49H627.8V611Z" style="vector-effect: none; opacity: 1; stroke-width: 0px; fill: rgb(99, 110, 250); fill-opacity: 1;"/></g><g class="point"><path d="M627.8,611V555.41H636.4V611Z" style="vector-effect: none; opacity: 1; stroke-width: 0px; fill: rgb(99, 110, 250); fill-opacity: 1;"/></g><g class="point"><path d="M636.4,611V559.35H645V611Z" style="vector-effect: none; opacity: 1; stroke-width: 0px; fill: rgb(99, 110, 250); fill-opacity: 1;"/></g><g class="point"><path d="M645,611V564.08H653.6V611Z" style="vector-effect: none; opacity: 1; stroke-width: 0px; fill: rgb(99, 110, 250); fill-opacity: 1;"/></g><g class="point"><path d="M653.6,611V568.48H662.2V611Z" style="vector-effect: none; opacity: 1; stroke-width: 0px; fill: rgb(99, 110, 250); fill-opacity: 1;"/></g><g class="point"><path d="M662.2,611V569.8H670.8V611Z" style="vector-effect: none; opacity: 1; stroke-width: 0px; fill: rgb(99, 110, 250); fill-opacity: 1;"/></g><g class="point"><path d="M670.8,611V574.12H679.4V611Z" style="vector-effect: none; opacity: 1; stroke-width: 0px; fill: rgb(99, 110, 250); fill-opacity: 1;"/></g><g class="point"><path d="M679.4,611V577.07H688V611Z" style="vector-effect: none; opacity: 1; stroke-width: 0px; fill: rgb(99, 110, 250); fill-opacity: 1;"/></g><g class="point"><path d="M688,611V580.76H696.6V611Z" style="vector-effect: none; opacity: 1; stroke-width: 0px; fill: rgb(99, 110, 250); fill-opacity: 1;"/></g><g class="point"><path d="M696.6,611V582.42H705.2V611Z" style="vector-effect: none; opacity: 1; stroke-width: 0px; fill: rgb(99, 110, 250); fill-opacity: 1;"/></g><g class="point"><path d="M705.2,611V585.13H713.8V611Z" style="vector-effect: none; opacity: 1; stroke-width: 0px; fill: rgb(99, 110, 250); fill-opacity: 1;"/></g><g class="point"><path d="M713.8,611V586.2H722.4V611Z" style="vector-effect: none; opacity: 1; stroke-width: 0px; fill: rgb(99, 110, 250); fill-opacity: 1;"/></g><g class="point"><path d="M722.4,611V588.25H731V611Z" style="vector-effect: none; opacity: 1; stroke-width: 0px; fill: rgb(99, 110, 250); fill-opacity: 1;"/></g><g class="point"><path d="M731,611V589.49H739.6V611Z" style="vector-effect: none; opacity: 1; stroke-width: 0px; fill: rgb(99, 110, 250); fill-opacity: 1;"/></g><g class="point"><path d="M739.6,611V591.26H748.2V611Z" style="vector-effect: none; opacity: 1; stroke-width: 0px; fill: rgb(99, 110, 250); fill-opacity: 1;"/></g><g class="point"><path d="M748.2,611V592.11H756.8V611Z" style="vector-effect: none; opacity: 1; stroke-width: 0px; fill: rgb(99, 110, 250); fill-opacity: 1;"/></g><g class="point"><path d="M756.8,611V594.16H765.4V611Z" style="vector-effect: none; opacity: 1; stroke-width: 0px; fill: rgb(99, 110, 250); fill-opacity: 1;"/></g><g class="point"><path d="M765.4,611V595.18H774V611Z" style="vector-effect: none; opacity: 1; stroke-width: 0px; fill: rgb(99, 110, 250); fill-opacity: 1;"/></g><g class="point"><path d="M774,611V595.75H782.6V611Z" style="vector-effect: none; opacity: 1; stroke-width: 0px; fill: rgb(99, 110, 250); fill-opacity: 1;"/></g><g class="point"><path d="M782.6,611V597H791.2V611Z" style="vector-effect: none; opacity: 1; stroke-width: 0px; fill: rgb(99, 110, 250); fill-opacity: 1;"/></g><g class="point"><path d="M791.2,611V597.93H799.8V611Z" style="vector-effect: none; opacity: 1; stroke-width: 0px; fill: rgb(99, 110, 250); fill-opacity: 1;"/></g><g class="point"><path d="M799.8,611V598.47H808.4V611Z" style="vector-effect: none; opacity: 1; stroke-width: 0px; fill: rgb(99, 110, 250); fill-opacity: 1;"/></g><g class="point"><path d="M808.4,611V599.39H817V611Z" style="vector-effect: none; opacity: 1; stroke-width: 0px; fill: rgb(99, 110, 250); fill-opacity: 1;"/></g><g class="point"><path d="M817,611V599.67H825.6V611Z" style="vector-effect: none; opacity: 1; stroke-width: 0px; fill: rgb(99, 110, 250); fill-opacity: 1;"/></g><g class="point"><path d="M825.6,611V600.03H834.2V611Z" style="vector-effect: none; opacity: 1; stroke-width: 0px; fill: rgb(99, 110, 250); fill-opacity: 1;"/></g><g class="point"><path d="M834.2,611V600.74H842.8V611Z" style="vector-effect: none; opacity: 1; stroke-width: 0px; fill: rgb(99, 110, 250); fill-opacity: 1;"/></g><g class="point"><path d="M842.8,611V601.93H851.4V611Z" style="vector-effect: none; opacity: 1; stroke-width: 0px; fill: rgb(99, 110, 250); fill-opacity: 1;"/></g><g class="point"><path d="M851.4,611V601.89H860V611Z" style="vector-effect: none; opacity: 1; stroke-width: 0px; fill: rgb(99, 110, 250); fill-opacity: 1;"/></g><g class="point"><path d="M860,611V604.31H868.6V611Z" style="vector-effect: none; opacity: 1; stroke-width: 0px; fill: rgb(99, 110, 250); fill-opacity: 1;"/></g><g class="point"><path d="M868.6,611V604.49H877.2V611Z" style="vector-effect: none; opacity: 1; stroke-width: 0px; fill: rgb(99, 110, 250); fill-opacity: 1;"/></g><g class="point"><path d="M877.2,611V604.78H885.8V611Z" style="vector-effect: none; opacity: 1; stroke-width: 0px; fill: rgb(99, 110, 250); fill-opacity: 1;"/></g><g class="point"><path d="M885.8,611V605.07H894.4V611Z" style="vector-effect: none; opacity: 1; stroke-width: 0px; fill: rgb(99, 110, 250); fill-opacity: 1;"/></g><g class="point"><path d="M894.4,611V605.3H903V611Z" style="vector-effect: none; opacity: 1; stroke-width: 0px; fill: rgb(99, 110, 250); fill-opacity: 1;"/></g><g class="point"><path d="M903,611V605.45H911.6V611Z" style="vector-effect: none; opacity: 1; stroke-width: 0px; fill: rgb(99, 110, 250); fill-opacity: 1;"/></g><g class="point"><path d="M911.6,611V605.57H920.2V611Z" style="vector-effect: none; opacity: 1; stroke-width: 0px; fill: rgb(99, 110, 250); fill-opacity: 1;"/></g><g class="point"><path d="M920.2,611V605.43H928.8V611Z" style="vector-effect: none; opacity: 1; stroke-width: 0px; fill: rgb(99, 110, 250); fill-opacity: 1;"/></g><g class="point"><path d="M928.8,611V606.03H937.4V611Z" style="vector-effect: none; opacity: 1; stroke-width: 0px; fill: rgb(99, 110, 250); fill-opacity: 1;"/></g><g class="point"><path d="M937.4,611V606.05H946V611Z" style="vector-effect: none; opacity: 1; stroke-width: 0px; fill: rgb(99, 110, 250); fill-opacity: 1;"/></g><g class="point"><path d="M946,611V606.45H954.6V611Z" style="vector-effect: none; opacity: 1; stroke-width: 0px; fill: rgb(99, 110, 250); fill-opacity: 1;"/></g><g class="point"><path d="M954.6,611V606.55H963.2V611Z" style="vector-effect: none; opacity: 1; stroke-width: 0px; fill: rgb(99, 110, 250); fill-opacity: 1;"/></g><g class="point"><path d="M963.2,611V606.67H971.8V611Z" style="vector-effect: none; opacity: 1; stroke-width: 0px; fill: rgb(99, 110, 250); fill-opacity: 1;"/></g><g class="point"><path d="M971.8,611V606.66H980.4V611Z" style="vector-effect: none; opacity: 1; stroke-width: 0px; fill: rgb(99, 110, 250); fill-opacity: 1;"/></g><g class="point"><path d="M980.4,611V606.6H989V611Z" style="vector-effect: none; opacity: 1; stroke-width: 0px; fill: rgb(99, 110, 250); fill-opacity: 1;"/></g><g class="point"><path d="M989,611V606.87H997.6V611Z" style="vector-effect: none; opacity: 1; stroke-width: 0px; fill: rgb(99, 110, 250); fill-opacity: 1;"/></g><g class="point"><path d="M997.6,611V606.97H1006.2V611Z" style="vector-effect: none; opacity: 1; stroke-width: 0px; fill: rgb(99, 110, 250); fill-opacity: 1;"/></g><g class="point"><path d="M1006.2,611V607.18H1014.8V611Z" style="vector-effect: none; opacity: 1; stroke-width: 0px; fill: rgb(99, 110, 250); fill-opacity: 1;"/></g><g class="point"><path d="M1014.8,611V607.55H1023.4V611Z" style="vector-effect: none; opacity: 1; stroke-width: 0px; fill: rgb(99, 110, 250); fill-opacity: 1;"/></g><g class="point"><path d="M1023.4,611V607.42H1032V611Z" style="vector-effect: none; opacity: 1; stroke-width: 0px; fill: rgb(99, 110, 250); fill-opacity: 1;"/></g><g class="point"><path d="M1032,611V607.74H1040.6V611Z" style="vector-effect: none; opacity: 1; stroke-width: 0px; fill: rgb(99, 110, 250); fill-opacity: 1;"/></g><g class="point"><path d="M1040.6,611V607.45H1049.2V611Z" style="vector-effect: none; opacity: 1; stroke-width: 0px; fill: rgb(99, 110, 250); fill-opacity: 1;"/></g><g class="point"><path d="M1049.2,611V607.72H1057.8V611Z" style="vector-effect: none; opacity: 1; stroke-width: 0px; fill: rgb(99, 110, 250); fill-opacity: 1;"/></g><g class="point"><path d="M1057.8,611V607.82H1066.4V611Z" style="vector-effect: none; opacity: 1; stroke-width: 0px; fill: rgb(99, 110, 250); fill-opacity: 1;"/></g><g class="point"><path d="M1066.4,611V608.1H1075V611Z" style="vector-effect: none; opacity: 1; stroke-width: 0px; fill: rgb(99, 110, 250); fill-opacity: 1;"/></g><g class="point"><path d="M1075,611V607.89H1083.6V611Z" style="vector-effect: none; opacity: 1; stroke-width: 0px; fill: rgb(99, 110, 250); fill-opacity: 1;"/></g><g class="point"><path d="M1083.6,611V608.05H1092.2V611Z" style="vector-effect: none; opacity: 1; stroke-width: 0px; fill: rgb(99, 110, 250); fill-opacity: 1;"/></g><g class="point"><path d="M1092.2,611V607.99H1100.8V611Z" style="vector-effect: none; opacity: 1; stroke-width: 0px; fill: rgb(99, 110, 250); fill-opacity: 1;"/></g><g class="point"><path d="M1100.8,611V608.37H1109.4V611Z" style="vector-effect: none; opacity: 1; stroke-width: 0px; fill: rgb(99, 110, 250); fill-opacity: 1;"/></g><g class="point"><path d="M1109.4,611V607.83H1118V611Z" style="vector-effect: none; opacity: 1; stroke-width: 0px; fill: rgb(99, 110, 250); fill-opacity: 1;"/></g><g class="point"><path d="M1118,611V608.65H1126.6V611Z" style="vector-effect: none; opacity: 1; stroke-width: 0px; fill: rgb(99, 110, 250); fill-opacity: 1;"/></g><g class="point"><path d="M1126.6,611V608.51H1135.2V611Z" style="vector-effect: none; opacity: 1; stroke-width: 0px; fill: rgb(99, 110, 250); fill-opacity: 1;"/></g><g class="point"><path d="M1135.2,611V608.76H1143.8V611Z" style="vector-effect: none; opacity: 1; stroke-width: 0px; fill: rgb(99, 110, 250); fill-opacity: 1;"/></g></g></g></g></g><g class="overplot"/><path class="xlines-above crisp" d="M54,665H1230" style="fill: none; stroke-width: 2px; stroke: rgb(0, 0, 0); stroke-opacity: 1;"/><path class="ylines-above crisp" d="M55,50V664" style="fill: none; stroke-width: 2px; stroke: rgb(0, 0, 0); stroke-opacity: 1;"/><g class="overlines-above"/><g class="xaxislayer-above"><g class="xtick"><text text-anchor="middle" x="0" y="680.4" transform="translate(223.7,0)" style="font-family: Helvetica; font-size: 12px; fill: rgb(51, 51, 51); fill-opacity: 1; white-space: pre; opacity: 1;">20</text></g><g class="xtick"><text text-anchor="middle" x="0" y="680.4" style="font-family: Helvetica; font-size: 12px; fill: rgb(51, 51, 51); fill-opacity: 1; white-space: pre; opacity: 1;" transform="translate(395.7,0)">40</text></g><g class="xtick"><text text-anchor="middle" x="0" y="680.4" style="font-family: Helvetica; font-size: 12px; fill: rgb(51, 51, 51); fill-opacity: 1; white-space: pre; opacity: 1;" transform="translate(567.7,0)">60</text></g><g class="xtick"><text text-anchor="middle" x="0" y="680.4" style="font-family: Helvetica; font-size: 12px; fill: rgb(51, 51, 51); fill-opacity: 1; white-space: pre; opacity: 1;" transform="translate(739.7,0)">80</text></g><g class="xtick"><text text-anchor="middle" x="0" y="680.4" style="font-family: Helvetica; font-size: 12px; fill: rgb(51, 51, 51); fill-opacity: 1; white-space: pre; opacity: 1;" transform="translate(911.7,0)">100</text></g><g class="xtick"><text text-anchor="middle" x="0" y="680.4" style="font-family: Helvetica; font-size: 12px; fill: rgb(51, 51, 51); fill-opacity: 1; white-space: pre; opacity: 1;" transform="translate(1083.7,0)">120</text></g></g><g class="yaxislayer-above"><g class="ytick"><text text-anchor="end" x="51.6" y="4.199999999999999" transform="translate(0,661)" style="font-family: Helvetica; font-size: 12px; fill: rgb(51, 51, 51); fill-opacity: 1; white-space: pre; opacity: 1;">0</text></g><g class="ytick"><text text-anchor="end" x="51.6" y="4.199999999999999" style="font-family: Helvetica; font-size: 12px; fill: rgb(51, 51, 51); fill-opacity: 1; white-space: pre; opacity: 1;" transform="translate(0,590.03)">0.005</text></g><g class="ytick"><text text-anchor="end" x="51.6" y="4.199999999999999" style="font-family: Helvetica; font-size: 12px; fill: rgb(51, 51, 51); fill-opacity: 1; white-space: pre; opacity: 1;" transform="translate(0,519.06)">0.01</text></g><g class="ytick"><text text-anchor="end" x="51.6" y="4.199999999999999" style="font-family: Helvetica; font-size: 12px; fill: rgb(51, 51, 51); fill-opacity: 1; white-space: pre; opacity: 1;" transform="translate(0,448.09)">0.015</text></g><g class="ytick"><text text-anchor="end" x="51.6" y="4.199999999999999" style="font-family: Helvetica; font-size: 12px; fill: rgb(51, 51, 51); fill-opacity: 1; white-space: pre; opacity: 1;" transform="translate(0,377.12)">0.02</text></g><g class="ytick"><text text-anchor="end" x="51.6" y="4.199999999999999" style="font-family: Helvetica; font-size: 12px; fill: rgb(51, 51, 51); fill-opacity: 1; white-space: pre; opacity: 1;" transform="translate(0,306.15)">0.025</text></g><g class="ytick"><text text-anchor="end" x="51.6" y="4.199999999999999" style="font-family: Helvetica; font-size: 12px; fill: rgb(51, 51, 51); fill-opacity: 1; white-space: pre; opacity: 1;" transform="translate(0,235.18)">0.03</text></g><g class="ytick"><text text-anchor="end" x="51.6" y="4.199999999999999" style="font-family: Helvetica; font-size: 12px; fill: rgb(51, 51, 51); fill-opacity: 1; white-space: pre; opacity: 1;" transform="translate(0,164.20999999999998)">0.035</text></g><g class="ytick"><text text-anchor="end" x="51.6" y="4.199999999999999" style="font-family: Helvetica; font-size: 12px; fill: rgb(51, 51, 51); fill-opacity: 1; white-space: pre; opacity: 1;" transform="translate(0,93.24000000000001)">0.04</text></g></g><g class="overaxes-above"/></g></g><g class="polarlayer"/><g class="smithlayer"/><g class="ternarylayer"/><g class="geolayer"/><g class="funnelarealayer"/><g class="pielayer"/><g class="iciclelayer"/><g class="treemaplayer"/><g class="sunburstlayer"/><g class="glimages"/><defs id="topdefs-cdda9e"><g class="clips"/></defs><g class="layer-above"><g class="imagelayer"/><g class="shapelayer"/></g><g class="infolayer"><g class="g-gtitle"><text class="gtitle" x="64" y="25" text-anchor="start" dy="0em" style="font-family: Helvetica; font-size: 20px; fill: rgb(51, 51, 51); opacity: 1; font-weight: normal; white-space: pre;">Block size distribution for combined_processed_freq1000_block133 partition. Isotopes removed: True</text></g><g class="g-xtitle"><text class="xtitle" x="643" y="707.20625" text-anchor="middle" style="font-family: Helvetica; font-size: 14px; fill: rgb(51, 51, 51); opacity: 1; font-weight: normal; white-space: pre;">Block size</text></g><g class="g-ytitle" transform="translate(0.2373046875,0)"><text class="ytitle" transform="rotate(-90,12.762500000000003,357)" x="12.762500000000003" y="357" text-anchor="middle" style="font-family: Helvetica; font-size: 14px; fill: rgb(51, 51, 51); opacity: 1; font-weight: normal; white-space: pre;">Probability density</text></g><g class="annotation" data-index="0" style="opacity: 1;"><g class="annotation-text-g" transform="rotate(0,342.7,621)"><g class="cursor-pointer" transform="translate(306,604)"><rect class="bg" x="0.5" y="0.5" width="72" height="33" style="stroke-width: 1px; stroke: rgb(0, 0, 0); stroke-opacity: 0; fill: rgb(0, 0, 0); fill-opacity: 0;"/><text class="annotation-text" text-anchor="middle" x="36.359375" y="13" style="font-family: Helvetica; font-size: 12px; fill: rgb(51, 51, 51); fill-opacity: 1; white-space: pre;"><tspan class="line" dy="0em" x="36.359375" y="13">25 percentile</tspan><tspan class="line" dy="1.3em" x="36.359375" y="13">35 blocks</tspan></text></g></g><g class="annotation-arrow-g" style="opacity: 1;"><path d="M346.825,637.5L352.7,661" style="stroke-width: 1px; stroke: rgb(42, 63, 95); stroke-opacity: 1; stroke-dasharray: 0px, 0px, 23.6232px, 24.2232px;"/><path d="M-2.4,-3V3L0.6,0Z" transform="translate(352.55450439453125,660.4179077148438)rotate(75.95527266754486)" style="fill: rgb(42, 63, 95); stroke-width: 0;"/></g></g><g class="annotation" data-index="1" style="opacity: 1;"><g class="annotation-text-g" transform="rotate(0,402.9,581)"><g class="cursor-pointer" transform="translate(366,564)"><rect class="bg" x="0.5" y="0.5" width="72" height="33" style="stroke-width: 1px; stroke: rgb(0, 0, 0); stroke-opacity: 0; fill: rgb(0, 0, 0); fill-opacity: 0;"/><text class="annotation-text" text-anchor="middle" x="36.359375" y="13" style="font-family: Helvetica; font-size: 12px; fill: rgb(51, 51, 51); fill-opacity: 1; white-space: pre;"><tspan class="line" dy="0em" x="36.359375" y="13">50 percentile</tspan><tspan class="line" dy="1.3em" x="36.359375" y="13">42 blocks</tspan></text></g></g><g class="annotation-arrow-g" style="opacity: 1;"><path d="M404.9625,597.5L412.9,661" style="stroke-width: 1px; stroke: rgb(42, 63, 95); stroke-opacity: 1; stroke-dasharray: 0px, 0px, 63.3942px, 63.9942px;"/><path d="M-2.4,-3V3L0.6,0Z" transform="translate(412.8255615234375,660.4046630859375)rotate(82.88365760145403)" style="fill: rgb(42, 63, 95); stroke-width: 0;"/></g></g><g class="annotation" data-index="2" style="opacity: 1;"><g class="annotation-text-g" transform="rotate(0,506.1,541)"><g class="cursor-pointer" transform="translate(470,524)"><rect class="bg" x="0.5" y="0.5" width="72" height="33" style="stroke-width: 1px; stroke: rgb(0, 0, 0); stroke-opacity: 0; fill: rgb(0, 0, 0); fill-opacity: 0;"/><text class="annotation-text" text-anchor="middle" x="36.359375" y="13" style="font-family: Helvetica; font-size: 12px; fill: rgb(51, 51, 51); fill-opacity: 1; white-space: pre;"><tspan class="line" dy="0em" x="36.359375" y="13">75 percentile</tspan><tspan class="line" dy="1.3em" x="36.359375" y="13">54 blocks</tspan></text></g></g><g class="annotation-arrow-g" style="opacity: 1;"><path d="M507.475,557.5L516.1,661" style="stroke-width: 1px; stroke: rgb(42, 63, 95); stroke-opacity: 1; stroke-dasharray: 0px, 0px, 103.259px, 103.859px;"/><path d="M-2.4,-3V3L0.6,0Z" transform="translate(516.0501708984375,660.402099609375)rotate(85.23926200780738)" style="fill: rgb(42, 63, 95); stroke-width: 0;"/></g></g><g class="annotation" data-index="3" style="opacity: 1;"><g class="annotation-text-g" transform="rotate(0,686.7,501)"><g class="cursor-pointer" transform="translate(650,484)"><rect class="bg" x="0.5" y="0.5" width="72" height="33" style="stroke-width: 1px; stroke: rgb(0, 0, 0); stroke-opacity: 0; fill: rgb(0, 0, 0); fill-opacity: 0;"/><text class="annotation-text" text-anchor="middle" x="36.359375" y="13" style="font-family: Helvetica; font-size: 12px; fill: rgb(51, 51, 51); fill-opacity: 1; white-space: pre;"><tspan class="line" dy="0em" x="36.359375" y="13">95 percentile</tspan><tspan class="line" dy="1.3em" x="36.359375" y="13">75 blocks</tspan></text></g></g><g class="annotation-arrow-g" style="opacity: 1;"><path d="M687.73125,517.5L696.7,661" style="stroke-width: 1px; stroke: rgb(42, 63, 95); stroke-opacity: 1; stroke-dasharray: 0px, 0px, 143.18px, 143.78px;"/><path d="M-2.4,-3V3L0.6,0Z" transform="translate(696.66259765625,660.4011840820312)rotate(86.43021072201702)" style="fill: rgb(42, 63, 95); stroke-width: 0;"/></g></g><g class="annotation" data-index="4" style="opacity: 1;"><g class="annotation-text-g" transform="rotate(0,901.7,461)"><g class="cursor-pointer" transform="translate(865,444)"><rect class="bg" x="0.5" y="0.5" width="72" height="33" style="stroke-width: 1px; stroke: rgb(0, 0, 0); stroke-opacity: 0; fill: rgb(0, 0, 0); fill-opacity: 0;"/><text class="annotation-text" text-anchor="middle" x="36.359375" y="13" style="font-family: Helvetica; font-size: 12px; fill: rgb(51, 51, 51); fill-opacity: 1; white-space: pre;"><tspan class="line" dy="0em" x="36.359375" y="13">99 percentile</tspan><tspan class="line" dy="1.3em" x="36.359375" y="13">100 blocks</tspan></text></g></g><g class="annotation-arrow-g" style="opacity: 1;"><path d="M902.5250000000001,477.5L911.7,661" style="stroke-width: 1px; stroke: rgb(42, 63, 95); stroke-opacity: 1; stroke-dasharray: 0px, 0px, 183.129px, 183.729px;"/><path d="M-2.4,-3V3L0.6,0Z" transform="translate(911.6700439453125,660.4007568359375)rotate(87.13060790976667)" style="fill: rgb(42, 63, 95); stroke-width: 0;"/></g></g><g class="annotation" data-index="5" style="opacity: 1;"><g class="annotation-text-g" transform="rotate(0,1142.5,621)"><g class="cursor-pointer" transform="translate(1101,604)"><rect class="bg" x="0.5" y="0.5" width="82" height="33" style="stroke-width: 1px; stroke: rgb(0, 0, 0); stroke-opacity: 0; fill: rgb(0, 0, 0); fill-opacity: 0;"/><text class="annotation-text" text-anchor="middle" x="41.375" y="13" style="font-family: Helvetica; font-size: 12px; fill: rgb(51, 51, 51); fill-opacity: 1; white-space: pre;"><tspan class="line" dy="0em" x="41.375" y="13">99.9 percentile</tspan><tspan class="line" dy="1.3em" x="41.375" y="13">128 blocks</tspan></text></g></g><g class="annotation-arrow-g" style="opacity: 1;"><path d="M1146.625,637.5L1152.5,661" style="stroke-width: 1px; stroke: rgb(42, 63, 95); stroke-opacity: 1; stroke-dasharray: 0px, 0px, 23.6232px, 24.2232px;"/><path d="M-2.4,-3V3L0.6,0Z" transform="translate(1152.3544921875,660.4179077148438)rotate(75.93830682416193)" style="fill: rgb(42, 63, 95); stroke-width: 0;"/></g></g><g class="annotation" data-index="6" style="opacity: 1;"><g class="annotation-text-g" transform="rotate(0,1185.5,581)"><g class="cursor-pointer" transform="translate(1141,564)"><rect class="bg" x="0.5" y="0.5" width="88" height="33" style="stroke-width: 1px; stroke: rgb(0, 0, 0); stroke-opacity: 0; fill: rgb(0, 0, 0); fill-opacity: 0;"/><text class="annotation-text" text-anchor="middle" x="44.703125" y="13" style="font-family: Helvetica; font-size: 12px; fill: rgb(51, 51, 51); fill-opacity: 1; white-space: pre;"><tspan class="line" dy="0em" x="44.703125" y="13">99.99 percentile</tspan><tspan class="line" dy="1.3em" x="44.703125" y="13">133 blocks</tspan></text></g></g><g class="annotation-arrow-g" style="opacity: 1;"><path d="M1187.5625,597.5L1195.5,661" style="stroke-width: 1px; stroke: rgb(42, 63, 95); stroke-opacity: 1; stroke-dasharray: 0px, 0px, 63.3942px, 63.9942px;"/><path d="M-2.4,-3V3L0.6,0Z" transform="translate(1195.425537109375,660.4046630859375)rotate(82.84896377118257)" style="fill: rgb(42, 63, 95); stroke-width: 0;"/></g></g><g class="annotation" data-index="7" style="opacity: 1;"><g class="annotation-text-g" transform="rotate(0,1054.5,90)"><g class="cursor-pointer" transform="translate(937,50)"><rect class="bg" x="0.5" y="0.5" width="235" height="79" style="stroke-width: 1px; stroke: rgb(0, 0, 0); stroke-opacity: 0; fill: rgb(0, 0, 0); fill-opacity: 0;"/><text class="annotation-text" text-anchor="middle" x="117.75" y="13" style="font-family: Helvetica; font-size: 12px; fill: rgb(51, 51, 51); fill-opacity: 1; white-space: pre;"><tspan class="line" dy="0em" x="117.75" y="13">Total smiles: 5550953</tspan><tspan class="line" dy="1.3em" x="117.75" y="13">Vocab Size: 54</tspan><tspan class="line" dy="2.6em" x="117.75" y="13">Max Block Size: 133</tspan><tspan class="line" dy="3.9000000000000004em" x="117.75" y="13"># excluded (isotope-containing): 0 or 0.00%</tspan><tspan class="line" dy="5.2em" x="117.75" y="13"># excluded (non bio friendly): 0 or 0.00%</tspan></text></g></g></g></g></svg>