<svg class="main-svg" xmlns="http://www.w3.org/2000/svg" xmlns:xlink="http://www.w3.org/1999/xlink" width="1280" height="720" style="" viewBox="0 0 1280 720"><rect x="0" y="0" width="1280" height="720" style="fill: rgb(255, 255, 255); fill-opacity: 1;"/><defs id="defs-9d6b34"><g class="clips"><clipPath id="clip9d6b34xyplot" class="plotclip"><rect width="1174" height="614"/></clipPath><clipPath class="axesclip" id="clip9d6b34x"><rect x="56" y="0" width="1174" height="720"/></clipPath><clipPath class="axesclip" id="clip9d6b34y"><rect x="0" y="50" width="1280" height="614"/></clipPath><clipPath class="axesclip" id="clip9d6b34xy"><rect x="56" y="50" width="1174" height="614"/></clipPath></g><g class="gradients"/><g class="patterns"/></defs><g class="bglayer"/><g class="layer-below"><g class="imagelayer"/><g class="shapelayer"/></g><g class="cartesianlayer"><g class="subplot xy"><g class="layer-subplot"><g class="shapelayer"/><g class="imagelayer"/></g><g class="minor-gridlayer"><g class="x"/><g class="y"/></g><g class="gridlayer"><g class="x"><path class="xgrid crisp" transform="translate(279.32,0)" d="M0,50v614" style="stroke: rgb(226, 226, 226); stroke-opacity: 1; stroke-width: 1px;"/><path class="xgrid crisp" transform="translate(508.36,0)" d="M0,50v614" style="stroke: rgb(226, 226, 226); stroke-opacity: 1; stroke-width: 1px;"/><path class="xgrid crisp" transform="translate(737.41,0)" d="M0,50v614" style="stroke: rgb(226, 226, 226); stroke-opacity: 1; stroke-width: 1px;"/><path class="xgrid crisp" transform="translate(966.45,0)" d="M0,50v614" style="stroke: rgb(226, 226, 226); stroke-opacity: 1; stroke-width: 1px;"/><path class="xgrid crisp" transform="translate(1195.5,0)" d="M0,50v614" style="stroke: rgb(226, 226, 226); stroke-opacity: 1; stroke-width: 1px;"/></g><g class="y"/></g><g class="zerolinelayer"><path class="yzl zl crisp" transform="translate(0,661)" d="M56,0h1174" style="stroke: rgb(255, 255, 255); stroke-opacity: 1; stroke-width: 2px;"/></g><path class="xlines-below"/><path class="ylines-below"/><g class="overlines-below"/><g class="xaxislayer-below"/><g class="yaxislayer-below"/><g class="overaxes-below"/><g class="plot" transform="translate(56,50)" clip-path="url(#clip9d6b34xyplot)"><g class="barlayer mlayer"><g class="trace bars" shape-rendering="crispEdges" style="opacity: 0.75;"><g class="points"><g class="point"><path d="M0,611V610.89H11.45V611Z" style="vector-effect: none; opacity: 1; stroke-width: 0px; fill: rgb(99, 110, 250); fill-opacity: 1;"/></g><g class="point"><path d="M11.45,611V610.98H22.9V611Z" style="vector-effect: none; opacity: 1; stroke-width: 0px; fill: rgb(99, 110, 250); fill-opacity: 1;"/></g><g class="point"><path d="M22.9,611V610.85H34.36V611Z" style="vector-effect: none; opacity: 1; stroke-width: 0px; fill: rgb(99, 110, 250); fill-opacity: 1;"/></g><g class="point"><path d="M34.36,611V610.68H45.81V611Z" style="vector-effect: none; opacity: 1; stroke-width: 0px; fill: rgb(99, 110, 250); fill-opacity: 1;"/></g><g class="point"><path d="M45.81,611V610.24H57.26V611Z" style="vector-effect: none; opacity: 1; stroke-width: 0px; fill: rgb(99, 110, 250); fill-opacity: 1;"/></g><g class="point"><path d="M57.26,611V610.06H68.71V611Z" style="vector-effect: none; opacity: 1; stroke-width: 0px; fill: rgb(99, 110, 250); fill-opacity: 1;"/></g><g class="point"><path d="M68.71,611V609.36H80.17V611Z" style="vector-effect: none; opacity: 1; stroke-width: 0px; fill: rgb(99, 110, 250); fill-opacity: 1;"/></g><g class="point"><path d="M80.17,611V608.39H91.62V611Z" style="vector-effect: none; opacity: 1; stroke-width: 0px; fill: rgb(99, 110, 250); fill-opacity: 1;"/></g><g class="point"><path d="M91.62,611V607.35H103.07V611Z" style="vector-effect: none; opacity: 1; stroke-width: 0px; fill: rgb(99, 110, 250); fill-opacity: 1;"/></g><g class="point"><path d="M103.07,611V606.37H114.52V611Z" style="vector-effect: none; opacity: 1; stroke-width: 0px; fill: rgb(99, 110, 250); fill-opacity: 1;"/></g><g class="point"><path d="M114.52,611V605.26H125.97V611Z" style="vector-effect: none; opacity: 1; stroke-width: 0px; fill: rgb(99, 110, 250); fill-opacity: 1;"/></g><g class="point"><path d="M125.97,611V603.58H137.43V611Z" style="vector-effect: none; opacity: 1; stroke-width: 0px; fill: rgb(99, 110, 250); fill-opacity: 1;"/></g><g class="point"><path d="M137.43,611V600.72H148.88V611Z" style="vector-effect: none; opacity: 1; stroke-width: 0px; fill: rgb(99, 110, 250); fill-opacity: 1;"/></g><g class="point"><path d="M148.88,611V596.83H160.33V611Z" style="vector-effect: none; opacity: 1; stroke-width: 0px; fill: rgb(99, 110, 250); fill-opacity: 1;"/></g><g class="point"><path d="M160.33,611V592.74H171.78V611Z" style="vector-effect: none; opacity: 1; stroke-width: 0px; fill: rgb(99, 110, 250); fill-opacity: 1;"/></g><g class="point"><path d="M171.78,611V590.34H183.24V611Z" style="vector-effect: none; opacity: 1; stroke-width: 0px; fill: rgb(99, 110, 250); fill-opacity: 1;"/></g><g class="point"><path d="M183.24,611V584.36H194.69V611Z" style="vector-effect: none; opacity: 1; stroke-width: 0px; fill: rgb(99, 110, 250); fill-opacity: 1;"/></g><g class="point"><path d="M194.69,611V573.27H206.14V611Z" style="vector-effect: none; opacity: 1; stroke-width: 0px; fill: rgb(99, 110, 250); fill-opacity: 1;"/></g><g class="point"><path d="M206.14,611V563.6H217.59V611Z" style="vector-effect: none; opacity: 1; stroke-width: 0px; fill: rgb(99, 110, 250); fill-opacity: 1;"/></g><g class="point"><path d="M217.59,611V551.54H229.05V611Z" style="vector-effect: none; opacity: 1; stroke-width: 0px; fill: rgb(99, 110, 250); fill-opacity: 1;"/></g><g class="point"><path d="M229.05,611V539.62H240.5V611Z" style="vector-effect: none; opacity: 1; stroke-width: 0px; fill: rgb(99, 110, 250); fill-opacity: 1;"/></g><g class="point"><path d="M240.5,611V525.09H251.95V611Z" style="vector-effect: none; opacity: 1; stroke-width: 0px; fill: rgb(99, 110, 250); fill-opacity: 1;"/></g><g class="point"><path d="M251.95,611V508.21H263.4V611Z" style="vector-effect: none; opacity: 1; stroke-width: 0px; fill: rgb(99, 110, 250); fill-opacity: 1;"/></g><g class="point"><path d="M263.4,611V483.52H274.85V611Z" style="vector-effect: none; opacity: 1; stroke-width: 0px; fill: rgb(99, 110, 250); fill-opacity: 1;"/></g><g class="point"><path d="M274.85,611V458.56H286.31V611Z" style="vector-effect: none; opacity: 1; stroke-width: 0px; fill: rgb(99, 110, 250); fill-opacity: 1;"/></g><g class="point"><path d="M286.31,611V437.11H297.76V611Z" style="vector-effect: none; opacity: 1; stroke-width: 0px; fill: rgb(99, 110, 250); fill-opacity: 1;"/></g><g class="point"><path d="M297.76,611V409.97H309.21V611Z" style="vector-effect: none; opacity: 1; stroke-width: 0px; fill: rgb(99, 110, 250); fill-opacity: 1;"/></g><g class="point"><path d="M309.21,611V379.16H320.66V611Z" style="vector-effect: none; opacity: 1; stroke-width: 0px; fill: rgb(99, 110, 250); fill-opacity: 1;"/></g><g class="point"><path d="M320.66,611V344.57H332.12V611Z" style="vector-effect: none; opacity: 1; stroke-width: 0px; fill: rgb(99, 110, 250); fill-opacity: 1;"/></g><g class="point"><path d="M332.12,611V307.5H343.57V611Z" style="vector-effect: none; opacity: 1; stroke-width: 0px; fill: rgb(99, 110, 250); fill-opacity: 1;"/></g><g class="point"><path d="M343.57,611V275.43H355.02V611Z" style="vector-effect: none; opacity: 1; stroke-width: 0px; fill: rgb(99, 110, 250); fill-opacity: 1;"/></g><g class="point"><path d="M355.02,611V241.01H366.47V611Z" style="vector-effect: none; opacity: 1; stroke-width: 0px; fill: rgb(99, 110, 250); fill-opacity: 1;"/></g><g class="point"><path d="M366.47,611V203.78H377.92V611Z" style="vector-effect: none; opacity: 1; stroke-width: 0px; fill: rgb(99, 110, 250); fill-opacity: 1;"/></g><g class="point"><path d="M377.92,611V169.65H389.38V611Z" style="vector-effect: none; opacity: 1; stroke-width: 0px; fill: rgb(99, 110, 250); fill-opacity: 1;"/></g><g class="point"><path d="M389.38,611V127.61H400.83V611Z" style="vector-effect: none; opacity: 1; stroke-width: 0px; fill: rgb(99, 110, 250); fill-opacity: 1;"/></g><g class="point"><path d="M400.83,611V99.34H412.28V611Z" style="vector-effect: none; opacity: 1; stroke-width: 0px; fill: rgb(99, 110, 250); fill-opacity: 1;"/></g><g class="point"><path d="M412.28,611V80.27H423.73V611Z" style="vector-effect: none; opacity: 1; stroke-width: 0px; fill: rgb(99, 110, 250); fill-opacity: 1;"/></g><g class="point"><path d="M423.73,611V58.98H435.19V611Z" style="vector-effect: none; opacity: 1; stroke-width: 0px; fill: rgb(99, 110, 250); fill-opacity: 1;"/></g><g class="point"><path d="M435.19,611V48.07H446.64V611Z" style="vector-effect: none; opacity: 1; stroke-width: 0px; fill: rgb(99, 110, 250); fill-opacity: 1;"/></g><g class="point"><path d="M446.64,611V38.53H458.09V611Z" style="vector-effect: none; opacity: 1; stroke-width: 0px; fill: rgb(99, 110, 250); fill-opacity: 1;"/></g><g class="point"><path d="M458.09,611V40.1H469.54V611Z" style="vector-effect: none; opacity: 1; stroke-width: 0px; fill: rgb(99, 110, 250); fill-opacity: 1;"/></g><g class="point"><path d="M469.54,611V30.7H480.99V611Z" style="vector-effect: none; opacity: 1; stroke-width: 0px; fill: rgb(99, 110, 250); fill-opacity: 1;"/></g><g class="point"><path d="M480.99,611V42.72H492.45V611Z" style="vector-effect: none; opacity: 1; stroke-width: 0px; fill: rgb(99, 110, 250); fill-opacity: 1;"/></g><g class="point"><path d="M492.45,611V49.89H503.9V611Z" style="vector-effect: none; opacity: 1; stroke-width: 0px; fill: rgb(99, 110, 250); fill-opacity: 1;"/></g><g class="point"><path d="M503.9,611V60.99H515.35V611Z" style="vector-effect: none; opacity: 1; stroke-width: 0px; fill: rgb(99, 110, 250); fill-opacity: 1;"/></g><g class="point"><path d="M515.35,611V66.3H526.8V611Z" style="vector-effect: none; opacity: 1; stroke-width: 0px; fill: rgb(99, 110, 250); fill-opacity: 1;"/></g><g class="point"><path d="M526.8,611V86.91H538.26V611Z" style="vector-effect: none; opacity: 1; stroke-width: 0px; fill: rgb(99, 110, 250); fill-opacity: 1;"/></g><g class="point"><path d="M538.26,611V95.27H549.71V611Z" style="vector-effect: none; opacity: 1; stroke-width: 0px; fill: rgb(99, 110, 250); fill-opacity: 1;"/></g><g class="point"><path d="M549.71,611V104.34H561.16V611Z" style="vector-effect: none; opacity: 1; stroke-width: 0px; fill: rgb(99, 110, 250); fill-opacity: 1;"/></g><g class="point"><path d="M561.16,611V121.29H572.61V611Z" style="vector-effect: none; opacity: 1; stroke-width: 0px; fill: rgb(99, 110, 250); fill-opacity: 1;"/></g><g class="point"><path d="M572.61,611V144.55H584.07V611Z" style="vector-effect: none; opacity: 1; stroke-width: 0px; fill: rgb(99, 110, 250); fill-opacity: 1;"/></g><g class="point"><path d="M584.07,611V160.87H595.52V611Z" style="vector-effect: none; opacity: 1; stroke-width: 0px; fill: rgb(99, 110, 250); fill-opacity: 1;"/></g><g class="point"><path d="M595.52,611V183.89H606.97V611Z" style="vector-effect: none; opacity: 1; stroke-width: 0px; fill: rgb(99, 110, 250); fill-opacity: 1;"/></g><g class="point"><path d="M606.97,611V200.96H618.42V611Z" style="vector-effect: none; opacity: 1; stroke-width: 0px; fill: rgb(99, 110, 250); fill-opacity: 1;"/></g><g class="point"><path d="M618.42,611V231.81H629.87V611Z" style="vector-effect: none; opacity: 1; stroke-width: 0px; fill: rgb(99, 110, 250); fill-opacity: 1;"/></g><g class="point"><path d="M629.87,611V254.32H641.33V611Z" style="vector-effect: none; opacity: 1; stroke-width: 0px; fill: rgb(99, 110, 250); fill-opacity: 1;"/></g><g class="point"><path d="M641.33,611V277.55H652.78V611Z" style="vector-effect: none; opacity: 1; stroke-width: 0px; fill: rgb(99, 110, 250); fill-opacity: 1;"/></g><g class="point"><path d="M652.78,611V294.09H664.23V611Z" style="vector-effect: none; opacity: 1; stroke-width: 0px; fill: rgb(99, 110, 250); fill-opacity: 1;"/></g><g class="point"><path d="M664.23,611V329.68H675.68V611Z" style="vector-effect: none; opacity: 1; stroke-width: 0px; fill: rgb(99, 110, 250); fill-opacity: 1;"/></g><g class="point"><path d="M675.68,611V349.49H687.14V611Z" style="vector-effect: none; opacity: 1; stroke-width: 0px; fill: rgb(99, 110, 250); fill-opacity: 1;"/></g><g class="point"><path d="M687.14,611V366.54H698.59V611Z" style="vector-effect: none; opacity: 1; stroke-width: 0px; fill: rgb(99, 110, 250); fill-opacity: 1;"/></g><g class="point"><path d="M698.59,611V388.28H710.04V611Z" style="vector-effect: none; opacity: 1; stroke-width: 0px; fill: rgb(99, 110, 250); fill-opacity: 1;"/></g><g class="point"><path d="M710.04,611V414.23H721.49V611Z" style="vector-effect: none; opacity: 1; stroke-width: 0px; fill: rgb(99, 110, 250); fill-opacity: 1;"/></g><g class="point"><path d="M721.49,611V424.49H732.94V611Z" style="vector-effect: none; opacity: 1; stroke-width: 0px; fill: rgb(99, 110, 250); fill-opacity: 1;"/></g><g class="point"><path d="M732.94,611V442.76H744.4V611Z" style="vector-effect: none; opacity: 1; stroke-width: 0px; fill: rgb(99, 110, 250); fill-opacity: 1;"/></g><g class="point"><path d="M744.4,611V457.72H755.85V611Z" style="vector-effect: none; opacity: 1; stroke-width: 0px; fill: rgb(99, 110, 250); fill-opacity: 1;"/></g><g class="point"><path d="M755.85,611V470.11H767.3V611Z" style="vector-effect: none; opacity: 1; stroke-width: 0px; fill: rgb(99, 110, 250); fill-opacity: 1;"/></g><g class="point"><path d="M767.3,611V478.57H778.75V611Z" style="vector-effect: none; opacity: 1; stroke-width: 0px; fill: rgb(99, 110, 250); fill-opacity: 1;"/></g><g class="point"><path d="M778.75,611V496.75H790.21V611Z" style="vector-effect: none; opacity: 1; stroke-width: 0px; fill: rgb(99, 110, 250); fill-opacity: 1;"/></g><g class="point"><path d="M790.21,611V503.52H801.66V611Z" style="vector-effect: none; opacity: 1; stroke-width: 0px; fill: rgb(99, 110, 250); fill-opacity: 1;"/></g><g class="point"><path d="M801.66,611V511.74H813.11V611Z" style="vector-effect: none; opacity: 1; stroke-width: 0px; fill: rgb(99, 110, 250); fill-opacity: 1;"/></g><g class="point"><path d="M813.11,611V518.69H824.56V611Z" style="vector-effect: none; opacity: 1; stroke-width: 0px; fill: rgb(99, 110, 250); fill-opacity: 1;"/></g><g class="point"><path d="M824.56,611V533.32H836.02V611Z" style="vector-effect: none; opacity: 1; stroke-width: 0px; fill: rgb(99, 110, 250); fill-opacity: 1;"/></g><g class="point"><path d="M836.02,611V538.13H847.47V611Z" style="vector-effect: none; opacity: 1; stroke-width: 0px; fill: rgb(99, 110, 250); fill-opacity: 1;"/></g><g class="point"><path d="M847.47,611V544.38H858.92V611Z" style="vector-effect: none; opacity: 1; stroke-width: 0px; fill: rgb(99, 110, 250); fill-opacity: 1;"/></g><g class="point"><path d="M858.92,611V550.87H870.37V611Z" style="vector-effect: none; opacity: 1; stroke-width: 0px; fill: rgb(99, 110, 250); fill-opacity: 1;"/></g><g class="point"><path d="M870.37,611V555.89H881.82V611Z" style="vector-effect: none; opacity: 1; stroke-width: 0px; fill: rgb(99, 110, 250); fill-opacity: 1;"/></g><g class="point"><path d="M881.82,611V556.68H893.28V611Z" style="vector-effect: none; opacity: 1; stroke-width: 0px; fill: rgb(99, 110, 250); fill-opacity: 1;"/></g><g class="point"><path d="M893.28,611V563.61H904.73V611Z" style="vector-effect: none; opacity: 1; stroke-width: 0px; fill: rgb(99, 110, 250); fill-opacity: 1;"/></g><g class="point"><path d="M904.73,611V566.98H916.18V611Z" style="vector-effect: none; opacity: 1; stroke-width: 0px; fill: rgb(99, 110, 250); fill-opacity: 1;"/></g><g class="point"><path d="M916.18,611V572.12H927.63V611Z" style="vector-effect: none; opacity: 1; stroke-width: 0px; fill: rgb(99, 110, 250); fill-opacity: 1;"/></g><g class="point"><path d="M927.63,611V572.69H939.09V611Z" style="vector-effect: none; opacity: 1; stroke-width: 0px; fill: rgb(99, 110, 250); fill-opacity: 1;"/></g><g class="point"><path d="M939.09,611V577.2H950.54V611Z" style="vector-effect: none; opacity: 1; stroke-width: 0px; fill: rgb(99, 110, 250); fill-opacity: 1;"/></g><g class="point"><path d="M950.54,611V578.27H961.99V611Z" style="vector-effect: none; opacity: 1; stroke-width: 0px; fill: rgb(99, 110, 250); fill-opacity: 1;"/></g><g class="point"><path d="M961.99,611V581.29H973.44V611Z" style="vector-effect: none; opacity: 1; stroke-width: 0px; fill: rgb(99, 110, 250); fill-opacity: 1;"/></g><g class="point"><path d="M973.44,611V582.43H984.89V611Z" style="vector-effect: none; opacity: 1; stroke-width: 0px; fill: rgb(99, 110, 250); fill-opacity: 1;"/></g><g class="point"><path d="M984.89,611V585.35H996.35V611Z" style="vector-effect: none; opacity: 1; stroke-width: 0px; fill: rgb(99, 110, 250); fill-opacity: 1;"/></g><g class="point"><path d="M996.35,611V585.89H1007.8V611Z" style="vector-effect: none; opacity: 1; stroke-width: 0px; fill: rgb(99, 110, 250); fill-opacity: 1;"/></g><g class="point"><path d="M1007.8,611V588.78H1019.25V611Z" style="vector-effect: none; opacity: 1; stroke-width: 0px; fill: rgb(99, 110, 250); fill-opacity: 1;"/></g><g class="point"><path d="M1019.25,611V589.44H1030.7V611Z" style="vector-effect: none; opacity: 1; stroke-width: 0px; fill: rgb(99, 110, 250); fill-opacity: 1;"/></g><g class="point"><path d="M1030.7,611V590.9H1042.16V611Z" style="vector-effect: none; opacity: 1; stroke-width: 0px; fill: rgb(99, 110, 250); fill-opacity: 1;"/></g><g class="point"><path d="M1042.16,611V592.42H1053.61V611Z" style="vector-effect: none; opacity: 1; stroke-width: 0px; fill: rgb(99, 110, 250); fill-opacity: 1;"/></g><g class="point"><path d="M1053.61,611V593.56H1065.06V611Z" style="vector-effect: none; opacity: 1; stroke-width: 0px; fill: rgb(99, 110, 250); fill-opacity: 1;"/></g><g class="point"><path d="M1065.06,611V594.13H1076.51V611Z" style="vector-effect: none; opacity: 1; stroke-width: 0px; fill: rgb(99, 110, 250); fill-opacity: 1;"/></g><g class="point"><path d="M1076.51,611V596.84H1087.96V611Z" style="vector-effect: none; opacity: 1; stroke-width: 0px; fill: rgb(99, 110, 250); fill-opacity: 1;"/></g><g class="point"><path d="M1087.96,611V596.84H1099.42V611Z" style="vector-effect: none; opacity: 1; stroke-width: 0px; fill: rgb(99, 110, 250); fill-opacity: 1;"/></g><g class="point"><path d="M1099.42,611V597.71H1110.87V611Z" style="vector-effect: none; opacity: 1; stroke-width: 0px; fill: rgb(99, 110, 250); fill-opacity: 1;"/></g><g class="point"><path d="M1110.87,611V599.26H1122.32V611Z" style="vector-effect: none; opacity: 1; stroke-width: 0px; fill: rgb(99, 110, 250); fill-opacity: 1;"/></g><g class="point"><path d="M1122.32,611V601.23H1133.77V611Z" style="vector-effect: none; opacity: 1; stroke-width: 0px; fill: rgb(99, 110, 250); fill-opacity: 1;"/></g><g class="point"><path d="M1133.77,611V602.01H1145.23V611Z" style="vector-effect: none; opacity: 1; stroke-width: 0px; fill: rgb(99, 110, 250); fill-opacity: 1;"/></g></g></g></g></g><g class="overplot"/><path class="xlines-above crisp" d="M54,665H1230" style="fill: none; stroke-width: 2px; stroke: rgb(0, 0, 0); stroke-opacity: 1;"/><path class="ylines-above crisp" d="M55,50V664" style="fill: none; stroke-width: 2px; stroke: rgb(0, 0, 0); stroke-opacity: 1;"/><g class="overlines-above"/><g class="xaxislayer-above"><g class="xtick"><text text-anchor="middle" x="0" y="680.4" transform="translate(279.32,0)" style="font-family: Helvetica; font-size: 12px; fill: rgb(51, 51, 51); fill-opacity: 1; white-space: pre; opacity: 1;">20</text></g><g class="xtick"><text text-anchor="middle" x="0" y="680.4" style="font-family: Helvetica; font-size: 12px; fill: rgb(51, 51, 51); fill-opacity: 1; white-space: pre; opacity: 1;" transform="translate(508.36,0)">40</text></g><g class="xtick"><text text-anchor="middle" x="0" y="680.4" style="font-family: Helvetica; font-size: 12px; fill: rgb(51, 51, 51); fill-opacity: 1; white-space: pre; opacity: 1;" transform="translate(737.41,0)">60</text></g><g class="xtick"><text text-anchor="middle" x="0" y="680.4" style="font-family: Helvetica; font-size: 12px; fill: rgb(51, 51, 51); fill-opacity: 1; white-space: pre; opacity: 1;" transform="translate(966.45,0)">80</text></g><g class="xtick"><text text-anchor="middle" x="0" y="680.4" style="font-family: Helvetica; font-size: 12px; fill: rgb(51, 51, 51); fill-opacity: 1; white-space: pre; opacity: 1;" transform="translate(1195.5,0)">100</text></g></g><g class="yaxislayer-above"><g class="ytick"><text text-anchor="end" x="51.6" y="4.199999999999999" transform="translate(0,661)" style="font-family: Helvetica; font-size: 12px; fill: rgb(51, 51, 51); fill-opacity: 1; white-space: pre; opacity: 1;">0</text></g><g class="ytick"><text text-anchor="end" x="51.6" y="4.199999999999999" style="font-family: Helvetica; font-size: 12px; fill: rgb(51, 51, 51); fill-opacity: 1; white-space: pre; opacity: 1;" transform="translate(0,567.9)">0.005</text></g><g class="ytick"><text text-anchor="end" x="51.6" y="4.199999999999999" style="font-family: Helvetica; font-size: 12px; fill: rgb(51, 51, 51); fill-opacity: 1; white-space: pre; opacity: 1;" transform="translate(0,474.81)">0.01</text></g><g class="ytick"><text text-anchor="end" x="51.6" y="4.199999999999999" style="font-family: Helvetica; font-size: 12px; fill: rgb(51, 51, 51); fill-opacity: 1; white-space: pre; opacity: 1;" transform="translate(0,381.71)">0.015</text></g><g class="ytick"><text text-anchor="end" x="51.6" y="4.199999999999999" style="font-family: Helvetica; font-size: 12px; fill: rgb(51, 51, 51); fill-opacity: 1; white-space: pre; opacity: 1;" transform="translate(0,288.62)">0.02</text></g><g class="ytick"><text text-anchor="end" x="51.6" y="4.199999999999999" style="font-family: Helvetica; font-size: 12px; fill: rgb(51, 51, 51); fill-opacity: 1; white-space: pre; opacity: 1;" transform="translate(0,195.52)">0.025</text></g><g class="ytick"><text text-anchor="end" x="51.6" y="4.199999999999999" style="font-family: Helvetica; font-size: 12px; fill: rgb(51, 51, 51); fill-opacity: 1; white-space: pre; opacity: 1;" transform="translate(0,102.42)">0.03</text></g></g><g class="overaxes-above"/></g></g><g class="polarlayer"/><g class="smithlayer"/><g class="ternarylayer"/><g class="geolayer"/><g class="funnelarealayer"/><g class="pielayer"/><g class="iciclelayer"/><g class="treemaplayer"/><g class="sunburstlayer"/><g class="glimages"/><defs id="topdefs-9d6b34"><g class="clips"/></defs><g class="layer-above"><g class="imagelayer"/><g class="shapelayer"/></g><g class="infolayer"><g class="g-gtitle"><text class="gtitle" x="64" y="25" text-anchor="start" dy="0em" style="font-family: Helvetica; font-size: 20px; fill: rgb(51, 51, 51); opacity: 1; font-weight: normal; white-space: pre;">Block size distribution for guacamol_v1_all partition. Isotopes removed: False</text></g><g class="g-xtitle"><text class="xtitle" x="643" y="707.20625" text-anchor="middle" style="font-family: Helvetica; font-size: 14px; fill: rgb(51, 51, 51); opacity: 1; font-weight: normal; white-space: pre;">Block size</text></g><g class="g-ytitle" transform="translate(0.2373046875,0)"><text class="ytitle" transform="rotate(-90,12.762500000000003,357)" x="12.762500000000003" y="357" text-anchor="middle" style="font-family: Helvetica; font-size: 14px; fill: rgb(51, 51, 51); opacity: 1; font-weight: normal; white-space: pre;">Probability density</text></g><g class="annotation" data-index="0" style="opacity: 1;"><g class="annotation-text-g" transform="rotate(0,464.01,621)"><g class="cursor-pointer" transform="translate(428,604)"><rect class="bg" x="0.5" y="0.5" width="72" height="33" style="stroke-width: 1px; stroke: rgb(0, 0, 0); stroke-opacity: 0; fill: rgb(0, 0, 0); fill-opacity: 0;"/><text class="annotation-text" text-anchor="middle" x="36.359375" y="13" style="font-family: Helvetica; font-size: 12px; fill: rgb(51, 51, 51); fill-opacity: 1; white-space: pre;"><tspan class="line" dy="0em" x="36.359375" y="13">25 percentile</tspan><tspan class="line" dy="1.3em" x="36.359375" y="13">37 blocks</tspan></text></g></g><g class="annotation-arrow-g" style="opacity: 1;"><path d="M468.135,637.5L474.01,661" style="stroke-width: 1px; stroke: rgb(42, 63, 95); stroke-opacity: 1; stroke-dasharray: 0px, 0px, 23.6232px, 24.2232px;"/><path d="M-2.4,-3V3L0.6,0Z" transform="translate(473.864501953125,660.4179077148438)rotate(75.95527266754486)" style="fill: rgb(42, 63, 95); stroke-width: 0;"/></g></g><g class="annotation" data-index="1" style="opacity: 1;"><g class="annotation-text-g" transform="rotate(0,555.63,581)"><g class="cursor-pointer" transform="translate(519,564)"><rect class="bg" x="0.5" y="0.5" width="72" height="33" style="stroke-width: 1px; stroke: rgb(0, 0, 0); stroke-opacity: 0; fill: rgb(0, 0, 0); fill-opacity: 0;"/><text class="annotation-text" text-anchor="middle" x="36.359375" y="13" style="font-family: Helvetica; font-size: 12px; fill: rgb(51, 51, 51); fill-opacity: 1; white-space: pre;"><tspan class="line" dy="0em" x="36.359375" y="13">50 percentile</tspan><tspan class="line" dy="1.3em" x="36.359375" y="13">45 blocks</tspan></text></g></g><g class="annotation-arrow-g" style="opacity: 1;"><path d="M557.6925,597.5L565.63,661" style="stroke-width: 1px; stroke: rgb(42, 63, 95); stroke-opacity: 1; stroke-dasharray: 0px, 0px, 63.3942px, 63.9942px;"/><path d="M-2.4,-3V3L0.6,0Z" transform="translate(565.5556030273438,660.4046630859375)rotate(82.88365760145403)" style="fill: rgb(42, 63, 95); stroke-width: 0;"/></g></g><g class="annotation" data-index="2" style="opacity: 1;"><g class="annotation-text-g" transform="rotate(0,670.15,541)"><g class="cursor-pointer" transform="translate(634,524)"><rect class="bg" x="0.5" y="0.5" width="72" height="33" style="stroke-width: 1px; stroke: rgb(0, 0, 0); stroke-opacity: 0; fill: rgb(0, 0, 0); fill-opacity: 0;"/><text class="annotation-text" text-anchor="middle" x="36.359375" y="13" style="font-family: Helvetica; font-size: 12px; fill: rgb(51, 51, 51); fill-opacity: 1; white-space: pre;"><tspan class="line" dy="0em" x="36.359375" y="13">75 percentile</tspan><tspan class="line" dy="1.3em" x="36.359375" y="13">55 blocks</tspan></text></g></g><g class="annotation-arrow-g" style="opacity: 1;"><path d="M671.525,557.5L680.15,661" style="stroke-width: 1px; stroke: rgb(42, 63, 95); stroke-opacity: 1; stroke-dasharray: 0px, 0px, 103.259px, 103.859px;"/><path d="M-2.4,-3V3L0.6,0Z" transform="translate(680.1002197265625,660.402099609375)rotate(85.23926200780738)" style="fill: rgb(42, 63, 95); stroke-width: 0;"/></g></g><g class="annotation" data-index="3" style="opacity: 1;"><g class="annotation-text-g" transform="rotate(0,864.84,501)"><g class="cursor-pointer" transform="translate(828,484)"><rect class="bg" x="0.5" y="0.5" width="72" height="33" style="stroke-width: 1px; stroke: rgb(0, 0, 0); stroke-opacity: 0; fill: rgb(0, 0, 0); fill-opacity: 0;"/><text class="annotation-text" text-anchor="middle" x="36.359375" y="13" style="font-family: Helvetica; font-size: 12px; fill: rgb(51, 51, 51); fill-opacity: 1; white-space: pre;"><tspan class="line" dy="0em" x="36.359375" y="13">95 percentile</tspan><tspan class="line" dy="1.3em" x="36.359375" y="13">72 blocks</tspan></text></g></g><g class="annotation-arrow-g" style="opacity: 1;"><path d="M865.87125,517.5L874.84,661" style="stroke-width: 1px; stroke: rgb(42, 63, 95); stroke-opacity: 1; stroke-dasharray: 0px, 0px, 143.18px, 143.78px;"/><path d="M-2.4,-3V3L0.6,0Z" transform="translate(874.8026123046875,660.4011840820312)rotate(86.43021072201702)" style="fill: rgb(42, 63, 95); stroke-width: 0;"/></g></g><g class="annotation" data-index="4" style="opacity: 1;"><g class="annotation-text-g" transform="rotate(0,1059.53,461)"><g class="cursor-pointer" transform="translate(1023,444)"><rect class="bg" x="0.5" y="0.5" width="72" height="33" style="stroke-width: 1px; stroke: rgb(0, 0, 0); stroke-opacity: 0; fill: rgb(0, 0, 0); fill-opacity: 0;"/><text class="annotation-text" text-anchor="middle" x="36.359375" y="13" style="font-family: Helvetica; font-size: 12px; fill: rgb(51, 51, 51); fill-opacity: 1; white-space: pre;"><tspan class="line" dy="0em" x="36.359375" y="13">99 percentile</tspan><tspan class="line" dy="1.3em" x="36.359375" y="13">89 blocks</tspan></text></g></g><g class="annotation-arrow-g" style="opacity: 1;"><path d="M1060.355,477.5L1069.53,661" style="stroke-width: 1px; stroke: rgb(42, 63, 95); stroke-opacity: 1; stroke-dasharray: 0px, 0px, 183.129px, 183.729px;"/><path d="M-2.4,-3V3L0.6,0Z" transform="translate(1069.5001220703125,660.4007568359375)rotate(87.13060790976667)" style="fill: rgb(42, 63, 95); stroke-width: 0;"/></g></g><g class="annotation" data-index="5" style="opacity: 1;"><g class="annotation-text-g" transform="rotate(0,1174.05,621)"><g class="cursor-pointer" transform="translate(1133,604)"><rect class="bg" x="0.5" y="0.5" width="82" height="33" style="stroke-width: 1px; stroke: rgb(0, 0, 0); stroke-opacity: 0; fill: rgb(0, 0, 0); fill-opacity: 0;"/><text class="annotation-text" text-anchor="middle" x="41.375" y="13" style="font-family: Helvetica; font-size: 12px; fill: rgb(51, 51, 51); fill-opacity: 1; white-space: pre;"><tspan class="line" dy="0em" x="41.375" y="13">99.9 percentile</tspan><tspan class="line" dy="1.3em" x="41.375" y="13">99 blocks</tspan></text></g></g><g class="annotation-arrow-g" style="opacity: 1;"><path d="M1178.175,637.5L1184.05,661" style="stroke-width: 1px; stroke: rgb(42, 63, 95); stroke-opacity: 1; stroke-dasharray: 0px, 0px, 23.6232px, 24.2232px;"/><path d="M-2.4,-3V3L0.6,0Z" transform="translate(1183.904541015625,660.4179077148438)rotate(75.93830682416193)" style="fill: rgb(42, 63, 95); stroke-width: 0;"/></g></g><g class="annotation" data-index="6" style="opacity: 1;"><g class="annotation-text-g" transform="rotate(0,1185.5,581)"><g class="cursor-pointer" transform="translate(1141,564)"><rect class="bg" x="0.5" y="0.5" width="88" height="33" style="stroke-width: 1px; stroke: rgb(0, 0, 0); stroke-opacity: 0; fill: rgb(0, 0, 0); fill-opacity: 0;"/><text class="annotation-text" text-anchor="middle" x="44.703125" y="13" style="font-family: Helvetica; font-size: 12px; fill: rgb(51, 51, 51); fill-opacity: 1; white-space: pre;"><tspan class="line" dy="0em" x="44.703125" y="13">99.99 percentile</tspan><tspan class="line" dy="1.3em" x="44.703125" y="13">100 blocks</tspan></text></g></g><g class="annotation-arrow-g" style="opacity: 1;"><path d="M1187.5625,597.5L1195.5,661" style="stroke-width: 1px; stroke: rgb(42, 63, 95); stroke-opacity: 1; stroke-dasharray: 0px, 0px, 63.3942px, 63.9942px;"/><path d="M-2.4,-3V3L0.6,0Z" transform="translate(1195.425537109375,660.4046630859375)rotate(82.84896377118257)" style="fill: rgb(42, 63, 95); stroke-width: 0;"/></g></g><g class="annotation" data-index="7" style="opacity: 1;"><g class="annotation-text-g" transform="rotate(0,996.5,74.5)"><g class="cursor-pointer" transform="translate(937,50)"><rect class="bg" x="0.5" y="0.5" width="119" height="48" style="stroke-width: 1px; stroke: rgb(0, 0, 0); stroke-opacity: 0; fill: rgb(0, 0, 0); fill-opacity: 0;"/><text class="annotation-text" text-anchor="middle" x="60.046875" y="13" style="font-family: Helvetica; font-size: 12px; fill: rgb(51, 51, 51); fill-opacity: 1; white-space: pre;"><tspan class="line" dy="0em" x="60.046875" y="13">Total smiles: 1591378</tspan><tspan class="line" dy="1.3em" x="60.046875" y="13">Vocab Size: 102</tspan><tspan class="line" dy="2.6em" x="60.046875" y="13">Max Block Size: 100</tspan></text></g></g></g></g></svg>