<svg class="main-svg" xmlns="http://www.w3.org/2000/svg" xmlns:xlink="http://www.w3.org/1999/xlink" width="1280" height="600" style="" viewBox="0 0 1280 600"><rect x="0" y="0" width="1280" height="600" style="fill: rgb(255, 255, 255); fill-opacity: 1;"/><defs id="defs-a66ef0"><g class="clips"><clipPath id="clipa66ef0xyplot" class="plotclip"><rect width="1126" height="448"/></clipPath><clipPath class="axesclip" id="clipa66ef0x"><rect x="104" y="0" width="1126" height="600"/></clipPath><clipPath class="axesclip" id="clipa66ef0y"><rect x="0" y="60" width="1280" height="448"/></clipPath><clipPath class="axesclip" id="clipa66ef0xy"><rect x="104" y="60" width="1126" height="448"/></clipPath></g><g class="gradients"/><g class="patterns"/></defs><g class="bglayer"/><g class="layer-below"><g class="imagelayer"/><g class="shapelayer"/></g><g class="cartesianlayer"><g class="subplot xy"><g class="layer-subplot"><g class="shapelayer"/><g class="imagelayer"/></g><g class="minor-gridlayer"><g class="x"/><g class="y"/></g><g class="gridlayer"><g class="x"/><g class="y"/></g><g class="zerolinelayer"/><path class="xlines-below"/><path class="ylines-below"/><g class="overlines-below"/><g class="xaxislayer-below"/><g class="yaxislayer-below"/><g class="overaxes-below"/><g class="plot" transform="translate(104,60)" clip-path="url(#clipa66ef0xyplot)"><g class="scatterlayer mlayer"><g class="trace scatter traceb580ac" style="stroke-miterlimit: 2;"><g class="fills"><g><path class="js-fill" d="M485.73,448L0,448L0,348.61L4.88,346.26L7.32,346.55L12.2,349.23L14.64,351.19L21.97,356.46L24.41,357.23L29.29,356.16L31.73,354.11L36.61,346.74L39.05,341.48L46.38,320.41L48.82,312.03L80.55,193.62L82.99,184.39L97.63,123.89L100.07,113.23L112.28,64.15L114.72,56.29L119.6,43.7L122.04,39.17L126.92,33.88L129.36,33.12L131.8,33.56L134.25,35.12L139.13,41.21L141.57,45.5L148.89,61.97L151.33,68.32L165.98,110.73L168.42,118.21L229.44,304.83L231.88,311.94L244.08,343.7L246.52,349.06L256.29,366.94L258.73,370.61L268.49,382.95L270.93,385.61L285.58,399.64L288.02,401.72L302.66,412.64L305.1,414.17L319.75,421.88L322.19,422.99L344.16,431.65L346.6,432.37L358.8,434.5L361.24,434.64L388.09,435.34L390.53,435.79L407.62,440.37L410.06,441L422.26,442.87L424.7,442.96L441.79,442.2L444.23,442.08L461.32,442.28L463.76,442.44L485.73,444.44" style="fill: rgb(0, 0, 0); fill-opacity: 0.2; stroke-width: 0;"/></g></g><g class="errorbars"/><g class="lines"><path class="js-line" d="M0,348.61L4.88,346.26L7.32,346.55L12.2,349.23L14.64,351.19L21.97,356.46L24.41,357.23L29.29,356.16L31.73,354.11L36.61,346.74L39.05,341.48L46.38,320.41L48.82,312.03L80.55,193.62L82.99,184.39L97.63,123.89L100.07,113.23L112.28,64.15L114.72,56.29L119.6,43.7L122.04,39.17L126.92,33.88L129.36,33.12L131.8,33.56L134.25,35.12L139.13,41.21L141.57,45.5L148.89,61.97L151.33,68.32L165.98,110.73L168.42,118.21L229.44,304.83L231.88,311.94L244.08,343.7L246.52,349.06L256.29,366.94L258.73,370.61L268.49,382.95L270.93,385.61L285.58,399.64L288.02,401.72L302.66,412.64L305.1,414.17L319.75,421.88L322.19,422.99L344.16,431.65L346.6,432.37L358.8,434.5L361.24,434.64L388.09,435.34L390.53,435.79L407.62,440.37L410.06,441L422.26,442.87L424.7,442.96L441.79,442.2L444.23,442.08L461.32,442.28L463.76,442.44L485.73,444.44" style="vector-effect: none; fill: none; stroke: rgb(0, 0, 0); stroke-opacity: 0.8; stroke-width: 4px; opacity: 1;"/></g><g class="points"/><g class="text"/></g><g class="trace scatter trace5700f4" style="stroke-miterlimit: 2;"><g class="fills"><g><path class="js-fill" d="M588.76,448L0,448L0,334.57L5.92,331.88L8.88,332.07L14.79,334.8L17.75,336.94L29.59,345.38L32.54,346.4L38.46,346.08L41.42,344.56L47.34,338.67L50.3,334.34L56.21,323.21L59.17,316.57L71.01,285.05L73.96,276.43L94.67,217.34L97.63,209.87L109.47,183.98L112.43,178.6L121.3,165.17L124.26,161.6L133.14,153.54L136.09,151.71L142.01,149.25L144.97,148.6L150.89,148.36L153.85,148.75L162.72,151.79L165.68,153.43L174.56,160.17L177.52,163.05L186.39,173.55L189.35,177.65L201.18,196.77L204.14,202.15L218.94,231.7L221.89,237.99L254.44,306.55L257.4,312.18L272.19,338.03L275.15,342.69L286.98,359.42L289.94,363.07L301.78,375.39L304.73,377.94L316.57,386.47L319.53,388.31L352.07,406.79L355.03,408.29L369.82,414.29L372.78,415.17L390.53,419.01L393.49,419.57L417.16,425.22L420.12,426.08L461.54,437.71L464.5,438.33L485.21,441.61L488.17,441.95L523.67,444.85L526.63,445.03L559.17,445.9L562.13,445.89L588.76,446.15" style="fill: rgb(0, 106, 113); fill-opacity: 0.2; stroke-width: 0;"/></g></g><g class="errorbars"/><g class="lines"><path class="js-line" d="M0,334.57L5.92,331.88L8.88,332.07L14.79,334.8L17.75,336.94L29.59,345.38L32.54,346.4L38.46,346.08L41.42,344.56L47.34,338.67L50.3,334.34L56.21,323.21L59.17,316.57L71.01,285.05L73.96,276.43L94.67,217.34L97.63,209.87L109.47,183.98L112.43,178.6L121.3,165.17L124.26,161.6L133.14,153.54L136.09,151.71L142.01,149.25L144.97,148.6L150.89,148.36L153.85,148.75L162.72,151.79L165.68,153.43L174.56,160.17L177.52,163.05L186.39,173.55L189.35,177.65L201.18,196.77L204.14,202.15L218.94,231.7L221.89,237.99L254.44,306.55L257.4,312.18L272.19,338.03L275.15,342.69L286.98,359.42L289.94,363.07L301.78,375.39L304.73,377.94L316.57,386.47L319.53,388.31L352.07,406.79L355.03,408.29L369.82,414.29L372.78,415.17L390.53,419.01L393.49,419.57L417.16,425.22L420.12,426.08L461.54,437.71L464.5,438.33L485.21,441.61L488.17,441.95L523.67,444.85L526.63,445.03L559.17,445.9L562.13,445.89L588.76,446.15" style="vector-effect: none; fill: none; stroke: rgb(0, 106, 113); stroke-opacity: 0.8; stroke-width: 4px; opacity: 1;"/></g><g class="points"/><g class="text"/></g><g class="trace scatter tracea574b3" style="stroke-miterlimit: 2;"><g class="fills"><g><path class="js-fill" d="M1126,448L0,448L0,365.17L5.66,362.36L11.32,360.86L33.95,358.52L39.61,356.11L45.27,352.11L50.92,346.37L62.24,329.83L67.9,319.45L84.87,283.86L90.53,271.73L107.51,238.87L113.17,229.83L124.48,215.51L130.14,210.38L135.8,206.65L141.46,204.3L147.12,203.29L152.77,203.53L164.09,207.25L169.75,210.4L186.72,222.65L192.38,227.1L220.67,248.23L226.33,252.21L254.62,273.13L260.28,277.92L277.26,294.68L282.91,301.17L305.55,330.28L311.21,337.68L328.18,357.77L333.84,363.4L345.16,372.84L350.81,376.72L367.79,385.98L373.45,388.6L418.71,407.87L424.37,409.88L447.01,416.19L452.66,417.45L486.61,425.32L492.27,426.89L526.22,435.87L531.88,436.98L554.51,440.17L560.17,440.74L622.41,445.56L628.07,445.83L678.99,446.92L684.65,446.98L758.21,446.66L763.87,446.65L837.43,447.75L843.09,447.82L973.23,448L978.88,448L1126,447.14" style="fill: rgb(232, 93, 4); fill-opacity: 0.2; stroke-width: 0;"/></g></g><g class="errorbars"/><g class="lines"><path class="js-line" d="M0,365.17L5.66,362.36L11.32,360.86L33.95,358.52L39.61,356.11L45.27,352.11L50.92,346.37L62.24,329.83L67.9,319.45L84.87,283.86L90.53,271.73L107.51,238.87L113.17,229.83L124.48,215.51L130.14,210.38L135.8,206.65L141.46,204.3L147.12,203.29L152.77,203.53L164.09,207.25L169.75,210.4L186.72,222.65L192.38,227.1L220.67,248.23L226.33,252.21L254.62,273.13L260.28,277.92L277.26,294.68L282.91,301.17L305.55,330.28L311.21,337.68L328.18,357.77L333.84,363.4L345.16,372.84L350.81,376.72L367.79,385.98L373.45,388.6L418.71,407.87L424.37,409.88L447.01,416.19L452.66,417.45L486.61,425.32L492.27,426.89L526.22,435.87L531.88,436.98L554.51,440.17L560.17,440.74L622.41,445.56L628.07,445.83L678.99,446.92L684.65,446.98L758.21,446.66L763.87,446.65L837.43,447.75L843.09,447.82L973.23,448L978.88,448L1126,447.14" style="vector-effect: none; fill: none; stroke: rgb(232, 93, 4); stroke-opacity: 0.8; stroke-width: 4px; opacity: 1;"/></g><g class="points"/><g class="text"/></g><g class="trace scatter trace26e393" style="stroke-miterlimit: 2;"><g class="fills"><g><path class="js-fill" d="M780.1,448L0,448L0,374.77L7.84,373.29L11.76,373.88L27.44,378.18L31.36,378.03L35.28,376.84L39.2,374.44L47.04,365.69L50.96,359.37L58.8,343.26L62.72,333.71L74.48,300.79L78.4,288.86L105.84,206.54L109.76,196.47L121.52,170.58L125.44,163.44L133.28,151.37L137.2,146.39L145.04,138.51L148.96,135.63L156.8,132.13L160.73,131.6L168.57,133.25L172.49,135.49L180.33,142.9L184.25,148.02L192.09,160.77L196.01,168.21L211.69,202.36L215.61,211.38L239.13,263.17L243.05,271.03L258.73,299.83L262.65,306.34L278.33,329.51L282.25,334.63L297.93,353.15L301.85,357.43L325.37,381.15L329.29,384.75L344.97,397.63L348.89,400.4L360.65,407.47L364.57,409.37L376.33,413.78L380.25,414.86L403.77,419.63L407.69,420.43L450.81,429.06L454.73,429.53L482.18,433.67L486.1,434.46L513.54,439.3L517.46,439.73L588.02,445.5L591.94,445.71L658.58,447.81L662.5,447.86L740.9,447.67L744.82,447.59L780.1,446.96" style="fill: rgb(123, 44, 191); fill-opacity: 0.2; stroke-width: 0;"/></g></g><g class="errorbars"/><g class="lines"><path class="js-line" d="M0,374.77L7.84,373.29L11.76,373.88L27.44,378.18L31.36,378.03L35.28,376.84L39.2,374.44L47.04,365.69L50.96,359.37L58.8,343.26L62.72,333.71L74.48,300.79L78.4,288.86L105.84,206.54L109.76,196.47L121.52,170.58L125.44,163.44L133.28,151.37L137.2,146.39L145.04,138.51L148.96,135.63L156.8,132.13L160.73,131.6L168.57,133.25L172.49,135.49L180.33,142.9L184.25,148.02L192.09,160.77L196.01,168.21L211.69,202.36L215.61,211.38L239.13,263.17L243.05,271.03L258.73,299.83L262.65,306.34L278.33,329.51L282.25,334.63L297.93,353.15L301.85,357.43L325.37,381.15L329.29,384.75L344.97,397.63L348.89,400.4L360.65,407.47L364.57,409.37L376.33,413.78L380.25,414.86L403.77,419.63L407.69,420.43L450.81,429.06L454.73,429.53L482.18,433.67L486.1,434.46L513.54,439.3L517.46,439.73L588.02,445.5L591.94,445.71L658.58,447.81L662.5,447.86L740.9,447.67L744.82,447.59L780.1,446.96" style="vector-effect: none; fill: none; stroke: rgb(123, 44, 191); stroke-opacity: 0.8; stroke-width: 4px; opacity: 1;"/></g><g class="points"/><g class="text"/></g></g></g><g class="overplot"/><path class="xlines-above crisp" d="M103,508.5H1230" style="fill: none; stroke-width: 1px; stroke: rgb(0, 0, 0); stroke-opacity: 1;"/><path class="ylines-above crisp" d="M103.5,60V508" style="fill: none; stroke-width: 1px; stroke: rgb(0, 0, 0); stroke-opacity: 1;"/><g class="overlines-above"/><g class="xaxislayer-above"><path class="xtick ticks crisp" d="M0,509v10" transform="translate(104,0)" style="stroke: rgb(68, 68, 68); stroke-opacity: 1; stroke-width: 2px;"/><path class="xtick ticks crisp" d="M0,509v10" transform="translate(251.19,0)" style="stroke: rgb(68, 68, 68); stroke-opacity: 1; stroke-width: 2px;"/><path class="xtick ticks crisp" d="M0,509v10" transform="translate(398.38,0)" style="stroke: rgb(68, 68, 68); stroke-opacity: 1; stroke-width: 2px;"/><path class="xtick ticks crisp" d="M0,509v10" transform="translate(545.5699999999999,0)" style="stroke: rgb(68, 68, 68); stroke-opacity: 1; stroke-width: 2px;"/><path class="xtick ticks crisp" d="M0,509v10" transform="translate(692.76,0)" style="stroke: rgb(68, 68, 68); stroke-opacity: 1; stroke-width: 2px;"/><path class="xtick ticks crisp" d="M0,509v10" transform="translate(839.95,0)" style="stroke: rgb(68, 68, 68); stroke-opacity: 1; stroke-width: 2px;"/><path class="xtick ticks crisp" d="M0,509v10" transform="translate(987.14,0)" style="stroke: rgb(68, 68, 68); stroke-opacity: 1; stroke-width: 2px;"/><path class="xtick ticks crisp" d="M0,509v10" transform="translate(1134.33,0)" style="stroke: rgb(68, 68, 68); stroke-opacity: 1; stroke-width: 2px;"/><g class="xtick"><text text-anchor="middle" x="0" y="547.8" transform="translate(104,0)" style="font-family: Helvetica; font-size: 24px; fill: rgb(51, 51, 51); fill-opacity: 1; white-space: pre; opacity: 1;">0</text></g><g class="xtick"><text text-anchor="middle" x="0" y="547.8" style="font-family: Helvetica; font-size: 24px; fill: rgb(51, 51, 51); fill-opacity: 1; white-space: pre; opacity: 1;" transform="translate(251.19,0)">10</text></g><g class="xtick"><text text-anchor="middle" x="0" y="547.8" style="font-family: Helvetica; font-size: 24px; fill: rgb(51, 51, 51); fill-opacity: 1; white-space: pre; opacity: 1;" transform="translate(398.38,0)">20</text></g><g class="xtick"><text text-anchor="middle" x="0" y="547.8" style="font-family: Helvetica; font-size: 24px; fill: rgb(51, 51, 51); fill-opacity: 1; white-space: pre; opacity: 1;" transform="translate(545.5699999999999,0)">30</text></g><g class="xtick"><text text-anchor="middle" x="0" y="547.8" style="font-family: Helvetica; font-size: 24px; fill: rgb(51, 51, 51); fill-opacity: 1; white-space: pre; opacity: 1;" transform="translate(692.76,0)">40</text></g><g class="xtick"><text text-anchor="middle" x="0" y="547.8" style="font-family: Helvetica; font-size: 24px; fill: rgb(51, 51, 51); fill-opacity: 1; white-space: pre; opacity: 1;" transform="translate(839.95,0)">50</text></g><g class="xtick"><text text-anchor="middle" x="0" y="547.8" style="font-family: Helvetica; font-size: 24px; fill: rgb(51, 51, 51); fill-opacity: 1; white-space: pre; opacity: 1;" transform="translate(987.14,0)">60</text></g><g class="xtick"><text text-anchor="middle" x="0" y="547.8" style="font-family: Helvetica; font-size: 24px; fill: rgb(51, 51, 51); fill-opacity: 1; white-space: pre; opacity: 1;" transform="translate(1134.33,0)">70</text></g></g><g class="yaxislayer-above"><path class="ytick ticks crisp" d="M103,0h-10" transform="translate(0,508)" style="stroke: rgb(68, 68, 68); stroke-opacity: 1; stroke-width: 2px;"/><path class="ytick ticks crisp" d="M103,0h-10" transform="translate(0,462.12)" style="stroke: rgb(68, 68, 68); stroke-opacity: 1; stroke-width: 2px;"/><path class="ytick ticks crisp" d="M103,0h-10" transform="translate(0,416.24)" style="stroke: rgb(68, 68, 68); stroke-opacity: 1; stroke-width: 2px;"/><path class="ytick ticks crisp" d="M103,0h-10" transform="translate(0,370.37)" style="stroke: rgb(68, 68, 68); stroke-opacity: 1; stroke-width: 2px;"/><path class="ytick ticks crisp" d="M103,0h-10" transform="translate(0,324.49)" style="stroke: rgb(68, 68, 68); stroke-opacity: 1; stroke-width: 2px;"/><path class="ytick ticks crisp" d="M103,0h-10" transform="translate(0,278.61)" style="stroke: rgb(68, 68, 68); stroke-opacity: 1; stroke-width: 2px;"/><path class="ytick ticks crisp" d="M103,0h-10" transform="translate(0,232.73)" style="stroke: rgb(68, 68, 68); stroke-opacity: 1; stroke-width: 2px;"/><path class="ytick ticks crisp" d="M103,0h-10" transform="translate(0,186.85)" style="stroke: rgb(68, 68, 68); stroke-opacity: 1; stroke-width: 2px;"/><path class="ytick ticks crisp" d="M103,0h-10" transform="translate(0,140.97)" style="stroke: rgb(68, 68, 68); stroke-opacity: 1; stroke-width: 2px;"/><path class="ytick ticks crisp" d="M103,0h-10" transform="translate(0,95.1)" style="stroke: rgb(68, 68, 68); stroke-opacity: 1; stroke-width: 2px;"/><g class="ytick"><text text-anchor="end" x="88.2" y="8.399999999999999" transform="translate(0,508)" style="font-family: Helvetica; font-size: 24px; fill: rgb(51, 51, 51); fill-opacity: 1; white-space: pre; opacity: 1;">0</text></g><g class="ytick"><text text-anchor="end" x="88.2" y="8.399999999999999" style="font-family: Helvetica; font-size: 24px; fill: rgb(51, 51, 51); fill-opacity: 1; white-space: pre; opacity: 1;" transform="translate(0,462.12)">0.01</text></g><g class="ytick"><text text-anchor="end" x="88.2" y="8.399999999999999" style="font-family: Helvetica; font-size: 24px; fill: rgb(51, 51, 51); fill-opacity: 1; white-space: pre; opacity: 1;" transform="translate(0,416.24)">0.02</text></g><g class="ytick"><text text-anchor="end" x="88.2" y="8.399999999999999" style="font-family: Helvetica; font-size: 24px; fill: rgb(51, 51, 51); fill-opacity: 1; white-space: pre; opacity: 1;" transform="translate(0,370.37)">0.03</text></g><g class="ytick"><text text-anchor="end" x="88.2" y="8.399999999999999" style="font-family: Helvetica; font-size: 24px; fill: rgb(51, 51, 51); fill-opacity: 1; white-space: pre; opacity: 1;" transform="translate(0,324.49)">0.04</text></g><g class="ytick"><text text-anchor="end" x="88.2" y="8.399999999999999" style="font-family: Helvetica; font-size: 24px; fill: rgb(51, 51, 51); fill-opacity: 1; white-space: pre; opacity: 1;" transform="translate(0,278.61)">0.05</text></g><g class="ytick"><text text-anchor="end" x="88.2" y="8.399999999999999" style="font-family: Helvetica; font-size: 24px; fill: rgb(51, 51, 51); fill-opacity: 1; white-space: pre; opacity: 1;" transform="translate(0,232.73)">0.06</text></g><g class="ytick"><text text-anchor="end" x="88.2" y="8.399999999999999" style="font-family: Helvetica; font-size: 24px; fill: rgb(51, 51, 51); fill-opacity: 1; white-space: pre; opacity: 1;" transform="translate(0,186.85)">0.07</text></g><g class="ytick"><text text-anchor="end" x="88.2" y="8.399999999999999" style="font-family: Helvetica; font-size: 24px; fill: rgb(51, 51, 51); fill-opacity: 1; white-space: pre; opacity: 1;" transform="translate(0,140.97)">0.08</text></g><g class="ytick"><text text-anchor="end" x="88.2" y="8.399999999999999" style="font-family: Helvetica; font-size: 24px; fill: rgb(51, 51, 51); fill-opacity: 1; white-space: pre; opacity: 1;" transform="translate(0,95.1)">0.09</text></g></g><g class="overaxes-above"/></g></g><g class="polarlayer"/><g class="smithlayer"/><g class="ternarylayer"/><g class="geolayer"/><g class="funnelarealayer"/><g class="pielayer"/><g class="iciclelayer"/><g class="treemaplayer"/><g class="sunburstlayer"/><g class="glimages"/><defs id="topdefs-a66ef0"><g class="clips"/><clipPath id="legenda66ef0"><rect width="129" height="189" x="0" y="0"/></clipPath></defs><g class="layer-above"><g class="imagelayer"/><g class="shapelayer"><g class="shape-group" data-index="0" clip-path="url(#clipa66ef0x)"><path data-index="0" fill-rule="evenodd" d="M265.90999999999997,508L265.90999999999997,60" style="opacity: 1; stroke: rgb(0, 0, 0); stroke-opacity: 0.6; fill: rgb(0, 0, 0); fill-opacity: 0; stroke-dasharray: 12px, 12px; stroke-width: 4px;"/></g></g></g><g class="infolayer"><g class="legend" pointer-events="all" transform="translate(1117.4,167.09999999999997)"><rect class="bg" shape-rendering="crispEdges" width="129" height="189" x="0" y="0" style="stroke: rgb(68, 68, 68); stroke-opacity: 1; fill: rgb(255, 255, 255); fill-opacity: 1; stroke-width: 0px;"/><g class="scrollbox" transform="" clip-path="url(#legenda66ef0)"><g class="groups"><g class="traces" transform="translate(0,27.3)" style="opacity: 1;"><text class="legendtext" text-anchor="start" x="40" y="12.48" style="font-family: Helvetica; font-size: 32px; fill: rgb(51, 51, 51); fill-opacity: 1; white-space: pre;">PT</text><g class="layers"><g class="legendfill"><path class="js-fill" d="M5,-2h30v6h-30z" style="stroke-width: 0; fill: rgb(0, 0, 0); fill-opacity: 0.2;"/></g><g class="legendlines"><path class="js-line" d="M5,-2h30" style="fill: none; stroke: rgb(0, 0, 0); stroke-opacity: 0.8; stroke-width: 4px;"/></g><g class="legendsymbols"><g class="legendpoints"/></g></g><rect class="legendtoggle" x="0" y="-22.3" width="123.625" height="44.6" style="fill: rgb(0, 0, 0); fill-opacity: 0;"/></g><g class="traces" transform="translate(0,71.9)" style="opacity: 1;"><text class="legendtext" text-anchor="start" x="40" y="12.48" style="font-family: Helvetica; font-size: 32px; fill: rgb(51, 51, 51); fill-opacity: 1; white-space: pre;">AL #1</text><g class="layers"><g class="legendfill"><path class="js-fill" d="M5,-2h30v6h-30z" style="stroke-width: 0; fill: rgb(0, 106, 113); fill-opacity: 0.2;"/></g><g class="legendlines"><path class="js-line" d="M5,-2h30" style="fill: none; stroke: rgb(0, 106, 113); stroke-opacity: 0.8; stroke-width: 4px;"/></g><g class="legendsymbols"><g class="legendpoints"/></g></g><rect class="legendtoggle" x="0" y="-22.3" width="123.625" height="44.6" style="fill: rgb(0, 0, 0); fill-opacity: 0;"/></g><g class="traces" transform="translate(0,116.5)" style="opacity: 1;"><text class="legendtext" text-anchor="start" x="40" y="12.48" style="font-family: Helvetica; font-size: 32px; fill: rgb(51, 51, 51); fill-opacity: 1; white-space: pre;">AL #2</text><g class="layers"><g class="legendfill"><path class="js-fill" d="M5,-2h30v6h-30z" style="stroke-width: 0; fill: rgb(232, 93, 4); fill-opacity: 0.2;"/></g><g class="legendlines"><path class="js-line" d="M5,-2h30" style="fill: none; stroke: rgb(232, 93, 4); stroke-opacity: 0.8; stroke-width: 4px;"/></g><g class="legendsymbols"><g class="legendpoints"/></g></g><rect class="legendtoggle" x="0" y="-22.3" width="123.625" height="44.6" style="fill: rgb(0, 0, 0); fill-opacity: 0;"/></g><g class="traces" transform="translate(0,161.10000000000002)" style="opacity: 1;"><text class="legendtext" text-anchor="start" x="40" y="12.48" style="font-family: Helvetica; font-size: 32px; fill: rgb(51, 51, 51); fill-opacity: 1; white-space: pre;">AL #3</text><g class="layers"><g class="legendfill"><path class="js-fill" d="M5,-2h30v6h-30z" style="stroke-width: 0; fill: rgb(123, 44, 191); fill-opacity: 0.2;"/></g><g class="legendlines"><path class="js-line" d="M5,-2h30" style="fill: none; stroke: rgb(123, 44, 191); stroke-opacity: 0.8; stroke-width: 4px;"/></g><g class="legendsymbols"><g class="legendpoints"/></g></g><rect class="legendtoggle" x="0" y="-22.3" width="123.625" height="44.6" style="fill: rgb(0, 0, 0); fill-opacity: 0;"/></g></g></g><rect class="scrollbar" rx="20" ry="3" width="0" height="0" x="0" y="0" style="fill: rgb(128, 139, 164); fill-opacity: 1;"/></g><g class="g-gtitle"><text class="gtitle" x="640" y="18" text-anchor="middle" dy="0.7em" style="font-family: Helvetica; font-size: 36px; fill: rgb(51, 51, 51); opacity: 1; font-weight: normal; white-space: pre;"><tspan style="font-weight:bold">196 descriptor-based space, 10 clusters, softsub selection</tspan></text></g><g class="g-xtitle"><text class="xtitle" x="667" y="587.9125" text-anchor="middle" style="font-family: Helvetica; font-size: 28px; fill: rgb(51, 51, 51); opacity: 1; font-weight: normal; white-space: pre;">Attractive Interaction Score</text></g><g class="g-ytitle" transform="translate(13.615234375,0)"><text class="ytitle" transform="rotate(-90,12.384375000000006,284)" x="12.384375000000006" y="284" text-anchor="middle" style="font-family: Helvetica; font-size: 28px; fill: rgb(51, 51, 51); opacity: 1; font-weight: normal; white-space: pre;">Relative Frequency</text></g><g class="annotation" data-index="0" style="opacity: 1;"><g class="annotation-text-g" transform="rotate(0,368.94,133.59999999999997)"><g class="cursor-pointer" transform="translate(289,118)"><rect class="bg" x="0.5" y="0.5" width="159" height="31" style="stroke-width: 1px; stroke: rgb(0, 0, 0); stroke-opacity: 0; fill: rgb(0, 0, 0); fill-opacity: 0;"/><text class="annotation-text" text-anchor="middle" x="80.03125" y="24" style="font-family: Helvetica; font-size: 24px; fill: rgb(0, 0, 0); fill-opacity: 0.6; white-space: pre;"><tspan style="font-weight:bold">Threshold: 11</tspan></text></g></g></g></g></svg>