<svg class="main-svg" xmlns="http://www.w3.org/2000/svg" xmlns:xlink="http://www.w3.org/1999/xlink" width="1280" height="600" style="" viewBox="0 0 1280 600"><rect x="0" y="0" width="1280" height="600" style="fill: rgb(255, 255, 255); fill-opacity: 1;"/><defs id="defs-c6cc19"><g class="clips"><clipPath id="clipc6cc19xyplot" class="plotclip"><rect width="1001" height="495"/></clipPath><clipPath class="axesclip" id="clipc6cc19x"><rect x="50" y="0" width="1001" height="600"/></clipPath><clipPath class="axesclip" id="clipc6cc19y"><rect x="0" y="50" width="1280" height="495"/></clipPath><clipPath class="axesclip" id="clipc6cc19xy"><rect x="50" y="50" width="1001" height="495"/></clipPath></g><g class="gradients"/><g class="patterns"/></defs><g class="bglayer"/><g class="layer-below"><g class="imagelayer"/><g class="shapelayer"/></g><g class="cartesianlayer"><g class="subplot xy"><g class="layer-subplot"><g class="shapelayer"/><g class="imagelayer"/></g><g class="minor-gridlayer"><g class="x"/><g class="y"/></g><g class="gridlayer"><g class="x"/><g class="y"/></g><g class="zerolinelayer"/><path class="xlines-below"/><path class="ylines-below"/><g class="overlines-below"/><g class="xaxislayer-below"/><g class="yaxislayer-below"/><g class="overaxes-below"/><g class="plot" transform="translate(50,50)" clip-path="url(#clipc6cc19xyplot)"><g class="barlayer mlayer"><g class="trace bars" style="opacity: 0.6;"><g class="points"><g class="point"><path d="M2.58,495V322.65H23.25V495Z" style="vector-effect: none; opacity: 1; stroke-width: 0.5px; fill: rgb(46, 46, 46); fill-opacity: 1; stroke: rgb(229, 236, 246); stroke-opacity: 1;"/></g><g class="point"><path d="M28.42,495V411.36H49.08V495Z" style="vector-effect: none; opacity: 1; stroke-width: 0.5px; fill: rgb(46, 46, 46); fill-opacity: 1; stroke: rgb(229, 236, 246); stroke-opacity: 1;"/></g><g class="point"><path d="M54.25,495V218.73H74.91V495Z" style="vector-effect: none; opacity: 1; stroke-width: 0.5px; fill: rgb(46, 46, 46); fill-opacity: 1; stroke: rgb(229, 236, 246); stroke-opacity: 1;"/></g><g class="point"><path d="M80.08,495V152.83H100.75V495Z" style="vector-effect: none; opacity: 1; stroke-width: 0.5px; fill: rgb(46, 46, 46); fill-opacity: 1; stroke: rgb(229, 236, 246); stroke-opacity: 1;"/></g><g class="point"><path d="M105.91,495V23.57H126.58V495Z" style="vector-effect: none; opacity: 1; stroke-width: 0.5px; fill: rgb(46, 46, 46); fill-opacity: 1; stroke: rgb(229, 236, 246); stroke-opacity: 1;"/></g><g class="point"><path d="M131.74,495V46.38H152.41V495Z" style="vector-effect: none; opacity: 1; stroke-width: 0.5px; fill: rgb(46, 46, 46); fill-opacity: 1; stroke: rgb(229, 236, 246); stroke-opacity: 1;"/></g><g class="point"><path d="M157.58,495V208.59H178.24V495Z" style="vector-effect: none; opacity: 1; stroke-width: 0.5px; fill: rgb(46, 46, 46); fill-opacity: 1; stroke: rgb(229, 236, 246); stroke-opacity: 1;"/></g><g class="point"><path d="M183.41,495V302.37H204.07V495Z" style="vector-effect: none; opacity: 1; stroke-width: 0.5px; fill: rgb(46, 46, 46); fill-opacity: 1; stroke: rgb(229, 236, 246); stroke-opacity: 1;"/></g><g class="point"><path d="M209.24,495V398.69H229.91V495Z" style="vector-effect: none; opacity: 1; stroke-width: 0.5px; fill: rgb(46, 46, 46); fill-opacity: 1; stroke: rgb(229, 236, 246); stroke-opacity: 1;"/></g><g class="point"><path d="M235.07,495V429.1H255.74V495Z" style="vector-effect: none; opacity: 1; stroke-width: 0.5px; fill: rgb(46, 46, 46); fill-opacity: 1; stroke: rgb(229, 236, 246); stroke-opacity: 1;"/></g><g class="point"><path d="M260.91,495V462.05H281.57V495Z" style="vector-effect: none; opacity: 1; stroke-width: 0.5px; fill: rgb(46, 46, 46); fill-opacity: 1; stroke: rgb(229, 236, 246); stroke-opacity: 1;"/></g><g class="point"><path d="M286.74,495V472.19H307.4V495Z" style="vector-effect: none; opacity: 1; stroke-width: 0.5px; fill: rgb(46, 46, 46); fill-opacity: 1; stroke: rgb(229, 236, 246); stroke-opacity: 1;"/></g><g class="point"><path d="M312.57,495V484.86H333.24V495Z" style="vector-effect: none; opacity: 1; stroke-width: 0.5px; fill: rgb(46, 46, 46); fill-opacity: 1; stroke: rgb(229, 236, 246); stroke-opacity: 1;"/></g><g class="point"><path d="M338.4,495V477.26H359.07V495Z" style="vector-effect: none; opacity: 1; stroke-width: 0.5px; fill: rgb(46, 46, 46); fill-opacity: 1; stroke: rgb(229, 236, 246); stroke-opacity: 1;"/></g><g class="point"><path d="M364.23,495V495H384.9V495Z" style="vector-effect: none; opacity: 1; stroke-width: 0.5px; fill: rgb(46, 46, 46); fill-opacity: 1; stroke: rgb(229, 236, 246); stroke-opacity: 1;"/></g><g class="point"><path d="M390.07,495V484.86H410.73V495Z" style="vector-effect: none; opacity: 1; stroke-width: 0.5px; fill: rgb(46, 46, 46); fill-opacity: 1; stroke: rgb(229, 236, 246); stroke-opacity: 1;"/></g><g class="point"><path d="M415.9,495V489.93H436.57V495Z" style="vector-effect: none; opacity: 1; stroke-width: 0.5px; fill: rgb(46, 46, 46); fill-opacity: 1; stroke: rgb(229, 236, 246); stroke-opacity: 1;"/></g></g></g><g class="trace bars" style="opacity: 0.6;"><g class="points"><g class="point"><path d="M2.58,495V251.68H23.25V495Z" style="vector-effect: none; opacity: 1; stroke-width: 0.5px; fill: rgb(72, 202, 228); fill-opacity: 1; stroke: rgb(229, 236, 246); stroke-opacity: 1;"/></g><g class="point"><path d="M28.42,495V431.64H49.08V495Z" style="vector-effect: none; opacity: 1; stroke-width: 0.5px; fill: rgb(72, 202, 228); fill-opacity: 1; stroke: rgb(229, 236, 246); stroke-opacity: 1;"/></g><g class="point"><path d="M54.25,495V317.58H74.91V495Z" style="vector-effect: none; opacity: 1; stroke-width: 0.5px; fill: rgb(72, 202, 228); fill-opacity: 1; stroke: rgb(229, 236, 246); stroke-opacity: 1;"/></g><g class="point"><path d="M80.08,495V185.78H100.75V495Z" style="vector-effect: none; opacity: 1; stroke-width: 0.5px; fill: rgb(72, 202, 228); fill-opacity: 1; stroke: rgb(229, 236, 246); stroke-opacity: 1;"/></g><g class="point"><path d="M105.91,495V183.25H126.58V495Z" style="vector-effect: none; opacity: 1; stroke-width: 0.5px; fill: rgb(72, 202, 228); fill-opacity: 1; stroke: rgb(229, 236, 246); stroke-opacity: 1;"/></g><g class="point"><path d="M131.74,495V145.23H152.41V495Z" style="vector-effect: none; opacity: 1; stroke-width: 0.5px; fill: rgb(72, 202, 228); fill-opacity: 1; stroke: rgb(229, 236, 246); stroke-opacity: 1;"/></g><g class="point"><path d="M157.58,495V180.71H178.24V495Z" style="vector-effect: none; opacity: 1; stroke-width: 0.5px; fill: rgb(72, 202, 228); fill-opacity: 1; stroke: rgb(229, 236, 246); stroke-opacity: 1;"/></g><g class="point"><path d="M183.41,495V256.75H204.07V495Z" style="vector-effect: none; opacity: 1; stroke-width: 0.5px; fill: rgb(72, 202, 228); fill-opacity: 1; stroke: rgb(229, 236, 246); stroke-opacity: 1;"/></g><g class="point"><path d="M209.24,495V335.32H229.91V495Z" style="vector-effect: none; opacity: 1; stroke-width: 0.5px; fill: rgb(72, 202, 228); fill-opacity: 1; stroke: rgb(229, 236, 246); stroke-opacity: 1;"/></g><g class="point"><path d="M235.07,495V370.81H255.74V495Z" style="vector-effect: none; opacity: 1; stroke-width: 0.5px; fill: rgb(72, 202, 228); fill-opacity: 1; stroke: rgb(229, 236, 246); stroke-opacity: 1;"/></g><g class="point"><path d="M260.91,495V426.57H281.57V495Z" style="vector-effect: none; opacity: 1; stroke-width: 0.5px; fill: rgb(72, 202, 228); fill-opacity: 1; stroke: rgb(229, 236, 246); stroke-opacity: 1;"/></g><g class="point"><path d="M286.74,495V436.71H307.4V495Z" style="vector-effect: none; opacity: 1; stroke-width: 0.5px; fill: rgb(72, 202, 228); fill-opacity: 1; stroke: rgb(229, 236, 246); stroke-opacity: 1;"/></g><g class="point"><path d="M312.57,495V472.19H333.24V495Z" style="vector-effect: none; opacity: 1; stroke-width: 0.5px; fill: rgb(72, 202, 228); fill-opacity: 1; stroke: rgb(229, 236, 246); stroke-opacity: 1;"/></g><g class="point"><path d="M338.4,495V449.38H359.07V495Z" style="vector-effect: none; opacity: 1; stroke-width: 0.5px; fill: rgb(72, 202, 228); fill-opacity: 1; stroke: rgb(229, 236, 246); stroke-opacity: 1;"/></g><g class="point"><path d="M364.23,495V474.72H384.9V495Z" style="vector-effect: none; opacity: 1; stroke-width: 0.5px; fill: rgb(72, 202, 228); fill-opacity: 1; stroke: rgb(229, 236, 246); stroke-opacity: 1;"/></g><g class="point"><path d="M390.07,495V484.86H410.73V495Z" style="vector-effect: none; opacity: 1; stroke-width: 0.5px; fill: rgb(72, 202, 228); fill-opacity: 1; stroke: rgb(229, 236, 246); stroke-opacity: 1;"/></g><g class="point"><path d="M415.9,495V487.4H436.57V495Z" style="vector-effect: none; opacity: 1; stroke-width: 0.5px; fill: rgb(72, 202, 228); fill-opacity: 1; stroke: rgb(229, 236, 246); stroke-opacity: 1;"/></g><g class="point"><path d="M441.73,495V489.93H462.4V495Z" style="vector-effect: none; opacity: 1; stroke-width: 0.5px; fill: rgb(72, 202, 228); fill-opacity: 1; stroke: rgb(229, 236, 246); stroke-opacity: 1;"/></g><g class="point"><path d="M467.56,495V495H488.23V495Z" style="vector-effect: none; opacity: 1; stroke-width: 0.5px; fill: rgb(72, 202, 228); fill-opacity: 1; stroke: rgb(229, 236, 246); stroke-opacity: 1;"/></g><g class="point"><path d="M493.4,495V489.93H514.06V495Z" style="vector-effect: none; opacity: 1; stroke-width: 0.5px; fill: rgb(72, 202, 228); fill-opacity: 1; stroke: rgb(229, 236, 246); stroke-opacity: 1;"/></g></g></g><g class="trace bars" style="opacity: 0.6;"><g class="points"><g class="point"><path d="M2.58,495V281.88H23.25V495Z" style="vector-effect: none; opacity: 1; stroke-width: 0.5px; fill: rgb(250, 163, 7); fill-opacity: 1; stroke: rgb(229, 236, 246); stroke-opacity: 1;"/></g><g class="point"><path d="M28.42,495V456.94H49.08V495Z" style="vector-effect: none; opacity: 1; stroke-width: 0.5px; fill: rgb(250, 163, 7); fill-opacity: 1; stroke: rgb(229, 236, 246); stroke-opacity: 1;"/></g><g class="point"><path d="M54.25,495V340.24H74.91V495Z" style="vector-effect: none; opacity: 1; stroke-width: 0.5px; fill: rgb(250, 163, 7); fill-opacity: 1; stroke: rgb(229, 236, 246); stroke-opacity: 1;"/></g><g class="point"><path d="M80.08,495V256.51H100.75V495Z" style="vector-effect: none; opacity: 1; stroke-width: 0.5px; fill: rgb(250, 163, 7); fill-opacity: 1; stroke: rgb(229, 236, 246); stroke-opacity: 1;"/></g><g class="point"><path d="M105.91,495V243.83H126.58V495Z" style="vector-effect: none; opacity: 1; stroke-width: 0.5px; fill: rgb(250, 163, 7); fill-opacity: 1; stroke: rgb(229, 236, 246); stroke-opacity: 1;"/></g><g class="point"><path d="M131.74,495V180.4H152.41V495Z" style="vector-effect: none; opacity: 1; stroke-width: 0.5px; fill: rgb(250, 163, 7); fill-opacity: 1; stroke: rgb(229, 236, 246); stroke-opacity: 1;"/></g><g class="point"><path d="M157.58,495V236.22H178.24V495Z" style="vector-effect: none; opacity: 1; stroke-width: 0.5px; fill: rgb(250, 163, 7); fill-opacity: 1; stroke: rgb(229, 236, 246); stroke-opacity: 1;"/></g><g class="point"><path d="M183.41,495V279.35H204.07V495Z" style="vector-effect: none; opacity: 1; stroke-width: 0.5px; fill: rgb(250, 163, 7); fill-opacity: 1; stroke: rgb(229, 236, 246); stroke-opacity: 1;"/></g><g class="point"><path d="M209.24,495V325.01H229.91V495Z" style="vector-effect: none; opacity: 1; stroke-width: 0.5px; fill: rgb(250, 163, 7); fill-opacity: 1; stroke: rgb(229, 236, 246); stroke-opacity: 1;"/></g><g class="point"><path d="M235.07,495V284.42H255.74V495Z" style="vector-effect: none; opacity: 1; stroke-width: 0.5px; fill: rgb(250, 163, 7); fill-opacity: 1; stroke: rgb(229, 236, 246); stroke-opacity: 1;"/></g><g class="point"><path d="M260.91,495V373.22H281.57V495Z" style="vector-effect: none; opacity: 1; stroke-width: 0.5px; fill: rgb(250, 163, 7); fill-opacity: 1; stroke: rgb(229, 236, 246); stroke-opacity: 1;"/></g><g class="point"><path d="M286.74,495V421.42H307.4V495Z" style="vector-effect: none; opacity: 1; stroke-width: 0.5px; fill: rgb(250, 163, 7); fill-opacity: 1; stroke: rgb(229, 236, 246); stroke-opacity: 1;"/></g><g class="point"><path d="M312.57,495V423.96H333.24V495Z" style="vector-effect: none; opacity: 1; stroke-width: 0.5px; fill: rgb(250, 163, 7); fill-opacity: 1; stroke: rgb(229, 236, 246); stroke-opacity: 1;"/></g><g class="point"><path d="M338.4,495V431.57H359.07V495Z" style="vector-effect: none; opacity: 1; stroke-width: 0.5px; fill: rgb(250, 163, 7); fill-opacity: 1; stroke: rgb(229, 236, 246); stroke-opacity: 1;"/></g><g class="point"><path d="M364.23,495V464.55H384.9V495Z" style="vector-effect: none; opacity: 1; stroke-width: 0.5px; fill: rgb(250, 163, 7); fill-opacity: 1; stroke: rgb(229, 236, 246); stroke-opacity: 1;"/></g><g class="point"><path d="M390.07,495V459.48H410.73V495Z" style="vector-effect: none; opacity: 1; stroke-width: 0.5px; fill: rgb(250, 163, 7); fill-opacity: 1; stroke: rgb(229, 236, 246); stroke-opacity: 1;"/></g><g class="point"><path d="M415.9,495V464.55H436.57V495Z" style="vector-effect: none; opacity: 1; stroke-width: 0.5px; fill: rgb(250, 163, 7); fill-opacity: 1; stroke: rgb(229, 236, 246); stroke-opacity: 1;"/></g><g class="point"><path d="M441.73,495V482.31H462.4V495Z" style="vector-effect: none; opacity: 1; stroke-width: 0.5px; fill: rgb(250, 163, 7); fill-opacity: 1; stroke: rgb(229, 236, 246); stroke-opacity: 1;"/></g><g class="point"><path d="M467.56,495V484.85H488.23V495Z" style="vector-effect: none; opacity: 1; stroke-width: 0.5px; fill: rgb(250, 163, 7); fill-opacity: 1; stroke: rgb(229, 236, 246); stroke-opacity: 1;"/></g><g class="point"><path d="M493.4,495V487.39H514.06V495Z" style="vector-effect: none; opacity: 1; stroke-width: 0.5px; fill: rgb(250, 163, 7); fill-opacity: 1; stroke: rgb(229, 236, 246); stroke-opacity: 1;"/></g><g class="point"><path d="M519.23,495V492.46H539.89V495Z" style="vector-effect: none; opacity: 1; stroke-width: 0.5px; fill: rgb(250, 163, 7); fill-opacity: 1; stroke: rgb(229, 236, 246); stroke-opacity: 1;"/></g><g class="point"><path d="M545.06,495V492.46H565.73V495Z" style="vector-effect: none; opacity: 1; stroke-width: 0.5px; fill: rgb(250, 163, 7); fill-opacity: 1; stroke: rgb(229, 236, 246); stroke-opacity: 1;"/></g><g class="point"><path d="M570.89,495V492.46H591.56V495Z" style="vector-effect: none; opacity: 1; stroke-width: 0.5px; fill: rgb(250, 163, 7); fill-opacity: 1; stroke: rgb(229, 236, 246); stroke-opacity: 1;"/></g><g class="point"><path d="M596.73,495V495H617.39V495Z" style="vector-effect: none; opacity: 1; stroke-width: 0.5px; fill: rgb(250, 163, 7); fill-opacity: 1; stroke: rgb(229, 236, 246); stroke-opacity: 1;"/></g><g class="point"><path d="M622.56,495V495H643.22V495Z" style="vector-effect: none; opacity: 1; stroke-width: 0.5px; fill: rgb(250, 163, 7); fill-opacity: 1; stroke: rgb(229, 236, 246); stroke-opacity: 1;"/></g><g class="point"><path d="M648.39,495V492.46H669.06V495Z" style="vector-effect: none; opacity: 1; stroke-width: 0.5px; fill: rgb(250, 163, 7); fill-opacity: 1; stroke: rgb(229, 236, 246); stroke-opacity: 1;"/></g><g class="point"><path d="M674.22,495V492.46H694.89V495Z" style="vector-effect: none; opacity: 1; stroke-width: 0.5px; fill: rgb(250, 163, 7); fill-opacity: 1; stroke: rgb(229, 236, 246); stroke-opacity: 1;"/></g><g class="point"><path d="M700.05,495V495H720.72V495Z" style="vector-effect: none; opacity: 1; stroke-width: 0.5px; fill: rgb(250, 163, 7); fill-opacity: 1; stroke: rgb(229, 236, 246); stroke-opacity: 1;"/></g><g class="point"><path d="M725.89,495V495H746.55V495Z" style="vector-effect: none; opacity: 1; stroke-width: 0.5px; fill: rgb(250, 163, 7); fill-opacity: 1; stroke: rgb(229, 236, 246); stroke-opacity: 1;"/></g><g class="point"><path d="M751.72,495V495H772.38V495Z" style="vector-effect: none; opacity: 1; stroke-width: 0.5px; fill: rgb(250, 163, 7); fill-opacity: 1; stroke: rgb(229, 236, 246); stroke-opacity: 1;"/></g><g class="point"><path d="M777.55,495V495H798.22V495Z" style="vector-effect: none; opacity: 1; stroke-width: 0.5px; fill: rgb(250, 163, 7); fill-opacity: 1; stroke: rgb(229, 236, 246); stroke-opacity: 1;"/></g><g class="point"><path d="M803.38,495V495H824.05V495Z" style="vector-effect: none; opacity: 1; stroke-width: 0.5px; fill: rgb(250, 163, 7); fill-opacity: 1; stroke: rgb(229, 236, 246); stroke-opacity: 1;"/></g><g class="point"><path d="M829.22,495V495H849.88V495Z" style="vector-effect: none; opacity: 1; stroke-width: 0.5px; fill: rgb(250, 163, 7); fill-opacity: 1; stroke: rgb(229, 236, 246); stroke-opacity: 1;"/></g><g class="point"><path d="M855.05,495V495H875.71V495Z" style="vector-effect: none; opacity: 1; stroke-width: 0.5px; fill: rgb(250, 163, 7); fill-opacity: 1; stroke: rgb(229, 236, 246); stroke-opacity: 1;"/></g><g class="point"><path d="M880.88,495V495H901.55V495Z" style="vector-effect: none; opacity: 1; stroke-width: 0.5px; fill: rgb(250, 163, 7); fill-opacity: 1; stroke: rgb(229, 236, 246); stroke-opacity: 1;"/></g><g class="point"><path d="M906.71,495V495H927.38V495Z" style="vector-effect: none; opacity: 1; stroke-width: 0.5px; fill: rgb(250, 163, 7); fill-opacity: 1; stroke: rgb(229, 236, 246); stroke-opacity: 1;"/></g><g class="point"><path d="M932.54,495V495H953.21V495Z" style="vector-effect: none; opacity: 1; stroke-width: 0.5px; fill: rgb(250, 163, 7); fill-opacity: 1; stroke: rgb(229, 236, 246); stroke-opacity: 1;"/></g><g class="point"><path d="M958.38,495V495H979.04V495Z" style="vector-effect: none; opacity: 1; stroke-width: 0.5px; fill: rgb(250, 163, 7); fill-opacity: 1; stroke: rgb(229, 236, 246); stroke-opacity: 1;"/></g></g></g><g class="trace bars" style="opacity: 0.6;"><g class="points"><g class="point"><path d="M2.58,495V330.25H23.25V495Z" style="vector-effect: none; opacity: 1; stroke-width: 0.5px; fill: rgb(199, 125, 255); fill-opacity: 1; stroke: rgb(229, 236, 246); stroke-opacity: 1;"/></g><g class="point"><path d="M28.42,495V462.05H49.08V495Z" style="vector-effect: none; opacity: 1; stroke-width: 0.5px; fill: rgb(199, 125, 255); fill-opacity: 1; stroke: rgb(229, 236, 246); stroke-opacity: 1;"/></g><g class="point"><path d="M54.25,495V342.93H74.91V495Z" style="vector-effect: none; opacity: 1; stroke-width: 0.5px; fill: rgb(199, 125, 255); fill-opacity: 1; stroke: rgb(229, 236, 246); stroke-opacity: 1;"/></g><g class="point"><path d="M80.08,495V208.59H100.75V495Z" style="vector-effect: none; opacity: 1; stroke-width: 0.5px; fill: rgb(199, 125, 255); fill-opacity: 1; stroke: rgb(229, 236, 246); stroke-opacity: 1;"/></g><g class="point"><path d="M105.91,495V211.13H126.58V495Z" style="vector-effect: none; opacity: 1; stroke-width: 0.5px; fill: rgb(199, 125, 255); fill-opacity: 1; stroke: rgb(229, 236, 246); stroke-opacity: 1;"/></g><g class="point"><path d="M131.74,495V112.28H152.41V495Z" style="vector-effect: none; opacity: 1; stroke-width: 0.5px; fill: rgb(199, 125, 255); fill-opacity: 1; stroke: rgb(229, 236, 246); stroke-opacity: 1;"/></g><g class="point"><path d="M157.58,495V122.42H178.24V495Z" style="vector-effect: none; opacity: 1; stroke-width: 0.5px; fill: rgb(199, 125, 255); fill-opacity: 1; stroke: rgb(229, 236, 246); stroke-opacity: 1;"/></g><g class="point"><path d="M183.41,495V256.75H204.07V495Z" style="vector-effect: none; opacity: 1; stroke-width: 0.5px; fill: rgb(199, 125, 255); fill-opacity: 1; stroke: rgb(229, 236, 246); stroke-opacity: 1;"/></g><g class="point"><path d="M209.24,495V309.98H229.91V495Z" style="vector-effect: none; opacity: 1; stroke-width: 0.5px; fill: rgb(199, 125, 255); fill-opacity: 1; stroke: rgb(229, 236, 246); stroke-opacity: 1;"/></g><g class="point"><path d="M235.07,495V378.41H255.74V495Z" style="vector-effect: none; opacity: 1; stroke-width: 0.5px; fill: rgb(199, 125, 255); fill-opacity: 1; stroke: rgb(229, 236, 246); stroke-opacity: 1;"/></g><g class="point"><path d="M260.91,495V401.22H281.57V495Z" style="vector-effect: none; opacity: 1; stroke-width: 0.5px; fill: rgb(199, 125, 255); fill-opacity: 1; stroke: rgb(229, 236, 246); stroke-opacity: 1;"/></g><g class="point"><path d="M286.74,495V426.57H307.4V495Z" style="vector-effect: none; opacity: 1; stroke-width: 0.5px; fill: rgb(199, 125, 255); fill-opacity: 1; stroke: rgb(229, 236, 246); stroke-opacity: 1;"/></g><g class="point"><path d="M312.57,495V456.98H333.24V495Z" style="vector-effect: none; opacity: 1; stroke-width: 0.5px; fill: rgb(199, 125, 255); fill-opacity: 1; stroke: rgb(229, 236, 246); stroke-opacity: 1;"/></g><g class="point"><path d="M338.4,495V459.52H359.07V495Z" style="vector-effect: none; opacity: 1; stroke-width: 0.5px; fill: rgb(199, 125, 255); fill-opacity: 1; stroke: rgb(229, 236, 246); stroke-opacity: 1;"/></g><g class="point"><path d="M364.23,495V472.19H384.9V495Z" style="vector-effect: none; opacity: 1; stroke-width: 0.5px; fill: rgb(199, 125, 255); fill-opacity: 1; stroke: rgb(229, 236, 246); stroke-opacity: 1;"/></g><g class="point"><path d="M390.07,495V477.26H410.73V495Z" style="vector-effect: none; opacity: 1; stroke-width: 0.5px; fill: rgb(199, 125, 255); fill-opacity: 1; stroke: rgb(229, 236, 246); stroke-opacity: 1;"/></g><g class="point"><path d="M415.9,495V474.72H436.57V495Z" style="vector-effect: none; opacity: 1; stroke-width: 0.5px; fill: rgb(199, 125, 255); fill-opacity: 1; stroke: rgb(229, 236, 246); stroke-opacity: 1;"/></g><g class="point"><path d="M441.73,495V489.93H462.4V495Z" style="vector-effect: none; opacity: 1; stroke-width: 0.5px; fill: rgb(199, 125, 255); fill-opacity: 1; stroke: rgb(229, 236, 246); stroke-opacity: 1;"/></g><g class="point"><path d="M467.56,495V484.86H488.23V495Z" style="vector-effect: none; opacity: 1; stroke-width: 0.5px; fill: rgb(199, 125, 255); fill-opacity: 1; stroke: rgb(229, 236, 246); stroke-opacity: 1;"/></g><g class="point"><path d="M493.4,495V492.47H514.06V495Z" style="vector-effect: none; opacity: 1; stroke-width: 0.5px; fill: rgb(199, 125, 255); fill-opacity: 1; stroke: rgb(229, 236, 246); stroke-opacity: 1;"/></g><g class="point"><path d="M519.23,495V492.47H539.89V495Z" style="vector-effect: none; opacity: 1; stroke-width: 0.5px; fill: rgb(199, 125, 255); fill-opacity: 1; stroke: rgb(229, 236, 246); stroke-opacity: 1;"/></g><g class="point"><path d="M545.06,495V495H565.73V495Z" style="vector-effect: none; opacity: 1; stroke-width: 0.5px; fill: rgb(199, 125, 255); fill-opacity: 1; stroke: rgb(229, 236, 246); stroke-opacity: 1;"/></g><g class="point"><path d="M570.89,495V495H591.56V495Z" style="vector-effect: none; opacity: 1; stroke-width: 0.5px; fill: rgb(199, 125, 255); fill-opacity: 1; stroke: rgb(229, 236, 246); stroke-opacity: 1;"/></g><g class="point"><path d="M596.73,495V495H617.39V495Z" style="vector-effect: none; opacity: 1; stroke-width: 0.5px; fill: rgb(199, 125, 255); fill-opacity: 1; stroke: rgb(229, 236, 246); stroke-opacity: 1;"/></g><g class="point"><path d="M622.56,495V495H643.22V495Z" style="vector-effect: none; opacity: 1; stroke-width: 0.5px; fill: rgb(199, 125, 255); fill-opacity: 1; stroke: rgb(229, 236, 246); stroke-opacity: 1;"/></g><g class="point"><path d="M648.39,495V495H669.06V495Z" style="vector-effect: none; opacity: 1; stroke-width: 0.5px; fill: rgb(199, 125, 255); fill-opacity: 1; stroke: rgb(229, 236, 246); stroke-opacity: 1;"/></g><g class="point"><path d="M674.22,495V492.47H694.89V495Z" style="vector-effect: none; opacity: 1; stroke-width: 0.5px; fill: rgb(199, 125, 255); fill-opacity: 1; stroke: rgb(229, 236, 246); stroke-opacity: 1;"/></g></g></g></g><g class="scatterlayer mlayer"><g class="trace scatter tracea249a3" style="stroke-miterlimit: 2; opacity: 1;"><g class="fills"/><g class="errorbars"/><g class="lines"><path class="js-line" d="M12.92,385.19L15.06,383.31L17.2,382.59L19.34,382.9L21.48,384.07L27.91,390.27L30.05,392.3L34.33,394.7L36.48,394.64L38.62,393.53L40.76,391.25L45.04,383.12L47.19,377.31L51.47,362.63L53.61,354.02L62.18,314.63L64.32,304.25L96.45,148.62L98.59,136.89L109.3,80.51L111.44,70.87L115.73,54.62L117.87,48.29L122.15,39.66L124.29,37.44L126.44,36.6L128.58,37.08L130.72,38.81L132.86,41.66L137.14,50.27L139.29,55.76L145.71,75.48L147.85,82.81L160.71,130.61L162.85,138.95L201.4,287.89L203.54,296.05L220.68,359.68L222.82,366.74L231.39,391.2L233.53,396.32L239.95,409.49L242.1,413.25L250.66,426.06L252.81,428.87L263.51,441.56L265.66,443.87L276.37,454.15L278.51,455.94L289.22,463.55L291.36,464.87L306.35,473.07L308.49,474.12L319.2,478.41L321.35,479L329.91,480.23L332.05,480.3L351.33,480.63L353.47,481.02L362.04,483.49L364.18,484.26L377.03,488.4L379.18,488.81L387.74,489.45L389.89,489.39L413.45,488.41L415.59,488.53L434.86,490.51L437.01,490.79L439.15,491.07" style="vector-effect: none; fill: none; stroke: rgb(0, 0, 0); stroke-opacity: 1; stroke-width: 2px; opacity: 1;"/></g><g class="points"/><g class="text"/></g><g class="trace scatter trace0ca3f0" style="stroke-miterlimit: 2; opacity: 1;"><g class="fills"/><g class="errorbars"/><g class="lines"><path class="js-line" d="M12.92,369.67L15.51,367.59L18.11,366.7L20.7,366.91L23.3,368.05L28.49,372.29L31.09,374.89L38.88,381.61L41.47,382.75L44.07,383.04L46.67,382.38L49.26,380.7L51.86,377.97L57.05,369.42L59.65,363.7L64.84,349.78L67.44,341.78L77.82,305.43L80.42,295.78L95.99,240.15L98.59,231.89L106.38,209.73L108.98,203.28L116.76,186.94L119.36,182.5L124.55,175.1L127.15,172.13L132.34,167.62L134.94,166.05L140.13,164.19L142.73,163.87L147.92,164.35L150.52,165.13L155.71,167.72L158.3,169.52L163.5,174.15L166.09,176.98L173.88,187.55L176.48,191.75L184.27,206.29L186.86,211.72L197.25,235.9L199.84,242.45L218.02,291.32L220.61,298.39L236.19,338.71L238.79,344.94L251.77,373.49L254.36,378.65L264.75,397.13L267.34,401.15L275.13,411.74L277.73,414.78L285.52,422.62L288.11,424.88L301.1,434.8L303.69,436.66L327.06,452.68L329.65,454.13L340.04,458.72L342.63,459.59L358.21,463.59L360.81,464.23L376.39,468.91L378.98,469.83L417.92,483.63L420.52,484.32L436.1,487.54L438.69,487.95L462.06,490.62L464.66,490.85L490.62,492.54L493.21,492.6L529.56,492.95" style="vector-effect: none; fill: none; stroke: rgb(0, 106, 113); stroke-opacity: 1; stroke-width: 2px; opacity: 1;"/></g><g class="points"/><g class="text"/></g><g class="trace scatter trace100854" style="stroke-miterlimit: 2; opacity: 1;"><g class="fills"/><g class="errorbars"/><g class="lines"><path class="js-line" d="M12.92,403.47L17.88,400.37L22.85,398.72L42.71,396.14L47.67,393.46L52.64,389.05L57.6,382.71L62.57,374.45L67.53,364.44L77.46,340.4L82.43,327.16L102.29,275.11L107.26,263.93L117.19,245.31L122.15,238.12L127.12,232.45L132.08,228.32L137.05,225.73L142.01,224.61L146.98,224.88L151.94,226.4L156.91,229L161.87,232.47L171.8,241.18L176.77,246.01L201.6,269.82L206.56,274.27L231.39,296.81L236.35,301.78L246.28,312.77L251.25,318.93L261.18,332.77L266.14,340.4L295.94,388.43L300.9,395.3L310.83,407.07L315.8,411.96L325.73,420.03L330.69,423.4L350.55,434.89L355.52,437.63L380.34,450.66L385.31,452.88L400.21,458.37L405.17,459.86L439.93,469.94L444.89,471.68L474.68,481.6L479.65,482.83L494.54,485.64L499.51,486.34L539.23,490.66L544.2,491.13L573.99,493.06L578.95,493.23L628.61,493.99L633.57,493.99L717.98,494.02L722.95,494.15L782.53,494.98L787.49,494.99L981.14,494.27L986.1,494.18L1001,494.05" style="vector-effect: none; fill: none; stroke: rgb(232, 93, 4); stroke-opacity: 1; stroke-width: 2px; opacity: 1;"/></g><g class="points"/><g class="text"/></g><g class="trace scatter tracef64232" style="stroke-miterlimit: 2; opacity: 1;"><g class="fills"/><g class="errorbars"/><g class="lines"><path class="js-line" d="M12.92,414.09L16.36,412.7L19.8,412.45L26.68,414.36L30.12,415.82L37,417.85L40.44,417.69L43.88,416.38L47.32,413.72L50.76,409.62L54.2,404.06L61.08,388.77L64.52,379.27L71.4,357.27L74.84,345.1L92.04,278.7L95.48,265.42L105.8,228.21L109.24,217.08L116.12,197.18L119.56,188.47L126.44,173.52L129.88,167.25L136.76,157.02L140.2,153.05L147.08,147.49L150.52,145.99L153.96,145.41L157.4,145.8L160.84,147.23L164.27,149.71L171.15,157.89L174.59,163.54L181.47,177.63L184.91,185.86L195.23,213.71L198.67,223.59L219.31,281.8L222.75,290.78L236.51,323.79L239.95,331.29L250.27,351.9L253.71,358.14L264.03,375.14L267.47,380.34L284.67,404.06L288.11,408.49L301.87,425.11L305.31,428.93L315.63,439.34L319.07,442.41L329.39,450.21L332.83,452.32L343.15,457.19L346.59,458.39L363.79,462.81L367.23,463.65L405.07,473.5L408.51,474.07L432.59,478.33L436.03,479.16L460.11,484.83L463.55,485.39L484.19,487.55L487.63,487.86L542.67,493.01L546.11,493.17L604.59,494.94L608.03,494.96L669.95,494.45L673.39,494.34L697.47,493.85" style="vector-effect: none; fill: none; stroke: rgb(123, 44, 191); stroke-opacity: 1; stroke-width: 2px; opacity: 1;"/></g><g class="points"/><g class="text"/></g></g></g><g class="overplot"/><path class="xlines-above crisp" d="M49,545.5H1051" style="fill: none; stroke-width: 1px; stroke: rgb(0, 0, 0); stroke-opacity: 1;"/><path class="ylines-above crisp" d="M49.5,50V545" style="fill: none; stroke-width: 1px; stroke: rgb(0, 0, 0); stroke-opacity: 1;"/><g class="overlines-above"/><g class="xaxislayer-above"><g class="xtick"><text text-anchor="middle" x="0" y="560.4" transform="translate(62.92,0)" style="font-family: Helvetica; font-size: 12px; fill: rgb(51, 51, 51); fill-opacity: 1; white-space: pre; opacity: 1;">0</text></g><g class="xtick"><text text-anchor="middle" x="0" y="560.4" style="font-family: Helvetica; font-size: 12px; fill: rgb(51, 51, 51); fill-opacity: 1; white-space: pre; opacity: 1;" transform="translate(192.08,0)">10</text></g><g class="xtick"><text text-anchor="middle" x="0" y="560.4" style="font-family: Helvetica; font-size: 12px; fill: rgb(51, 51, 51); fill-opacity: 1; white-space: pre; opacity: 1;" transform="translate(321.24,0)">20</text></g><g class="xtick"><text text-anchor="middle" x="0" y="560.4" style="font-family: Helvetica; font-size: 12px; fill: rgb(51, 51, 51); fill-opacity: 1; white-space: pre; opacity: 1;" transform="translate(450.4,0)">30</text></g><g class="xtick"><text text-anchor="middle" x="0" y="560.4" style="font-family: Helvetica; font-size: 12px; fill: rgb(51, 51, 51); fill-opacity: 1; white-space: pre; opacity: 1;" transform="translate(579.56,0)">40</text></g><g class="xtick"><text text-anchor="middle" x="0" y="560.4" style="font-family: Helvetica; font-size: 12px; fill: rgb(51, 51, 51); fill-opacity: 1; white-space: pre; opacity: 1;" transform="translate(708.72,0)">50</text></g><g class="xtick"><text text-anchor="middle" x="0" y="560.4" style="font-family: Helvetica; font-size: 12px; fill: rgb(51, 51, 51); fill-opacity: 1; white-space: pre; opacity: 1;" transform="translate(837.88,0)">60</text></g><g class="xtick"><text text-anchor="middle" x="0" y="560.4" style="font-family: Helvetica; font-size: 12px; fill: rgb(51, 51, 51); fill-opacity: 1; white-space: pre; opacity: 1;" transform="translate(967.05,0)">70</text></g></g><g class="yaxislayer-above"><g class="ytick"><text text-anchor="end" x="46.6" y="4.199999999999999" transform="translate(0,545)" style="font-family: Helvetica; font-size: 12px; fill: rgb(51, 51, 51); fill-opacity: 1; white-space: pre; opacity: 1;">0</text></g><g class="ytick"><text text-anchor="end" x="46.6" y="4.199999999999999" style="font-family: Helvetica; font-size: 12px; fill: rgb(51, 51, 51); fill-opacity: 1; white-space: pre; opacity: 1;" transform="translate(0,494.31)">0.01</text></g><g class="ytick"><text text-anchor="end" x="46.6" y="4.199999999999999" style="font-family: Helvetica; font-size: 12px; fill: rgb(51, 51, 51); fill-opacity: 1; white-space: pre; opacity: 1;" transform="translate(0,443.62)">0.02</text></g><g class="ytick"><text text-anchor="end" x="46.6" y="4.199999999999999" style="font-family: Helvetica; font-size: 12px; fill: rgb(51, 51, 51); fill-opacity: 1; white-space: pre; opacity: 1;" transform="translate(0,392.93)">0.03</text></g><g class="ytick"><text text-anchor="end" x="46.6" y="4.199999999999999" style="font-family: Helvetica; font-size: 12px; fill: rgb(51, 51, 51); fill-opacity: 1; white-space: pre; opacity: 1;" transform="translate(0,342.24)">0.04</text></g><g class="ytick"><text text-anchor="end" x="46.6" y="4.199999999999999" style="font-family: Helvetica; font-size: 12px; fill: rgb(51, 51, 51); fill-opacity: 1; white-space: pre; opacity: 1;" transform="translate(0,291.53999999999996)">0.05</text></g><g class="ytick"><text text-anchor="end" x="46.6" y="4.199999999999999" style="font-family: Helvetica; font-size: 12px; fill: rgb(51, 51, 51); fill-opacity: 1; white-space: pre; opacity: 1;" transform="translate(0,240.85)">0.06</text></g><g class="ytick"><text text-anchor="end" x="46.6" y="4.199999999999999" style="font-family: Helvetica; font-size: 12px; fill: rgb(51, 51, 51); fill-opacity: 1; white-space: pre; opacity: 1;" transform="translate(0,190.16)">0.07</text></g><g class="ytick"><text text-anchor="end" x="46.6" y="4.199999999999999" style="font-family: Helvetica; font-size: 12px; fill: rgb(51, 51, 51); fill-opacity: 1; white-space: pre; opacity: 1;" transform="translate(0,139.47)">0.08</text></g><g class="ytick"><text text-anchor="end" x="46.6" y="4.199999999999999" style="font-family: Helvetica; font-size: 12px; fill: rgb(51, 51, 51); fill-opacity: 1; white-space: pre; opacity: 1;" transform="translate(0,88.78)">0.09</text></g></g><g class="overaxes-above"/></g></g><g class="polarlayer"/><g class="smithlayer"/><g class="ternarylayer"/><g class="geolayer"/><g class="funnelarealayer"/><g class="pielayer"/><g class="iciclelayer"/><g class="treemaplayer"/><g class="sunburstlayer"/><g class="glimages"/><defs id="topdefs-c6cc19"><g class="clips"/><clipPath id="legendc6cc19"><rect width="197" height="162" x="0" y="0"/></clipPath></defs><g class="layer-above"><g class="imagelayer"/><g class="shapelayer"><g class="shape-group" data-index="0" clip-path="url(#clipc6cc19x)"><path data-index="0" fill-rule="evenodd" d="M204.99,545L204.99,50" style="opacity: 1; stroke: rgb(128, 128, 128); stroke-opacity: 1; fill: rgb(0, 0, 0); fill-opacity: 0; stroke-dasharray: 15px, 15px; stroke-width: 2px;"/></g></g></g><g class="infolayer"><g class="legend" pointer-events="all" transform="translate(1071.02,50)"><rect class="bg" shape-rendering="crispEdges" width="197" height="162" x="0" y="0" style="stroke: rgb(68, 68, 68); stroke-opacity: 1; fill: rgb(255, 255, 255); fill-opacity: 1; stroke-width: 0px;"/><g class="scrollbox" transform="" clip-path="url(#legendc6cc19)"><g class="groups"><g class="traces" transform="translate(0,14.5)" style="opacity: 1;"><text class="legendtext" text-anchor="start" x="40" y="4.680000000000001" style="font-family: Helvetica; font-size: 12px; fill: rgb(51, 51, 51); fill-opacity: 1; white-space: pre;">mix k10 baseline</text><g class="layers" style="opacity: 0.6;"><g class="legendfill"/><g class="legendlines"/><g class="legendsymbols"><g class="legendpoints"><path class="legendundefined" d="M6,6H-6V-6H6Z" transform="translate(20,0)" style="stroke-width: 0.5px; fill: rgb(46, 46, 46); fill-opacity: 1; stroke: rgb(229, 236, 246); stroke-opacity: 1;"/></g></g></g><rect class="legendtoggle" x="0" y="-9.5" width="191.40625" height="19" style="fill: rgb(0, 0, 0); fill-opacity: 0;"/></g><g class="traces" transform="translate(0,33.5)" style="opacity: 1;"><text class="legendtext" text-anchor="start" x="40" y="4.680000000000001" style="font-family: Helvetica; font-size: 12px; fill: rgb(51, 51, 51); fill-opacity: 1; white-space: pre;">mix k10 baseline Density</text><g class="layers" style="opacity: 1;"><g class="legendfill"/><g class="legendlines"><path class="js-line" d="M5,0h30" style="fill: none; stroke: rgb(0, 0, 0); stroke-opacity: 1; stroke-width: 2px;"/></g><g class="legendsymbols"><g class="legendpoints"/></g></g><rect class="legendtoggle" x="0" y="-9.5" width="191.40625" height="19" style="fill: rgb(0, 0, 0); fill-opacity: 0;"/></g><g class="traces" transform="translate(0,52.5)" style="opacity: 1;"><text class="legendtext" text-anchor="start" x="40" y="4.680000000000001" style="font-family: Helvetica; font-size: 12px; fill: rgb(51, 51, 51); fill-opacity: 1; white-space: pre;">mix k10 softsub AL1</text><g class="layers" style="opacity: 0.6;"><g class="legendfill"/><g class="legendlines"/><g class="legendsymbols"><g class="legendpoints"><path class="legendundefined" d="M6,6H-6V-6H6Z" transform="translate(20,0)" style="stroke-width: 0.5px; fill: rgb(72, 202, 228); fill-opacity: 1; stroke: rgb(229, 236, 246); stroke-opacity: 1;"/></g></g></g><rect class="legendtoggle" x="0" y="-9.5" width="191.40625" height="19" style="fill: rgb(0, 0, 0); fill-opacity: 0;"/></g><g class="traces" transform="translate(0,71.5)" style="opacity: 1;"><text class="legendtext" text-anchor="start" x="40" y="4.680000000000001" style="font-family: Helvetica; font-size: 12px; fill: rgb(51, 51, 51); fill-opacity: 1; white-space: pre;">mix k10 softsub AL1 Density</text><g class="layers" style="opacity: 1;"><g class="legendfill"/><g class="legendlines"><path class="js-line" d="M5,0h30" style="fill: none; stroke: rgb(0, 106, 113); stroke-opacity: 1; stroke-width: 2px;"/></g><g class="legendsymbols"><g class="legendpoints"/></g></g><rect class="legendtoggle" x="0" y="-9.5" width="191.40625" height="19" style="fill: rgb(0, 0, 0); fill-opacity: 0;"/></g><g class="traces" transform="translate(0,90.5)" style="opacity: 1;"><text class="legendtext" text-anchor="start" x="40" y="4.680000000000001" style="font-family: Helvetica; font-size: 12px; fill: rgb(51, 51, 51); fill-opacity: 1; white-space: pre;">mix k10 softsub AL2</text><g class="layers" style="opacity: 0.6;"><g class="legendfill"/><g class="legendlines"/><g class="legendsymbols"><g class="legendpoints"><path class="legendundefined" d="M6,6H-6V-6H6Z" transform="translate(20,0)" style="stroke-width: 0.5px; fill: rgb(250, 163, 7); fill-opacity: 1; stroke: rgb(229, 236, 246); stroke-opacity: 1;"/></g></g></g><rect class="legendtoggle" x="0" y="-9.5" width="191.40625" height="19" style="fill: rgb(0, 0, 0); fill-opacity: 0;"/></g><g class="traces" transform="translate(0,109.5)" style="opacity: 1;"><text class="legendtext" text-anchor="start" x="40" y="4.680000000000001" style="font-family: Helvetica; font-size: 12px; fill: rgb(51, 51, 51); fill-opacity: 1; white-space: pre;">mix k10 softsub AL2 Density</text><g class="layers" style="opacity: 1;"><g class="legendfill"/><g class="legendlines"><path class="js-line" d="M5,0h30" style="fill: none; stroke: rgb(232, 93, 4); stroke-opacity: 1; stroke-width: 2px;"/></g><g class="legendsymbols"><g class="legendpoints"/></g></g><rect class="legendtoggle" x="0" y="-9.5" width="191.40625" height="19" style="fill: rgb(0, 0, 0); fill-opacity: 0;"/></g><g class="traces" transform="translate(0,128.5)" style="opacity: 1;"><text class="legendtext" text-anchor="start" x="40" y="4.680000000000001" style="font-family: Helvetica; font-size: 12px; fill: rgb(51, 51, 51); fill-opacity: 1; white-space: pre;">mix k10 softsub AL3</text><g class="layers" style="opacity: 0.6;"><g class="legendfill"/><g class="legendlines"/><g class="legendsymbols"><g class="legendpoints"><path class="legendundefined" d="M6,6H-6V-6H6Z" transform="translate(20,0)" style="stroke-width: 0.5px; fill: rgb(199, 125, 255); fill-opacity: 1; stroke: rgb(229, 236, 246); stroke-opacity: 1;"/></g></g></g><rect class="legendtoggle" x="0" y="-9.5" width="191.40625" height="19" style="fill: rgb(0, 0, 0); fill-opacity: 0;"/></g><g class="traces" transform="translate(0,147.5)" style="opacity: 1;"><text class="legendtext" text-anchor="start" x="40" y="4.680000000000001" style="font-family: Helvetica; font-size: 12px; fill: rgb(51, 51, 51); fill-opacity: 1; white-space: pre;">mix k10 softsub AL3 Density</text><g class="layers" style="opacity: 1;"><g class="legendfill"/><g class="legendlines"><path class="js-line" d="M5,0h30" style="fill: none; stroke: rgb(123, 44, 191); stroke-opacity: 1; stroke-width: 2px;"/></g><g class="legendsymbols"><g class="legendpoints"/></g></g><rect class="legendtoggle" x="0" y="-9.5" width="191.40625" height="19" style="fill: rgb(0, 0, 0); fill-opacity: 0;"/></g></g></g><rect class="scrollbar" rx="20" ry="3" width="0" height="0" x="0" y="0" style="fill: rgb(128, 139, 164); fill-opacity: 1;"/></g><g class="g-gtitle"><text class="gtitle" x="640" y="30" text-anchor="middle" dy="0.7em" style="font-family: Helvetica; font-size: 20px; fill: rgb(51, 51, 51); opacity: 1; font-weight: normal; white-space: pre;">Distribution of ligand scores based on DiffDock Poses</text></g><g class="g-xtitle"><text class="xtitle" x="550.5" y="587.70625" text-anchor="middle" style="font-family: Helvetica; font-size: 14px; fill: rgb(51, 51, 51); opacity: 1; font-weight: normal; white-space: pre;">Prolif Score</text></g><g class="g-ytitle"><text class="ytitle" transform="rotate(-90,13.934375000000003,297.5)" x="13.934375000000003" y="297.5" text-anchor="middle" style="font-family: Helvetica; font-size: 14px; fill: rgb(51, 51, 51); opacity: 1; font-weight: normal; white-space: pre;">Rel. Frequency</text></g><g class="annotation" data-index="0" style="opacity: 1;"><g class="annotation-text-g" transform="rotate(0,680.4499999999999,60.00000000000002)"><g class="cursor-pointer" transform="translate(360,50)"><rect class="bg" x="0.5" y="0.5" width="640" height="19" style="stroke-width: 1px; stroke: rgb(0, 0, 0); stroke-opacity: 0; fill: rgb(0, 0, 0); fill-opacity: 0;"/><text class="annotation-text" text-anchor="middle" x="320.515625" y="15" style="font-family: Helvetica; font-size: 14px; fill: rgb(51, 51, 51); fill-opacity: 1; white-space: pre;">mix k10 baseline: % > threshold = 38.2, Q25 = 06.5, Q50 = 09.0, Mean = 09.7, Q75 = 12.5, max = 33.0</text></g></g></g><g class="annotation" data-index="1" style="opacity: 1;"><g class="annotation-text-g" transform="rotate(0,670.4499999999999,79.80000000000003)"><g class="cursor-pointer" transform="translate(340,70)"><rect class="bg" x="0.5" y="0.5" width="660" height="19" style="stroke-width: 1px; stroke: rgb(0, 0, 0); stroke-opacity: 0; fill: rgb(0, 0, 0); fill-opacity: 0;"/><text class="annotation-text" text-anchor="middle" x="330.375" y="15" style="font-family: Helvetica; font-size: 14px; fill: rgb(51, 51, 51); fill-opacity: 1; white-space: pre;">mix k10 softsub AL1: % > threshold = 50.1, Q25 = 06.5, Q50 = 11.0, Mean = 11.1, Q75 = 15.0, max = 40.0</text></g></g></g><g class="annotation" data-index="2" style="opacity: 1;"><g class="annotation-text-g" transform="rotate(0,669.4499999999999,99.6)"><g class="cursor-pointer" transform="translate(338,90)"><rect class="bg" x="0.5" y="0.5" width="662" height="19" style="stroke-width: 1px; stroke: rgb(0, 0, 0); stroke-opacity: 0; fill: rgb(0, 0, 0); fill-opacity: 0;"/><text class="annotation-text" text-anchor="middle" x="331.40625" y="15" style="font-family: Helvetica; font-size: 14px; fill: rgb(51, 51, 51); fill-opacity: 1; white-space: pre;">mix k10 softsub AL2: % > threshold = 58.4, Q25 = 07.5, Q50 = 12.0, Mean = 13.3, Q75 = 18.0, max = 76.5</text></g></g></g><g class="annotation" data-index="3" style="opacity: 1;"><g class="annotation-text-g" transform="rotate(0,669.9499999999999,119.40000000000002)"><g class="cursor-pointer" transform="translate(339,109)"><rect class="bg" x="0.5" y="0.5" width="661" height="19" style="stroke-width: 1px; stroke: rgb(0, 0, 0); stroke-opacity: 0; fill: rgb(0, 0, 0); fill-opacity: 0;"/><text class="annotation-text" text-anchor="middle" x="330.890625" y="15" style="font-family: Helvetica; font-size: 14px; fill: rgb(51, 51, 51); fill-opacity: 1; white-space: pre;">mix k10 softsub AL3: % > threshold = 56.6, Q25 = 07.5, Q50 = 11.5, Mean = 12.3, Q75 = 15.5, max = 53.0</text></g></g></g></g></svg>