<svg class="main-svg" xmlns="http://www.w3.org/2000/svg" xmlns:xlink="http://www.w3.org/1999/xlink" width="1280" height="600" style="" viewBox="0 0 1280 600"><rect x="0" y="0" width="1280" height="600" style="fill: rgb(255, 255, 255); fill-opacity: 1;"/><defs id="defs-18d91f"><g class="clips"><clipPath id="clip18d91fxyplot" class="plotclip"><rect width="1126" height="448"/></clipPath><clipPath class="axesclip" id="clip18d91fx"><rect x="104" y="0" width="1126" height="600"/></clipPath><clipPath class="axesclip" id="clip18d91fy"><rect x="0" y="60" width="1280" height="448"/></clipPath><clipPath class="axesclip" id="clip18d91fxy"><rect x="104" y="60" width="1126" height="448"/></clipPath></g><g class="gradients"/><g class="patterns"/></defs><g class="bglayer"/><g class="layer-below"><g class="imagelayer"/><g class="shapelayer"/></g><g class="cartesianlayer"><g class="subplot xy"><g class="layer-subplot"><g class="shapelayer"/><g class="imagelayer"/></g><g class="minor-gridlayer"><g class="x"/><g class="y"/></g><g class="gridlayer"><g class="x"/><g class="y"/></g><g class="zerolinelayer"/><path class="xlines-below"/><path class="ylines-below"/><g class="overlines-below"/><g class="xaxislayer-below"/><g class="yaxislayer-below"/><g class="overaxes-below"/><g class="plot" transform="translate(104,60)" clip-path="url(#clip18d91fxyplot)"><g class="scatterlayer mlayer"><g class="trace scatter trace02a763" style="stroke-miterlimit: 2;"><g class="fills"><g><path class="js-fill" d="M601.17,448L0,448L0,333.57L6.04,323.67L9.06,319.85L18.13,311.41L21.15,309.01L30.21,300.28L33.23,296.27L39.27,285.85L42.29,279.31L51.36,254.31L54.38,244.32L66.46,198.35L69.48,185.88L90.63,100.86L93.65,90.45L102.71,63.9L105.73,56.76L111.78,45.06L114.8,40.4L120.84,33.13L123.86,30.35L132.92,24.53L135.94,23.29L141.98,21.82L145.01,21.68L151.05,22.96L154.07,24.55L160.11,30.07L163.13,34.13L169.17,45.02L172.19,51.82L181.26,76.86L184.28,86.39L211.47,173.6L214.49,181.82L226.57,210.58L229.59,216.84L241.68,239.02L244.7,243.98L262.82,270.83L265.84,275.07L290.01,310.24L293.03,314.92L329.28,370.52L332.3,374.37L341.37,384.4L344.39,387.21L356.47,396.29L359.49,398.19L386.68,415.42L389.7,417.52L404.81,427.23L407.83,428.82L419.91,433.49L422.93,434.24L435.02,436L438.04,436.23L471.27,439.17L474.29,439.55L501.48,442.03L504.5,442.21L534.71,444.98L537.73,445.31L561.9,447L564.92,447.04L601.17,446.42" style="fill: rgb(0, 0, 0); fill-opacity: 0.2; stroke-width: 0;"/></g></g><g class="errorbars"/><g class="lines"><path class="js-line" d="M0,333.57L6.04,323.67L9.06,319.85L18.13,311.41L21.15,309.01L30.21,300.28L33.23,296.27L39.27,285.85L42.29,279.31L51.36,254.31L54.38,244.32L66.46,198.35L69.48,185.88L90.63,100.86L93.65,90.45L102.71,63.9L105.73,56.76L111.78,45.06L114.8,40.4L120.84,33.13L123.86,30.35L132.92,24.53L135.94,23.29L141.98,21.82L145.01,21.68L151.05,22.96L154.07,24.55L160.11,30.07L163.13,34.13L169.17,45.02L172.19,51.82L181.26,76.86L184.28,86.39L211.47,173.6L214.49,181.82L226.57,210.58L229.59,216.84L241.68,239.02L244.7,243.98L262.82,270.83L265.84,275.07L290.01,310.24L293.03,314.92L329.28,370.52L332.3,374.37L341.37,384.4L344.39,387.21L356.47,396.29L359.49,398.19L386.68,415.42L389.7,417.52L404.81,427.23L407.83,428.82L419.91,433.49L422.93,434.24L435.02,436L438.04,436.23L471.27,439.17L474.29,439.55L501.48,442.03L504.5,442.21L534.71,444.98L537.73,445.31L561.9,447L564.92,447.04L601.17,446.42" style="vector-effect: none; fill: none; stroke: rgb(0, 0, 0); stroke-opacity: 0.8; stroke-width: 4px; opacity: 1;"/></g><g class="points"/><g class="text"/></g><g class="trace scatter trace704660" style="stroke-miterlimit: 2;"><g class="fills"><g><path class="js-fill" d="M753.85,448L0,448L0,363.04L11.36,351.27L15.15,348.11L26.52,338.53L30.31,334.64L37.88,324.85L41.67,318.76L49.25,304.02L53.03,295.43L64.4,265.66L68.19,254.77L102.28,156.43L106.07,146.92L121.22,112.76L125.01,105.09L140.16,77.41L143.95,71.31L155.32,55.82L159.1,51.85L166.68,46.28L170.47,44.85L174.26,44.44L178.04,45.12L181.83,46.93L185.62,49.91L193.2,59.45L196.99,65.96L204.56,82.23L208.35,91.8L219.71,124.63L223.5,136.41L242.44,193.83L246.23,204.09L257.6,231.29L261.38,239.22L276.54,266.78L280.33,272.99L306.84,313.99L310.63,319.67L333.36,351.96L337.15,356.8L348.51,369.73L352.3,373.44L363.67,382.84L367.45,385.48L428.06,424.87L431.85,426.59L443.22,430.2L447.01,430.92L462.16,432L465.95,431.99L507.62,431.99L511.4,432.27L534.13,435.33L537.92,436.04L579.59,443.4L583.38,443.8L606.11,445.01L609.9,445.04L643.99,444.06L647.78,443.91L678.08,443.77L681.87,443.93L738.69,446.5L742.48,446.5L753.85,446.54" style="fill: rgb(0, 106, 113); fill-opacity: 0.2; stroke-width: 0;"/></g></g><g class="errorbars"/><g class="lines"><path class="js-line" d="M0,363.04L11.36,351.27L15.15,348.11L26.52,338.53L30.31,334.64L37.88,324.85L41.67,318.76L49.25,304.02L53.03,295.43L64.4,265.66L68.19,254.77L102.28,156.43L106.07,146.92L121.22,112.76L125.01,105.09L140.16,77.41L143.95,71.31L155.32,55.82L159.1,51.85L166.68,46.28L170.47,44.85L174.26,44.44L178.04,45.12L181.83,46.93L185.62,49.91L193.2,59.45L196.99,65.96L204.56,82.23L208.35,91.8L219.71,124.63L223.5,136.41L242.44,193.83L246.23,204.09L257.6,231.29L261.38,239.22L276.54,266.78L280.33,272.99L306.84,313.99L310.63,319.67L333.36,351.96L337.15,356.8L348.51,369.73L352.3,373.44L363.67,382.84L367.45,385.48L428.06,424.87L431.85,426.59L443.22,430.2L447.01,430.92L462.16,432L465.95,431.99L507.62,431.99L511.4,432.27L534.13,435.33L537.92,436.04L579.59,443.4L583.38,443.8L606.11,445.01L609.9,445.04L643.99,444.06L647.78,443.91L678.08,443.77L681.87,443.93L738.69,446.5L742.48,446.5L753.85,446.54" style="vector-effect: none; fill: none; stroke: rgb(0, 106, 113); stroke-opacity: 0.8; stroke-width: 4px; opacity: 1;"/></g><g class="points"/><g class="text"/></g><g class="trace scatter tracebed660" style="stroke-miterlimit: 2;"><g class="fills"><g><path class="js-fill" d="M973.32,448L0,448L0,372.92L14.67,363.61L19.56,361.01L34.24,352.72L39.13,349.23L48.91,340.32L53.8,334.67L63.58,320.75L68.47,312.47L78.26,293.51L83.15,282.98L102.71,236.78L107.6,224.89L127.17,180.34L132.06,170.63L141.84,153.73L146.73,146.73L156.51,135.94L161.41,132.22L166.3,129.65L171.19,128.21L176.08,127.89L180.97,128.64L190.75,133.15L195.64,136.78L205.42,146.37L210.32,152.17L224.99,172.45L229.88,179.85L264.12,231.92L269.01,238.66L288.57,263.04L293.46,268.6L327.7,305.22L332.59,310.35L357.05,334.72L361.94,339.09L376.61,350.61L381.5,353.88L396.18,361.97L401.07,364.15L420.63,371.06L425.52,372.51L459.76,383.08L464.65,384.99L484.22,394.25L489.11,396.92L528.24,418.15L533.13,420.15L547.8,424.65L552.69,425.67L572.25,427.93L577.15,428.22L621.17,431.52L626.06,432.1L684.75,438.56L689.64,438.92L728.77,440.66L733.66,440.76L802.13,442.8L807.03,443.04L860.83,444.83L865.72,444.9L943.98,445.03L948.87,445.01L973.32,445.28" style="fill: rgb(232, 93, 4); fill-opacity: 0.2; stroke-width: 0;"/></g></g><g class="errorbars"/><g class="lines"><path class="js-line" d="M0,372.92L14.67,363.61L19.56,361.01L34.24,352.72L39.13,349.23L48.91,340.32L53.8,334.67L63.58,320.75L68.47,312.47L78.26,293.51L83.15,282.98L102.71,236.78L107.6,224.89L127.17,180.34L132.06,170.63L141.84,153.73L146.73,146.73L156.51,135.94L161.41,132.22L166.3,129.65L171.19,128.21L176.08,127.89L180.97,128.64L190.75,133.15L195.64,136.78L205.42,146.37L210.32,152.17L224.99,172.45L229.88,179.85L264.12,231.92L269.01,238.66L288.57,263.04L293.46,268.6L327.7,305.22L332.59,310.35L357.05,334.72L361.94,339.09L376.61,350.61L381.5,353.88L396.18,361.97L401.07,364.15L420.63,371.06L425.52,372.51L459.76,383.08L464.65,384.99L484.22,394.25L489.11,396.92L528.24,418.15L533.13,420.15L547.8,424.65L552.69,425.67L572.25,427.93L577.15,428.22L621.17,431.52L626.06,432.1L684.75,438.56L689.64,438.92L728.77,440.66L733.66,440.76L802.13,442.8L807.03,443.04L860.83,444.83L865.72,444.9L943.98,445.03L948.87,445.01L973.32,445.28" style="vector-effect: none; fill: none; stroke: rgb(232, 93, 4); stroke-opacity: 0.8; stroke-width: 4px; opacity: 1;"/></g><g class="points"/><g class="text"/></g><g class="trace scatter tracea91eaf" style="stroke-miterlimit: 2;"><g class="fills"><g><path class="js-fill" d="M1030.58,448L0,448L0,387.96L36.25,359.68L41.43,355.05L56.97,339.47L62.15,333.71L82.86,308.37L88.04,301.71L113.93,269.77L119.11,264.08L134.65,249.22L139.83,245.09L150.18,238.1L155.36,235.24L165.72,230.79L170.9,229.17L181.26,227.08L186.44,226.59L201.97,227.11L207.15,227.9L222.69,231.75L227.87,233.45L248.58,241.59L253.76,243.84L290.01,260.86L295.19,263.52L321.08,278.32L326.26,281.6L383.23,318.67L388.41,321.5L409.12,331.27L414.3,333.36L440.2,342.22L445.37,343.79L486.8,357.11L491.98,359.11L512.7,368.21L517.88,370.74L569.67,396.01L574.84,398.05L595.56,404.78L600.74,406.13L626.63,411.32L631.81,412.15L699.13,423.22L704.31,424.27L745.74,431.9L750.92,432.6L776.82,435.03L782,435.34L937.36,443.15L942.54,443.31L1030.58,446.19" style="fill: rgb(123, 44, 191); fill-opacity: 0.2; stroke-width: 0;"/></g></g><g class="errorbars"/><g class="lines"><path class="js-line" d="M0,387.96L36.25,359.68L41.43,355.05L56.97,339.47L62.15,333.71L82.86,308.37L88.04,301.71L113.93,269.77L119.11,264.08L134.65,249.22L139.83,245.09L150.18,238.1L155.36,235.24L165.72,230.79L170.9,229.17L181.26,227.08L186.44,226.59L201.97,227.11L207.15,227.9L222.69,231.75L227.87,233.45L248.58,241.59L253.76,243.84L290.01,260.86L295.19,263.52L321.08,278.32L326.26,281.6L383.23,318.67L388.41,321.5L409.12,331.27L414.3,333.36L440.2,342.22L445.37,343.79L486.8,357.11L491.98,359.11L512.7,368.21L517.88,370.74L569.67,396.01L574.84,398.05L595.56,404.78L600.74,406.13L626.63,411.32L631.81,412.15L699.13,423.22L704.31,424.27L745.74,431.9L750.92,432.6L776.82,435.03L782,435.34L937.36,443.15L942.54,443.31L1030.58,446.19" style="vector-effect: none; fill: none; stroke: rgb(123, 44, 191); stroke-opacity: 0.8; stroke-width: 4px; opacity: 1;"/></g><g class="points"/><g class="text"/></g><g class="trace scatter tracec60cdf" style="stroke-miterlimit: 2;"><g class="fills"><g><path class="js-fill" d="M1059.2,448L0,448L0,401.86L47.9,376.56L53.23,373.29L74.52,358.61L79.84,354.56L111.78,328.35L117.1,323.89L149.03,298.53L154.36,294.69L175.65,281.01L180.97,278.09L196.94,270.79L202.26,268.88L218.23,264.92L223.55,264.18L239.52,263.65L244.84,263.98L260.81,266.19L266.13,267.26L292.74,274.03L298.07,275.57L340.65,289.07L345.97,290.86L388.55,304.45L393.87,305.9L457.75,322.67L463.07,324.53L489.68,335.27L495,337.6L532.26,353.03L537.59,354.95L569.52,365.15L574.84,366.74L681.3,398.3L686.62,399.62L755.81,415.74L761.14,416.87L809.04,426.04L814.36,426.95L856.94,433.32L862.27,433.94L894.2,436.59L899.52,436.87L1059.2,444.99" style="fill: rgb(0, 128, 0); fill-opacity: 0.2; stroke-width: 0;"/></g></g><g class="errorbars"/><g class="lines"><path class="js-line" d="M0,401.86L47.9,376.56L53.23,373.29L74.52,358.61L79.84,354.56L111.78,328.35L117.1,323.89L149.03,298.53L154.36,294.69L175.65,281.01L180.97,278.09L196.94,270.79L202.26,268.88L218.23,264.92L223.55,264.18L239.52,263.65L244.84,263.98L260.81,266.19L266.13,267.26L292.74,274.03L298.07,275.57L340.65,289.07L345.97,290.86L388.55,304.45L393.87,305.9L457.75,322.67L463.07,324.53L489.68,335.27L495,337.6L532.26,353.03L537.59,354.95L569.52,365.15L574.84,366.74L681.3,398.3L686.62,399.62L755.81,415.74L761.14,416.87L809.04,426.04L814.36,426.95L856.94,433.32L862.27,433.94L894.2,436.59L899.52,436.87L1059.2,444.99" style="vector-effect: none; fill: none; stroke: rgb(0, 128, 0); stroke-opacity: 0.8; stroke-width: 4px; opacity: 1;"/></g><g class="points"/><g class="text"/></g><g class="trace scatter trace038d15" style="stroke-miterlimit: 2;"><g class="fills"><g><path class="js-fill" d="M1126,448L0,448L0,402.07L56.58,385.01L62.24,382.6L79.22,373.79L84.87,370.33L107.51,354.51L113.17,350.24L147.12,325.56L152.77,321.96L169.75,312.58L175.41,309.96L192.38,303.59L198.04,301.94L215.02,298.21L220.67,297.33L243.31,295.07L248.96,294.74L367.79,289.24L373.45,289.43L390.42,291.12L396.08,292.1L413.06,296.37L418.71,298.23L441.35,307.51L447.01,310.18L503.59,336.97L509.25,339.14L531.88,346.51L537.54,348.06L628.07,371.37L633.73,373.13L690.31,390.17L695.97,391.64L735.58,400.5L741.24,401.64L848.74,422.07L854.4,422.89L905.33,428.96L910.98,429.57L1001.52,438.37L1007.18,438.78L1075.08,442.62L1080.73,442.88L1126,444.76" style="fill: rgb(164, 19, 60); fill-opacity: 0.2; stroke-width: 0;"/></g></g><g class="errorbars"/><g class="lines"><path class="js-line" d="M0,402.07L56.58,385.01L62.24,382.6L79.22,373.79L84.87,370.33L107.51,354.51L113.17,350.24L147.12,325.56L152.77,321.96L169.75,312.58L175.41,309.96L192.38,303.59L198.04,301.94L215.02,298.21L220.67,297.33L243.31,295.07L248.96,294.74L367.79,289.24L373.45,289.43L390.42,291.12L396.08,292.1L413.06,296.37L418.71,298.23L441.35,307.51L447.01,310.18L503.59,336.97L509.25,339.14L531.88,346.51L537.54,348.06L628.07,371.37L633.73,373.13L690.31,390.17L695.97,391.64L735.58,400.5L741.24,401.64L848.74,422.07L854.4,422.89L905.33,428.96L910.98,429.57L1001.52,438.37L1007.18,438.78L1075.08,442.62L1080.73,442.88L1126,444.76" style="vector-effect: none; fill: none; stroke: rgb(164, 19, 60); stroke-opacity: 0.8; stroke-width: 4px; opacity: 1;"/></g><g class="points"/><g class="text"/></g></g></g><g class="overplot"/><path class="xlines-above crisp" d="M103,508.5H1230" style="fill: none; stroke-width: 1px; stroke: rgb(0, 0, 0); stroke-opacity: 1;"/><path class="ylines-above crisp" d="M103.5,60V508" style="fill: none; stroke-width: 1px; stroke: rgb(0, 0, 0); stroke-opacity: 1;"/><g class="overlines-above"/><g class="xaxislayer-above"><path class="xtick ticks crisp" d="M0,509v10" transform="translate(104,0)" style="stroke: rgb(68, 68, 68); stroke-opacity: 1; stroke-width: 2px;"/><path class="xtick ticks crisp" d="M0,509v10" transform="translate(294.85,0)" style="stroke: rgb(68, 68, 68); stroke-opacity: 1; stroke-width: 2px;"/><path class="xtick ticks crisp" d="M0,509v10" transform="translate(485.69,0)" style="stroke: rgb(68, 68, 68); stroke-opacity: 1; stroke-width: 2px;"/><path class="xtick ticks crisp" d="M0,509v10" transform="translate(676.54,0)" style="stroke: rgb(68, 68, 68); stroke-opacity: 1; stroke-width: 2px;"/><path class="xtick ticks crisp" d="M0,509v10" transform="translate(867.39,0)" style="stroke: rgb(68, 68, 68); stroke-opacity: 1; stroke-width: 2px;"/><path class="xtick ticks crisp" d="M0,509v10" transform="translate(1058.24,0)" style="stroke: rgb(68, 68, 68); stroke-opacity: 1; stroke-width: 2px;"/><g class="xtick"><text text-anchor="middle" x="0" y="547.8" transform="translate(104,0)" style="font-family: Helvetica; font-size: 24px; fill: rgb(51, 51, 51); fill-opacity: 1; white-space: pre; opacity: 1;">0</text></g><g class="xtick"><text text-anchor="middle" x="0" y="547.8" style="font-family: Helvetica; font-size: 24px; fill: rgb(51, 51, 51); fill-opacity: 1; white-space: pre; opacity: 1;" transform="translate(294.85,0)">10</text></g><g class="xtick"><text text-anchor="middle" x="0" y="547.8" style="font-family: Helvetica; font-size: 24px; fill: rgb(51, 51, 51); fill-opacity: 1; white-space: pre; opacity: 1;" transform="translate(485.69,0)">20</text></g><g class="xtick"><text text-anchor="middle" x="0" y="547.8" style="font-family: Helvetica; font-size: 24px; fill: rgb(51, 51, 51); fill-opacity: 1; white-space: pre; opacity: 1;" transform="translate(676.54,0)">30</text></g><g class="xtick"><text text-anchor="middle" x="0" y="547.8" style="font-family: Helvetica; font-size: 24px; fill: rgb(51, 51, 51); fill-opacity: 1; white-space: pre; opacity: 1;" transform="translate(867.39,0)">40</text></g><g class="xtick"><text text-anchor="middle" x="0" y="547.8" style="font-family: Helvetica; font-size: 24px; fill: rgb(51, 51, 51); fill-opacity: 1; white-space: pre; opacity: 1;" transform="translate(1058.24,0)">50</text></g></g><g class="yaxislayer-above"><path class="ytick ticks crisp" d="M103,0h-10" transform="translate(0,508)" style="stroke: rgb(68, 68, 68); stroke-opacity: 1; stroke-width: 2px;"/><path class="ytick ticks crisp" d="M103,0h-10" transform="translate(0,459.79)" style="stroke: rgb(68, 68, 68); stroke-opacity: 1; stroke-width: 2px;"/><path class="ytick ticks crisp" d="M103,0h-10" transform="translate(0,411.58)" style="stroke: rgb(68, 68, 68); stroke-opacity: 1; stroke-width: 2px;"/><path class="ytick ticks crisp" d="M103,0h-10" transform="translate(0,363.37)" style="stroke: rgb(68, 68, 68); stroke-opacity: 1; stroke-width: 2px;"/><path class="ytick ticks crisp" d="M103,0h-10" transform="translate(0,315.15999999999997)" style="stroke: rgb(68, 68, 68); stroke-opacity: 1; stroke-width: 2px;"/><path class="ytick ticks crisp" d="M103,0h-10" transform="translate(0,266.95)" style="stroke: rgb(68, 68, 68); stroke-opacity: 1; stroke-width: 2px;"/><path class="ytick ticks crisp" d="M103,0h-10" transform="translate(0,218.73)" style="stroke: rgb(68, 68, 68); stroke-opacity: 1; stroke-width: 2px;"/><path class="ytick ticks crisp" d="M103,0h-10" transform="translate(0,170.51999999999998)" style="stroke: rgb(68, 68, 68); stroke-opacity: 1; stroke-width: 2px;"/><path class="ytick ticks crisp" d="M103,0h-10" transform="translate(0,122.31)" style="stroke: rgb(68, 68, 68); stroke-opacity: 1; stroke-width: 2px;"/><path class="ytick ticks crisp" d="M103,0h-10" transform="translate(0,74.1)" style="stroke: rgb(68, 68, 68); stroke-opacity: 1; stroke-width: 2px;"/><g class="ytick"><text text-anchor="end" x="88.2" y="8.399999999999999" transform="translate(0,508)" style="font-family: Helvetica; font-size: 24px; fill: rgb(51, 51, 51); fill-opacity: 1; white-space: pre; opacity: 1;">0</text></g><g class="ytick"><text text-anchor="end" x="88.2" y="8.399999999999999" style="font-family: Helvetica; font-size: 24px; fill: rgb(51, 51, 51); fill-opacity: 1; white-space: pre; opacity: 1;" transform="translate(0,459.79)">0.01</text></g><g class="ytick"><text text-anchor="end" x="88.2" y="8.399999999999999" style="font-family: Helvetica; font-size: 24px; fill: rgb(51, 51, 51); fill-opacity: 1; white-space: pre; opacity: 1;" transform="translate(0,411.58)">0.02</text></g><g class="ytick"><text text-anchor="end" x="88.2" y="8.399999999999999" style="font-family: Helvetica; font-size: 24px; fill: rgb(51, 51, 51); fill-opacity: 1; white-space: pre; opacity: 1;" transform="translate(0,363.37)">0.03</text></g><g class="ytick"><text text-anchor="end" x="88.2" y="8.399999999999999" style="font-family: Helvetica; font-size: 24px; fill: rgb(51, 51, 51); fill-opacity: 1; white-space: pre; opacity: 1;" transform="translate(0,315.15999999999997)">0.04</text></g><g class="ytick"><text text-anchor="end" x="88.2" y="8.399999999999999" style="font-family: Helvetica; font-size: 24px; fill: rgb(51, 51, 51); fill-opacity: 1; white-space: pre; opacity: 1;" transform="translate(0,266.95)">0.05</text></g><g class="ytick"><text text-anchor="end" x="88.2" y="8.399999999999999" style="font-family: Helvetica; font-size: 24px; fill: rgb(51, 51, 51); fill-opacity: 1; white-space: pre; opacity: 1;" transform="translate(0,218.73)">0.06</text></g><g class="ytick"><text text-anchor="end" x="88.2" y="8.399999999999999" style="font-family: Helvetica; font-size: 24px; fill: rgb(51, 51, 51); fill-opacity: 1; white-space: pre; opacity: 1;" transform="translate(0,170.51999999999998)">0.07</text></g><g class="ytick"><text text-anchor="end" x="88.2" y="8.399999999999999" style="font-family: Helvetica; font-size: 24px; fill: rgb(51, 51, 51); fill-opacity: 1; white-space: pre; opacity: 1;" transform="translate(0,122.31)">0.08</text></g><g class="ytick"><text text-anchor="end" x="88.2" y="8.399999999999999" style="font-family: Helvetica; font-size: 24px; fill: rgb(51, 51, 51); fill-opacity: 1; white-space: pre; opacity: 1;" transform="translate(0,74.1)">0.09</text></g></g><g class="overaxes-above"/></g></g><g class="polarlayer"/><g class="smithlayer"/><g class="ternarylayer"/><g class="geolayer"/><g class="funnelarealayer"/><g class="pielayer"/><g class="iciclelayer"/><g class="treemaplayer"/><g class="sunburstlayer"/><g class="glimages"/><defs id="topdefs-18d91f"><g class="clips"/><clipPath id="legend18d91f"><rect width="129" height="278" x="0" y="0"/></clipPath></defs><g class="layer-above"><g class="imagelayer"/><g class="shapelayer"><g class="shape-group" data-index="0" clip-path="url(#clip18d91fx)"><path data-index="0" fill-rule="evenodd" d="M313.93,508L313.93,60" style="opacity: 1; stroke: rgb(0, 0, 0); stroke-opacity: 0.6; fill: rgb(0, 0, 0); fill-opacity: 0; stroke-dasharray: 12px, 12px; stroke-width: 4px;"/></g></g></g><g class="infolayer"><g class="legend" pointer-events="all" transform="translate(1117.4,122.59999999999997)"><rect class="bg" shape-rendering="crispEdges" width="129" height="278" x="0" y="0" style="stroke: rgb(68, 68, 68); stroke-opacity: 1; fill: rgb(255, 255, 255); fill-opacity: 1; stroke-width: 0px;"/><g class="scrollbox" transform="" clip-path="url(#legend18d91f)"><g class="groups"><g class="traces" transform="translate(0,27.3)" style="opacity: 1;"><text class="legendtext" text-anchor="start" x="40" y="12.48" style="font-family: Helvetica; font-size: 32px; fill: rgb(51, 51, 51); fill-opacity: 1; white-space: pre;">PT</text><g class="layers"><g class="legendfill"><path class="js-fill" d="M5,-2h30v6h-30z" style="stroke-width: 0; fill: rgb(0, 0, 0); fill-opacity: 0.2;"/></g><g class="legendlines"><path class="js-line" d="M5,-2h30" style="fill: none; stroke: rgb(0, 0, 0); stroke-opacity: 0.8; stroke-width: 4px;"/></g><g class="legendsymbols"><g class="legendpoints"/></g></g><rect class="legendtoggle" x="0" y="-22.3" width="123.625" height="44.6" style="fill: rgb(0, 0, 0); fill-opacity: 0;"/></g><g class="traces" transform="translate(0,71.9)" style="opacity: 1;"><text class="legendtext" text-anchor="start" x="40" y="12.48" style="font-family: Helvetica; font-size: 32px; fill: rgb(51, 51, 51); fill-opacity: 1; white-space: pre;">AL #1</text><g class="layers"><g class="legendfill"><path class="js-fill" d="M5,-2h30v6h-30z" style="stroke-width: 0; fill: rgb(0, 106, 113); fill-opacity: 0.2;"/></g><g class="legendlines"><path class="js-line" d="M5,-2h30" style="fill: none; stroke: rgb(0, 106, 113); stroke-opacity: 0.8; stroke-width: 4px;"/></g><g class="legendsymbols"><g class="legendpoints"/></g></g><rect class="legendtoggle" x="0" y="-22.3" width="123.625" height="44.6" style="fill: rgb(0, 0, 0); fill-opacity: 0;"/></g><g class="traces" transform="translate(0,116.5)" style="opacity: 1;"><text class="legendtext" text-anchor="start" x="40" y="12.48" style="font-family: Helvetica; font-size: 32px; fill: rgb(51, 51, 51); fill-opacity: 1; white-space: pre;">AL #2</text><g class="layers"><g class="legendfill"><path class="js-fill" d="M5,-2h30v6h-30z" style="stroke-width: 0; fill: rgb(232, 93, 4); fill-opacity: 0.2;"/></g><g class="legendlines"><path class="js-line" d="M5,-2h30" style="fill: none; stroke: rgb(232, 93, 4); stroke-opacity: 0.8; stroke-width: 4px;"/></g><g class="legendsymbols"><g class="legendpoints"/></g></g><rect class="legendtoggle" x="0" y="-22.3" width="123.625" height="44.6" style="fill: rgb(0, 0, 0); fill-opacity: 0;"/></g><g class="traces" transform="translate(0,161.10000000000002)" style="opacity: 1;"><text class="legendtext" text-anchor="start" x="40" y="12.48" style="font-family: Helvetica; font-size: 32px; fill: rgb(51, 51, 51); fill-opacity: 1; white-space: pre;">AL #3</text><g class="layers"><g class="legendfill"><path class="js-fill" d="M5,-2h30v6h-30z" style="stroke-width: 0; fill: rgb(123, 44, 191); fill-opacity: 0.2;"/></g><g class="legendlines"><path class="js-line" d="M5,-2h30" style="fill: none; stroke: rgb(123, 44, 191); stroke-opacity: 0.8; stroke-width: 4px;"/></g><g class="legendsymbols"><g class="legendpoints"/></g></g><rect class="legendtoggle" x="0" y="-22.3" width="123.625" height="44.6" style="fill: rgb(0, 0, 0); fill-opacity: 0;"/></g><g class="traces" transform="translate(0,205.70000000000002)" style="opacity: 1;"><text class="legendtext" text-anchor="start" x="40" y="12.48" style="font-family: Helvetica; font-size: 32px; fill: rgb(51, 51, 51); fill-opacity: 1; white-space: pre;">AL #4</text><g class="layers"><g class="legendfill"><path class="js-fill" d="M5,-2h30v6h-30z" style="stroke-width: 0; fill: rgb(0, 128, 0); fill-opacity: 0.2;"/></g><g class="legendlines"><path class="js-line" d="M5,-2h30" style="fill: none; stroke: rgb(0, 128, 0); stroke-opacity: 0.8; stroke-width: 4px;"/></g><g class="legendsymbols"><g class="legendpoints"/></g></g><rect class="legendtoggle" x="0" y="-22.3" width="123.625" height="44.6" style="fill: rgb(0, 0, 0); fill-opacity: 0;"/></g><g class="traces" transform="translate(0,250.3)" style="opacity: 1;"><text class="legendtext" text-anchor="start" x="40" y="12.48" style="font-family: Helvetica; font-size: 32px; fill: rgb(51, 51, 51); fill-opacity: 1; white-space: pre;">AL #5</text><g class="layers"><g class="legendfill"><path class="js-fill" d="M5,-2h30v6h-30z" style="stroke-width: 0; fill: rgb(164, 19, 60); fill-opacity: 0.2;"/></g><g class="legendlines"><path class="js-line" d="M5,-2h30" style="fill: none; stroke: rgb(164, 19, 60); stroke-opacity: 0.8; stroke-width: 4px;"/></g><g class="legendsymbols"><g class="legendpoints"/></g></g><rect class="legendtoggle" x="0" y="-22.3" width="123.625" height="44.6" style="fill: rgb(0, 0, 0); fill-opacity: 0;"/></g></g></g><rect class="scrollbar" rx="20" ry="3" width="0" height="0" x="0" y="0" style="fill: rgb(128, 139, 164); fill-opacity: 1;"/></g><g class="g-gtitle"><text class="gtitle" x="640" y="18" text-anchor="middle" dy="0.7em" style="font-family: Helvetica; font-size: 36px; fill: rgb(51, 51, 51); opacity: 1; font-weight: normal; white-space: pre;"><tspan style="font-weight:bold">196 descriptor-based space, 100 clusters, softsub selection</tspan></text></g><g class="g-xtitle"><text class="xtitle" x="667" y="587.9125" text-anchor="middle" style="font-family: Helvetica; font-size: 28px; fill: rgb(51, 51, 51); opacity: 1; font-weight: normal; white-space: pre;">Attractive Interaction Score</text></g><g class="g-ytitle" transform="translate(13.615234375,0)"><text class="ytitle" transform="rotate(-90,12.384375000000006,284)" x="12.384375000000006" y="284" text-anchor="middle" style="font-family: Helvetica; font-size: 28px; fill: rgb(51, 51, 51); opacity: 1; font-weight: normal; white-space: pre;">Relative Frequency</text></g><g class="annotation" data-index="0" style="opacity: 1;"><g class="annotation-text-g" transform="rotate(0,409.36,133.59999999999997)"><g class="cursor-pointer" transform="translate(329,118)"><rect class="bg" x="0.5" y="0.5" width="159" height="31" style="stroke-width: 1px; stroke: rgb(0, 0, 0); stroke-opacity: 0; fill: rgb(0, 0, 0); fill-opacity: 0;"/><text class="annotation-text" text-anchor="middle" x="80.03125" y="24" style="font-family: Helvetica; font-size: 24px; fill: rgb(0, 0, 0); fill-opacity: 0.6; white-space: pre;"><tspan style="font-weight:bold">Threshold: 11</tspan></text></g></g></g></g></svg>