<svg class="main-svg" xmlns="http://www.w3.org/2000/svg" xmlns:xlink="http://www.w3.org/1999/xlink" width="1280" height="600" style="" viewBox="0 0 1280 600"><rect x="0" y="0" width="1280" height="600" style="fill: rgb(255, 255, 255); fill-opacity: 1;"/><defs id="defs-58c610"><g class="clips"><clipPath id="clip58c610xyplot" class="plotclip"><rect width="1126" height="448"/></clipPath><clipPath class="axesclip" id="clip58c610x"><rect x="104" y="0" width="1126" height="600"/></clipPath><clipPath class="axesclip" id="clip58c610y"><rect x="0" y="60" width="1280" height="448"/></clipPath><clipPath class="axesclip" id="clip58c610xy"><rect x="104" y="60" width="1126" height="448"/></clipPath></g><g class="gradients"/><g class="patterns"/></defs><g class="bglayer"/><g class="layer-below"><g class="imagelayer"/><g class="shapelayer"/></g><g class="cartesianlayer"><g class="subplot xy"><g class="layer-subplot"><g class="shapelayer"/><g class="imagelayer"/></g><g class="minor-gridlayer"><g class="x"/><g class="y"/></g><g class="gridlayer"><g class="x"/><g class="y"/></g><g class="zerolinelayer"/><path class="xlines-below"/><path class="ylines-below"/><g class="overlines-below"/><g class="xaxislayer-below"/><g class="yaxislayer-below"/><g class="overaxes-below"/><g class="plot" transform="translate(104,60)" clip-path="url(#clip58c610xyplot)"><g class="scatterlayer mlayer"><g class="trace scatter trace48634b" style="stroke-miterlimit: 2;"><g class="fills"><g><path class="js-fill" d="M880.09,448L0,448L0,340.55L8.85,331.59L13.27,328.24L26.54,320.8L30.96,318.49L39.8,312.82L44.23,309.11L53.07,299.28L57.49,293.04L66.34,277.83L70.76,268.92L84.03,237.67L88.45,226.01L110.56,162.99L114.99,150.25L132.68,102.9L137.1,92.57L145.94,74.46L150.37,66.83L159.21,54.76L163.64,50.37L172.48,44.91L176.9,43.79L185.75,44.53L190.17,46.24L199.02,51.92L203.44,55.7L216.71,69.76L221.13,75.1L243.24,104.4L247.66,110.6L278.62,156.35L283.04,163L305.16,194.24L309.58,199.86L331.69,225.43L336.12,230.47L349.38,246.83L353.81,252.89L367.07,273.08L371.5,280.38L402.45,331.06L406.88,337.25L420.14,353.41L424.57,358.04L437.83,370.14L442.26,373.7L459.95,386.18L464.37,388.87L482.06,397.88L486.48,399.73L543.98,422.97L548.4,424.88L570.51,432.98L574.93,434.23L592.62,438.01L597.05,438.69L623.58,441.36L628.01,441.64L658.96,442.49L663.39,442.47L716.46,442.8L720.88,443.02L800.49,446.49L804.91,446.57L840.29,446.05L844.71,445.87L880.09,445.17" style="fill: rgb(0, 0, 0); fill-opacity: 0.2; stroke-width: 0;"/></g></g><g class="errorbars"/><g class="lines"><path class="js-line" d="M0,340.55L8.85,331.59L13.27,328.24L26.54,320.8L30.96,318.49L39.8,312.82L44.23,309.11L53.07,299.28L57.49,293.04L66.34,277.83L70.76,268.92L84.03,237.67L88.45,226.01L110.56,162.99L114.99,150.25L132.68,102.9L137.1,92.57L145.94,74.46L150.37,66.83L159.21,54.76L163.64,50.37L172.48,44.91L176.9,43.79L185.75,44.53L190.17,46.24L199.02,51.92L203.44,55.7L216.71,69.76L221.13,75.1L243.24,104.4L247.66,110.6L278.62,156.35L283.04,163L305.16,194.24L309.58,199.86L331.69,225.43L336.12,230.47L349.38,246.83L353.81,252.89L367.07,273.08L371.5,280.38L402.45,331.06L406.88,337.25L420.14,353.41L424.57,358.04L437.83,370.14L442.26,373.7L459.95,386.18L464.37,388.87L482.06,397.88L486.48,399.73L543.98,422.97L548.4,424.88L570.51,432.98L574.93,434.23L592.62,438.01L597.05,438.69L623.58,441.36L628.01,441.64L658.96,442.49L663.39,442.47L716.46,442.8L720.88,443.02L800.49,446.49L804.91,446.57L840.29,446.05L844.71,445.87L880.09,445.17" style="vector-effect: none; fill: none; stroke: rgb(0, 0, 0); stroke-opacity: 0.8; stroke-width: 4px; opacity: 1;"/></g><g class="points"/><g class="text"/></g><g class="trace scatter trace142403" style="stroke-miterlimit: 2;"><g class="fills"><g><path class="js-fill" d="M1022.46,448L0,448L0,352.68L5.14,350.97L10.28,350.71L20.55,353.53L25.69,355.87L35.97,360.2L41.1,361.35L46.24,361.36L51.38,359.99L56.52,357.08L61.66,352.58L71.93,339.03L77.07,330.23L87.35,309.5L92.48,297.99L138.73,189.93L143.86,179.24L164.42,139.73L169.55,130.41L200.38,77.08L205.52,69.05L215.8,54.82L220.93,48.96L231.21,40.63L236.35,38.47L241.49,37.81L246.62,38.74L251.76,41.28L256.9,45.44L267.18,58.3L272.31,66.74L282.59,86.71L287.73,97.76L318.56,164.41L323.69,174.1L339.11,200.2L344.25,208.16L375.07,252.95L380.21,260.04L400.76,286.58L405.9,292.78L452.14,346.13L457.28,351.81L477.83,372.67L482.97,377.25L498.38,389.37L503.52,392.93L524.07,405.58L529.21,408.48L554.9,421.52L560.04,423.69L575.45,429L580.59,430.36L601.14,434.19L606.28,434.88L683.35,443.89L688.49,444.17L714.18,444.37L719.32,444.17L780.97,441.4L786.11,441.65L822.08,444.97L827.22,445.43L858.04,446.91L863.18,446.95L1022.46,446.59" style="fill: rgb(0, 106, 113); fill-opacity: 0.2; stroke-width: 0;"/></g></g><g class="errorbars"/><g class="lines"><path class="js-line" d="M0,352.68L5.14,350.97L10.28,350.71L20.55,353.53L25.69,355.87L35.97,360.2L41.1,361.35L46.24,361.36L51.38,359.99L56.52,357.08L61.66,352.58L71.93,339.03L77.07,330.23L87.35,309.5L92.48,297.99L138.73,189.93L143.86,179.24L164.42,139.73L169.55,130.41L200.38,77.08L205.52,69.05L215.8,54.82L220.93,48.96L231.21,40.63L236.35,38.47L241.49,37.81L246.62,38.74L251.76,41.28L256.9,45.44L267.18,58.3L272.31,66.74L282.59,86.71L287.73,97.76L318.56,164.41L323.69,174.1L339.11,200.2L344.25,208.16L375.07,252.95L380.21,260.04L400.76,286.58L405.9,292.78L452.14,346.13L457.28,351.81L477.83,372.67L482.97,377.25L498.38,389.37L503.52,392.93L524.07,405.58L529.21,408.48L554.9,421.52L560.04,423.69L575.45,429L580.59,430.36L601.14,434.19L606.28,434.88L683.35,443.89L688.49,444.17L714.18,444.37L719.32,444.17L780.97,441.4L786.11,441.65L822.08,444.97L827.22,445.43L858.04,446.91L863.18,446.95L1022.46,446.59" style="vector-effect: none; fill: none; stroke: rgb(0, 106, 113); stroke-opacity: 0.8; stroke-width: 4px; opacity: 1;"/></g><g class="points"/><g class="text"/></g><g class="trace scatter tracee798fe" style="stroke-miterlimit: 2;"><g class="fills"><g><path class="js-fill" d="M1126,448L0,448L0,334.79L5.66,332.48L11.32,331.69L16.97,332.23L22.63,333.84L45.27,343.5L50.92,344.87L56.58,345.24L62.24,344.43L67.9,342.35L73.56,338.97L84.87,328.47L90.53,321.56L101.85,305.06L107.51,295.76L130.14,254.92L135.8,244.44L158.43,204.47L164.09,195.33L181.07,170.51L186.72,163.13L203.7,143.63L209.36,138.01L220.67,128.15L226.33,123.94L237.65,117.05L243.31,114.41L254.62,110.88L260.28,110.04L271.6,110.45L277.26,111.79L288.57,116.96L294.23,120.86L305.55,131.32L311.21,137.8L322.52,152.87L328.18,161.22L373.45,230.22L379.11,237.67L396.08,257.76L401.74,263.82L435.69,297.51L441.35,303.17L475.3,339L480.95,345.07L503.59,368.07L509.25,373.29L526.22,387.24L531.88,391.26L548.85,401.43L554.51,404.21L571.49,410.96L577.15,412.76L599.78,418.35L605.44,419.48L639.39,425.04L645.05,425.8L724.26,436.31L729.92,437.32L763.87,442.42L769.53,442.92L792.16,443.81L797.82,443.81L860.06,443.79L865.72,443.98L950.59,446.2L956.25,446.27L1086.39,447.25L1092.05,447.16L1126,446.79" style="fill: rgb(232, 93, 4); fill-opacity: 0.2; stroke-width: 0;"/></g></g><g class="errorbars"/><g class="lines"><path class="js-line" d="M0,334.79L5.66,332.48L11.32,331.69L16.97,332.23L22.63,333.84L45.27,343.5L50.92,344.87L56.58,345.24L62.24,344.43L67.9,342.35L73.56,338.97L84.87,328.47L90.53,321.56L101.85,305.06L107.51,295.76L130.14,254.92L135.8,244.44L158.43,204.47L164.09,195.33L181.07,170.51L186.72,163.13L203.7,143.63L209.36,138.01L220.67,128.15L226.33,123.94L237.65,117.05L243.31,114.41L254.62,110.88L260.28,110.04L271.6,110.45L277.26,111.79L288.57,116.96L294.23,120.86L305.55,131.32L311.21,137.8L322.52,152.87L328.18,161.22L373.45,230.22L379.11,237.67L396.08,257.76L401.74,263.82L435.69,297.51L441.35,303.17L475.3,339L480.95,345.07L503.59,368.07L509.25,373.29L526.22,387.24L531.88,391.26L548.85,401.43L554.51,404.21L571.49,410.96L577.15,412.76L599.78,418.35L605.44,419.48L639.39,425.04L645.05,425.8L724.26,436.31L729.92,437.32L763.87,442.42L769.53,442.92L792.16,443.81L797.82,443.81L860.06,443.79L865.72,443.98L950.59,446.2L956.25,446.27L1086.39,447.25L1092.05,447.16L1126,446.79" style="vector-effect: none; fill: none; stroke: rgb(232, 93, 4); stroke-opacity: 0.8; stroke-width: 4px; opacity: 1;"/></g><g class="points"/><g class="text"/></g><g class="trace scatter trace024caf" style="stroke-miterlimit: 2;"><g class="fills"><g><path class="js-fill" d="M944.8,448L0,448L0,346.35L4.75,344.98L9.5,344.66L18.99,346.77L23.74,348.85L47.48,361.03L52.23,362.37L61.72,362.73L66.47,361.62L75.96,356.71L80.71,352.95L90.21,343.09L94.96,337.13L109.2,316.09L113.95,308.3L142.43,258.15L147.18,249.72L175.67,201.1L180.41,193.45L199.41,164.88L204.15,158.45L218.4,141.73L223.14,137.19L232.64,129.92L237.39,127.24L246.88,123.81L251.63,123.02L261.13,123.13L265.87,123.92L280.12,128.56L284.87,130.68L303.86,140.72L308.6,143.48L332.34,158.34L337.09,161.6L356.08,176.38L360.83,180.64L375.07,195.19L379.82,200.66L394.06,218.89L398.81,225.49L446.29,293.33L451.04,299.18L465.28,314.87L470.03,319.49L489.02,335.6L493.77,339.22L564.98,391.54L569.73,394.5L588.72,404.87L593.47,407.12L617.21,416.83L621.96,418.5L645.7,425.39L650.44,426.46L674.18,430.41L678.93,430.96L721.66,434.5L726.41,434.88L769.14,439.31L773.89,439.91L816.62,444.44L821.36,444.71L854.6,445.29L859.34,445.27L921.07,445.81L925.81,445.91L944.8,446.3" style="fill: rgb(123, 44, 191); fill-opacity: 0.2; stroke-width: 0;"/></g></g><g class="errorbars"/><g class="lines"><path class="js-line" d="M0,346.35L4.75,344.98L9.5,344.66L18.99,346.77L23.74,348.85L47.48,361.03L52.23,362.37L61.72,362.73L66.47,361.62L75.96,356.71L80.71,352.95L90.21,343.09L94.96,337.13L109.2,316.09L113.95,308.3L142.43,258.15L147.18,249.72L175.67,201.1L180.41,193.45L199.41,164.88L204.15,158.45L218.4,141.73L223.14,137.19L232.64,129.92L237.39,127.24L246.88,123.81L251.63,123.02L261.13,123.13L265.87,123.92L280.12,128.56L284.87,130.68L303.86,140.72L308.6,143.48L332.34,158.34L337.09,161.6L356.08,176.38L360.83,180.64L375.07,195.19L379.82,200.66L394.06,218.89L398.81,225.49L446.29,293.33L451.04,299.18L465.28,314.87L470.03,319.49L489.02,335.6L493.77,339.22L564.98,391.54L569.73,394.5L588.72,404.87L593.47,407.12L617.21,416.83L621.96,418.5L645.7,425.39L650.44,426.46L674.18,430.41L678.93,430.96L721.66,434.5L726.41,434.88L769.14,439.31L773.89,439.91L816.62,444.44L821.36,444.71L854.6,445.29L859.34,445.27L921.07,445.81L925.81,445.91L944.8,446.3" style="vector-effect: none; fill: none; stroke: rgb(123, 44, 191); stroke-opacity: 0.8; stroke-width: 4px; opacity: 1;"/></g><g class="points"/><g class="text"/></g><g class="trace scatter trace0a2438" style="stroke-miterlimit: 2;"><g class="fills"><g><path class="js-fill" d="M1100.11,448L0,448L0,342.74L5.53,341.63L11.06,341.85L22.11,345.65L27.64,348.73L49.75,362.07L55.28,364.32L66.34,366.24L71.87,365.8L82.92,362.13L88.45,359.03L99.51,350.74L105.04,345.72L121.62,327.98L127.15,321.29L143.73,299.01L149.26,290.85L165.85,264.29L171.37,254.86L210.07,188.89L215.6,180.57L232.19,158.84L237.71,152.79L248.77,142.55L254.3,138.4L265.35,132.08L270.88,129.97L281.94,128L287.47,128.21L298.52,131.15L304.05,133.88L315.11,141.75L320.64,146.74L337.22,164.62L342.75,171.08L364.86,195.69L370.39,201.06L386.98,214.96L392.5,219.04L420.14,239.81L425.67,244.67L442.26,261.22L447.79,267.29L486.48,309.55L492.01,314.79L514.12,333.44L519.65,337.74L569.41,374.99L574.93,378.69L591.52,388.6L597.05,391.49L619.16,401.55L624.69,403.82L663.39,418.47L668.91,420.31L691.03,426.45L696.56,427.67L724.2,432.41L729.72,433.18L790.53,440.57L796.06,441.13L834.76,444L840.29,444.23L890.04,444.94L895.57,444.99L961.91,446.73L967.44,446.9L1028.25,447.66L1033.78,447.62L1100.11,446.86" style="fill: rgb(0, 128, 0); fill-opacity: 0.2; stroke-width: 0;"/></g></g><g class="errorbars"/><g class="lines"><path class="js-line" d="M0,342.74L5.53,341.63L11.06,341.85L22.11,345.65L27.64,348.73L49.75,362.07L55.28,364.32L66.34,366.24L71.87,365.8L82.92,362.13L88.45,359.03L99.51,350.74L105.04,345.72L121.62,327.98L127.15,321.29L143.73,299.01L149.26,290.85L165.85,264.29L171.37,254.86L210.07,188.89L215.6,180.57L232.19,158.84L237.71,152.79L248.77,142.55L254.3,138.4L265.35,132.08L270.88,129.97L281.94,128L287.47,128.21L298.52,131.15L304.05,133.88L315.11,141.75L320.64,146.74L337.22,164.62L342.75,171.08L364.86,195.69L370.39,201.06L386.98,214.96L392.5,219.04L420.14,239.81L425.67,244.67L442.26,261.22L447.79,267.29L486.48,309.55L492.01,314.79L514.12,333.44L519.65,337.74L569.41,374.99L574.93,378.69L591.52,388.6L597.05,391.49L619.16,401.55L624.69,403.82L663.39,418.47L668.91,420.31L691.03,426.45L696.56,427.67L724.2,432.41L729.72,433.18L790.53,440.57L796.06,441.13L834.76,444L840.29,444.23L890.04,444.94L895.57,444.99L961.91,446.73L967.44,446.9L1028.25,447.66L1033.78,447.62L1100.11,446.86" style="vector-effect: none; fill: none; stroke: rgb(0, 128, 0); stroke-opacity: 0.8; stroke-width: 4px; opacity: 1;"/></g><g class="points"/><g class="text"/></g><g class="trace scatter tracee490c3" style="stroke-miterlimit: 2;"><g class="fills"><g><path class="js-fill" d="M1087.17,448L0,448L0,372.46L10.93,369.7L16.39,369.37L49.17,370.78L54.63,369.87L65.56,366.16L71.02,363.37L81.95,356.15L87.41,351.87L103.8,337.15L109.26,331.76L125.65,314.15L131.12,307.73L147.51,286.35L152.97,278.49L174.82,244.15L180.28,235.21L202.14,201.24L207.6,193.71L218.53,180.33L223.99,174.57L234.92,164.94L240.38,161.03L251.31,154.84L256.77,152.46L267.7,148.89L273.16,147.62L289.55,145.62L295.01,145.54L311.4,147.19L316.86,148.42L333.25,154.14L338.72,156.65L360.57,168.85L366.03,172.28L387.89,187.46L393.35,191.78L409.74,206.66L415.2,212.33L431.59,231.3L437.05,238.09L469.83,277.96L475.3,283.82L491.69,299.64L497.15,304.43L546.32,347.08L551.78,352.25L584.56,382.51L590.02,387L606.41,398.93L611.88,402.37L628.27,411.24L633.73,413.77L655.58,422.45L661.04,424.35L688.36,432.49L693.82,433.82L715.68,437.93L721.14,438.62L742.99,440.12L748.46,440.24L824.94,440.94L830.4,441.26L906.89,445.66L912.35,445.79L1032.54,447.32L1038,447.28L1087.17,446.8" style="fill: rgb(164, 19, 60); fill-opacity: 0.2; stroke-width: 0;"/></g></g><g class="errorbars"/><g class="lines"><path class="js-line" d="M0,372.46L10.93,369.7L16.39,369.37L49.17,370.78L54.63,369.87L65.56,366.16L71.02,363.37L81.95,356.15L87.41,351.87L103.8,337.15L109.26,331.76L125.65,314.15L131.12,307.73L147.51,286.35L152.97,278.49L174.82,244.15L180.28,235.21L202.14,201.24L207.6,193.71L218.53,180.33L223.99,174.57L234.92,164.94L240.38,161.03L251.31,154.84L256.77,152.46L267.7,148.89L273.16,147.62L289.55,145.62L295.01,145.54L311.4,147.19L316.86,148.42L333.25,154.14L338.72,156.65L360.57,168.85L366.03,172.28L387.89,187.46L393.35,191.78L409.74,206.66L415.2,212.33L431.59,231.3L437.05,238.09L469.83,277.96L475.3,283.82L491.69,299.64L497.15,304.43L546.32,347.08L551.78,352.25L584.56,382.51L590.02,387L606.41,398.93L611.88,402.37L628.27,411.24L633.73,413.77L655.58,422.45L661.04,424.35L688.36,432.49L693.82,433.82L715.68,437.93L721.14,438.62L742.99,440.12L748.46,440.24L824.94,440.94L830.4,441.26L906.89,445.66L912.35,445.79L1032.54,447.32L1038,447.28L1087.17,446.8" style="vector-effect: none; fill: none; stroke: rgb(164, 19, 60); stroke-opacity: 0.8; stroke-width: 4px; opacity: 1;"/></g><g class="points"/><g class="text"/></g></g></g><g class="overplot"/><path class="xlines-above crisp" d="M103,508.5H1230" style="fill: none; stroke-width: 1px; stroke: rgb(0, 0, 0); stroke-opacity: 1;"/><path class="ylines-above crisp" d="M103.5,60V508" style="fill: none; stroke-width: 1px; stroke: rgb(0, 0, 0); stroke-opacity: 1;"/><g class="overlines-above"/><g class="xaxislayer-above"><path class="xtick ticks crisp" d="M0,509v10" transform="translate(104,0)" style="stroke: rgb(68, 68, 68); stroke-opacity: 1; stroke-width: 2px;"/><path class="xtick ticks crisp" d="M0,509v10" transform="translate(233.43,0)" style="stroke: rgb(68, 68, 68); stroke-opacity: 1; stroke-width: 2px;"/><path class="xtick ticks crisp" d="M0,509v10" transform="translate(362.85,0)" style="stroke: rgb(68, 68, 68); stroke-opacity: 1; stroke-width: 2px;"/><path class="xtick ticks crisp" d="M0,509v10" transform="translate(492.28,0)" style="stroke: rgb(68, 68, 68); stroke-opacity: 1; stroke-width: 2px;"/><path class="xtick ticks crisp" d="M0,509v10" transform="translate(621.7,0)" style="stroke: rgb(68, 68, 68); stroke-opacity: 1; stroke-width: 2px;"/><path class="xtick ticks crisp" d="M0,509v10" transform="translate(751.13,0)" style="stroke: rgb(68, 68, 68); stroke-opacity: 1; stroke-width: 2px;"/><path class="xtick ticks crisp" d="M0,509v10" transform="translate(880.55,0)" style="stroke: rgb(68, 68, 68); stroke-opacity: 1; stroke-width: 2px;"/><path class="xtick ticks crisp" d="M0,509v10" transform="translate(1009.98,0)" style="stroke: rgb(68, 68, 68); stroke-opacity: 1; stroke-width: 2px;"/><path class="xtick ticks crisp" d="M0,509v10" transform="translate(1139.4,0)" style="stroke: rgb(68, 68, 68); stroke-opacity: 1; stroke-width: 2px;"/><g class="xtick"><text text-anchor="middle" x="0" y="547.8" transform="translate(104,0)" style="font-family: Helvetica; font-size: 24px; fill: rgb(51, 51, 51); fill-opacity: 1; white-space: pre; opacity: 1;">0</text></g><g class="xtick"><text text-anchor="middle" x="0" y="547.8" style="font-family: Helvetica; font-size: 24px; fill: rgb(51, 51, 51); fill-opacity: 1; white-space: pre; opacity: 1;" transform="translate(233.43,0)">5</text></g><g class="xtick"><text text-anchor="middle" x="0" y="547.8" style="font-family: Helvetica; font-size: 24px; fill: rgb(51, 51, 51); fill-opacity: 1; white-space: pre; opacity: 1;" transform="translate(362.85,0)">10</text></g><g class="xtick"><text text-anchor="middle" x="0" y="547.8" style="font-family: Helvetica; font-size: 24px; fill: rgb(51, 51, 51); fill-opacity: 1; white-space: pre; opacity: 1;" transform="translate(492.28,0)">15</text></g><g class="xtick"><text text-anchor="middle" x="0" y="547.8" style="font-family: Helvetica; font-size: 24px; fill: rgb(51, 51, 51); fill-opacity: 1; white-space: pre; opacity: 1;" transform="translate(621.7,0)">20</text></g><g class="xtick"><text text-anchor="middle" x="0" y="547.8" style="font-family: Helvetica; font-size: 24px; fill: rgb(51, 51, 51); fill-opacity: 1; white-space: pre; opacity: 1;" transform="translate(751.13,0)">25</text></g><g class="xtick"><text text-anchor="middle" x="0" y="547.8" style="font-family: Helvetica; font-size: 24px; fill: rgb(51, 51, 51); fill-opacity: 1; white-space: pre; opacity: 1;" transform="translate(880.55,0)">30</text></g><g class="xtick"><text text-anchor="middle" x="0" y="547.8" style="font-family: Helvetica; font-size: 24px; fill: rgb(51, 51, 51); fill-opacity: 1; white-space: pre; opacity: 1;" transform="translate(1009.98,0)">35</text></g><g class="xtick"><text text-anchor="middle" x="0" y="547.8" style="font-family: Helvetica; font-size: 24px; fill: rgb(51, 51, 51); fill-opacity: 1; white-space: pre; opacity: 1;" transform="translate(1139.4,0)">40</text></g></g><g class="yaxislayer-above"><path class="ytick ticks crisp" d="M103,0h-10" transform="translate(0,508)" style="stroke: rgb(68, 68, 68); stroke-opacity: 1; stroke-width: 2px;"/><path class="ytick ticks crisp" d="M103,0h-10" transform="translate(0,461.87)" style="stroke: rgb(68, 68, 68); stroke-opacity: 1; stroke-width: 2px;"/><path class="ytick ticks crisp" d="M103,0h-10" transform="translate(0,415.75)" style="stroke: rgb(68, 68, 68); stroke-opacity: 1; stroke-width: 2px;"/><path class="ytick ticks crisp" d="M103,0h-10" transform="translate(0,369.62)" style="stroke: rgb(68, 68, 68); stroke-opacity: 1; stroke-width: 2px;"/><path class="ytick ticks crisp" d="M103,0h-10" transform="translate(0,323.5)" style="stroke: rgb(68, 68, 68); stroke-opacity: 1; stroke-width: 2px;"/><path class="ytick ticks crisp" d="M103,0h-10" transform="translate(0,277.37)" style="stroke: rgb(68, 68, 68); stroke-opacity: 1; stroke-width: 2px;"/><path class="ytick ticks crisp" d="M103,0h-10" transform="translate(0,231.24)" style="stroke: rgb(68, 68, 68); stroke-opacity: 1; stroke-width: 2px;"/><path class="ytick ticks crisp" d="M103,0h-10" transform="translate(0,185.12)" style="stroke: rgb(68, 68, 68); stroke-opacity: 1; stroke-width: 2px;"/><path class="ytick ticks crisp" d="M103,0h-10" transform="translate(0,138.99)" style="stroke: rgb(68, 68, 68); stroke-opacity: 1; stroke-width: 2px;"/><path class="ytick ticks crisp" d="M103,0h-10" transform="translate(0,92.86)" style="stroke: rgb(68, 68, 68); stroke-opacity: 1; stroke-width: 2px;"/><g class="ytick"><text text-anchor="end" x="88.2" y="8.399999999999999" transform="translate(0,508)" style="font-family: Helvetica; font-size: 24px; fill: rgb(51, 51, 51); fill-opacity: 1; white-space: pre; opacity: 1;">0</text></g><g class="ytick"><text text-anchor="end" x="88.2" y="8.399999999999999" style="font-family: Helvetica; font-size: 24px; fill: rgb(51, 51, 51); fill-opacity: 1; white-space: pre; opacity: 1;" transform="translate(0,461.87)">0.01</text></g><g class="ytick"><text text-anchor="end" x="88.2" y="8.399999999999999" style="font-family: Helvetica; font-size: 24px; fill: rgb(51, 51, 51); fill-opacity: 1; white-space: pre; opacity: 1;" transform="translate(0,415.75)">0.02</text></g><g class="ytick"><text text-anchor="end" x="88.2" y="8.399999999999999" style="font-family: Helvetica; font-size: 24px; fill: rgb(51, 51, 51); fill-opacity: 1; white-space: pre; opacity: 1;" transform="translate(0,369.62)">0.03</text></g><g class="ytick"><text text-anchor="end" x="88.2" y="8.399999999999999" style="font-family: Helvetica; font-size: 24px; fill: rgb(51, 51, 51); fill-opacity: 1; white-space: pre; opacity: 1;" transform="translate(0,323.5)">0.04</text></g><g class="ytick"><text text-anchor="end" x="88.2" y="8.399999999999999" style="font-family: Helvetica; font-size: 24px; fill: rgb(51, 51, 51); fill-opacity: 1; white-space: pre; opacity: 1;" transform="translate(0,277.37)">0.05</text></g><g class="ytick"><text text-anchor="end" x="88.2" y="8.399999999999999" style="font-family: Helvetica; font-size: 24px; fill: rgb(51, 51, 51); fill-opacity: 1; white-space: pre; opacity: 1;" transform="translate(0,231.24)">0.06</text></g><g class="ytick"><text text-anchor="end" x="88.2" y="8.399999999999999" style="font-family: Helvetica; font-size: 24px; fill: rgb(51, 51, 51); fill-opacity: 1; white-space: pre; opacity: 1;" transform="translate(0,185.12)">0.07</text></g><g class="ytick"><text text-anchor="end" x="88.2" y="8.399999999999999" style="font-family: Helvetica; font-size: 24px; fill: rgb(51, 51, 51); fill-opacity: 1; white-space: pre; opacity: 1;" transform="translate(0,138.99)">0.08</text></g><g class="ytick"><text text-anchor="end" x="88.2" y="8.399999999999999" style="font-family: Helvetica; font-size: 24px; fill: rgb(51, 51, 51); fill-opacity: 1; white-space: pre; opacity: 1;" transform="translate(0,92.86)">0.09</text></g></g><g class="overaxes-above"/></g></g><g class="polarlayer"/><g class="smithlayer"/><g class="ternarylayer"/><g class="geolayer"/><g class="funnelarealayer"/><g class="pielayer"/><g class="iciclelayer"/><g class="treemaplayer"/><g class="sunburstlayer"/><g class="glimages"/><defs id="topdefs-58c610"><g class="clips"/><clipPath id="legend58c610"><rect width="129" height="278" x="0" y="0"/></clipPath></defs><g class="layer-above"><g class="imagelayer"/><g class="shapelayer"><g class="shape-group" data-index="0" clip-path="url(#clip58c610x)"><path data-index="0" fill-rule="evenodd" d="M388.74,508L388.74,60" style="opacity: 1; stroke: rgb(0, 0, 0); stroke-opacity: 0.6; fill: rgb(0, 0, 0); fill-opacity: 0; stroke-dasharray: 12px, 12px; stroke-width: 4px;"/></g></g></g><g class="infolayer"><g class="legend" pointer-events="all" transform="translate(1117.4,122.59999999999997)"><rect class="bg" shape-rendering="crispEdges" width="129" height="278" x="0" y="0" style="stroke: rgb(68, 68, 68); stroke-opacity: 1; fill: rgb(255, 255, 255); fill-opacity: 1; stroke-width: 0px;"/><g class="scrollbox" transform="" clip-path="url(#legend58c610)"><g class="groups"><g class="traces" transform="translate(0,27.3)" style="opacity: 1;"><text class="legendtext" text-anchor="start" x="40" y="12.48" style="font-family: Helvetica; font-size: 32px; fill: rgb(51, 51, 51); fill-opacity: 1; white-space: pre;">PT</text><g class="layers"><g class="legendfill"><path class="js-fill" d="M5,-2h30v6h-30z" style="stroke-width: 0; fill: rgb(0, 0, 0); fill-opacity: 0.2;"/></g><g class="legendlines"><path class="js-line" d="M5,-2h30" style="fill: none; stroke: rgb(0, 0, 0); stroke-opacity: 0.8; stroke-width: 4px;"/></g><g class="legendsymbols"><g class="legendpoints"/></g></g><rect class="legendtoggle" x="0" y="-22.3" width="123.625" height="44.6" style="fill: rgb(0, 0, 0); fill-opacity: 0;"/></g><g class="traces" transform="translate(0,71.9)" style="opacity: 1;"><text class="legendtext" text-anchor="start" x="40" y="12.48" style="font-family: Helvetica; font-size: 32px; fill: rgb(51, 51, 51); fill-opacity: 1; white-space: pre;">AL #1</text><g class="layers"><g class="legendfill"><path class="js-fill" d="M5,-2h30v6h-30z" style="stroke-width: 0; fill: rgb(0, 106, 113); fill-opacity: 0.2;"/></g><g class="legendlines"><path class="js-line" d="M5,-2h30" style="fill: none; stroke: rgb(0, 106, 113); stroke-opacity: 0.8; stroke-width: 4px;"/></g><g class="legendsymbols"><g class="legendpoints"/></g></g><rect class="legendtoggle" x="0" y="-22.3" width="123.625" height="44.6" style="fill: rgb(0, 0, 0); fill-opacity: 0;"/></g><g class="traces" transform="translate(0,116.5)" style="opacity: 1;"><text class="legendtext" text-anchor="start" x="40" y="12.48" style="font-family: Helvetica; font-size: 32px; fill: rgb(51, 51, 51); fill-opacity: 1; white-space: pre;">AL #2</text><g class="layers"><g class="legendfill"><path class="js-fill" d="M5,-2h30v6h-30z" style="stroke-width: 0; fill: rgb(232, 93, 4); fill-opacity: 0.2;"/></g><g class="legendlines"><path class="js-line" d="M5,-2h30" style="fill: none; stroke: rgb(232, 93, 4); stroke-opacity: 0.8; stroke-width: 4px;"/></g><g class="legendsymbols"><g class="legendpoints"/></g></g><rect class="legendtoggle" x="0" y="-22.3" width="123.625" height="44.6" style="fill: rgb(0, 0, 0); fill-opacity: 0;"/></g><g class="traces" transform="translate(0,161.10000000000002)" style="opacity: 1;"><text class="legendtext" text-anchor="start" x="40" y="12.48" style="font-family: Helvetica; font-size: 32px; fill: rgb(51, 51, 51); fill-opacity: 1; white-space: pre;">AL #3</text><g class="layers"><g class="legendfill"><path class="js-fill" d="M5,-2h30v6h-30z" style="stroke-width: 0; fill: rgb(123, 44, 191); fill-opacity: 0.2;"/></g><g class="legendlines"><path class="js-line" d="M5,-2h30" style="fill: none; stroke: rgb(123, 44, 191); stroke-opacity: 0.8; stroke-width: 4px;"/></g><g class="legendsymbols"><g class="legendpoints"/></g></g><rect class="legendtoggle" x="0" y="-22.3" width="123.625" height="44.6" style="fill: rgb(0, 0, 0); fill-opacity: 0;"/></g><g class="traces" transform="translate(0,205.70000000000002)" style="opacity: 1;"><text class="legendtext" text-anchor="start" x="40" y="12.48" style="font-family: Helvetica; font-size: 32px; fill: rgb(51, 51, 51); fill-opacity: 1; white-space: pre;">AL #4</text><g class="layers"><g class="legendfill"><path class="js-fill" d="M5,-2h30v6h-30z" style="stroke-width: 0; fill: rgb(0, 128, 0); fill-opacity: 0.2;"/></g><g class="legendlines"><path class="js-line" d="M5,-2h30" style="fill: none; stroke: rgb(0, 128, 0); stroke-opacity: 0.8; stroke-width: 4px;"/></g><g class="legendsymbols"><g class="legendpoints"/></g></g><rect class="legendtoggle" x="0" y="-22.3" width="123.625" height="44.6" style="fill: rgb(0, 0, 0); fill-opacity: 0;"/></g><g class="traces" transform="translate(0,250.3)" style="opacity: 1;"><text class="legendtext" text-anchor="start" x="40" y="12.48" style="font-family: Helvetica; font-size: 32px; fill: rgb(51, 51, 51); fill-opacity: 1; white-space: pre;">AL #5</text><g class="layers"><g class="legendfill"><path class="js-fill" d="M5,-2h30v6h-30z" style="stroke-width: 0; fill: rgb(164, 19, 60); fill-opacity: 0.2;"/></g><g class="legendlines"><path class="js-line" d="M5,-2h30" style="fill: none; stroke: rgb(164, 19, 60); stroke-opacity: 0.8; stroke-width: 4px;"/></g><g class="legendsymbols"><g class="legendpoints"/></g></g><rect class="legendtoggle" x="0" y="-22.3" width="123.625" height="44.6" style="fill: rgb(0, 0, 0); fill-opacity: 0;"/></g></g></g><rect class="scrollbar" rx="20" ry="3" width="0" height="0" x="0" y="0" style="fill: rgb(128, 139, 164); fill-opacity: 1;"/></g><g class="g-gtitle"><text class="gtitle" x="640" y="18" text-anchor="middle" dy="0.7em" style="font-family: Helvetica; font-size: 36px; fill: rgb(51, 51, 51); opacity: 1; font-weight: normal; white-space: pre;"><tspan style="font-weight:bold">42 MQ-based space, 100 clusters, softsub selection</tspan></text></g><g class="g-xtitle"><text class="xtitle" x="667" y="587.9125" text-anchor="middle" style="font-family: Helvetica; font-size: 28px; fill: rgb(51, 51, 51); opacity: 1; font-weight: normal; white-space: pre;">Attractive Interaction Score</text></g><g class="g-ytitle" transform="translate(13.615234375,0)"><text class="ytitle" transform="rotate(-90,12.384375000000006,284)" x="12.384375000000006" y="284" text-anchor="middle" style="font-family: Helvetica; font-size: 28px; fill: rgb(51, 51, 51); opacity: 1; font-weight: normal; white-space: pre;">Relative Frequency</text></g><g class="annotation" data-index="0" style="opacity: 1;"><g class="annotation-text-g" transform="rotate(0,492.28,133.59999999999997)"><g class="cursor-pointer" transform="translate(412,118)"><rect class="bg" x="0.5" y="0.5" width="159" height="31" style="stroke-width: 1px; stroke: rgb(0, 0, 0); stroke-opacity: 0; fill: rgb(0, 0, 0); fill-opacity: 0;"/><text class="annotation-text" text-anchor="middle" x="80.03125" y="24" style="font-family: Helvetica; font-size: 24px; fill: rgb(0, 0, 0); fill-opacity: 0.6; white-space: pre;"><tspan style="font-weight:bold">Threshold: 11</tspan></text></g></g></g></g></svg>