<svg class="main-svg" xmlns="http://www.w3.org/2000/svg" xmlns:xlink="http://www.w3.org/1999/xlink" width="1280" height="600" style="" viewBox="0 0 1280 600"><rect x="0" y="0" width="1280" height="600" style="fill: rgb(255, 255, 255); fill-opacity: 1;"/><defs id="defs-b8226c"><g class="clips"><clipPath id="clipb8226cxyplot" class="plotclip"><rect width="996" height="495"/></clipPath><clipPath class="axesclip" id="clipb8226cx"><rect x="50" y="0" width="996" height="600"/></clipPath><clipPath class="axesclip" id="clipb8226cy"><rect x="0" y="50" width="1280" height="495"/></clipPath><clipPath class="axesclip" id="clipb8226cxy"><rect x="50" y="50" width="996" height="495"/></clipPath></g><g class="gradients"/><g class="patterns"/></defs><g class="bglayer"/><g class="layer-below"><g class="imagelayer"/><g class="shapelayer"/></g><g class="cartesianlayer"><g class="subplot xy"><g class="layer-subplot"><g class="shapelayer"/><g class="imagelayer"/></g><g class="minor-gridlayer"><g class="x"/><g class="y"/></g><g class="gridlayer"><g class="x"/><g class="y"/></g><g class="zerolinelayer"/><path class="xlines-below"/><path class="ylines-below"/><g class="overlines-below"/><g class="xaxislayer-below"/><g class="yaxislayer-below"/><g class="overaxes-below"/><g class="plot" transform="translate(50,50)" clip-path="url(#clipb8226cxyplot)"><g class="barlayer mlayer"><g class="trace bars" style="opacity: 0.6;"><g class="points"><g class="point"><path d="M4.74,495V325.92H42.69V495Z" style="vector-effect: none; opacity: 1; stroke-width: 0.5px; fill: rgb(46, 46, 46); fill-opacity: 1; stroke: rgb(229, 236, 246); stroke-opacity: 1;"/></g><g class="point"><path d="M52.17,495V353.68H90.11V495Z" style="vector-effect: none; opacity: 1; stroke-width: 0.5px; fill: rgb(46, 46, 46); fill-opacity: 1; stroke: rgb(229, 236, 246); stroke-opacity: 1;"/></g><g class="point"><path d="M99.6,495V199.75H137.54V495Z" style="vector-effect: none; opacity: 1; stroke-width: 0.5px; fill: rgb(46, 46, 46); fill-opacity: 1; stroke: rgb(229, 236, 246); stroke-opacity: 1;"/></g><g class="point"><path d="M147.03,495V124.04H184.97V495Z" style="vector-effect: none; opacity: 1; stroke-width: 0.5px; fill: rgb(46, 46, 46); fill-opacity: 1; stroke: rgb(229, 236, 246); stroke-opacity: 1;"/></g><g class="point"><path d="M194.46,495V111.42H232.4V495Z" style="vector-effect: none; opacity: 1; stroke-width: 0.5px; fill: rgb(46, 46, 46); fill-opacity: 1; stroke: rgb(229, 236, 246); stroke-opacity: 1;"/></g><g class="point"><path d="M241.89,495V98.81H279.83V495Z" style="vector-effect: none; opacity: 1; stroke-width: 0.5px; fill: rgb(46, 46, 46); fill-opacity: 1; stroke: rgb(229, 236, 246); stroke-opacity: 1;"/></g><g class="point"><path d="M289.31,495V192.18H327.26V495Z" style="vector-effect: none; opacity: 1; stroke-width: 0.5px; fill: rgb(46, 46, 46); fill-opacity: 1; stroke: rgb(229, 236, 246); stroke-opacity: 1;"/></g><g class="point"><path d="M336.74,495V315.83H374.69V495Z" style="vector-effect: none; opacity: 1; stroke-width: 0.5px; fill: rgb(46, 46, 46); fill-opacity: 1; stroke: rgb(229, 236, 246); stroke-opacity: 1;"/></g><g class="point"><path d="M384.17,495V358.73H422.11V495Z" style="vector-effect: none; opacity: 1; stroke-width: 0.5px; fill: rgb(46, 46, 46); fill-opacity: 1; stroke: rgb(229, 236, 246); stroke-opacity: 1;"/></g><g class="point"><path d="M431.6,495V416.77H469.54V495Z" style="vector-effect: none; opacity: 1; stroke-width: 0.5px; fill: rgb(46, 46, 46); fill-opacity: 1; stroke: rgb(229, 236, 246); stroke-opacity: 1;"/></g><g class="point"><path d="M479.03,495V469.76H516.97V495Z" style="vector-effect: none; opacity: 1; stroke-width: 0.5px; fill: rgb(46, 46, 46); fill-opacity: 1; stroke: rgb(229, 236, 246); stroke-opacity: 1;"/></g><g class="point"><path d="M526.46,495V469.76H564.4V495Z" style="vector-effect: none; opacity: 1; stroke-width: 0.5px; fill: rgb(46, 46, 46); fill-opacity: 1; stroke: rgb(229, 236, 246); stroke-opacity: 1;"/></g><g class="point"><path d="M573.89,495V489.95H611.83V495Z" style="vector-effect: none; opacity: 1; stroke-width: 0.5px; fill: rgb(46, 46, 46); fill-opacity: 1; stroke: rgb(229, 236, 246); stroke-opacity: 1;"/></g><g class="point"><path d="M621.31,495V489.95H659.26V495Z" style="vector-effect: none; opacity: 1; stroke-width: 0.5px; fill: rgb(46, 46, 46); fill-opacity: 1; stroke: rgb(229, 236, 246); stroke-opacity: 1;"/></g><g class="point"><path d="M668.74,495V492.48H706.69V495Z" style="vector-effect: none; opacity: 1; stroke-width: 0.5px; fill: rgb(46, 46, 46); fill-opacity: 1; stroke: rgb(229, 236, 246); stroke-opacity: 1;"/></g><g class="point"><path d="M716.17,495V495H754.11V495Z" style="vector-effect: none; opacity: 1; stroke-width: 0.5px; fill: rgb(46, 46, 46); fill-opacity: 1; stroke: rgb(229, 236, 246); stroke-opacity: 1;"/></g><g class="point"><path d="M763.6,495V489.95H801.54V495Z" style="vector-effect: none; opacity: 1; stroke-width: 0.5px; fill: rgb(46, 46, 46); fill-opacity: 1; stroke: rgb(229, 236, 246); stroke-opacity: 1;"/></g></g></g><g class="trace bars" style="opacity: 0.6;"><g class="points"><g class="point"><path d="M4.74,495V295.84H42.69V495Z" style="vector-effect: none; opacity: 1; stroke-width: 0.5px; fill: rgb(72, 202, 228); fill-opacity: 1; stroke: rgb(229, 236, 246); stroke-opacity: 1;"/></g><g class="point"><path d="M52.17,495V447.1H90.11V495Z" style="vector-effect: none; opacity: 1; stroke-width: 0.5px; fill: rgb(72, 202, 228); fill-opacity: 1; stroke: rgb(229, 236, 246); stroke-opacity: 1;"/></g><g class="point"><path d="M99.6,495V278.19H137.54V495Z" style="vector-effect: none; opacity: 1; stroke-width: 0.5px; fill: rgb(72, 202, 228); fill-opacity: 1; stroke: rgb(229, 236, 246); stroke-opacity: 1;"/></g><g class="point"><path d="M147.03,495V157.18H184.97V495Z" style="vector-effect: none; opacity: 1; stroke-width: 0.5px; fill: rgb(72, 202, 228); fill-opacity: 1; stroke: rgb(229, 236, 246); stroke-opacity: 1;"/></g><g class="point"><path d="M194.46,495V124.41H232.4V495Z" style="vector-effect: none; opacity: 1; stroke-width: 0.5px; fill: rgb(72, 202, 228); fill-opacity: 1; stroke: rgb(229, 236, 246); stroke-opacity: 1;"/></g><g class="point"><path d="M241.89,495V41.22H279.83V495Z" style="vector-effect: none; opacity: 1; stroke-width: 0.5px; fill: rgb(72, 202, 228); fill-opacity: 1; stroke: rgb(229, 236, 246); stroke-opacity: 1;"/></g><g class="point"><path d="M289.31,495V169.79H327.26V495Z" style="vector-effect: none; opacity: 1; stroke-width: 0.5px; fill: rgb(72, 202, 228); fill-opacity: 1; stroke: rgb(229, 236, 246); stroke-opacity: 1;"/></g><g class="point"><path d="M336.74,495V303.4H374.69V495Z" style="vector-effect: none; opacity: 1; stroke-width: 0.5px; fill: rgb(72, 202, 228); fill-opacity: 1; stroke: rgb(229, 236, 246); stroke-opacity: 1;"/></g><g class="point"><path d="M384.17,495V346.26H422.11V495Z" style="vector-effect: none; opacity: 1; stroke-width: 0.5px; fill: rgb(72, 202, 228); fill-opacity: 1; stroke: rgb(229, 236, 246); stroke-opacity: 1;"/></g><g class="point"><path d="M431.6,495V396.68H469.54V495Z" style="vector-effect: none; opacity: 1; stroke-width: 0.5px; fill: rgb(72, 202, 228); fill-opacity: 1; stroke: rgb(229, 236, 246); stroke-opacity: 1;"/></g><g class="point"><path d="M479.03,495V437.02H516.97V495Z" style="vector-effect: none; opacity: 1; stroke-width: 0.5px; fill: rgb(72, 202, 228); fill-opacity: 1; stroke: rgb(229, 236, 246); stroke-opacity: 1;"/></g><g class="point"><path d="M526.46,495V482.39H564.4V495Z" style="vector-effect: none; opacity: 1; stroke-width: 0.5px; fill: rgb(72, 202, 228); fill-opacity: 1; stroke: rgb(229, 236, 246); stroke-opacity: 1;"/></g><g class="point"><path d="M573.89,495V464.75H611.83V495Z" style="vector-effect: none; opacity: 1; stroke-width: 0.5px; fill: rgb(72, 202, 228); fill-opacity: 1; stroke: rgb(229, 236, 246); stroke-opacity: 1;"/></g><g class="point"><path d="M621.31,495V487.44H659.26V495Z" style="vector-effect: none; opacity: 1; stroke-width: 0.5px; fill: rgb(72, 202, 228); fill-opacity: 1; stroke: rgb(229, 236, 246); stroke-opacity: 1;"/></g><g class="point"><path d="M668.74,495V482.39H706.69V495Z" style="vector-effect: none; opacity: 1; stroke-width: 0.5px; fill: rgb(72, 202, 228); fill-opacity: 1; stroke: rgb(229, 236, 246); stroke-opacity: 1;"/></g><g class="point"><path d="M716.17,495V489.96H754.11V495Z" style="vector-effect: none; opacity: 1; stroke-width: 0.5px; fill: rgb(72, 202, 228); fill-opacity: 1; stroke: rgb(229, 236, 246); stroke-opacity: 1;"/></g><g class="point"><path d="M763.6,495V495H801.54V495Z" style="vector-effect: none; opacity: 1; stroke-width: 0.5px; fill: rgb(72, 202, 228); fill-opacity: 1; stroke: rgb(229, 236, 246); stroke-opacity: 1;"/></g><g class="point"><path d="M811.03,495V495H848.97V495Z" style="vector-effect: none; opacity: 1; stroke-width: 0.5px; fill: rgb(72, 202, 228); fill-opacity: 1; stroke: rgb(229, 236, 246); stroke-opacity: 1;"/></g><g class="point"><path d="M858.46,495V492.48H896.4V495Z" style="vector-effect: none; opacity: 1; stroke-width: 0.5px; fill: rgb(72, 202, 228); fill-opacity: 1; stroke: rgb(229, 236, 246); stroke-opacity: 1;"/></g><g class="point"><path d="M905.89,495V492.48H943.83V495Z" style="vector-effect: none; opacity: 1; stroke-width: 0.5px; fill: rgb(72, 202, 228); fill-opacity: 1; stroke: rgb(229, 236, 246); stroke-opacity: 1;"/></g></g></g><g class="trace bars" style="opacity: 0.6;"><g class="points"><g class="point"><path d="M4.74,495V23.57H42.69V495Z" style="vector-effect: none; opacity: 1; stroke-width: 0.5px; fill: rgb(250, 163, 7); fill-opacity: 1; stroke: rgb(229, 236, 246); stroke-opacity: 1;"/></g><g class="point"><path d="M52.17,495V426.93H90.11V495Z" style="vector-effect: none; opacity: 1; stroke-width: 0.5px; fill: rgb(250, 163, 7); fill-opacity: 1; stroke: rgb(229, 236, 246); stroke-opacity: 1;"/></g><g class="point"><path d="M99.6,495V288.28H137.54V495Z" style="vector-effect: none; opacity: 1; stroke-width: 0.5px; fill: rgb(250, 163, 7); fill-opacity: 1; stroke: rgb(229, 236, 246); stroke-opacity: 1;"/></g><g class="point"><path d="M147.03,495V197.52H184.97V495Z" style="vector-effect: none; opacity: 1; stroke-width: 0.5px; fill: rgb(250, 163, 7); fill-opacity: 1; stroke: rgb(229, 236, 246); stroke-opacity: 1;"/></g><g class="point"><path d="M194.46,495V207.61H232.4V495Z" style="vector-effect: none; opacity: 1; stroke-width: 0.5px; fill: rgb(250, 163, 7); fill-opacity: 1; stroke: rgb(229, 236, 246); stroke-opacity: 1;"/></g><g class="point"><path d="M241.89,495V152.14H279.83V495Z" style="vector-effect: none; opacity: 1; stroke-width: 0.5px; fill: rgb(250, 163, 7); fill-opacity: 1; stroke: rgb(229, 236, 246); stroke-opacity: 1;"/></g><g class="point"><path d="M289.31,495V207.61H327.26V495Z" style="vector-effect: none; opacity: 1; stroke-width: 0.5px; fill: rgb(250, 163, 7); fill-opacity: 1; stroke: rgb(229, 236, 246); stroke-opacity: 1;"/></g><g class="point"><path d="M336.74,495V268.11H374.69V495Z" style="vector-effect: none; opacity: 1; stroke-width: 0.5px; fill: rgb(250, 163, 7); fill-opacity: 1; stroke: rgb(229, 236, 246); stroke-opacity: 1;"/></g><g class="point"><path d="M384.17,495V363.91H422.11V495Z" style="vector-effect: none; opacity: 1; stroke-width: 0.5px; fill: rgb(250, 163, 7); fill-opacity: 1; stroke: rgb(229, 236, 246); stroke-opacity: 1;"/></g><g class="point"><path d="M431.6,495V404.24H469.54V495Z" style="vector-effect: none; opacity: 1; stroke-width: 0.5px; fill: rgb(250, 163, 7); fill-opacity: 1; stroke: rgb(229, 236, 246); stroke-opacity: 1;"/></g><g class="point"><path d="M479.03,495V447.1H516.97V495Z" style="vector-effect: none; opacity: 1; stroke-width: 0.5px; fill: rgb(250, 163, 7); fill-opacity: 1; stroke: rgb(229, 236, 246); stroke-opacity: 1;"/></g><g class="point"><path d="M526.46,495V459.71H564.4V495Z" style="vector-effect: none; opacity: 1; stroke-width: 0.5px; fill: rgb(250, 163, 7); fill-opacity: 1; stroke: rgb(229, 236, 246); stroke-opacity: 1;"/></g><g class="point"><path d="M573.89,495V479.87H611.83V495Z" style="vector-effect: none; opacity: 1; stroke-width: 0.5px; fill: rgb(250, 163, 7); fill-opacity: 1; stroke: rgb(229, 236, 246); stroke-opacity: 1;"/></g><g class="point"><path d="M621.31,495V487.44H659.26V495Z" style="vector-effect: none; opacity: 1; stroke-width: 0.5px; fill: rgb(250, 163, 7); fill-opacity: 1; stroke: rgb(229, 236, 246); stroke-opacity: 1;"/></g><g class="point"><path d="M668.74,495V492.48H706.69V495Z" style="vector-effect: none; opacity: 1; stroke-width: 0.5px; fill: rgb(250, 163, 7); fill-opacity: 1; stroke: rgb(229, 236, 246); stroke-opacity: 1;"/></g><g class="point"><path d="M716.17,495V492.48H754.11V495Z" style="vector-effect: none; opacity: 1; stroke-width: 0.5px; fill: rgb(250, 163, 7); fill-opacity: 1; stroke: rgb(229, 236, 246); stroke-opacity: 1;"/></g></g></g><g class="trace bars" style="opacity: 0.6;"><g class="points"><g class="point"><path d="M4.74,495V89.12H42.69V495Z" style="vector-effect: none; opacity: 1; stroke-width: 0.5px; fill: rgb(199, 125, 255); fill-opacity: 1; stroke: rgb(229, 236, 246); stroke-opacity: 1;"/></g><g class="point"><path d="M52.17,495V437.02H90.11V495Z" style="vector-effect: none; opacity: 1; stroke-width: 0.5px; fill: rgb(199, 125, 255); fill-opacity: 1; stroke: rgb(229, 236, 246); stroke-opacity: 1;"/></g><g class="point"><path d="M99.6,495V263.07H137.54V495Z" style="vector-effect: none; opacity: 1; stroke-width: 0.5px; fill: rgb(199, 125, 255); fill-opacity: 1; stroke: rgb(229, 236, 246); stroke-opacity: 1;"/></g><g class="point"><path d="M147.03,495V152.14H184.97V495Z" style="vector-effect: none; opacity: 1; stroke-width: 0.5px; fill: rgb(199, 125, 255); fill-opacity: 1; stroke: rgb(229, 236, 246); stroke-opacity: 1;"/></g><g class="point"><path d="M194.46,495V212.65H232.4V495Z" style="vector-effect: none; opacity: 1; stroke-width: 0.5px; fill: rgb(199, 125, 255); fill-opacity: 1; stroke: rgb(229, 236, 246); stroke-opacity: 1;"/></g><g class="point"><path d="M241.89,495V139.54H279.83V495Z" style="vector-effect: none; opacity: 1; stroke-width: 0.5px; fill: rgb(199, 125, 255); fill-opacity: 1; stroke: rgb(229, 236, 246); stroke-opacity: 1;"/></g><g class="point"><path d="M289.31,495V197.52H327.26V495Z" style="vector-effect: none; opacity: 1; stroke-width: 0.5px; fill: rgb(199, 125, 255); fill-opacity: 1; stroke: rgb(229, 236, 246); stroke-opacity: 1;"/></g><g class="point"><path d="M336.74,495V310.97H374.69V495Z" style="vector-effect: none; opacity: 1; stroke-width: 0.5px; fill: rgb(199, 125, 255); fill-opacity: 1; stroke: rgb(229, 236, 246); stroke-opacity: 1;"/></g><g class="point"><path d="M384.17,495V356.34H422.11V495Z" style="vector-effect: none; opacity: 1; stroke-width: 0.5px; fill: rgb(199, 125, 255); fill-opacity: 1; stroke: rgb(229, 236, 246); stroke-opacity: 1;"/></g><g class="point"><path d="M431.6,495V391.64H469.54V495Z" style="vector-effect: none; opacity: 1; stroke-width: 0.5px; fill: rgb(199, 125, 255); fill-opacity: 1; stroke: rgb(229, 236, 246); stroke-opacity: 1;"/></g><g class="point"><path d="M479.03,495V437.02H516.97V495Z" style="vector-effect: none; opacity: 1; stroke-width: 0.5px; fill: rgb(199, 125, 255); fill-opacity: 1; stroke: rgb(229, 236, 246); stroke-opacity: 1;"/></g><g class="point"><path d="M526.46,495V464.75H564.4V495Z" style="vector-effect: none; opacity: 1; stroke-width: 0.5px; fill: rgb(199, 125, 255); fill-opacity: 1; stroke: rgb(229, 236, 246); stroke-opacity: 1;"/></g><g class="point"><path d="M573.89,495V477.35H611.83V495Z" style="vector-effect: none; opacity: 1; stroke-width: 0.5px; fill: rgb(199, 125, 255); fill-opacity: 1; stroke: rgb(229, 236, 246); stroke-opacity: 1;"/></g><g class="point"><path d="M621.31,495V484.92H659.26V495Z" style="vector-effect: none; opacity: 1; stroke-width: 0.5px; fill: rgb(199, 125, 255); fill-opacity: 1; stroke: rgb(229, 236, 246); stroke-opacity: 1;"/></g><g class="point"><path d="M668.74,495V489.96H706.69V495Z" style="vector-effect: none; opacity: 1; stroke-width: 0.5px; fill: rgb(199, 125, 255); fill-opacity: 1; stroke: rgb(229, 236, 246); stroke-opacity: 1;"/></g></g></g><g class="trace bars" style="opacity: 0.6;"><g class="points"><g class="point"><path d="M4.74,495V205.08H42.69V495Z" style="vector-effect: none; opacity: 1; stroke-width: 0.5px; fill: rgb(112, 224, 0); fill-opacity: 1; stroke: rgb(229, 236, 246); stroke-opacity: 1;"/></g><g class="point"><path d="M52.17,495V411.81H90.11V495Z" style="vector-effect: none; opacity: 1; stroke-width: 0.5px; fill: rgb(112, 224, 0); fill-opacity: 1; stroke: rgb(229, 236, 246); stroke-opacity: 1;"/></g><g class="point"><path d="M99.6,495V275.67H137.54V495Z" style="vector-effect: none; opacity: 1; stroke-width: 0.5px; fill: rgb(112, 224, 0); fill-opacity: 1; stroke: rgb(229, 236, 246); stroke-opacity: 1;"/></g><g class="point"><path d="M147.03,495V230.29H184.97V495Z" style="vector-effect: none; opacity: 1; stroke-width: 0.5px; fill: rgb(112, 224, 0); fill-opacity: 1; stroke: rgb(229, 236, 246); stroke-opacity: 1;"/></g><g class="point"><path d="M194.46,495V189.96H232.4V495Z" style="vector-effect: none; opacity: 1; stroke-width: 0.5px; fill: rgb(112, 224, 0); fill-opacity: 1; stroke: rgb(229, 236, 246); stroke-opacity: 1;"/></g><g class="point"><path d="M241.89,495V63.91H279.83V495Z" style="vector-effect: none; opacity: 1; stroke-width: 0.5px; fill: rgb(112, 224, 0); fill-opacity: 1; stroke: rgb(229, 236, 246); stroke-opacity: 1;"/></g><g class="point"><path d="M289.31,495V177.35H327.26V495Z" style="vector-effect: none; opacity: 1; stroke-width: 0.5px; fill: rgb(112, 224, 0); fill-opacity: 1; stroke: rgb(229, 236, 246); stroke-opacity: 1;"/></g><g class="point"><path d="M336.74,495V268.11H374.69V495Z" style="vector-effect: none; opacity: 1; stroke-width: 0.5px; fill: rgb(112, 224, 0); fill-opacity: 1; stroke: rgb(229, 236, 246); stroke-opacity: 1;"/></g><g class="point"><path d="M384.17,495V313.49H422.11V495Z" style="vector-effect: none; opacity: 1; stroke-width: 0.5px; fill: rgb(112, 224, 0); fill-opacity: 1; stroke: rgb(229, 236, 246); stroke-opacity: 1;"/></g><g class="point"><path d="M431.6,495V386.6H469.54V495Z" style="vector-effect: none; opacity: 1; stroke-width: 0.5px; fill: rgb(112, 224, 0); fill-opacity: 1; stroke: rgb(229, 236, 246); stroke-opacity: 1;"/></g><g class="point"><path d="M479.03,495V457.18H516.97V495Z" style="vector-effect: none; opacity: 1; stroke-width: 0.5px; fill: rgb(112, 224, 0); fill-opacity: 1; stroke: rgb(229, 236, 246); stroke-opacity: 1;"/></g><g class="point"><path d="M526.46,495V472.31H564.4V495Z" style="vector-effect: none; opacity: 1; stroke-width: 0.5px; fill: rgb(112, 224, 0); fill-opacity: 1; stroke: rgb(229, 236, 246); stroke-opacity: 1;"/></g><g class="point"><path d="M573.89,495V482.39H611.83V495Z" style="vector-effect: none; opacity: 1; stroke-width: 0.5px; fill: rgb(112, 224, 0); fill-opacity: 1; stroke: rgb(229, 236, 246); stroke-opacity: 1;"/></g><g class="point"><path d="M621.31,495V487.44H659.26V495Z" style="vector-effect: none; opacity: 1; stroke-width: 0.5px; fill: rgb(112, 224, 0); fill-opacity: 1; stroke: rgb(229, 236, 246); stroke-opacity: 1;"/></g><g class="point"><path d="M668.74,495V492.48H706.69V495Z" style="vector-effect: none; opacity: 1; stroke-width: 0.5px; fill: rgb(112, 224, 0); fill-opacity: 1; stroke: rgb(229, 236, 246); stroke-opacity: 1;"/></g><g class="point"><path d="M716.17,495V489.96H754.11V495Z" style="vector-effect: none; opacity: 1; stroke-width: 0.5px; fill: rgb(112, 224, 0); fill-opacity: 1; stroke: rgb(229, 236, 246); stroke-opacity: 1;"/></g><g class="point"><path d="M763.6,495V495H801.54V495Z" style="vector-effect: none; opacity: 1; stroke-width: 0.5px; fill: rgb(112, 224, 0); fill-opacity: 1; stroke: rgb(229, 236, 246); stroke-opacity: 1;"/></g><g class="point"><path d="M811.03,495V492.48H848.97V495Z" style="vector-effect: none; opacity: 1; stroke-width: 0.5px; fill: rgb(112, 224, 0); fill-opacity: 1; stroke: rgb(229, 236, 246); stroke-opacity: 1;"/></g><g class="point"><path d="M858.46,495V495H896.4V495Z" style="vector-effect: none; opacity: 1; stroke-width: 0.5px; fill: rgb(112, 224, 0); fill-opacity: 1; stroke: rgb(229, 236, 246); stroke-opacity: 1;"/></g><g class="point"><path d="M905.89,495V495H943.83V495Z" style="vector-effect: none; opacity: 1; stroke-width: 0.5px; fill: rgb(112, 224, 0); fill-opacity: 1; stroke: rgb(229, 236, 246); stroke-opacity: 1;"/></g><g class="point"><path d="M953.31,495V492.48H991.26V495Z" style="vector-effect: none; opacity: 1; stroke-width: 0.5px; fill: rgb(112, 224, 0); fill-opacity: 1; stroke: rgb(229, 236, 246); stroke-opacity: 1;"/></g></g></g></g><g class="scatterlayer mlayer"><g class="trace scatter trace4de7b6" style="stroke-miterlimit: 2; opacity: 1;"><g class="fills"/><g class="errorbars"/><g class="lines"><path class="js-line" d="M23.71,387.03L31.94,378.75L36.05,376L44.27,372.67L48.38,371.72L60.72,369L64.83,367.42L73.05,362.21L77.16,358.38L85.38,348.04L89.49,341.56L97.72,326.19L101.83,317.45L114.16,287.9L118.27,277.2L155.27,178.58L159.39,168.97L171.72,143.56L175.83,136.31L184.05,123.63L188.17,118.16L196.39,108.78L200.5,104.8L208.72,98.12L212.83,95.4L221.06,91.18L225.17,89.74L233.39,88.37L237.5,88.53L245.72,90.76L249.83,92.87L258.06,99.12L262.17,103.2L270.39,113.02L274.5,118.63L286.84,137.44L290.95,144.17L311.5,179.77L315.61,187.15L369.06,282.58L373.17,289.63L401.95,337.75L406.06,344.3L422.51,368.87L426.62,374.54L443.06,395.27L447.18,400.05L471.84,426.96L475.95,431.19L492.4,446.58L496.51,449.89L508.84,458.14L512.96,460.33L525.29,465.36L529.4,466.61L545.85,470.22L549.96,470.92L578.74,476.47L582.85,477.52L619.85,487.16L623.96,487.91L640.4,489.89L644.52,490.18L677.41,491.2L681.52,491.3L759.63,493.39L763.74,493.28L825.41,491.21L829.52,491.31L841.86,491.82" style="vector-effect: none; fill: none; stroke: rgb(0, 0, 0); stroke-opacity: 1; stroke-width: 2px; opacity: 1;"/></g><g class="points"/><g class="text"/></g><g class="trace scatter trace4b415f" style="stroke-miterlimit: 2; opacity: 1;"><g class="fills"/><g class="errorbars"/><g class="lines"><path class="js-line" d="M23.71,376.57L28.36,375.03L33.01,375.14L37.66,376.75L42.3,379.58L51.6,387.49L56.25,391.78L65.54,399.07L70.19,401.4L74.84,402.49L79.48,402.2L84.13,400.41L88.78,397.12L93.43,392.37L98.07,386.25L107.37,370.45L112.02,361.1L125.96,329.27L130.61,317.87L191.03,166.37L195.67,156.1L209.62,128.5L214.26,120.55L223.56,106.78L228.21,101.05L237.5,92.12L242.15,89.02L246.8,86.89L251.44,85.77L256.09,85.71L260.74,86.72L265.39,88.82L270.03,91.98L279.33,101.29L283.98,107.27L293.27,121.3L297.92,129.08L339.75,203.26L344.39,211.45L372.28,262.64L376.93,271.38L395.52,305.27L400.16,313.23L414.11,335.42L418.75,342.2L432.7,360.74L437.34,366.35L451.29,381.69L455.93,386.38L474.52,403.69L479.17,407.79L521,443.47L525.65,447.16L539.59,457.19L544.24,460.08L553.53,465L558.18,467L567.47,470.06L572.12,471.15L586.06,472.99L590.71,473.27L623.24,475.37L627.89,476.04L655.78,481.37L660.42,482.19L679.02,484.45L683.66,484.75L734.79,487.41L739.43,487.91L795.2,493.63L799.85,493.89L832.38,494.66L837.03,494.65L883.51,493.54L888.15,493.4L934.63,492.83L939.28,492.89L948.57,493.06" style="vector-effect: none; fill: none; stroke: rgb(0, 106, 113); stroke-opacity: 1; stroke-width: 2px; opacity: 1;"/></g><g class="points"/><g class="text"/></g><g class="trace scatter tracee38f51" style="stroke-miterlimit: 2; opacity: 1;"><g class="fills"/><g class="errorbars"/><g class="lines"><path class="js-line" d="M23.71,244.49L27.47,243.6L31.22,244.9L34.98,248.28L38.73,253.54L46.24,268.62L49.99,277.82L68.76,326.57L72.51,334.72L80.02,347.63L83.77,352.15L87.53,355.31L91.28,357.1L95.04,357.56L98.79,356.76L102.54,354.77L106.3,351.71L113.8,342.85L117.56,337.3L128.82,317.63L132.57,310.46L158.85,260.73L162.6,254.42L173.87,237.4L177.62,232.36L188.88,219L192.63,215.06L207.65,201.15L211.4,198.04L226.42,186.88L230.17,184.46L241.43,178.49L245.19,177.03L252.69,175.07L256.45,174.61L263.96,174.81L267.71,175.47L275.22,177.85L278.97,179.53L290.23,186.2L293.99,188.85L309,200.74L312.75,203.94L331.52,221.24L335.28,225.07L346.54,237.71L350.29,242.36L361.55,257.77L365.31,263.36L384.08,293.7L387.83,299.99L410.35,336.4L414.11,342.01L429.12,362.83L432.88,367.63L447.89,385.35L451.64,389.43L466.66,404.44L470.41,407.86L485.43,420.19L489.18,422.94L504.2,432.69L507.95,434.85L526.72,444.45L530.47,446.19L560.5,459.03L564.26,460.53L590.53,470.05L594.29,471.26L620.56,478.61L624.32,479.52L650.59,485.09L654.35,485.77L680.62,489.51L684.38,489.9L710.65,491.79L714.41,491.97L759.45,493.09L763.21,493.16L770.71,493.3" style="vector-effect: none; fill: none; stroke: rgb(232, 93, 4); stroke-opacity: 1; stroke-width: 2px; opacity: 1;"/></g><g class="points"/><g class="text"/></g><g class="trace scatter traceceb8f2" style="stroke-miterlimit: 2; opacity: 1;"><g class="fills"/><g class="errorbars"/><g class="lines"><path class="js-line" d="M23.71,275.68L27.29,274.31L30.86,274.7L34.44,276.77L38.01,280.38L45.16,291.39L48.74,298.3L70.19,342.34L73.76,347.82L80.91,355.62L84.49,357.78L88.06,358.75L91.64,358.53L95.21,357.16L98.79,354.7L105.94,346.88L109.51,341.71L116.66,329.4L120.24,322.49L134.54,292.11L138.11,284.28L155.99,246.87L159.56,240.05L170.29,221.4L173.87,215.83L184.59,201.09L188.17,196.8L198.89,185.67L202.47,182.47L213.19,174.21L216.77,171.86L227.49,165.91L231.07,164.3L241.79,160.71L245.37,159.98L252.52,159.32L256.09,159.43L263.24,160.62L266.82,161.72L273.97,164.98L277.54,167.16L284.69,172.57L288.27,175.79L298.99,187.35L302.57,191.75L316.87,211.41L320.44,216.68L356.19,268.88L359.77,273.66L384.79,305.41L388.37,309.88L431.27,363.57L434.84,367.56L449.14,381.86L452.72,385.02L467.02,396.35L470.59,398.96L509.92,427.95L513.49,430.7L534.94,446.22L538.52,448.52L552.82,456.64L556.39,458.39L570.69,464.4L574.27,465.69L595.72,472.19L599.29,473.13L624.32,478.89L627.89,479.6L652.92,483.84L656.49,484.34L695.82,488.98L699.39,489.34L735.14,492.26" style="vector-effect: none; fill: none; stroke: rgb(123, 44, 191); stroke-opacity: 1; stroke-width: 2px; opacity: 1;"/></g><g class="points"/><g class="text"/></g><g class="trace scatter trace4d880b" style="stroke-miterlimit: 2; opacity: 1;"><g class="fills"/><g class="errorbars"/><g class="lines"><path class="js-line" d="M23.71,327.73L28.6,325.97L33.49,326.66L38.37,329.52L43.26,334.15L53.03,346.65L57.92,353.38L67.69,365.13L72.57,369.32L77.46,371.99L82.34,372.98L87.23,372.25L92.12,369.84L97,365.86L101.89,360.5L111.66,346.43L116.55,338.18L155.63,268.35L160.52,260.85L175.18,240.29L180.06,233.82L199.61,207.19L204.49,199.95L224.03,168.47L228.92,160.45L238.69,145.4L243.58,138.79L253.35,128.42L258.24,124.99L263.12,122.9L268.01,122.21L272.89,122.92L277.78,124.99L282.66,128.33L287.55,132.83L297.32,144.62L302.21,151.58L321.75,182.58L326.64,190.46L346.18,220.04L351.07,226.82L370.61,251.72L375.5,257.56L409.7,299.09L414.58,305.61L429.24,326.56L434.13,333.98L478.1,402.6L482.98,409.3L492.76,421.55L497.64,427.04L507.41,436.76L512.3,441.01L522.07,448.4L526.96,451.6L541.62,459.68L546.5,461.97L566.04,469.75L570.93,471.42L590.47,477.17L595.36,478.38L614.9,482.27L619.79,483.03L649.1,486.43L653.99,486.88L693.08,489.76L697.96,489.99L805.45,493.68L810.34,493.69L873.85,494.1L878.74,494.21L932.48,494.69L937.37,494.64L996,493.63" style="vector-effect: none; fill: none; stroke: rgb(0, 128, 0); stroke-opacity: 1; stroke-width: 2px; opacity: 1;"/></g><g class="points"/><g class="text"/></g></g></g><g class="overplot"/><path class="xlines-above crisp" d="M49,545.5H1046" style="fill: none; stroke-width: 1px; stroke: rgb(0, 0, 0); stroke-opacity: 1;"/><path class="ylines-above crisp" d="M49.5,50V545" style="fill: none; stroke-width: 1px; stroke: rgb(0, 0, 0); stroke-opacity: 1;"/><g class="overlines-above"/><g class="xaxislayer-above"><g class="xtick"><text text-anchor="middle" x="0" y="560.4" transform="translate(73.71000000000001,0)" style="font-family: Helvetica; font-size: 12px; fill: rgb(51, 51, 51); fill-opacity: 1; white-space: pre; opacity: 1;">0</text></g><g class="xtick"><text text-anchor="middle" x="0" y="560.4" style="font-family: Helvetica; font-size: 12px; fill: rgb(51, 51, 51); fill-opacity: 1; white-space: pre; opacity: 1;" transform="translate(192.29,0)">5</text></g><g class="xtick"><text text-anchor="middle" x="0" y="560.4" style="font-family: Helvetica; font-size: 12px; fill: rgb(51, 51, 51); fill-opacity: 1; white-space: pre; opacity: 1;" transform="translate(310.86,0)">10</text></g><g class="xtick"><text text-anchor="middle" x="0" y="560.4" style="font-family: Helvetica; font-size: 12px; fill: rgb(51, 51, 51); fill-opacity: 1; white-space: pre; opacity: 1;" transform="translate(429.43,0)">15</text></g><g class="xtick"><text text-anchor="middle" x="0" y="560.4" style="font-family: Helvetica; font-size: 12px; fill: rgb(51, 51, 51); fill-opacity: 1; white-space: pre; opacity: 1;" transform="translate(548,0)">20</text></g><g class="xtick"><text text-anchor="middle" x="0" y="560.4" style="font-family: Helvetica; font-size: 12px; fill: rgb(51, 51, 51); fill-opacity: 1; white-space: pre; opacity: 1;" transform="translate(666.57,0)">25</text></g><g class="xtick"><text text-anchor="middle" x="0" y="560.4" style="font-family: Helvetica; font-size: 12px; fill: rgb(51, 51, 51); fill-opacity: 1; white-space: pre; opacity: 1;" transform="translate(785.14,0)">30</text></g><g class="xtick"><text text-anchor="middle" x="0" y="560.4" style="font-family: Helvetica; font-size: 12px; fill: rgb(51, 51, 51); fill-opacity: 1; white-space: pre; opacity: 1;" transform="translate(903.71,0)">35</text></g><g class="xtick"><text text-anchor="middle" x="0" y="560.4" style="font-family: Helvetica; font-size: 12px; fill: rgb(51, 51, 51); fill-opacity: 1; white-space: pre; opacity: 1;" transform="translate(1022.29,0)">40</text></g></g><g class="yaxislayer-above"><g class="ytick"><text text-anchor="end" x="46.6" y="4.199999999999999" transform="translate(0,545)" style="font-family: Helvetica; font-size: 12px; fill: rgb(51, 51, 51); fill-opacity: 1; white-space: pre; opacity: 1;">0</text></g><g class="ytick"><text text-anchor="end" x="46.6" y="4.199999999999999" style="font-family: Helvetica; font-size: 12px; fill: rgb(51, 51, 51); fill-opacity: 1; white-space: pre; opacity: 1;" transform="translate(0,494.58)">0.01</text></g><g class="ytick"><text text-anchor="end" x="46.6" y="4.199999999999999" style="font-family: Helvetica; font-size: 12px; fill: rgb(51, 51, 51); fill-opacity: 1; white-space: pre; opacity: 1;" transform="translate(0,444.16)">0.02</text></g><g class="ytick"><text text-anchor="end" x="46.6" y="4.199999999999999" style="font-family: Helvetica; font-size: 12px; fill: rgb(51, 51, 51); fill-opacity: 1; white-space: pre; opacity: 1;" transform="translate(0,393.74)">0.03</text></g><g class="ytick"><text text-anchor="end" x="46.6" y="4.199999999999999" style="font-family: Helvetica; font-size: 12px; fill: rgb(51, 51, 51); fill-opacity: 1; white-space: pre; opacity: 1;" transform="translate(0,343.32)">0.04</text></g><g class="ytick"><text text-anchor="end" x="46.6" y="4.199999999999999" style="font-family: Helvetica; font-size: 12px; fill: rgb(51, 51, 51); fill-opacity: 1; white-space: pre; opacity: 1;" transform="translate(0,292.9)">0.05</text></g><g class="ytick"><text text-anchor="end" x="46.6" y="4.199999999999999" style="font-family: Helvetica; font-size: 12px; fill: rgb(51, 51, 51); fill-opacity: 1; white-space: pre; opacity: 1;" transform="translate(0,242.48)">0.06</text></g><g class="ytick"><text text-anchor="end" x="46.6" y="4.199999999999999" style="font-family: Helvetica; font-size: 12px; fill: rgb(51, 51, 51); fill-opacity: 1; white-space: pre; opacity: 1;" transform="translate(0,192.06)">0.07</text></g><g class="ytick"><text text-anchor="end" x="46.6" y="4.199999999999999" style="font-family: Helvetica; font-size: 12px; fill: rgb(51, 51, 51); fill-opacity: 1; white-space: pre; opacity: 1;" transform="translate(0,141.64)">0.08</text></g><g class="ytick"><text text-anchor="end" x="46.6" y="4.199999999999999" style="font-family: Helvetica; font-size: 12px; fill: rgb(51, 51, 51); fill-opacity: 1; white-space: pre; opacity: 1;" transform="translate(0,91.22)">0.09</text></g></g><g class="overaxes-above"/></g></g><g class="polarlayer"/><g class="smithlayer"/><g class="ternarylayer"/><g class="geolayer"/><g class="funnelarealayer"/><g class="pielayer"/><g class="iciclelayer"/><g class="treemaplayer"/><g class="sunburstlayer"/><g class="glimages"/><defs id="topdefs-b8226c"><g class="clips"/><clipPath id="legendb8226c"><rect width="202" height="200" x="0" y="0"/></clipPath></defs><g class="layer-above"><g class="imagelayer"/><g class="shapelayer"><g class="shape-group" data-index="0" clip-path="url(#clipb8226cx)"><path data-index="0" fill-rule="evenodd" d="M334.57,545L334.57,50" style="opacity: 1; stroke: rgb(128, 128, 128); stroke-opacity: 1; fill: rgb(0, 0, 0); fill-opacity: 0; stroke-dasharray: 15px, 15px; stroke-width: 2px;"/></g></g></g><g class="infolayer"><g class="legend" pointer-events="all" transform="translate(1065.92,50)"><rect class="bg" shape-rendering="crispEdges" width="202" height="200" x="0" y="0" style="stroke: rgb(68, 68, 68); stroke-opacity: 1; fill: rgb(255, 255, 255); fill-opacity: 1; stroke-width: 0px;"/><g class="scrollbox" transform="" clip-path="url(#legendb8226c)"><g class="groups"><g class="traces" transform="translate(0,14.5)" style="opacity: 1;"><text class="legendtext" text-anchor="start" x="40" y="4.680000000000001" style="font-family: Helvetica; font-size: 12px; fill: rgb(51, 51, 51); fill-opacity: 1; white-space: pre;">mqn k10 baseline</text><g class="layers" style="opacity: 0.6;"><g class="legendfill"/><g class="legendlines"/><g class="legendsymbols"><g class="legendpoints"><path class="legendundefined" d="M6,6H-6V-6H6Z" transform="translate(20,0)" style="stroke-width: 0.5px; fill: rgb(46, 46, 46); fill-opacity: 1; stroke: rgb(229, 236, 246); stroke-opacity: 1;"/></g></g></g><rect class="legendtoggle" x="0" y="-9.5" width="196.09375" height="19" style="fill: rgb(0, 0, 0); fill-opacity: 0;"/></g><g class="traces" transform="translate(0,33.5)" style="opacity: 1;"><text class="legendtext" text-anchor="start" x="40" y="4.680000000000001" style="font-family: Helvetica; font-size: 12px; fill: rgb(51, 51, 51); fill-opacity: 1; white-space: pre;">mqn k10 baseline Density</text><g class="layers" style="opacity: 1;"><g class="legendfill"/><g class="legendlines"><path class="js-line" d="M5,0h30" style="fill: none; stroke: rgb(0, 0, 0); stroke-opacity: 1; stroke-width: 2px;"/></g><g class="legendsymbols"><g class="legendpoints"/></g></g><rect class="legendtoggle" x="0" y="-9.5" width="196.09375" height="19" style="fill: rgb(0, 0, 0); fill-opacity: 0;"/></g><g class="traces" transform="translate(0,52.5)" style="opacity: 1;"><text class="legendtext" text-anchor="start" x="40" y="4.680000000000001" style="font-family: Helvetica; font-size: 12px; fill: rgb(51, 51, 51); fill-opacity: 1; white-space: pre;">mqn k10 softsub AL1</text><g class="layers" style="opacity: 0.6;"><g class="legendfill"/><g class="legendlines"/><g class="legendsymbols"><g class="legendpoints"><path class="legendundefined" d="M6,6H-6V-6H6Z" transform="translate(20,0)" style="stroke-width: 0.5px; fill: rgb(72, 202, 228); fill-opacity: 1; stroke: rgb(229, 236, 246); stroke-opacity: 1;"/></g></g></g><rect class="legendtoggle" x="0" y="-9.5" width="196.09375" height="19" style="fill: rgb(0, 0, 0); fill-opacity: 0;"/></g><g class="traces" transform="translate(0,71.5)" style="opacity: 1;"><text class="legendtext" text-anchor="start" x="40" y="4.680000000000001" style="font-family: Helvetica; font-size: 12px; fill: rgb(51, 51, 51); fill-opacity: 1; white-space: pre;">mqn k10 softsub AL1 Density</text><g class="layers" style="opacity: 1;"><g class="legendfill"/><g class="legendlines"><path class="js-line" d="M5,0h30" style="fill: none; stroke: rgb(0, 106, 113); stroke-opacity: 1; stroke-width: 2px;"/></g><g class="legendsymbols"><g class="legendpoints"/></g></g><rect class="legendtoggle" x="0" y="-9.5" width="196.09375" height="19" style="fill: rgb(0, 0, 0); fill-opacity: 0;"/></g><g class="traces" transform="translate(0,90.5)" style="opacity: 1;"><text class="legendtext" text-anchor="start" x="40" y="4.680000000000001" style="font-family: Helvetica; font-size: 12px; fill: rgb(51, 51, 51); fill-opacity: 1; white-space: pre;">mqn k10 softsub AL2</text><g class="layers" style="opacity: 0.6;"><g class="legendfill"/><g class="legendlines"/><g class="legendsymbols"><g class="legendpoints"><path class="legendundefined" d="M6,6H-6V-6H6Z" transform="translate(20,0)" style="stroke-width: 0.5px; fill: rgb(250, 163, 7); fill-opacity: 1; stroke: rgb(229, 236, 246); stroke-opacity: 1;"/></g></g></g><rect class="legendtoggle" x="0" y="-9.5" width="196.09375" height="19" style="fill: rgb(0, 0, 0); fill-opacity: 0;"/></g><g class="traces" transform="translate(0,109.5)" style="opacity: 1;"><text class="legendtext" text-anchor="start" x="40" y="4.680000000000001" style="font-family: Helvetica; font-size: 12px; fill: rgb(51, 51, 51); fill-opacity: 1; white-space: pre;">mqn k10 softsub AL2 Density</text><g class="layers" style="opacity: 1;"><g class="legendfill"/><g class="legendlines"><path class="js-line" d="M5,0h30" style="fill: none; stroke: rgb(232, 93, 4); stroke-opacity: 1; stroke-width: 2px;"/></g><g class="legendsymbols"><g class="legendpoints"/></g></g><rect class="legendtoggle" x="0" y="-9.5" width="196.09375" height="19" style="fill: rgb(0, 0, 0); fill-opacity: 0;"/></g><g class="traces" transform="translate(0,128.5)" style="opacity: 1;"><text class="legendtext" text-anchor="start" x="40" y="4.680000000000001" style="font-family: Helvetica; font-size: 12px; fill: rgb(51, 51, 51); fill-opacity: 1; white-space: pre;">mqn k10 softsub AL3</text><g class="layers" style="opacity: 0.6;"><g class="legendfill"/><g class="legendlines"/><g class="legendsymbols"><g class="legendpoints"><path class="legendundefined" d="M6,6H-6V-6H6Z" transform="translate(20,0)" style="stroke-width: 0.5px; fill: rgb(199, 125, 255); fill-opacity: 1; stroke: rgb(229, 236, 246); stroke-opacity: 1;"/></g></g></g><rect class="legendtoggle" x="0" y="-9.5" width="196.09375" height="19" style="fill: rgb(0, 0, 0); fill-opacity: 0;"/></g><g class="traces" transform="translate(0,147.5)" style="opacity: 1;"><text class="legendtext" text-anchor="start" x="40" y="4.680000000000001" style="font-family: Helvetica; font-size: 12px; fill: rgb(51, 51, 51); fill-opacity: 1; white-space: pre;">mqn k10 softsub AL3 Density</text><g class="layers" style="opacity: 1;"><g class="legendfill"/><g class="legendlines"><path class="js-line" d="M5,0h30" style="fill: none; stroke: rgb(123, 44, 191); stroke-opacity: 1; stroke-width: 2px;"/></g><g class="legendsymbols"><g class="legendpoints"/></g></g><rect class="legendtoggle" x="0" y="-9.5" width="196.09375" height="19" style="fill: rgb(0, 0, 0); fill-opacity: 0;"/></g><g class="traces" transform="translate(0,166.5)" style="opacity: 1;"><text class="legendtext" text-anchor="start" x="40" y="4.680000000000001" style="font-family: Helvetica; font-size: 12px; fill: rgb(51, 51, 51); fill-opacity: 1; white-space: pre;">mqn k10 softsub AL4</text><g class="layers" style="opacity: 0.6;"><g class="legendfill"/><g class="legendlines"/><g class="legendsymbols"><g class="legendpoints"><path class="legendundefined" d="M6,6H-6V-6H6Z" transform="translate(20,0)" style="stroke-width: 0.5px; fill: rgb(112, 224, 0); fill-opacity: 1; stroke: rgb(229, 236, 246); stroke-opacity: 1;"/></g></g></g><rect class="legendtoggle" x="0" y="-9.5" width="196.09375" height="19" style="fill: rgb(0, 0, 0); fill-opacity: 0;"/></g><g class="traces" transform="translate(0,185.5)" style="opacity: 1;"><text class="legendtext" text-anchor="start" x="40" y="4.680000000000001" style="font-family: Helvetica; font-size: 12px; fill: rgb(51, 51, 51); fill-opacity: 1; white-space: pre;">mqn k10 softsub AL4 Density</text><g class="layers" style="opacity: 1;"><g class="legendfill"/><g class="legendlines"><path class="js-line" d="M5,0h30" style="fill: none; stroke: rgb(0, 128, 0); stroke-opacity: 1; stroke-width: 2px;"/></g><g class="legendsymbols"><g class="legendpoints"/></g></g><rect class="legendtoggle" x="0" y="-9.5" width="196.09375" height="19" style="fill: rgb(0, 0, 0); fill-opacity: 0;"/></g></g></g><rect class="scrollbar" rx="20" ry="3" width="0" height="0" x="0" y="0" style="fill: rgb(128, 139, 164); fill-opacity: 1;"/></g><g class="g-gtitle"><text class="gtitle" x="640" y="30" text-anchor="middle" dy="0.7em" style="font-family: Helvetica; font-size: 20px; fill: rgb(51, 51, 51); opacity: 1; font-weight: normal; white-space: pre;">Distribution of ligand scores based on DiffDock Poses</text></g><g class="g-xtitle"><text class="xtitle" x="548" y="587.70625" text-anchor="middle" style="font-family: Helvetica; font-size: 14px; fill: rgb(51, 51, 51); opacity: 1; font-weight: normal; white-space: pre;">Prolif Score</text></g><g class="g-ytitle"><text class="ytitle" transform="rotate(-90,13.934375000000003,297.5)" x="13.934375000000003" y="297.5" text-anchor="middle" style="font-family: Helvetica; font-size: 14px; fill: rgb(51, 51, 51); opacity: 1; font-weight: normal; white-space: pre;">Rel. Frequency</text></g><g class="annotation" data-index="0" style="opacity: 1;"><g class="annotation-text-g" transform="rotate(0,672.6999999999999,60.00000000000002)"><g class="cursor-pointer" transform="translate(349,50)"><rect class="bg" x="0.5" y="0.5" width="646" height="19" style="stroke-width: 1px; stroke: rgb(0, 0, 0); stroke-opacity: 0; fill: rgb(0, 0, 0); fill-opacity: 0;"/><text class="annotation-text" text-anchor="middle" x="323.25" y="15" style="font-family: Helvetica; font-size: 14px; fill: rgb(51, 51, 51); fill-opacity: 1; white-space: pre;">mqn k10 baseline: % > threshold = 37.4, Q25 = 06.0, Q50 = 09.0, Mean = 09.5, Q75 = 12.5, max = 34.5</text></g></g></g><g class="annotation" data-index="1" style="opacity: 1;"><g class="annotation-text-g" transform="rotate(0,662.1999999999999,79.80000000000004)"><g class="cursor-pointer" transform="translate(328,70)"><rect class="bg" x="0.5" y="0.5" width="667" height="19" style="stroke-width: 1px; stroke: rgb(0, 0, 0); stroke-opacity: 0; fill: rgb(0, 0, 0); fill-opacity: 0;"/><text class="annotation-text" text-anchor="middle" x="334.140625" y="15" style="font-family: Helvetica; font-size: 14px; fill: rgb(51, 51, 51); fill-opacity: 1; white-space: pre;">mqn k10 softsub AL1: % > threshold = 44.5, Q25 = 07.0, Q50 = 10.0, Mean = 10.3, Q75 = 13.5, max = 39.0</text></g></g></g><g class="annotation" data-index="2" style="opacity: 1;"><g class="annotation-text-g" transform="rotate(0,662.1999999999999,99.6)"><g class="cursor-pointer" transform="translate(328,90)"><rect class="bg" x="0.5" y="0.5" width="667" height="19" style="stroke-width: 1px; stroke: rgb(0, 0, 0); stroke-opacity: 0; fill: rgb(0, 0, 0); fill-opacity: 0;"/><text class="annotation-text" text-anchor="middle" x="334.140625" y="15" style="font-family: Helvetica; font-size: 14px; fill: rgb(51, 51, 51); fill-opacity: 1; white-space: pre;">mqn k10 softsub AL2: % > threshold = 40.1, Q25 = 05.0, Q50 = 09.2, Mean = 09.0, Q75 = 13.5, max = 31.5</text></g></g></g><g class="annotation" data-index="3" style="opacity: 1;"><g class="annotation-text-g" transform="rotate(0,662.1999999999999,119.40000000000003)"><g class="cursor-pointer" transform="translate(328,109)"><rect class="bg" x="0.5" y="0.5" width="667" height="19" style="stroke-width: 1px; stroke: rgb(0, 0, 0); stroke-opacity: 0; fill: rgb(0, 0, 0); fill-opacity: 0;"/><text class="annotation-text" text-anchor="middle" x="334.140625" y="15" style="font-family: Helvetica; font-size: 14px; fill: rgb(51, 51, 51); fill-opacity: 1; white-space: pre;">mqn k10 softsub AL3: % > threshold = 40.5, Q25 = 05.0, Q50 = 09.0, Mean = 09.3, Q75 = 13.1, max = 30.0</text></g></g></g><g class="annotation" data-index="4" style="opacity: 1;"><g class="annotation-text-g" transform="rotate(0,662.1999999999999,139.20000000000005)"><g class="cursor-pointer" transform="translate(328,129)"><rect class="bg" x="0.5" y="0.5" width="667" height="19" style="stroke-width: 1px; stroke: rgb(0, 0, 0); stroke-opacity: 0; fill: rgb(0, 0, 0); fill-opacity: 0;"/><text class="annotation-text" text-anchor="middle" x="334.140625" y="15" style="font-family: Helvetica; font-size: 14px; fill: rgb(51, 51, 51); fill-opacity: 1; white-space: pre;">mqn k10 softsub AL4: % > threshold = 44.5, Q25 = 06.0, Q50 = 10.0, Mean = 09.9, Q75 = 13.5, max = 41.0</text></g></g></g></g></svg>