<svg class="main-svg" xmlns="http://www.w3.org/2000/svg" xmlns:xlink="http://www.w3.org/1999/xlink" width="1280" height="600" style="" viewBox="0 0 1280 600"><rect x="0" y="0" width="1280" height="600" style="fill: rgb(255, 255, 255); fill-opacity: 1;"/><defs id="defs-dc3df2"><g class="clips"><clipPath id="clipdc3df2xyplot" class="plotclip"><rect width="1126" height="448"/></clipPath><clipPath class="axesclip" id="clipdc3df2x"><rect x="104" y="0" width="1126" height="600"/></clipPath><clipPath class="axesclip" id="clipdc3df2y"><rect x="0" y="60" width="1280" height="448"/></clipPath><clipPath class="axesclip" id="clipdc3df2xy"><rect x="104" y="60" width="1126" height="448"/></clipPath></g><g class="gradients"/><g class="patterns"/></defs><g class="bglayer"/><g class="layer-below"><g class="imagelayer"/><g class="shapelayer"/></g><g class="cartesianlayer"><g class="subplot xy"><g class="layer-subplot"><g class="shapelayer"/><g class="imagelayer"/></g><g class="minor-gridlayer"><g class="x"/><g class="y"/></g><g class="gridlayer"><g class="x"/><g class="y"/></g><g class="zerolinelayer"/><path class="xlines-below"/><path class="ylines-below"/><g class="overlines-below"/><g class="xaxislayer-below"/><g class="yaxislayer-below"/><g class="overaxes-below"/><g class="plot" transform="translate(104,60)" clip-path="url(#clipdc3df2xyplot)"><g class="scatterlayer mlayer"><g class="trace scatter traceaef4f4" style="stroke-miterlimit: 2;"><g class="fills"><g><path class="js-fill" d="M947.49,448L0,448L0,350.28L9.52,342.79L14.28,340.3L23.81,337.28L28.57,336.42L42.85,333.97L47.61,332.53L57.13,327.82L61.9,324.35L71.42,315L76.18,309.13L85.7,295.22L90.46,287.31L104.75,260.56L109.51,250.88L152.36,161.62L157.12,152.93L171.4,129.93L176.17,123.36L190.45,106.94L195.21,102.47L209.49,91.64L214.26,88.81L228.54,82.52L233.3,81.22L242.82,79.98L247.58,80.12L257.11,82.14L261.87,84.05L271.39,89.71L276.15,93.4L290.44,107.37L295.2,112.78L314.24,136.72L319,143.08L352.33,189.68L357.09,196.46L399.94,255.75L404.71,262.13L442.8,311.61L447.56,317.4L466.6,338.98L471.36,343.92L490.41,362.06L495.17,366.29L528.5,393.97L533.26,397.55L547.54,407.17L552.3,409.92L566.59,416.62L571.35,418.36L585.63,422.31L590.39,423.29L618.96,427.45L623.72,428.1L652.29,433.18L657.05,434.21L690.38,440.9L695.14,441.58L718.95,443.64L723.71,443.84L833.22,446.6L837.98,446.64L876.07,445.78L880.83,445.57L928.44,444.57L933.2,444.66L947.49,445.12" style="fill: rgb(0, 0, 0); fill-opacity: 0.2; stroke-width: 0;"/></g></g><g class="errorbars"/><g class="lines"><path class="js-line" d="M0,350.28L9.52,342.79L14.28,340.3L23.81,337.28L28.57,336.42L42.85,333.97L47.61,332.53L57.13,327.82L61.9,324.35L71.42,315L76.18,309.13L85.7,295.22L90.46,287.31L104.75,260.56L109.51,250.88L152.36,161.62L157.12,152.93L171.4,129.93L176.17,123.36L190.45,106.94L195.21,102.47L209.49,91.64L214.26,88.81L228.54,82.52L233.3,81.22L242.82,79.98L247.58,80.12L257.11,82.14L261.87,84.05L271.39,89.71L276.15,93.4L290.44,107.37L295.2,112.78L314.24,136.72L319,143.08L352.33,189.68L357.09,196.46L399.94,255.75L404.71,262.13L442.8,311.61L447.56,317.4L466.6,338.98L471.36,343.92L490.41,362.06L495.17,366.29L528.5,393.97L533.26,397.55L547.54,407.17L552.3,409.92L566.59,416.62L571.35,418.36L585.63,422.31L590.39,423.29L618.96,427.45L623.72,428.1L652.29,433.18L657.05,434.21L690.38,440.9L695.14,441.58L718.95,443.64L723.71,443.84L833.22,446.6L837.98,446.64L876.07,445.78L880.83,445.57L928.44,444.57L933.2,444.66L947.49,445.12" style="vector-effect: none; fill: none; stroke: rgb(0, 0, 0); stroke-opacity: 0.8; stroke-width: 4px; opacity: 1;"/></g><g class="points"/><g class="text"/></g><g class="trace scatter traceb54a39" style="stroke-miterlimit: 2;"><g class="fills"><g><path class="js-fill" d="M1071.07,448L0,448L0,340.81L5.38,339.42L10.76,339.52L16.15,340.98L21.53,343.54L37.68,354.58L43.06,358.19L53.82,363.29L59.21,364.28L64.59,364.01L69.97,362.39L75.35,359.42L80.73,355.11L91.5,342.91L96.88,335.27L113.03,308.05L118.41,298.01L150.7,234.14L156.09,223.31L188.38,160.27L193.76,150.57L209.91,124.09L215.29,116.3L226.06,102.54L231.44,96.64L242.2,87.02L247.58,83.38L258.35,78.64L263.73,77.63L274.5,78.49L279.88,80.38L290.64,87.03L296.03,91.67L306.79,103.16L312.17,109.78L333.7,139.21L339.08,146.79L409.05,245.61L414.44,253.48L435.96,283.49L441.35,290.45L457.49,309.71L462.88,315.57L479.02,331.56L484.4,336.4L505.93,353.79L511.32,357.74L548.99,383.62L554.37,387.23L586.67,407.91L592.05,410.94L608.2,418.76L613.58,420.85L629.73,425.43L635.11,426.41L651.26,428.08L656.64,428.33L694.31,430.23L699.7,430.84L758.9,438.45L764.28,438.73L828.87,441.58L834.25,442.06L893.46,446.76L898.84,446.99L941.9,447.68L947.28,447.65L1071.07,446.24" style="fill: rgb(0, 106, 113); fill-opacity: 0.2; stroke-width: 0;"/></g></g><g class="errorbars"/><g class="lines"><path class="js-line" d="M0,340.81L5.38,339.42L10.76,339.52L16.15,340.98L21.53,343.54L37.68,354.58L43.06,358.19L53.82,363.29L59.21,364.28L64.59,364.01L69.97,362.39L75.35,359.42L80.73,355.11L91.5,342.91L96.88,335.27L113.03,308.05L118.41,298.01L150.7,234.14L156.09,223.31L188.38,160.27L193.76,150.57L209.91,124.09L215.29,116.3L226.06,102.54L231.44,96.64L242.2,87.02L247.58,83.38L258.35,78.64L263.73,77.63L274.5,78.49L279.88,80.38L290.64,87.03L296.03,91.67L306.79,103.16L312.17,109.78L333.7,139.21L339.08,146.79L409.05,245.61L414.44,253.48L435.96,283.49L441.35,290.45L457.49,309.71L462.88,315.57L479.02,331.56L484.4,336.4L505.93,353.79L511.32,357.74L548.99,383.62L554.37,387.23L586.67,407.91L592.05,410.94L608.2,418.76L613.58,420.85L629.73,425.43L635.11,426.41L651.26,428.08L656.64,428.33L694.31,430.23L699.7,430.84L758.9,438.45L764.28,438.73L828.87,441.58L834.25,442.06L893.46,446.76L898.84,446.99L941.9,447.68L947.28,447.65L1071.07,446.24" style="vector-effect: none; fill: none; stroke: rgb(0, 106, 113); stroke-opacity: 0.8; stroke-width: 4px; opacity: 1;"/></g><g class="points"/><g class="text"/></g><g class="trace scatter trace9d6e39" style="stroke-miterlimit: 2;"><g class="fills"><g><path class="js-fill" d="M865.1,448L0,448L0,221.27L4.35,220.47L8.69,221.65L13.04,224.71L17.39,229.46L26.08,243.12L30.43,251.44L52.17,295.57L56.51,302.94L65.21,314.62L69.56,318.71L73.9,321.57L78.25,323.2L82.6,323.61L86.94,322.88L95.64,318.32L99.99,314.68L108.68,305.27L113.03,299.72L130.42,274.36L134.76,267.7L156.5,235.97L160.85,230.27L173.89,214.86L178.24,210.3L191.28,198.21L195.63,194.64L213.01,182.05L217.36,179.24L234.75,169.13L239.1,166.95L252.14,161.55L256.49,160.22L269.53,158.03L273.88,157.95L286.92,159.73L291.26,160.96L304.31,166.3L308.65,168.52L326.04,178.85L330.39,181.68L356.47,200.23L360.82,203.7L378.21,219.35L382.56,223.78L399.94,243.6L404.29,249L456.46,314.47L460.81,319.26L482.54,341L486.89,344.94L508.63,362.83L512.97,366.04L530.36,377.69L534.71,380.3L556.44,391.61L560.79,393.56L586.88,403.83L591.22,405.37L634.69,419.42L639.04,420.69L673.82,429.57L678.17,430.51L712.94,437.03L717.29,437.73L752.07,442.23L756.42,442.65L795.54,445.1L799.89,445.26L865.1,446.46" style="fill: rgb(232, 93, 4); fill-opacity: 0.2; stroke-width: 0;"/></g></g><g class="errorbars"/><g class="lines"><path class="js-line" d="M0,221.27L4.35,220.47L8.69,221.65L13.04,224.71L17.39,229.46L26.08,243.12L30.43,251.44L52.17,295.57L56.51,302.94L65.21,314.62L69.56,318.71L73.9,321.57L78.25,323.2L82.6,323.61L86.94,322.88L95.64,318.32L99.99,314.68L108.68,305.27L113.03,299.72L130.42,274.36L134.76,267.7L156.5,235.97L160.85,230.27L173.89,214.86L178.24,210.3L191.28,198.21L195.63,194.64L213.01,182.05L217.36,179.24L234.75,169.13L239.1,166.95L252.14,161.55L256.49,160.22L269.53,158.03L273.88,157.95L286.92,159.73L291.26,160.96L304.31,166.3L308.65,168.52L326.04,178.85L330.39,181.68L356.47,200.23L360.82,203.7L378.21,219.35L382.56,223.78L399.94,243.6L404.29,249L456.46,314.47L460.81,319.26L482.54,341L486.89,344.94L508.63,362.83L512.97,366.04L530.36,377.69L534.71,380.3L556.44,391.61L560.79,393.56L586.88,403.83L591.22,405.37L634.69,419.42L639.04,420.69L673.82,429.57L678.17,430.51L712.94,437.03L717.29,437.73L752.07,442.23L756.42,442.65L795.54,445.1L799.89,445.26L865.1,446.46" style="vector-effect: none; fill: none; stroke: rgb(232, 93, 4); stroke-opacity: 0.8; stroke-width: 4px; opacity: 1;"/></g><g class="points"/><g class="text"/></g><g class="trace scatter trace88dddc" style="stroke-miterlimit: 2;"><g class="fills"><g><path class="js-fill" d="M823.9,448L0,448L0,249.5L4.14,248.26L8.28,248.62L12.42,250.49L16.56,253.76L24.84,263.72L28.98,269.98L53.82,309.84L57.96,314.79L66.24,321.85L70.38,323.81L74.52,324.69L78.66,324.49L86.94,321.02L91.08,317.89L99.37,309.26L103.51,303.96L115.93,285.28L120.07,278.45L153.19,223.43L157.33,217.26L173.89,195.34L178.03,190.6L190.45,178.12L194.59,174.51L207.01,165.15L211.15,162.46L227.71,153.58L231.85,151.78L248.41,146.33L252.55,145.45L264.97,144.19L269.11,144.29L281.53,146.36L285.67,147.68L298.1,153.58L302.24,156.18L314.66,165.81L318.8,169.56L335.36,186.67L339.5,191.34L389.18,247.68L393.32,251.93L463.7,321.44L467.84,325.3L484.4,339.44L488.55,342.6L505.11,353.79L509.25,356.29L592.05,403.85L596.19,405.93L616.89,414.87L621.03,416.35L641.73,422.57L645.87,423.62L678.99,430.59L683.14,431.33L720.4,436.92L724.54,437.42L774.22,442.21L778.36,442.55L823.9,445.52" style="fill: rgb(123, 44, 191); fill-opacity: 0.2; stroke-width: 0;"/></g></g><g class="errorbars"/><g class="lines"><path class="js-line" d="M0,249.5L4.14,248.26L8.28,248.62L12.42,250.49L16.56,253.76L24.84,263.72L28.98,269.98L53.82,309.84L57.96,314.79L66.24,321.85L70.38,323.81L74.52,324.69L78.66,324.49L86.94,321.02L91.08,317.89L99.37,309.26L103.51,303.96L115.93,285.28L120.07,278.45L153.19,223.43L157.33,217.26L173.89,195.34L178.03,190.6L190.45,178.12L194.59,174.51L207.01,165.15L211.15,162.46L227.71,153.58L231.85,151.78L248.41,146.33L252.55,145.45L264.97,144.19L269.11,144.29L281.53,146.36L285.67,147.68L298.1,153.58L302.24,156.18L314.66,165.81L318.8,169.56L335.36,186.67L339.5,191.34L389.18,247.68L393.32,251.93L463.7,321.44L467.84,325.3L484.4,339.44L488.55,342.6L505.11,353.79L509.25,356.29L592.05,403.85L596.19,405.93L616.89,414.87L621.03,416.35L641.73,422.57L645.87,423.62L678.99,430.59L683.14,431.33L720.4,436.92L724.54,437.42L774.22,442.21L778.36,442.55L823.9,445.52" style="vector-effect: none; fill: none; stroke: rgb(123, 44, 191); stroke-opacity: 0.8; stroke-width: 4px; opacity: 1;"/></g><g class="points"/><g class="text"/></g><g class="trace scatter trace2060e7" style="stroke-miterlimit: 2;"><g class="fills"><g><path class="js-fill" d="M1126,448L0,448L0,296.61L5.66,295.02L11.32,295.64L16.97,298.23L22.63,302.43L33.95,313.73L39.61,319.82L50.92,330.46L56.58,334.25L62.24,336.67L67.9,337.56L73.56,336.9L79.22,334.72L84.87,331.13L90.53,326.27L101.85,313.53L107.51,306.07L152.77,242.87L158.43,236.08L181.07,211.62L186.72,205.79L209.36,180.96L215.02,174.13L248.96,131.6L254.62,125.62L265.94,116.22L271.6,113.12L277.26,111.23L282.91,110.6L288.57,111.25L294.23,113.12L305.55,120.22L311.21,125.18L322.52,137.19L328.18,143.91L373.45,199.15L379.11,205.29L401.74,227.82L407.4,233.1L447.01,270.7L452.66,276.6L475.3,302.27L480.95,309.16L526.22,364.37L531.88,370.44L548.85,386.49L554.51,391.08L571.49,402.64L577.15,405.82L594.12,413.8L599.78,416.03L622.41,423.54L628.07,425.14L656.36,431.87L662.02,432.96L690.31,437.17L695.97,437.79L741.24,441.42L746.89,441.79L797.82,443.95L803.48,444.07L939.28,446.71L944.93,446.71L1097.71,447.03L1103.37,446.94L1126,446.76" style="fill: rgb(0, 128, 0); fill-opacity: 0.2; stroke-width: 0;"/></g></g><g class="errorbars"/><g class="lines"><path class="js-line" d="M0,296.61L5.66,295.02L11.32,295.64L16.97,298.23L22.63,302.43L33.95,313.73L39.61,319.82L50.92,330.46L56.58,334.25L62.24,336.67L67.9,337.56L73.56,336.9L79.22,334.72L84.87,331.13L90.53,326.27L101.85,313.53L107.51,306.07L152.77,242.87L158.43,236.08L181.07,211.62L186.72,205.79L209.36,180.96L215.02,174.13L248.96,131.6L254.62,125.62L265.94,116.22L271.6,113.12L277.26,111.23L282.91,110.6L288.57,111.25L294.23,113.12L305.55,120.22L311.21,125.18L322.52,137.19L328.18,143.91L373.45,199.15L379.11,205.29L401.74,227.82L407.4,233.1L447.01,270.7L452.66,276.6L475.3,302.27L480.95,309.16L526.22,364.37L531.88,370.44L548.85,386.49L554.51,391.08L571.49,402.64L577.15,405.82L594.12,413.8L599.78,416.03L622.41,423.54L628.07,425.14L656.36,431.87L662.02,432.96L690.31,437.17L695.97,437.79L741.24,441.42L746.89,441.79L797.82,443.95L803.48,444.07L939.28,446.71L944.93,446.71L1097.71,447.03L1103.37,446.94L1126,446.76" style="vector-effect: none; fill: none; stroke: rgb(0, 128, 0); stroke-opacity: 0.8; stroke-width: 4px; opacity: 1;"/></g><g class="points"/><g class="text"/></g></g></g><g class="overplot"/><path class="xlines-above crisp" d="M103,508.5H1230" style="fill: none; stroke-width: 1px; stroke: rgb(0, 0, 0); stroke-opacity: 1;"/><path class="ylines-above crisp" d="M103.5,60V508" style="fill: none; stroke-width: 1px; stroke: rgb(0, 0, 0); stroke-opacity: 1;"/><g class="overlines-above"/><g class="xaxislayer-above"><path class="xtick ticks crisp" d="M0,509v10" transform="translate(104,0)" style="stroke: rgb(68, 68, 68); stroke-opacity: 1; stroke-width: 2px;"/><path class="xtick ticks crisp" d="M0,509v10" transform="translate(241.32,0)" style="stroke: rgb(68, 68, 68); stroke-opacity: 1; stroke-width: 2px;"/><path class="xtick ticks crisp" d="M0,509v10" transform="translate(378.63,0)" style="stroke: rgb(68, 68, 68); stroke-opacity: 1; stroke-width: 2px;"/><path class="xtick ticks crisp" d="M0,509v10" transform="translate(515.95,0)" style="stroke: rgb(68, 68, 68); stroke-opacity: 1; stroke-width: 2px;"/><path class="xtick ticks crisp" d="M0,509v10" transform="translate(653.27,0)" style="stroke: rgb(68, 68, 68); stroke-opacity: 1; stroke-width: 2px;"/><path class="xtick ticks crisp" d="M0,509v10" transform="translate(790.59,0)" style="stroke: rgb(68, 68, 68); stroke-opacity: 1; stroke-width: 2px;"/><path class="xtick ticks crisp" d="M0,509v10" transform="translate(927.9,0)" style="stroke: rgb(68, 68, 68); stroke-opacity: 1; stroke-width: 2px;"/><path class="xtick ticks crisp" d="M0,509v10" transform="translate(1065.22,0)" style="stroke: rgb(68, 68, 68); stroke-opacity: 1; stroke-width: 2px;"/><path class="xtick ticks crisp" d="M0,509v10" transform="translate(1202.54,0)" style="stroke: rgb(68, 68, 68); stroke-opacity: 1; stroke-width: 2px;"/><g class="xtick"><text text-anchor="middle" x="0" y="547.8" transform="translate(104,0)" style="font-family: Helvetica; font-size: 24px; fill: rgb(51, 51, 51); fill-opacity: 1; white-space: pre; opacity: 1;">0</text></g><g class="xtick"><text text-anchor="middle" x="0" y="547.8" style="font-family: Helvetica; font-size: 24px; fill: rgb(51, 51, 51); fill-opacity: 1; white-space: pre; opacity: 1;" transform="translate(241.32,0)">5</text></g><g class="xtick"><text text-anchor="middle" x="0" y="547.8" style="font-family: Helvetica; font-size: 24px; fill: rgb(51, 51, 51); fill-opacity: 1; white-space: pre; opacity: 1;" transform="translate(378.63,0)">10</text></g><g class="xtick"><text text-anchor="middle" x="0" y="547.8" style="font-family: Helvetica; font-size: 24px; fill: rgb(51, 51, 51); fill-opacity: 1; white-space: pre; opacity: 1;" transform="translate(515.95,0)">15</text></g><g class="xtick"><text text-anchor="middle" x="0" y="547.8" style="font-family: Helvetica; font-size: 24px; fill: rgb(51, 51, 51); fill-opacity: 1; white-space: pre; opacity: 1;" transform="translate(653.27,0)">20</text></g><g class="xtick"><text text-anchor="middle" x="0" y="547.8" style="font-family: Helvetica; font-size: 24px; fill: rgb(51, 51, 51); fill-opacity: 1; white-space: pre; opacity: 1;" transform="translate(790.59,0)">25</text></g><g class="xtick"><text text-anchor="middle" x="0" y="547.8" style="font-family: Helvetica; font-size: 24px; fill: rgb(51, 51, 51); fill-opacity: 1; white-space: pre; opacity: 1;" transform="translate(927.9,0)">30</text></g><g class="xtick"><text text-anchor="middle" x="0" y="547.8" style="font-family: Helvetica; font-size: 24px; fill: rgb(51, 51, 51); fill-opacity: 1; white-space: pre; opacity: 1;" transform="translate(1065.22,0)">35</text></g><g class="xtick"><text text-anchor="middle" x="0" y="547.8" style="font-family: Helvetica; font-size: 24px; fill: rgb(51, 51, 51); fill-opacity: 1; white-space: pre; opacity: 1;" transform="translate(1202.54,0)">40</text></g></g><g class="yaxislayer-above"><path class="ytick ticks crisp" d="M103,0h-10" transform="translate(0,508)" style="stroke: rgb(68, 68, 68); stroke-opacity: 1; stroke-width: 2px;"/><path class="ytick ticks crisp" d="M103,0h-10" transform="translate(0,462.37)" style="stroke: rgb(68, 68, 68); stroke-opacity: 1; stroke-width: 2px;"/><path class="ytick ticks crisp" d="M103,0h-10" transform="translate(0,416.73)" style="stroke: rgb(68, 68, 68); stroke-opacity: 1; stroke-width: 2px;"/><path class="ytick ticks crisp" d="M103,0h-10" transform="translate(0,371.1)" style="stroke: rgb(68, 68, 68); stroke-opacity: 1; stroke-width: 2px;"/><path class="ytick ticks crisp" d="M103,0h-10" transform="translate(0,325.47)" style="stroke: rgb(68, 68, 68); stroke-opacity: 1; stroke-width: 2px;"/><path class="ytick ticks crisp" d="M103,0h-10" transform="translate(0,279.84000000000003)" style="stroke: rgb(68, 68, 68); stroke-opacity: 1; stroke-width: 2px;"/><path class="ytick ticks crisp" d="M103,0h-10" transform="translate(0,234.2)" style="stroke: rgb(68, 68, 68); stroke-opacity: 1; stroke-width: 2px;"/><path class="ytick ticks crisp" d="M103,0h-10" transform="translate(0,188.57)" style="stroke: rgb(68, 68, 68); stroke-opacity: 1; stroke-width: 2px;"/><path class="ytick ticks crisp" d="M103,0h-10" transform="translate(0,142.94)" style="stroke: rgb(68, 68, 68); stroke-opacity: 1; stroke-width: 2px;"/><path class="ytick ticks crisp" d="M103,0h-10" transform="translate(0,97.3)" style="stroke: rgb(68, 68, 68); stroke-opacity: 1; stroke-width: 2px;"/><g class="ytick"><text text-anchor="end" x="88.2" y="8.399999999999999" transform="translate(0,508)" style="font-family: Helvetica; font-size: 24px; fill: rgb(51, 51, 51); fill-opacity: 1; white-space: pre; opacity: 1;">0</text></g><g class="ytick"><text text-anchor="end" x="88.2" y="8.399999999999999" style="font-family: Helvetica; font-size: 24px; fill: rgb(51, 51, 51); fill-opacity: 1; white-space: pre; opacity: 1;" transform="translate(0,462.37)">0.01</text></g><g class="ytick"><text text-anchor="end" x="88.2" y="8.399999999999999" style="font-family: Helvetica; font-size: 24px; fill: rgb(51, 51, 51); fill-opacity: 1; white-space: pre; opacity: 1;" transform="translate(0,416.73)">0.02</text></g><g class="ytick"><text text-anchor="end" x="88.2" y="8.399999999999999" style="font-family: Helvetica; font-size: 24px; fill: rgb(51, 51, 51); fill-opacity: 1; white-space: pre; opacity: 1;" transform="translate(0,371.1)">0.03</text></g><g class="ytick"><text text-anchor="end" x="88.2" y="8.399999999999999" style="font-family: Helvetica; font-size: 24px; fill: rgb(51, 51, 51); fill-opacity: 1; white-space: pre; opacity: 1;" transform="translate(0,325.47)">0.04</text></g><g class="ytick"><text text-anchor="end" x="88.2" y="8.399999999999999" style="font-family: Helvetica; font-size: 24px; fill: rgb(51, 51, 51); fill-opacity: 1; white-space: pre; opacity: 1;" transform="translate(0,279.84000000000003)">0.05</text></g><g class="ytick"><text text-anchor="end" x="88.2" y="8.399999999999999" style="font-family: Helvetica; font-size: 24px; fill: rgb(51, 51, 51); fill-opacity: 1; white-space: pre; opacity: 1;" transform="translate(0,234.2)">0.06</text></g><g class="ytick"><text text-anchor="end" x="88.2" y="8.399999999999999" style="font-family: Helvetica; font-size: 24px; fill: rgb(51, 51, 51); fill-opacity: 1; white-space: pre; opacity: 1;" transform="translate(0,188.57)">0.07</text></g><g class="ytick"><text text-anchor="end" x="88.2" y="8.399999999999999" style="font-family: Helvetica; font-size: 24px; fill: rgb(51, 51, 51); fill-opacity: 1; white-space: pre; opacity: 1;" transform="translate(0,142.94)">0.08</text></g><g class="ytick"><text text-anchor="end" x="88.2" y="8.399999999999999" style="font-family: Helvetica; font-size: 24px; fill: rgb(51, 51, 51); fill-opacity: 1; white-space: pre; opacity: 1;" transform="translate(0,97.3)">0.09</text></g></g><g class="overaxes-above"/></g></g><g class="polarlayer"/><g class="smithlayer"/><g class="ternarylayer"/><g class="geolayer"/><g class="funnelarealayer"/><g class="pielayer"/><g class="iciclelayer"/><g class="treemaplayer"/><g class="sunburstlayer"/><g class="glimages"/><defs id="topdefs-dc3df2"><g class="clips"/><clipPath id="legenddc3df2"><rect width="129" height="233" x="0" y="0"/></clipPath></defs><g class="layer-above"><g class="imagelayer"/><g class="shapelayer"><g class="shape-group" data-index="0" clip-path="url(#clipdc3df2x)"><path data-index="0" fill-rule="evenodd" d="M406.1,508L406.1,60" style="opacity: 1; stroke: rgb(0, 0, 0); stroke-opacity: 0.6; fill: rgb(0, 0, 0); fill-opacity: 0; stroke-dasharray: 12px, 12px; stroke-width: 4px;"/></g></g></g><g class="infolayer"><g class="legend" pointer-events="all" transform="translate(1117.4,145.09999999999997)"><rect class="bg" shape-rendering="crispEdges" width="129" height="233" x="0" y="0" style="stroke: rgb(68, 68, 68); stroke-opacity: 1; fill: rgb(255, 255, 255); fill-opacity: 1; stroke-width: 0px;"/><g class="scrollbox" transform="" clip-path="url(#legenddc3df2)"><g class="groups"><g class="traces" transform="translate(0,27.3)" style="opacity: 1;"><text class="legendtext" text-anchor="start" x="40" y="12.48" style="font-family: Helvetica; font-size: 32px; fill: rgb(51, 51, 51); fill-opacity: 1; white-space: pre;">PT</text><g class="layers"><g class="legendfill"><path class="js-fill" d="M5,-2h30v6h-30z" style="stroke-width: 0; fill: rgb(0, 0, 0); fill-opacity: 0.2;"/></g><g class="legendlines"><path class="js-line" d="M5,-2h30" style="fill: none; stroke: rgb(0, 0, 0); stroke-opacity: 0.8; stroke-width: 4px;"/></g><g class="legendsymbols"><g class="legendpoints"/></g></g><rect class="legendtoggle" x="0" y="-22.3" width="123.625" height="44.6" style="fill: rgb(0, 0, 0); fill-opacity: 0;"/></g><g class="traces" transform="translate(0,71.9)" style="opacity: 1;"><text class="legendtext" text-anchor="start" x="40" y="12.48" style="font-family: Helvetica; font-size: 32px; fill: rgb(51, 51, 51); fill-opacity: 1; white-space: pre;">AL #1</text><g class="layers"><g class="legendfill"><path class="js-fill" d="M5,-2h30v6h-30z" style="stroke-width: 0; fill: rgb(0, 106, 113); fill-opacity: 0.2;"/></g><g class="legendlines"><path class="js-line" d="M5,-2h30" style="fill: none; stroke: rgb(0, 106, 113); stroke-opacity: 0.8; stroke-width: 4px;"/></g><g class="legendsymbols"><g class="legendpoints"/></g></g><rect class="legendtoggle" x="0" y="-22.3" width="123.625" height="44.6" style="fill: rgb(0, 0, 0); fill-opacity: 0;"/></g><g class="traces" transform="translate(0,116.5)" style="opacity: 1;"><text class="legendtext" text-anchor="start" x="40" y="12.48" style="font-family: Helvetica; font-size: 32px; fill: rgb(51, 51, 51); fill-opacity: 1; white-space: pre;">AL #2</text><g class="layers"><g class="legendfill"><path class="js-fill" d="M5,-2h30v6h-30z" style="stroke-width: 0; fill: rgb(232, 93, 4); fill-opacity: 0.2;"/></g><g class="legendlines"><path class="js-line" d="M5,-2h30" style="fill: none; stroke: rgb(232, 93, 4); stroke-opacity: 0.8; stroke-width: 4px;"/></g><g class="legendsymbols"><g class="legendpoints"/></g></g><rect class="legendtoggle" x="0" y="-22.3" width="123.625" height="44.6" style="fill: rgb(0, 0, 0); fill-opacity: 0;"/></g><g class="traces" transform="translate(0,161.10000000000002)" style="opacity: 1;"><text class="legendtext" text-anchor="start" x="40" y="12.48" style="font-family: Helvetica; font-size: 32px; fill: rgb(51, 51, 51); fill-opacity: 1; white-space: pre;">AL #3</text><g class="layers"><g class="legendfill"><path class="js-fill" d="M5,-2h30v6h-30z" style="stroke-width: 0; fill: rgb(123, 44, 191); fill-opacity: 0.2;"/></g><g class="legendlines"><path class="js-line" d="M5,-2h30" style="fill: none; stroke: rgb(123, 44, 191); stroke-opacity: 0.8; stroke-width: 4px;"/></g><g class="legendsymbols"><g class="legendpoints"/></g></g><rect class="legendtoggle" x="0" y="-22.3" width="123.625" height="44.6" style="fill: rgb(0, 0, 0); fill-opacity: 0;"/></g><g class="traces" transform="translate(0,205.70000000000002)" style="opacity: 1;"><text class="legendtext" text-anchor="start" x="40" y="12.48" style="font-family: Helvetica; font-size: 32px; fill: rgb(51, 51, 51); fill-opacity: 1; white-space: pre;">AL #4</text><g class="layers"><g class="legendfill"><path class="js-fill" d="M5,-2h30v6h-30z" style="stroke-width: 0; fill: rgb(0, 128, 0); fill-opacity: 0.2;"/></g><g class="legendlines"><path class="js-line" d="M5,-2h30" style="fill: none; stroke: rgb(0, 128, 0); stroke-opacity: 0.8; stroke-width: 4px;"/></g><g class="legendsymbols"><g class="legendpoints"/></g></g><rect class="legendtoggle" x="0" y="-22.3" width="123.625" height="44.6" style="fill: rgb(0, 0, 0); fill-opacity: 0;"/></g></g></g><rect class="scrollbar" rx="20" ry="3" width="0" height="0" x="0" y="0" style="fill: rgb(128, 139, 164); fill-opacity: 1;"/></g><g class="g-gtitle"><text class="gtitle" x="640" y="18" text-anchor="middle" dy="0.7em" style="font-family: Helvetica; font-size: 36px; fill: rgb(51, 51, 51); opacity: 1; font-weight: normal; white-space: pre;"><tspan style="font-weight:bold">42 MQ-based space, 10 clusters, softsub selection</tspan></text></g><g class="g-xtitle"><text class="xtitle" x="667" y="587.9125" text-anchor="middle" style="font-family: Helvetica; font-size: 28px; fill: rgb(51, 51, 51); opacity: 1; font-weight: normal; white-space: pre;">Attractive Interaction Score</text></g><g class="g-ytitle" transform="translate(13.615234375,0)"><text class="ytitle" transform="rotate(-90,12.384375000000006,284)" x="12.384375000000006" y="284" text-anchor="middle" style="font-family: Helvetica; font-size: 28px; fill: rgb(51, 51, 51); opacity: 1; font-weight: normal; white-space: pre;">Relative Frequency</text></g><g class="annotation" data-index="0" style="opacity: 1;"><g class="annotation-text-g" transform="rotate(0,515.95,133.59999999999997)"><g class="cursor-pointer" transform="translate(436,118)"><rect class="bg" x="0.5" y="0.5" width="159" height="31" style="stroke-width: 1px; stroke: rgb(0, 0, 0); stroke-opacity: 0; fill: rgb(0, 0, 0); fill-opacity: 0;"/><text class="annotation-text" text-anchor="middle" x="80.03125" y="24" style="font-family: Helvetica; font-size: 24px; fill: rgb(0, 0, 0); fill-opacity: 0.6; white-space: pre;"><tspan style="font-weight:bold">Threshold: 11</tspan></text></g></g></g></g></svg>